%TF.GenerationSoftware,KiCad,Pcbnew,9.0.6*%
%TF.CreationDate,2026-02-25T21:50:57+01:00*%
%TF.ProjectId,ESP32_DALITester,45535033-325f-4444-914c-495465737465,rev?*%
%TF.SameCoordinates,Original*%
%TF.FileFunction,Legend,Top*%
%TF.FilePolarity,Positive*%
%FSLAX46Y46*%
G04 Gerber Fmt 4.6, Leading zero omitted, Abs format (unit mm)*
G04 Created by KiCad (PCBNEW 9.0.6) date 2026-02-25 21:50:57*
%MOMM*%
%LPD*%
G01*
G04 APERTURE LIST*
%ADD10C,0.500000*%
%ADD11C,0.200000*%
%ADD12C,0.100000*%
%ADD13C,0.150000*%
%ADD14C,0.120000*%
G04 APERTURE END LIST*
D10*
X24260000Y-17430000D02*
X24165000Y-39050000D01*
X27510000Y-7350000D02*
X27510000Y-11950000D01*
X27510000Y-11950000D02*
X24260000Y-17430000D01*
D11*
X13426992Y-33426196D02*
X13426992Y-31926196D01*
X13426992Y-31926196D02*
X13784135Y-31926196D01*
X13784135Y-31926196D02*
X13998421Y-31997625D01*
X13998421Y-31997625D02*
X14141278Y-32140482D01*
X14141278Y-32140482D02*
X14212707Y-32283339D01*
X14212707Y-32283339D02*
X14284135Y-32569053D01*
X14284135Y-32569053D02*
X14284135Y-32783339D01*
X14284135Y-32783339D02*
X14212707Y-33069053D01*
X14212707Y-33069053D02*
X14141278Y-33211910D01*
X14141278Y-33211910D02*
X13998421Y-33354768D01*
X13998421Y-33354768D02*
X13784135Y-33426196D01*
X13784135Y-33426196D02*
X13426992Y-33426196D01*
X14855564Y-32997625D02*
X15569850Y-32997625D01*
X14712707Y-33426196D02*
X15212707Y-31926196D01*
X15212707Y-31926196D02*
X15712707Y-33426196D01*
X16926992Y-33426196D02*
X16212706Y-33426196D01*
X16212706Y-33426196D02*
X16212706Y-31926196D01*
X17426992Y-33426196D02*
X17426992Y-31926196D01*
X19784135Y-32640482D02*
X19998421Y-32711910D01*
X19998421Y-32711910D02*
X20069850Y-32783339D01*
X20069850Y-32783339D02*
X20141278Y-32926196D01*
X20141278Y-32926196D02*
X20141278Y-33140482D01*
X20141278Y-33140482D02*
X20069850Y-33283339D01*
X20069850Y-33283339D02*
X19998421Y-33354768D01*
X19998421Y-33354768D02*
X19855564Y-33426196D01*
X19855564Y-33426196D02*
X19284135Y-33426196D01*
X19284135Y-33426196D02*
X19284135Y-31926196D01*
X19284135Y-31926196D02*
X19784135Y-31926196D01*
X19784135Y-31926196D02*
X19926993Y-31997625D01*
X19926993Y-31997625D02*
X19998421Y-32069053D01*
X19998421Y-32069053D02*
X20069850Y-32211910D01*
X20069850Y-32211910D02*
X20069850Y-32354768D01*
X20069850Y-32354768D02*
X19998421Y-32497625D01*
X19998421Y-32497625D02*
X19926993Y-32569053D01*
X19926993Y-32569053D02*
X19784135Y-32640482D01*
X19784135Y-32640482D02*
X19284135Y-32640482D01*
X21426993Y-32426196D02*
X21426993Y-33426196D01*
X20784135Y-32426196D02*
X20784135Y-33211910D01*
X20784135Y-33211910D02*
X20855564Y-33354768D01*
X20855564Y-33354768D02*
X20998421Y-33426196D01*
X20998421Y-33426196D02*
X21212707Y-33426196D01*
X21212707Y-33426196D02*
X21355564Y-33354768D01*
X21355564Y-33354768D02*
X21426993Y-33283339D01*
X22069850Y-33354768D02*
X22212707Y-33426196D01*
X22212707Y-33426196D02*
X22498421Y-33426196D01*
X22498421Y-33426196D02*
X22641278Y-33354768D01*
X22641278Y-33354768D02*
X22712707Y-33211910D01*
X22712707Y-33211910D02*
X22712707Y-33140482D01*
X22712707Y-33140482D02*
X22641278Y-32997625D01*
X22641278Y-32997625D02*
X22498421Y-32926196D01*
X22498421Y-32926196D02*
X22284136Y-32926196D01*
X22284136Y-32926196D02*
X22141278Y-32854768D01*
X22141278Y-32854768D02*
X22069850Y-32711910D01*
X22069850Y-32711910D02*
X22069850Y-32640482D01*
X22069850Y-32640482D02*
X22141278Y-32497625D01*
X22141278Y-32497625D02*
X22284136Y-32426196D01*
X22284136Y-32426196D02*
X22498421Y-32426196D01*
X22498421Y-32426196D02*
X22641278Y-32497625D01*
X10355564Y-35841112D02*
X10355564Y-34841112D01*
X10355564Y-34983969D02*
X10426993Y-34912541D01*
X10426993Y-34912541D02*
X10569850Y-34841112D01*
X10569850Y-34841112D02*
X10784136Y-34841112D01*
X10784136Y-34841112D02*
X10926993Y-34912541D01*
X10926993Y-34912541D02*
X10998422Y-35055398D01*
X10998422Y-35055398D02*
X10998422Y-35841112D01*
X10998422Y-35055398D02*
X11069850Y-34912541D01*
X11069850Y-34912541D02*
X11212707Y-34841112D01*
X11212707Y-34841112D02*
X11426993Y-34841112D01*
X11426993Y-34841112D02*
X11569850Y-34912541D01*
X11569850Y-34912541D02*
X11641279Y-35055398D01*
X11641279Y-35055398D02*
X11641279Y-35841112D01*
X12998422Y-35841112D02*
X12998422Y-35055398D01*
X12998422Y-35055398D02*
X12926993Y-34912541D01*
X12926993Y-34912541D02*
X12784136Y-34841112D01*
X12784136Y-34841112D02*
X12498422Y-34841112D01*
X12498422Y-34841112D02*
X12355564Y-34912541D01*
X12998422Y-35769684D02*
X12855564Y-35841112D01*
X12855564Y-35841112D02*
X12498422Y-35841112D01*
X12498422Y-35841112D02*
X12355564Y-35769684D01*
X12355564Y-35769684D02*
X12284136Y-35626826D01*
X12284136Y-35626826D02*
X12284136Y-35483969D01*
X12284136Y-35483969D02*
X12355564Y-35341112D01*
X12355564Y-35341112D02*
X12498422Y-35269684D01*
X12498422Y-35269684D02*
X12855564Y-35269684D01*
X12855564Y-35269684D02*
X12998422Y-35198255D01*
X13569850Y-34841112D02*
X13926993Y-35841112D01*
X14284136Y-34841112D02*
X13926993Y-35841112D01*
X13926993Y-35841112D02*
X13784136Y-36198255D01*
X13784136Y-36198255D02*
X13712707Y-36269684D01*
X13712707Y-36269684D02*
X13569850Y-36341112D01*
X15998421Y-34841112D02*
X15998421Y-35841112D01*
X15998421Y-34983969D02*
X16069850Y-34912541D01*
X16069850Y-34912541D02*
X16212707Y-34841112D01*
X16212707Y-34841112D02*
X16426993Y-34841112D01*
X16426993Y-34841112D02*
X16569850Y-34912541D01*
X16569850Y-34912541D02*
X16641279Y-35055398D01*
X16641279Y-35055398D02*
X16641279Y-35841112D01*
X17569850Y-35841112D02*
X17426993Y-35769684D01*
X17426993Y-35769684D02*
X17355564Y-35698255D01*
X17355564Y-35698255D02*
X17284136Y-35555398D01*
X17284136Y-35555398D02*
X17284136Y-35126826D01*
X17284136Y-35126826D02*
X17355564Y-34983969D01*
X17355564Y-34983969D02*
X17426993Y-34912541D01*
X17426993Y-34912541D02*
X17569850Y-34841112D01*
X17569850Y-34841112D02*
X17784136Y-34841112D01*
X17784136Y-34841112D02*
X17926993Y-34912541D01*
X17926993Y-34912541D02*
X17998422Y-34983969D01*
X17998422Y-34983969D02*
X18069850Y-35126826D01*
X18069850Y-35126826D02*
X18069850Y-35555398D01*
X18069850Y-35555398D02*
X17998422Y-35698255D01*
X17998422Y-35698255D02*
X17926993Y-35769684D01*
X17926993Y-35769684D02*
X17784136Y-35841112D01*
X17784136Y-35841112D02*
X17569850Y-35841112D01*
X18498422Y-34841112D02*
X19069850Y-34841112D01*
X18712707Y-34341112D02*
X18712707Y-35626826D01*
X18712707Y-35626826D02*
X18784136Y-35769684D01*
X18784136Y-35769684D02*
X18926993Y-35841112D01*
X18926993Y-35841112D02*
X19069850Y-35841112D01*
X20712707Y-35841112D02*
X20712707Y-34341112D01*
X20712707Y-34912541D02*
X20855565Y-34841112D01*
X20855565Y-34841112D02*
X21141279Y-34841112D01*
X21141279Y-34841112D02*
X21284136Y-34912541D01*
X21284136Y-34912541D02*
X21355565Y-34983969D01*
X21355565Y-34983969D02*
X21426993Y-35126826D01*
X21426993Y-35126826D02*
X21426993Y-35555398D01*
X21426993Y-35555398D02*
X21355565Y-35698255D01*
X21355565Y-35698255D02*
X21284136Y-35769684D01*
X21284136Y-35769684D02*
X21141279Y-35841112D01*
X21141279Y-35841112D02*
X20855565Y-35841112D01*
X20855565Y-35841112D02*
X20712707Y-35769684D01*
X22641279Y-35769684D02*
X22498422Y-35841112D01*
X22498422Y-35841112D02*
X22212708Y-35841112D01*
X22212708Y-35841112D02*
X22069850Y-35769684D01*
X22069850Y-35769684D02*
X21998422Y-35626826D01*
X21998422Y-35626826D02*
X21998422Y-35055398D01*
X21998422Y-35055398D02*
X22069850Y-34912541D01*
X22069850Y-34912541D02*
X22212708Y-34841112D01*
X22212708Y-34841112D02*
X22498422Y-34841112D01*
X22498422Y-34841112D02*
X22641279Y-34912541D01*
X22641279Y-34912541D02*
X22712708Y-35055398D01*
X22712708Y-35055398D02*
X22712708Y-35198255D01*
X22712708Y-35198255D02*
X21998422Y-35341112D01*
X13712706Y-38256028D02*
X13712706Y-37256028D01*
X13712706Y-36756028D02*
X13641278Y-36827457D01*
X13641278Y-36827457D02*
X13712706Y-36898885D01*
X13712706Y-36898885D02*
X13784135Y-36827457D01*
X13784135Y-36827457D02*
X13712706Y-36756028D01*
X13712706Y-36756028D02*
X13712706Y-36898885D01*
X14355564Y-38184600D02*
X14498421Y-38256028D01*
X14498421Y-38256028D02*
X14784135Y-38256028D01*
X14784135Y-38256028D02*
X14926992Y-38184600D01*
X14926992Y-38184600D02*
X14998421Y-38041742D01*
X14998421Y-38041742D02*
X14998421Y-37970314D01*
X14998421Y-37970314D02*
X14926992Y-37827457D01*
X14926992Y-37827457D02*
X14784135Y-37756028D01*
X14784135Y-37756028D02*
X14569850Y-37756028D01*
X14569850Y-37756028D02*
X14426992Y-37684600D01*
X14426992Y-37684600D02*
X14355564Y-37541742D01*
X14355564Y-37541742D02*
X14355564Y-37470314D01*
X14355564Y-37470314D02*
X14426992Y-37327457D01*
X14426992Y-37327457D02*
X14569850Y-37256028D01*
X14569850Y-37256028D02*
X14784135Y-37256028D01*
X14784135Y-37256028D02*
X14926992Y-37327457D01*
X15855564Y-38256028D02*
X15712707Y-38184600D01*
X15712707Y-38184600D02*
X15641278Y-38113171D01*
X15641278Y-38113171D02*
X15569850Y-37970314D01*
X15569850Y-37970314D02*
X15569850Y-37541742D01*
X15569850Y-37541742D02*
X15641278Y-37398885D01*
X15641278Y-37398885D02*
X15712707Y-37327457D01*
X15712707Y-37327457D02*
X15855564Y-37256028D01*
X15855564Y-37256028D02*
X16069850Y-37256028D01*
X16069850Y-37256028D02*
X16212707Y-37327457D01*
X16212707Y-37327457D02*
X16284136Y-37398885D01*
X16284136Y-37398885D02*
X16355564Y-37541742D01*
X16355564Y-37541742D02*
X16355564Y-37970314D01*
X16355564Y-37970314D02*
X16284136Y-38113171D01*
X16284136Y-38113171D02*
X16212707Y-38184600D01*
X16212707Y-38184600D02*
X16069850Y-38256028D01*
X16069850Y-38256028D02*
X15855564Y-38256028D01*
X17212707Y-38256028D02*
X17069850Y-38184600D01*
X17069850Y-38184600D02*
X16998421Y-38041742D01*
X16998421Y-38041742D02*
X16998421Y-36756028D01*
X18426993Y-38256028D02*
X18426993Y-37470314D01*
X18426993Y-37470314D02*
X18355564Y-37327457D01*
X18355564Y-37327457D02*
X18212707Y-37256028D01*
X18212707Y-37256028D02*
X17926993Y-37256028D01*
X17926993Y-37256028D02*
X17784135Y-37327457D01*
X18426993Y-38184600D02*
X18284135Y-38256028D01*
X18284135Y-38256028D02*
X17926993Y-38256028D01*
X17926993Y-38256028D02*
X17784135Y-38184600D01*
X17784135Y-38184600D02*
X17712707Y-38041742D01*
X17712707Y-38041742D02*
X17712707Y-37898885D01*
X17712707Y-37898885D02*
X17784135Y-37756028D01*
X17784135Y-37756028D02*
X17926993Y-37684600D01*
X17926993Y-37684600D02*
X18284135Y-37684600D01*
X18284135Y-37684600D02*
X18426993Y-37613171D01*
X18926993Y-37256028D02*
X19498421Y-37256028D01*
X19141278Y-36756028D02*
X19141278Y-38041742D01*
X19141278Y-38041742D02*
X19212707Y-38184600D01*
X19212707Y-38184600D02*
X19355564Y-38256028D01*
X19355564Y-38256028D02*
X19498421Y-38256028D01*
X20569850Y-38184600D02*
X20426993Y-38256028D01*
X20426993Y-38256028D02*
X20141279Y-38256028D01*
X20141279Y-38256028D02*
X19998421Y-38184600D01*
X19998421Y-38184600D02*
X19926993Y-38041742D01*
X19926993Y-38041742D02*
X19926993Y-37470314D01*
X19926993Y-37470314D02*
X19998421Y-37327457D01*
X19998421Y-37327457D02*
X20141279Y-37256028D01*
X20141279Y-37256028D02*
X20426993Y-37256028D01*
X20426993Y-37256028D02*
X20569850Y-37327457D01*
X20569850Y-37327457D02*
X20641279Y-37470314D01*
X20641279Y-37470314D02*
X20641279Y-37613171D01*
X20641279Y-37613171D02*
X19926993Y-37756028D01*
X21926993Y-38256028D02*
X21926993Y-36756028D01*
X21926993Y-38184600D02*
X21784135Y-38256028D01*
X21784135Y-38256028D02*
X21498421Y-38256028D01*
X21498421Y-38256028D02*
X21355564Y-38184600D01*
X21355564Y-38184600D02*
X21284135Y-38113171D01*
X21284135Y-38113171D02*
X21212707Y-37970314D01*
X21212707Y-37970314D02*
X21212707Y-37541742D01*
X21212707Y-37541742D02*
X21284135Y-37398885D01*
X21284135Y-37398885D02*
X21355564Y-37327457D01*
X21355564Y-37327457D02*
X21498421Y-37256028D01*
X21498421Y-37256028D02*
X21784135Y-37256028D01*
X21784135Y-37256028D02*
X21926993Y-37327457D01*
X22641278Y-38113171D02*
X22712707Y-38184600D01*
X22712707Y-38184600D02*
X22641278Y-38256028D01*
X22641278Y-38256028D02*
X22569850Y-38184600D01*
X22569850Y-38184600D02*
X22641278Y-38113171D01*
X22641278Y-38113171D02*
X22641278Y-38256028D01*
X22641278Y-37684600D02*
X22569850Y-36827457D01*
X22569850Y-36827457D02*
X22641278Y-36756028D01*
X22641278Y-36756028D02*
X22712707Y-36827457D01*
X22712707Y-36827457D02*
X22641278Y-37684600D01*
X22641278Y-37684600D02*
X22641278Y-36756028D01*
D12*
X38754665Y-32054908D02*
X38047558Y-31347801D01*
X38047558Y-31347801D02*
X38215917Y-31179442D01*
X38215917Y-31179442D02*
X38350604Y-31112098D01*
X38350604Y-31112098D02*
X38485291Y-31112098D01*
X38485291Y-31112098D02*
X38586306Y-31145770D01*
X38586306Y-31145770D02*
X38754665Y-31246786D01*
X38754665Y-31246786D02*
X38855680Y-31347801D01*
X38855680Y-31347801D02*
X38956695Y-31516160D01*
X38956695Y-31516160D02*
X38990367Y-31617175D01*
X38990367Y-31617175D02*
X38990367Y-31751862D01*
X38990367Y-31751862D02*
X38923024Y-31886549D01*
X38923024Y-31886549D02*
X38754665Y-32054908D01*
X39226069Y-31179442D02*
X39562787Y-30842724D01*
X39360756Y-31448816D02*
X38889352Y-30506007D01*
X38889352Y-30506007D02*
X39832161Y-30977411D01*
X39966848Y-30977411D02*
X40505596Y-30438663D01*
X41010672Y-29798900D02*
X40438253Y-29697885D01*
X40606611Y-30202961D02*
X39899505Y-29495854D01*
X39899505Y-29495854D02*
X40168879Y-29226480D01*
X40168879Y-29226480D02*
X40269894Y-29192808D01*
X40269894Y-29192808D02*
X40337237Y-29192808D01*
X40337237Y-29192808D02*
X40438253Y-29226480D01*
X40438253Y-29226480D02*
X40539268Y-29327495D01*
X40539268Y-29327495D02*
X40572940Y-29428511D01*
X40572940Y-29428511D02*
X40572940Y-29495854D01*
X40572940Y-29495854D02*
X40539268Y-29596869D01*
X40539268Y-29596869D02*
X40269894Y-29866243D01*
X40539268Y-28856091D02*
X41717779Y-29091793D01*
X41010672Y-28384686D02*
X41246375Y-29563198D01*
X72287180Y-6144687D02*
X72334800Y-6192306D01*
X72334800Y-6192306D02*
X72382419Y-6335163D01*
X72382419Y-6335163D02*
X72382419Y-6430401D01*
X72382419Y-6430401D02*
X72334800Y-6573258D01*
X72334800Y-6573258D02*
X72239561Y-6668496D01*
X72239561Y-6668496D02*
X72144323Y-6716115D01*
X72144323Y-6716115D02*
X71953847Y-6763734D01*
X71953847Y-6763734D02*
X71810990Y-6763734D01*
X71810990Y-6763734D02*
X71620514Y-6716115D01*
X71620514Y-6716115D02*
X71525276Y-6668496D01*
X71525276Y-6668496D02*
X71430038Y-6573258D01*
X71430038Y-6573258D02*
X71382419Y-6430401D01*
X71382419Y-6430401D02*
X71382419Y-6335163D01*
X71382419Y-6335163D02*
X71430038Y-6192306D01*
X71430038Y-6192306D02*
X71477657Y-6144687D01*
X72382419Y-5716115D02*
X71382419Y-5716115D01*
X72382419Y-5287544D02*
X71858609Y-5287544D01*
X71858609Y-5287544D02*
X71763371Y-5335163D01*
X71763371Y-5335163D02*
X71715752Y-5430401D01*
X71715752Y-5430401D02*
X71715752Y-5573258D01*
X71715752Y-5573258D02*
X71763371Y-5668496D01*
X71763371Y-5668496D02*
X71810990Y-5716115D01*
X72382419Y-4382782D02*
X71858609Y-4382782D01*
X71858609Y-4382782D02*
X71763371Y-4430401D01*
X71763371Y-4430401D02*
X71715752Y-4525639D01*
X71715752Y-4525639D02*
X71715752Y-4716115D01*
X71715752Y-4716115D02*
X71763371Y-4811353D01*
X72334800Y-4382782D02*
X72382419Y-4478020D01*
X72382419Y-4478020D02*
X72382419Y-4716115D01*
X72382419Y-4716115D02*
X72334800Y-4811353D01*
X72334800Y-4811353D02*
X72239561Y-4858972D01*
X72239561Y-4858972D02*
X72144323Y-4858972D01*
X72144323Y-4858972D02*
X72049085Y-4811353D01*
X72049085Y-4811353D02*
X72001466Y-4716115D01*
X72001466Y-4716115D02*
X72001466Y-4478020D01*
X72001466Y-4478020D02*
X71953847Y-4382782D01*
X72382419Y-3906591D02*
X71715752Y-3906591D01*
X71906228Y-3906591D02*
X71810990Y-3858972D01*
X71810990Y-3858972D02*
X71763371Y-3811353D01*
X71763371Y-3811353D02*
X71715752Y-3716115D01*
X71715752Y-3716115D02*
X71715752Y-3620877D01*
X71715752Y-2858972D02*
X72525276Y-2858972D01*
X72525276Y-2858972D02*
X72620514Y-2906591D01*
X72620514Y-2906591D02*
X72668133Y-2954210D01*
X72668133Y-2954210D02*
X72715752Y-3049448D01*
X72715752Y-3049448D02*
X72715752Y-3192305D01*
X72715752Y-3192305D02*
X72668133Y-3287543D01*
X72334800Y-2858972D02*
X72382419Y-2954210D01*
X72382419Y-2954210D02*
X72382419Y-3144686D01*
X72382419Y-3144686D02*
X72334800Y-3239924D01*
X72334800Y-3239924D02*
X72287180Y-3287543D01*
X72287180Y-3287543D02*
X72191942Y-3335162D01*
X72191942Y-3335162D02*
X71906228Y-3335162D01*
X71906228Y-3335162D02*
X71810990Y-3287543D01*
X71810990Y-3287543D02*
X71763371Y-3239924D01*
X71763371Y-3239924D02*
X71715752Y-3144686D01*
X71715752Y-3144686D02*
X71715752Y-2954210D01*
X71715752Y-2954210D02*
X71763371Y-2858972D01*
X72334800Y-2001829D02*
X72382419Y-2097067D01*
X72382419Y-2097067D02*
X72382419Y-2287543D01*
X72382419Y-2287543D02*
X72334800Y-2382781D01*
X72334800Y-2382781D02*
X72239561Y-2430400D01*
X72239561Y-2430400D02*
X71858609Y-2430400D01*
X71858609Y-2430400D02*
X71763371Y-2382781D01*
X71763371Y-2382781D02*
X71715752Y-2287543D01*
X71715752Y-2287543D02*
X71715752Y-2097067D01*
X71715752Y-2097067D02*
X71763371Y-2001829D01*
X71763371Y-2001829D02*
X71858609Y-1954210D01*
X71858609Y-1954210D02*
X71953847Y-1954210D01*
X71953847Y-1954210D02*
X72049085Y-2430400D01*
X12852693Y-16572419D02*
X12281265Y-16572419D01*
X12566979Y-16572419D02*
X12566979Y-15572419D01*
X12566979Y-15572419D02*
X12471741Y-15715276D01*
X12471741Y-15715276D02*
X12376503Y-15810514D01*
X12376503Y-15810514D02*
X12281265Y-15858133D01*
X13233646Y-16286704D02*
X13709836Y-16286704D01*
X13138408Y-16572419D02*
X13471741Y-15572419D01*
X13471741Y-15572419D02*
X13805074Y-16572419D01*
X14852693Y-15524800D02*
X13995551Y-16810514D01*
X15709836Y-16572419D02*
X15138408Y-16572419D01*
X15424122Y-16572419D02*
X15424122Y-15572419D01*
X15424122Y-15572419D02*
X15328884Y-15715276D01*
X15328884Y-15715276D02*
X15233646Y-15810514D01*
X15233646Y-15810514D02*
X15138408Y-15858133D01*
X16090789Y-15667657D02*
X16138408Y-15620038D01*
X16138408Y-15620038D02*
X16233646Y-15572419D01*
X16233646Y-15572419D02*
X16471741Y-15572419D01*
X16471741Y-15572419D02*
X16566979Y-15620038D01*
X16566979Y-15620038D02*
X16614598Y-15667657D01*
X16614598Y-15667657D02*
X16662217Y-15762895D01*
X16662217Y-15762895D02*
X16662217Y-15858133D01*
X16662217Y-15858133D02*
X16614598Y-16000990D01*
X16614598Y-16000990D02*
X16043170Y-16572419D01*
X16043170Y-16572419D02*
X16662217Y-16572419D01*
X17566979Y-15572419D02*
X17090789Y-15572419D01*
X17090789Y-15572419D02*
X17043170Y-16048609D01*
X17043170Y-16048609D02*
X17090789Y-16000990D01*
X17090789Y-16000990D02*
X17186027Y-15953371D01*
X17186027Y-15953371D02*
X17424122Y-15953371D01*
X17424122Y-15953371D02*
X17519360Y-16000990D01*
X17519360Y-16000990D02*
X17566979Y-16048609D01*
X17566979Y-16048609D02*
X17614598Y-16143847D01*
X17614598Y-16143847D02*
X17614598Y-16381942D01*
X17614598Y-16381942D02*
X17566979Y-16477180D01*
X17566979Y-16477180D02*
X17519360Y-16524800D01*
X17519360Y-16524800D02*
X17424122Y-16572419D01*
X17424122Y-16572419D02*
X17186027Y-16572419D01*
X17186027Y-16572419D02*
X17090789Y-16524800D01*
X17090789Y-16524800D02*
X17043170Y-16477180D01*
X17900313Y-15572419D02*
X18233646Y-16572419D01*
X18233646Y-16572419D02*
X18566979Y-15572419D01*
D13*
X54009642Y-40014819D02*
X53676309Y-39538628D01*
X53438214Y-40014819D02*
X53438214Y-39014819D01*
X53438214Y-39014819D02*
X53819166Y-39014819D01*
X53819166Y-39014819D02*
X53914404Y-39062438D01*
X53914404Y-39062438D02*
X53962023Y-39110057D01*
X53962023Y-39110057D02*
X54009642Y-39205295D01*
X54009642Y-39205295D02*
X54009642Y-39348152D01*
X54009642Y-39348152D02*
X53962023Y-39443390D01*
X53962023Y-39443390D02*
X53914404Y-39491009D01*
X53914404Y-39491009D02*
X53819166Y-39538628D01*
X53819166Y-39538628D02*
X53438214Y-39538628D01*
X54962023Y-40014819D02*
X54390595Y-40014819D01*
X54676309Y-40014819D02*
X54676309Y-39014819D01*
X54676309Y-39014819D02*
X54581071Y-39157676D01*
X54581071Y-39157676D02*
X54485833Y-39252914D01*
X54485833Y-39252914D02*
X54390595Y-39300533D01*
X55295357Y-39014819D02*
X55914404Y-39014819D01*
X55914404Y-39014819D02*
X55581071Y-39395771D01*
X55581071Y-39395771D02*
X55723928Y-39395771D01*
X55723928Y-39395771D02*
X55819166Y-39443390D01*
X55819166Y-39443390D02*
X55866785Y-39491009D01*
X55866785Y-39491009D02*
X55914404Y-39586247D01*
X55914404Y-39586247D02*
X55914404Y-39824342D01*
X55914404Y-39824342D02*
X55866785Y-39919580D01*
X55866785Y-39919580D02*
X55819166Y-39967200D01*
X55819166Y-39967200D02*
X55723928Y-40014819D01*
X55723928Y-40014819D02*
X55438214Y-40014819D01*
X55438214Y-40014819D02*
X55342976Y-39967200D01*
X55342976Y-39967200D02*
X55295357Y-39919580D01*
X58055833Y-40014819D02*
X57722500Y-39538628D01*
X57484405Y-40014819D02*
X57484405Y-39014819D01*
X57484405Y-39014819D02*
X57865357Y-39014819D01*
X57865357Y-39014819D02*
X57960595Y-39062438D01*
X57960595Y-39062438D02*
X58008214Y-39110057D01*
X58008214Y-39110057D02*
X58055833Y-39205295D01*
X58055833Y-39205295D02*
X58055833Y-39348152D01*
X58055833Y-39348152D02*
X58008214Y-39443390D01*
X58008214Y-39443390D02*
X57960595Y-39491009D01*
X57960595Y-39491009D02*
X57865357Y-39538628D01*
X57865357Y-39538628D02*
X57484405Y-39538628D01*
X58436786Y-39110057D02*
X58484405Y-39062438D01*
X58484405Y-39062438D02*
X58579643Y-39014819D01*
X58579643Y-39014819D02*
X58817738Y-39014819D01*
X58817738Y-39014819D02*
X58912976Y-39062438D01*
X58912976Y-39062438D02*
X58960595Y-39110057D01*
X58960595Y-39110057D02*
X59008214Y-39205295D01*
X59008214Y-39205295D02*
X59008214Y-39300533D01*
X59008214Y-39300533D02*
X58960595Y-39443390D01*
X58960595Y-39443390D02*
X58389167Y-40014819D01*
X58389167Y-40014819D02*
X59008214Y-40014819D01*
X84699580Y-8689166D02*
X84747200Y-8736785D01*
X84747200Y-8736785D02*
X84794819Y-8879642D01*
X84794819Y-8879642D02*
X84794819Y-8974880D01*
X84794819Y-8974880D02*
X84747200Y-9117737D01*
X84747200Y-9117737D02*
X84651961Y-9212975D01*
X84651961Y-9212975D02*
X84556723Y-9260594D01*
X84556723Y-9260594D02*
X84366247Y-9308213D01*
X84366247Y-9308213D02*
X84223390Y-9308213D01*
X84223390Y-9308213D02*
X84032914Y-9260594D01*
X84032914Y-9260594D02*
X83937676Y-9212975D01*
X83937676Y-9212975D02*
X83842438Y-9117737D01*
X83842438Y-9117737D02*
X83794819Y-8974880D01*
X83794819Y-8974880D02*
X83794819Y-8879642D01*
X83794819Y-8879642D02*
X83842438Y-8736785D01*
X83842438Y-8736785D02*
X83890057Y-8689166D01*
X83794819Y-8355832D02*
X83794819Y-7736785D01*
X83794819Y-7736785D02*
X84175771Y-8070118D01*
X84175771Y-8070118D02*
X84175771Y-7927261D01*
X84175771Y-7927261D02*
X84223390Y-7832023D01*
X84223390Y-7832023D02*
X84271009Y-7784404D01*
X84271009Y-7784404D02*
X84366247Y-7736785D01*
X84366247Y-7736785D02*
X84604342Y-7736785D01*
X84604342Y-7736785D02*
X84699580Y-7784404D01*
X84699580Y-7784404D02*
X84747200Y-7832023D01*
X84747200Y-7832023D02*
X84794819Y-7927261D01*
X84794819Y-7927261D02*
X84794819Y-8212975D01*
X84794819Y-8212975D02*
X84747200Y-8308213D01*
X84747200Y-8308213D02*
X84699580Y-8355832D01*
X37571905Y-26294819D02*
X37571905Y-25294819D01*
X37571905Y-25294819D02*
X37810000Y-25294819D01*
X37810000Y-25294819D02*
X37952857Y-25342438D01*
X37952857Y-25342438D02*
X38048095Y-25437676D01*
X38048095Y-25437676D02*
X38095714Y-25532914D01*
X38095714Y-25532914D02*
X38143333Y-25723390D01*
X38143333Y-25723390D02*
X38143333Y-25866247D01*
X38143333Y-25866247D02*
X38095714Y-26056723D01*
X38095714Y-26056723D02*
X38048095Y-26151961D01*
X38048095Y-26151961D02*
X37952857Y-26247200D01*
X37952857Y-26247200D02*
X37810000Y-26294819D01*
X37810000Y-26294819D02*
X37571905Y-26294819D01*
X38476667Y-25294819D02*
X39095714Y-25294819D01*
X39095714Y-25294819D02*
X38762381Y-25675771D01*
X38762381Y-25675771D02*
X38905238Y-25675771D01*
X38905238Y-25675771D02*
X39000476Y-25723390D01*
X39000476Y-25723390D02*
X39048095Y-25771009D01*
X39048095Y-25771009D02*
X39095714Y-25866247D01*
X39095714Y-25866247D02*
X39095714Y-26104342D01*
X39095714Y-26104342D02*
X39048095Y-26199580D01*
X39048095Y-26199580D02*
X39000476Y-26247200D01*
X39000476Y-26247200D02*
X38905238Y-26294819D01*
X38905238Y-26294819D02*
X38619524Y-26294819D01*
X38619524Y-26294819D02*
X38524286Y-26247200D01*
X38524286Y-26247200D02*
X38476667Y-26199580D01*
X6782200Y-31933332D02*
X6829819Y-31790475D01*
X6829819Y-31790475D02*
X6829819Y-31552380D01*
X6829819Y-31552380D02*
X6782200Y-31457142D01*
X6782200Y-31457142D02*
X6734580Y-31409523D01*
X6734580Y-31409523D02*
X6639342Y-31361904D01*
X6639342Y-31361904D02*
X6544104Y-31361904D01*
X6544104Y-31361904D02*
X6448866Y-31409523D01*
X6448866Y-31409523D02*
X6401247Y-31457142D01*
X6401247Y-31457142D02*
X6353628Y-31552380D01*
X6353628Y-31552380D02*
X6306009Y-31742856D01*
X6306009Y-31742856D02*
X6258390Y-31838094D01*
X6258390Y-31838094D02*
X6210771Y-31885713D01*
X6210771Y-31885713D02*
X6115533Y-31933332D01*
X6115533Y-31933332D02*
X6020295Y-31933332D01*
X6020295Y-31933332D02*
X5925057Y-31885713D01*
X5925057Y-31885713D02*
X5877438Y-31838094D01*
X5877438Y-31838094D02*
X5829819Y-31742856D01*
X5829819Y-31742856D02*
X5829819Y-31504761D01*
X5829819Y-31504761D02*
X5877438Y-31361904D01*
X5829819Y-31028570D02*
X6829819Y-30790475D01*
X6829819Y-30790475D02*
X6115533Y-30599999D01*
X6115533Y-30599999D02*
X6829819Y-30409523D01*
X6829819Y-30409523D02*
X5829819Y-30171428D01*
X6829819Y-29266666D02*
X6829819Y-29838094D01*
X6829819Y-29552380D02*
X5829819Y-29552380D01*
X5829819Y-29552380D02*
X5972676Y-29647618D01*
X5972676Y-29647618D02*
X6067914Y-29742856D01*
X6067914Y-29742856D02*
X6115533Y-29838094D01*
X7361905Y-25304819D02*
X7361905Y-24304819D01*
X7361905Y-24304819D02*
X7600000Y-24304819D01*
X7600000Y-24304819D02*
X7742857Y-24352438D01*
X7742857Y-24352438D02*
X7838095Y-24447676D01*
X7838095Y-24447676D02*
X7885714Y-24542914D01*
X7885714Y-24542914D02*
X7933333Y-24733390D01*
X7933333Y-24733390D02*
X7933333Y-24876247D01*
X7933333Y-24876247D02*
X7885714Y-25066723D01*
X7885714Y-25066723D02*
X7838095Y-25161961D01*
X7838095Y-25161961D02*
X7742857Y-25257200D01*
X7742857Y-25257200D02*
X7600000Y-25304819D01*
X7600000Y-25304819D02*
X7361905Y-25304819D01*
X8885714Y-25304819D02*
X8314286Y-25304819D01*
X8600000Y-25304819D02*
X8600000Y-24304819D01*
X8600000Y-24304819D02*
X8504762Y-24447676D01*
X8504762Y-24447676D02*
X8409524Y-24542914D01*
X8409524Y-24542914D02*
X8314286Y-24590533D01*
X64605595Y-43084819D02*
X64605595Y-43894342D01*
X64605595Y-43894342D02*
X64653214Y-43989580D01*
X64653214Y-43989580D02*
X64700833Y-44037200D01*
X64700833Y-44037200D02*
X64796071Y-44084819D01*
X64796071Y-44084819D02*
X64986547Y-44084819D01*
X64986547Y-44084819D02*
X65081785Y-44037200D01*
X65081785Y-44037200D02*
X65129404Y-43989580D01*
X65129404Y-43989580D02*
X65177023Y-43894342D01*
X65177023Y-43894342D02*
X65177023Y-43084819D01*
X65605595Y-43180057D02*
X65653214Y-43132438D01*
X65653214Y-43132438D02*
X65748452Y-43084819D01*
X65748452Y-43084819D02*
X65986547Y-43084819D01*
X65986547Y-43084819D02*
X66081785Y-43132438D01*
X66081785Y-43132438D02*
X66129404Y-43180057D01*
X66129404Y-43180057D02*
X66177023Y-43275295D01*
X66177023Y-43275295D02*
X66177023Y-43370533D01*
X66177023Y-43370533D02*
X66129404Y-43513390D01*
X66129404Y-43513390D02*
X65557976Y-44084819D01*
X65557976Y-44084819D02*
X66177023Y-44084819D01*
X13432142Y-20329819D02*
X13098809Y-19853628D01*
X12860714Y-20329819D02*
X12860714Y-19329819D01*
X12860714Y-19329819D02*
X13241666Y-19329819D01*
X13241666Y-19329819D02*
X13336904Y-19377438D01*
X13336904Y-19377438D02*
X13384523Y-19425057D01*
X13384523Y-19425057D02*
X13432142Y-19520295D01*
X13432142Y-19520295D02*
X13432142Y-19663152D01*
X13432142Y-19663152D02*
X13384523Y-19758390D01*
X13384523Y-19758390D02*
X13336904Y-19806009D01*
X13336904Y-19806009D02*
X13241666Y-19853628D01*
X13241666Y-19853628D02*
X12860714Y-19853628D01*
X14384523Y-20329819D02*
X13813095Y-20329819D01*
X14098809Y-20329819D02*
X14098809Y-19329819D01*
X14098809Y-19329819D02*
X14003571Y-19472676D01*
X14003571Y-19472676D02*
X13908333Y-19567914D01*
X13908333Y-19567914D02*
X13813095Y-19615533D01*
X15336904Y-20329819D02*
X14765476Y-20329819D01*
X15051190Y-20329819D02*
X15051190Y-19329819D01*
X15051190Y-19329819D02*
X14955952Y-19472676D01*
X14955952Y-19472676D02*
X14860714Y-19567914D01*
X14860714Y-19567914D02*
X14765476Y-19615533D01*
X36383333Y-31004819D02*
X36050000Y-30528628D01*
X35811905Y-31004819D02*
X35811905Y-30004819D01*
X35811905Y-30004819D02*
X36192857Y-30004819D01*
X36192857Y-30004819D02*
X36288095Y-30052438D01*
X36288095Y-30052438D02*
X36335714Y-30100057D01*
X36335714Y-30100057D02*
X36383333Y-30195295D01*
X36383333Y-30195295D02*
X36383333Y-30338152D01*
X36383333Y-30338152D02*
X36335714Y-30433390D01*
X36335714Y-30433390D02*
X36288095Y-30481009D01*
X36288095Y-30481009D02*
X36192857Y-30528628D01*
X36192857Y-30528628D02*
X35811905Y-30528628D01*
X36859524Y-31004819D02*
X37050000Y-31004819D01*
X37050000Y-31004819D02*
X37145238Y-30957200D01*
X37145238Y-30957200D02*
X37192857Y-30909580D01*
X37192857Y-30909580D02*
X37288095Y-30766723D01*
X37288095Y-30766723D02*
X37335714Y-30576247D01*
X37335714Y-30576247D02*
X37335714Y-30195295D01*
X37335714Y-30195295D02*
X37288095Y-30100057D01*
X37288095Y-30100057D02*
X37240476Y-30052438D01*
X37240476Y-30052438D02*
X37145238Y-30004819D01*
X37145238Y-30004819D02*
X36954762Y-30004819D01*
X36954762Y-30004819D02*
X36859524Y-30052438D01*
X36859524Y-30052438D02*
X36811905Y-30100057D01*
X36811905Y-30100057D02*
X36764286Y-30195295D01*
X36764286Y-30195295D02*
X36764286Y-30433390D01*
X36764286Y-30433390D02*
X36811905Y-30528628D01*
X36811905Y-30528628D02*
X36859524Y-30576247D01*
X36859524Y-30576247D02*
X36954762Y-30623866D01*
X36954762Y-30623866D02*
X37145238Y-30623866D01*
X37145238Y-30623866D02*
X37240476Y-30576247D01*
X37240476Y-30576247D02*
X37288095Y-30528628D01*
X37288095Y-30528628D02*
X37335714Y-30433390D01*
X31179285Y-41721009D02*
X31322142Y-41768628D01*
X31322142Y-41768628D02*
X31369761Y-41816247D01*
X31369761Y-41816247D02*
X31417380Y-41911485D01*
X31417380Y-41911485D02*
X31417380Y-42054342D01*
X31417380Y-42054342D02*
X31369761Y-42149580D01*
X31369761Y-42149580D02*
X31322142Y-42197200D01*
X31322142Y-42197200D02*
X31226904Y-42244819D01*
X31226904Y-42244819D02*
X30845952Y-42244819D01*
X30845952Y-42244819D02*
X30845952Y-41244819D01*
X30845952Y-41244819D02*
X31179285Y-41244819D01*
X31179285Y-41244819D02*
X31274523Y-41292438D01*
X31274523Y-41292438D02*
X31322142Y-41340057D01*
X31322142Y-41340057D02*
X31369761Y-41435295D01*
X31369761Y-41435295D02*
X31369761Y-41530533D01*
X31369761Y-41530533D02*
X31322142Y-41625771D01*
X31322142Y-41625771D02*
X31274523Y-41673390D01*
X31274523Y-41673390D02*
X31179285Y-41721009D01*
X31179285Y-41721009D02*
X30845952Y-41721009D01*
X31703095Y-41244819D02*
X32274523Y-41244819D01*
X31988809Y-42244819D02*
X31988809Y-41244819D01*
X33131666Y-42244819D02*
X32560238Y-42244819D01*
X32845952Y-42244819D02*
X32845952Y-41244819D01*
X32845952Y-41244819D02*
X32750714Y-41387676D01*
X32750714Y-41387676D02*
X32655476Y-41482914D01*
X32655476Y-41482914D02*
X32560238Y-41530533D01*
X60609580Y-32911666D02*
X60657200Y-32959285D01*
X60657200Y-32959285D02*
X60704819Y-33102142D01*
X60704819Y-33102142D02*
X60704819Y-33197380D01*
X60704819Y-33197380D02*
X60657200Y-33340237D01*
X60657200Y-33340237D02*
X60561961Y-33435475D01*
X60561961Y-33435475D02*
X60466723Y-33483094D01*
X60466723Y-33483094D02*
X60276247Y-33530713D01*
X60276247Y-33530713D02*
X60133390Y-33530713D01*
X60133390Y-33530713D02*
X59942914Y-33483094D01*
X59942914Y-33483094D02*
X59847676Y-33435475D01*
X59847676Y-33435475D02*
X59752438Y-33340237D01*
X59752438Y-33340237D02*
X59704819Y-33197380D01*
X59704819Y-33197380D02*
X59704819Y-33102142D01*
X59704819Y-33102142D02*
X59752438Y-32959285D01*
X59752438Y-32959285D02*
X59800057Y-32911666D01*
X59704819Y-32006904D02*
X59704819Y-32483094D01*
X59704819Y-32483094D02*
X60181009Y-32530713D01*
X60181009Y-32530713D02*
X60133390Y-32483094D01*
X60133390Y-32483094D02*
X60085771Y-32387856D01*
X60085771Y-32387856D02*
X60085771Y-32149761D01*
X60085771Y-32149761D02*
X60133390Y-32054523D01*
X60133390Y-32054523D02*
X60181009Y-32006904D01*
X60181009Y-32006904D02*
X60276247Y-31959285D01*
X60276247Y-31959285D02*
X60514342Y-31959285D01*
X60514342Y-31959285D02*
X60609580Y-32006904D01*
X60609580Y-32006904D02*
X60657200Y-32054523D01*
X60657200Y-32054523D02*
X60704819Y-32149761D01*
X60704819Y-32149761D02*
X60704819Y-32387856D01*
X60704819Y-32387856D02*
X60657200Y-32483094D01*
X60657200Y-32483094D02*
X60609580Y-32530713D01*
X14129761Y-23912557D02*
X14034523Y-23864938D01*
X14034523Y-23864938D02*
X13939285Y-23769700D01*
X13939285Y-23769700D02*
X13796428Y-23626842D01*
X13796428Y-23626842D02*
X13701190Y-23579223D01*
X13701190Y-23579223D02*
X13605952Y-23579223D01*
X13653571Y-23817319D02*
X13558333Y-23769700D01*
X13558333Y-23769700D02*
X13463095Y-23674461D01*
X13463095Y-23674461D02*
X13415476Y-23483985D01*
X13415476Y-23483985D02*
X13415476Y-23150652D01*
X13415476Y-23150652D02*
X13463095Y-22960176D01*
X13463095Y-22960176D02*
X13558333Y-22864938D01*
X13558333Y-22864938D02*
X13653571Y-22817319D01*
X13653571Y-22817319D02*
X13844047Y-22817319D01*
X13844047Y-22817319D02*
X13939285Y-22864938D01*
X13939285Y-22864938D02*
X14034523Y-22960176D01*
X14034523Y-22960176D02*
X14082142Y-23150652D01*
X14082142Y-23150652D02*
X14082142Y-23483985D01*
X14082142Y-23483985D02*
X14034523Y-23674461D01*
X14034523Y-23674461D02*
X13939285Y-23769700D01*
X13939285Y-23769700D02*
X13844047Y-23817319D01*
X13844047Y-23817319D02*
X13653571Y-23817319D01*
X14939285Y-23150652D02*
X14939285Y-23817319D01*
X14701190Y-22769700D02*
X14463095Y-23483985D01*
X14463095Y-23483985D02*
X15082142Y-23483985D01*
X40544819Y-40451666D02*
X40544819Y-40927856D01*
X40544819Y-40927856D02*
X39544819Y-40927856D01*
X40544819Y-39594523D02*
X40544819Y-40165951D01*
X40544819Y-39880237D02*
X39544819Y-39880237D01*
X39544819Y-39880237D02*
X39687676Y-39975475D01*
X39687676Y-39975475D02*
X39782914Y-40070713D01*
X39782914Y-40070713D02*
X39830533Y-40165951D01*
X35733095Y-41249819D02*
X35733095Y-42059342D01*
X35733095Y-42059342D02*
X35780714Y-42154580D01*
X35780714Y-42154580D02*
X35828333Y-42202200D01*
X35828333Y-42202200D02*
X35923571Y-42249819D01*
X35923571Y-42249819D02*
X36114047Y-42249819D01*
X36114047Y-42249819D02*
X36209285Y-42202200D01*
X36209285Y-42202200D02*
X36256904Y-42154580D01*
X36256904Y-42154580D02*
X36304523Y-42059342D01*
X36304523Y-42059342D02*
X36304523Y-41249819D01*
X36828333Y-42249819D02*
X37018809Y-42249819D01*
X37018809Y-42249819D02*
X37114047Y-42202200D01*
X37114047Y-42202200D02*
X37161666Y-42154580D01*
X37161666Y-42154580D02*
X37256904Y-42011723D01*
X37256904Y-42011723D02*
X37304523Y-41821247D01*
X37304523Y-41821247D02*
X37304523Y-41440295D01*
X37304523Y-41440295D02*
X37256904Y-41345057D01*
X37256904Y-41345057D02*
X37209285Y-41297438D01*
X37209285Y-41297438D02*
X37114047Y-41249819D01*
X37114047Y-41249819D02*
X36923571Y-41249819D01*
X36923571Y-41249819D02*
X36828333Y-41297438D01*
X36828333Y-41297438D02*
X36780714Y-41345057D01*
X36780714Y-41345057D02*
X36733095Y-41440295D01*
X36733095Y-41440295D02*
X36733095Y-41678390D01*
X36733095Y-41678390D02*
X36780714Y-41773628D01*
X36780714Y-41773628D02*
X36828333Y-41821247D01*
X36828333Y-41821247D02*
X36923571Y-41868866D01*
X36923571Y-41868866D02*
X37114047Y-41868866D01*
X37114047Y-41868866D02*
X37209285Y-41821247D01*
X37209285Y-41821247D02*
X37256904Y-41773628D01*
X37256904Y-41773628D02*
X37304523Y-41678390D01*
X8601009Y-16233333D02*
X8601009Y-16566666D01*
X9124819Y-16566666D02*
X8124819Y-16566666D01*
X8124819Y-16566666D02*
X8124819Y-16090476D01*
X9124819Y-15185714D02*
X9124819Y-15757142D01*
X9124819Y-15471428D02*
X8124819Y-15471428D01*
X8124819Y-15471428D02*
X8267676Y-15566666D01*
X8267676Y-15566666D02*
X8362914Y-15661904D01*
X8362914Y-15661904D02*
X8410533Y-15757142D01*
X31317261Y-15875057D02*
X31222023Y-15827438D01*
X31222023Y-15827438D02*
X31126785Y-15732200D01*
X31126785Y-15732200D02*
X30983928Y-15589342D01*
X30983928Y-15589342D02*
X30888690Y-15541723D01*
X30888690Y-15541723D02*
X30793452Y-15541723D01*
X30841071Y-15779819D02*
X30745833Y-15732200D01*
X30745833Y-15732200D02*
X30650595Y-15636961D01*
X30650595Y-15636961D02*
X30602976Y-15446485D01*
X30602976Y-15446485D02*
X30602976Y-15113152D01*
X30602976Y-15113152D02*
X30650595Y-14922676D01*
X30650595Y-14922676D02*
X30745833Y-14827438D01*
X30745833Y-14827438D02*
X30841071Y-14779819D01*
X30841071Y-14779819D02*
X31031547Y-14779819D01*
X31031547Y-14779819D02*
X31126785Y-14827438D01*
X31126785Y-14827438D02*
X31222023Y-14922676D01*
X31222023Y-14922676D02*
X31269642Y-15113152D01*
X31269642Y-15113152D02*
X31269642Y-15446485D01*
X31269642Y-15446485D02*
X31222023Y-15636961D01*
X31222023Y-15636961D02*
X31126785Y-15732200D01*
X31126785Y-15732200D02*
X31031547Y-15779819D01*
X31031547Y-15779819D02*
X30841071Y-15779819D01*
X31602976Y-14779819D02*
X32269642Y-14779819D01*
X32269642Y-14779819D02*
X31841071Y-15779819D01*
X19414761Y-14690057D02*
X19319523Y-14642438D01*
X19319523Y-14642438D02*
X19224285Y-14547200D01*
X19224285Y-14547200D02*
X19081428Y-14404342D01*
X19081428Y-14404342D02*
X18986190Y-14356723D01*
X18986190Y-14356723D02*
X18890952Y-14356723D01*
X18938571Y-14594819D02*
X18843333Y-14547200D01*
X18843333Y-14547200D02*
X18748095Y-14451961D01*
X18748095Y-14451961D02*
X18700476Y-14261485D01*
X18700476Y-14261485D02*
X18700476Y-13928152D01*
X18700476Y-13928152D02*
X18748095Y-13737676D01*
X18748095Y-13737676D02*
X18843333Y-13642438D01*
X18843333Y-13642438D02*
X18938571Y-13594819D01*
X18938571Y-13594819D02*
X19129047Y-13594819D01*
X19129047Y-13594819D02*
X19224285Y-13642438D01*
X19224285Y-13642438D02*
X19319523Y-13737676D01*
X19319523Y-13737676D02*
X19367142Y-13928152D01*
X19367142Y-13928152D02*
X19367142Y-14261485D01*
X19367142Y-14261485D02*
X19319523Y-14451961D01*
X19319523Y-14451961D02*
X19224285Y-14547200D01*
X19224285Y-14547200D02*
X19129047Y-14594819D01*
X19129047Y-14594819D02*
X18938571Y-14594819D01*
X20224285Y-13594819D02*
X20033809Y-13594819D01*
X20033809Y-13594819D02*
X19938571Y-13642438D01*
X19938571Y-13642438D02*
X19890952Y-13690057D01*
X19890952Y-13690057D02*
X19795714Y-13832914D01*
X19795714Y-13832914D02*
X19748095Y-14023390D01*
X19748095Y-14023390D02*
X19748095Y-14404342D01*
X19748095Y-14404342D02*
X19795714Y-14499580D01*
X19795714Y-14499580D02*
X19843333Y-14547200D01*
X19843333Y-14547200D02*
X19938571Y-14594819D01*
X19938571Y-14594819D02*
X20129047Y-14594819D01*
X20129047Y-14594819D02*
X20224285Y-14547200D01*
X20224285Y-14547200D02*
X20271904Y-14499580D01*
X20271904Y-14499580D02*
X20319523Y-14404342D01*
X20319523Y-14404342D02*
X20319523Y-14166247D01*
X20319523Y-14166247D02*
X20271904Y-14071009D01*
X20271904Y-14071009D02*
X20224285Y-14023390D01*
X20224285Y-14023390D02*
X20129047Y-13975771D01*
X20129047Y-13975771D02*
X19938571Y-13975771D01*
X19938571Y-13975771D02*
X19843333Y-14023390D01*
X19843333Y-14023390D02*
X19795714Y-14071009D01*
X19795714Y-14071009D02*
X19748095Y-14166247D01*
X24745833Y-6154580D02*
X24698214Y-6202200D01*
X24698214Y-6202200D02*
X24555357Y-6249819D01*
X24555357Y-6249819D02*
X24460119Y-6249819D01*
X24460119Y-6249819D02*
X24317262Y-6202200D01*
X24317262Y-6202200D02*
X24222024Y-6106961D01*
X24222024Y-6106961D02*
X24174405Y-6011723D01*
X24174405Y-6011723D02*
X24126786Y-5821247D01*
X24126786Y-5821247D02*
X24126786Y-5678390D01*
X24126786Y-5678390D02*
X24174405Y-5487914D01*
X24174405Y-5487914D02*
X24222024Y-5392676D01*
X24222024Y-5392676D02*
X24317262Y-5297438D01*
X24317262Y-5297438D02*
X24460119Y-5249819D01*
X24460119Y-5249819D02*
X24555357Y-5249819D01*
X24555357Y-5249819D02*
X24698214Y-5297438D01*
X24698214Y-5297438D02*
X24745833Y-5345057D01*
X25698214Y-6249819D02*
X25126786Y-6249819D01*
X25412500Y-6249819D02*
X25412500Y-5249819D01*
X25412500Y-5249819D02*
X25317262Y-5392676D01*
X25317262Y-5392676D02*
X25222024Y-5487914D01*
X25222024Y-5487914D02*
X25126786Y-5535533D01*
X34132142Y-23979819D02*
X33798809Y-23503628D01*
X33560714Y-23979819D02*
X33560714Y-22979819D01*
X33560714Y-22979819D02*
X33941666Y-22979819D01*
X33941666Y-22979819D02*
X34036904Y-23027438D01*
X34036904Y-23027438D02*
X34084523Y-23075057D01*
X34084523Y-23075057D02*
X34132142Y-23170295D01*
X34132142Y-23170295D02*
X34132142Y-23313152D01*
X34132142Y-23313152D02*
X34084523Y-23408390D01*
X34084523Y-23408390D02*
X34036904Y-23456009D01*
X34036904Y-23456009D02*
X33941666Y-23503628D01*
X33941666Y-23503628D02*
X33560714Y-23503628D01*
X35084523Y-23979819D02*
X34513095Y-23979819D01*
X34798809Y-23979819D02*
X34798809Y-22979819D01*
X34798809Y-22979819D02*
X34703571Y-23122676D01*
X34703571Y-23122676D02*
X34608333Y-23217914D01*
X34608333Y-23217914D02*
X34513095Y-23265533D01*
X35465476Y-23075057D02*
X35513095Y-23027438D01*
X35513095Y-23027438D02*
X35608333Y-22979819D01*
X35608333Y-22979819D02*
X35846428Y-22979819D01*
X35846428Y-22979819D02*
X35941666Y-23027438D01*
X35941666Y-23027438D02*
X35989285Y-23075057D01*
X35989285Y-23075057D02*
X36036904Y-23170295D01*
X36036904Y-23170295D02*
X36036904Y-23265533D01*
X36036904Y-23265533D02*
X35989285Y-23408390D01*
X35989285Y-23408390D02*
X35417857Y-23979819D01*
X35417857Y-23979819D02*
X36036904Y-23979819D01*
X13357142Y-18959819D02*
X13023809Y-18483628D01*
X12785714Y-18959819D02*
X12785714Y-17959819D01*
X12785714Y-17959819D02*
X13166666Y-17959819D01*
X13166666Y-17959819D02*
X13261904Y-18007438D01*
X13261904Y-18007438D02*
X13309523Y-18055057D01*
X13309523Y-18055057D02*
X13357142Y-18150295D01*
X13357142Y-18150295D02*
X13357142Y-18293152D01*
X13357142Y-18293152D02*
X13309523Y-18388390D01*
X13309523Y-18388390D02*
X13261904Y-18436009D01*
X13261904Y-18436009D02*
X13166666Y-18483628D01*
X13166666Y-18483628D02*
X12785714Y-18483628D01*
X14309523Y-18959819D02*
X13738095Y-18959819D01*
X14023809Y-18959819D02*
X14023809Y-17959819D01*
X14023809Y-17959819D02*
X13928571Y-18102676D01*
X13928571Y-18102676D02*
X13833333Y-18197914D01*
X13833333Y-18197914D02*
X13738095Y-18245533D01*
X14928571Y-17959819D02*
X15023809Y-17959819D01*
X15023809Y-17959819D02*
X15119047Y-18007438D01*
X15119047Y-18007438D02*
X15166666Y-18055057D01*
X15166666Y-18055057D02*
X15214285Y-18150295D01*
X15214285Y-18150295D02*
X15261904Y-18340771D01*
X15261904Y-18340771D02*
X15261904Y-18578866D01*
X15261904Y-18578866D02*
X15214285Y-18769342D01*
X15214285Y-18769342D02*
X15166666Y-18864580D01*
X15166666Y-18864580D02*
X15119047Y-18912200D01*
X15119047Y-18912200D02*
X15023809Y-18959819D01*
X15023809Y-18959819D02*
X14928571Y-18959819D01*
X14928571Y-18959819D02*
X14833333Y-18912200D01*
X14833333Y-18912200D02*
X14785714Y-18864580D01*
X14785714Y-18864580D02*
X14738095Y-18769342D01*
X14738095Y-18769342D02*
X14690476Y-18578866D01*
X14690476Y-18578866D02*
X14690476Y-18340771D01*
X14690476Y-18340771D02*
X14738095Y-18150295D01*
X14738095Y-18150295D02*
X14785714Y-18055057D01*
X14785714Y-18055057D02*
X14833333Y-18007438D01*
X14833333Y-18007438D02*
X14928571Y-17959819D01*
X9921905Y-6104819D02*
X9921905Y-5104819D01*
X9921905Y-5104819D02*
X10160000Y-5104819D01*
X10160000Y-5104819D02*
X10302857Y-5152438D01*
X10302857Y-5152438D02*
X10398095Y-5247676D01*
X10398095Y-5247676D02*
X10445714Y-5342914D01*
X10445714Y-5342914D02*
X10493333Y-5533390D01*
X10493333Y-5533390D02*
X10493333Y-5676247D01*
X10493333Y-5676247D02*
X10445714Y-5866723D01*
X10445714Y-5866723D02*
X10398095Y-5961961D01*
X10398095Y-5961961D02*
X10302857Y-6057200D01*
X10302857Y-6057200D02*
X10160000Y-6104819D01*
X10160000Y-6104819D02*
X9921905Y-6104819D01*
X11398095Y-5104819D02*
X10921905Y-5104819D01*
X10921905Y-5104819D02*
X10874286Y-5581009D01*
X10874286Y-5581009D02*
X10921905Y-5533390D01*
X10921905Y-5533390D02*
X11017143Y-5485771D01*
X11017143Y-5485771D02*
X11255238Y-5485771D01*
X11255238Y-5485771D02*
X11350476Y-5533390D01*
X11350476Y-5533390D02*
X11398095Y-5581009D01*
X11398095Y-5581009D02*
X11445714Y-5676247D01*
X11445714Y-5676247D02*
X11445714Y-5914342D01*
X11445714Y-5914342D02*
X11398095Y-6009580D01*
X11398095Y-6009580D02*
X11350476Y-6057200D01*
X11350476Y-6057200D02*
X11255238Y-6104819D01*
X11255238Y-6104819D02*
X11017143Y-6104819D01*
X11017143Y-6104819D02*
X10921905Y-6057200D01*
X10921905Y-6057200D02*
X10874286Y-6009580D01*
X47303095Y-41964819D02*
X47303095Y-42774342D01*
X47303095Y-42774342D02*
X47350714Y-42869580D01*
X47350714Y-42869580D02*
X47398333Y-42917200D01*
X47398333Y-42917200D02*
X47493571Y-42964819D01*
X47493571Y-42964819D02*
X47684047Y-42964819D01*
X47684047Y-42964819D02*
X47779285Y-42917200D01*
X47779285Y-42917200D02*
X47826904Y-42869580D01*
X47826904Y-42869580D02*
X47874523Y-42774342D01*
X47874523Y-42774342D02*
X47874523Y-41964819D01*
X48255476Y-41964819D02*
X48922142Y-41964819D01*
X48922142Y-41964819D02*
X48493571Y-42964819D01*
D12*
X86156667Y-31189800D02*
X86299524Y-31237419D01*
X86299524Y-31237419D02*
X86537619Y-31237419D01*
X86537619Y-31237419D02*
X86632857Y-31189800D01*
X86632857Y-31189800D02*
X86680476Y-31142180D01*
X86680476Y-31142180D02*
X86728095Y-31046942D01*
X86728095Y-31046942D02*
X86728095Y-30951704D01*
X86728095Y-30951704D02*
X86680476Y-30856466D01*
X86680476Y-30856466D02*
X86632857Y-30808847D01*
X86632857Y-30808847D02*
X86537619Y-30761228D01*
X86537619Y-30761228D02*
X86347143Y-30713609D01*
X86347143Y-30713609D02*
X86251905Y-30665990D01*
X86251905Y-30665990D02*
X86204286Y-30618371D01*
X86204286Y-30618371D02*
X86156667Y-30523133D01*
X86156667Y-30523133D02*
X86156667Y-30427895D01*
X86156667Y-30427895D02*
X86204286Y-30332657D01*
X86204286Y-30332657D02*
X86251905Y-30285038D01*
X86251905Y-30285038D02*
X86347143Y-30237419D01*
X86347143Y-30237419D02*
X86585238Y-30237419D01*
X86585238Y-30237419D02*
X86728095Y-30285038D01*
X87061429Y-30237419D02*
X87299524Y-31237419D01*
X87299524Y-31237419D02*
X87490000Y-30523133D01*
X87490000Y-30523133D02*
X87680476Y-31237419D01*
X87680476Y-31237419D02*
X87918572Y-30237419D01*
X88775714Y-30237419D02*
X88299524Y-30237419D01*
X88299524Y-30237419D02*
X88251905Y-30713609D01*
X88251905Y-30713609D02*
X88299524Y-30665990D01*
X88299524Y-30665990D02*
X88394762Y-30618371D01*
X88394762Y-30618371D02*
X88632857Y-30618371D01*
X88632857Y-30618371D02*
X88728095Y-30665990D01*
X88728095Y-30665990D02*
X88775714Y-30713609D01*
X88775714Y-30713609D02*
X88823333Y-30808847D01*
X88823333Y-30808847D02*
X88823333Y-31046942D01*
X88823333Y-31046942D02*
X88775714Y-31142180D01*
X88775714Y-31142180D02*
X88728095Y-31189800D01*
X88728095Y-31189800D02*
X88632857Y-31237419D01*
X88632857Y-31237419D02*
X88394762Y-31237419D01*
X88394762Y-31237419D02*
X88299524Y-31189800D01*
X88299524Y-31189800D02*
X88251905Y-31142180D01*
D13*
X74861905Y-1884819D02*
X74861905Y-884819D01*
X74861905Y-884819D02*
X75100000Y-884819D01*
X75100000Y-884819D02*
X75242857Y-932438D01*
X75242857Y-932438D02*
X75338095Y-1027676D01*
X75338095Y-1027676D02*
X75385714Y-1122914D01*
X75385714Y-1122914D02*
X75433333Y-1313390D01*
X75433333Y-1313390D02*
X75433333Y-1456247D01*
X75433333Y-1456247D02*
X75385714Y-1646723D01*
X75385714Y-1646723D02*
X75338095Y-1741961D01*
X75338095Y-1741961D02*
X75242857Y-1837200D01*
X75242857Y-1837200D02*
X75100000Y-1884819D01*
X75100000Y-1884819D02*
X74861905Y-1884819D01*
X76004762Y-1313390D02*
X75909524Y-1265771D01*
X75909524Y-1265771D02*
X75861905Y-1218152D01*
X75861905Y-1218152D02*
X75814286Y-1122914D01*
X75814286Y-1122914D02*
X75814286Y-1075295D01*
X75814286Y-1075295D02*
X75861905Y-980057D01*
X75861905Y-980057D02*
X75909524Y-932438D01*
X75909524Y-932438D02*
X76004762Y-884819D01*
X76004762Y-884819D02*
X76195238Y-884819D01*
X76195238Y-884819D02*
X76290476Y-932438D01*
X76290476Y-932438D02*
X76338095Y-980057D01*
X76338095Y-980057D02*
X76385714Y-1075295D01*
X76385714Y-1075295D02*
X76385714Y-1122914D01*
X76385714Y-1122914D02*
X76338095Y-1218152D01*
X76338095Y-1218152D02*
X76290476Y-1265771D01*
X76290476Y-1265771D02*
X76195238Y-1313390D01*
X76195238Y-1313390D02*
X76004762Y-1313390D01*
X76004762Y-1313390D02*
X75909524Y-1361009D01*
X75909524Y-1361009D02*
X75861905Y-1408628D01*
X75861905Y-1408628D02*
X75814286Y-1503866D01*
X75814286Y-1503866D02*
X75814286Y-1694342D01*
X75814286Y-1694342D02*
X75861905Y-1789580D01*
X75861905Y-1789580D02*
X75909524Y-1837200D01*
X75909524Y-1837200D02*
X76004762Y-1884819D01*
X76004762Y-1884819D02*
X76195238Y-1884819D01*
X76195238Y-1884819D02*
X76290476Y-1837200D01*
X76290476Y-1837200D02*
X76338095Y-1789580D01*
X76338095Y-1789580D02*
X76385714Y-1694342D01*
X76385714Y-1694342D02*
X76385714Y-1503866D01*
X76385714Y-1503866D02*
X76338095Y-1408628D01*
X76338095Y-1408628D02*
X76290476Y-1361009D01*
X76290476Y-1361009D02*
X76195238Y-1313390D01*
X79879580Y-39746666D02*
X79927200Y-39794285D01*
X79927200Y-39794285D02*
X79974819Y-39937142D01*
X79974819Y-39937142D02*
X79974819Y-40032380D01*
X79974819Y-40032380D02*
X79927200Y-40175237D01*
X79927200Y-40175237D02*
X79831961Y-40270475D01*
X79831961Y-40270475D02*
X79736723Y-40318094D01*
X79736723Y-40318094D02*
X79546247Y-40365713D01*
X79546247Y-40365713D02*
X79403390Y-40365713D01*
X79403390Y-40365713D02*
X79212914Y-40318094D01*
X79212914Y-40318094D02*
X79117676Y-40270475D01*
X79117676Y-40270475D02*
X79022438Y-40175237D01*
X79022438Y-40175237D02*
X78974819Y-40032380D01*
X78974819Y-40032380D02*
X78974819Y-39937142D01*
X78974819Y-39937142D02*
X79022438Y-39794285D01*
X79022438Y-39794285D02*
X79070057Y-39746666D01*
X78974819Y-38889523D02*
X78974819Y-39079999D01*
X78974819Y-39079999D02*
X79022438Y-39175237D01*
X79022438Y-39175237D02*
X79070057Y-39222856D01*
X79070057Y-39222856D02*
X79212914Y-39318094D01*
X79212914Y-39318094D02*
X79403390Y-39365713D01*
X79403390Y-39365713D02*
X79784342Y-39365713D01*
X79784342Y-39365713D02*
X79879580Y-39318094D01*
X79879580Y-39318094D02*
X79927200Y-39270475D01*
X79927200Y-39270475D02*
X79974819Y-39175237D01*
X79974819Y-39175237D02*
X79974819Y-38984761D01*
X79974819Y-38984761D02*
X79927200Y-38889523D01*
X79927200Y-38889523D02*
X79879580Y-38841904D01*
X79879580Y-38841904D02*
X79784342Y-38794285D01*
X79784342Y-38794285D02*
X79546247Y-38794285D01*
X79546247Y-38794285D02*
X79451009Y-38841904D01*
X79451009Y-38841904D02*
X79403390Y-38889523D01*
X79403390Y-38889523D02*
X79355771Y-38984761D01*
X79355771Y-38984761D02*
X79355771Y-39175237D01*
X79355771Y-39175237D02*
X79403390Y-39270475D01*
X79403390Y-39270475D02*
X79451009Y-39318094D01*
X79451009Y-39318094D02*
X79546247Y-39365713D01*
X83164819Y-8699166D02*
X82688628Y-9032499D01*
X83164819Y-9270594D02*
X82164819Y-9270594D01*
X82164819Y-9270594D02*
X82164819Y-8889642D01*
X82164819Y-8889642D02*
X82212438Y-8794404D01*
X82212438Y-8794404D02*
X82260057Y-8746785D01*
X82260057Y-8746785D02*
X82355295Y-8699166D01*
X82355295Y-8699166D02*
X82498152Y-8699166D01*
X82498152Y-8699166D02*
X82593390Y-8746785D01*
X82593390Y-8746785D02*
X82641009Y-8794404D01*
X82641009Y-8794404D02*
X82688628Y-8889642D01*
X82688628Y-8889642D02*
X82688628Y-9270594D01*
X82164819Y-8365832D02*
X82164819Y-7746785D01*
X82164819Y-7746785D02*
X82545771Y-8080118D01*
X82545771Y-8080118D02*
X82545771Y-7937261D01*
X82545771Y-7937261D02*
X82593390Y-7842023D01*
X82593390Y-7842023D02*
X82641009Y-7794404D01*
X82641009Y-7794404D02*
X82736247Y-7746785D01*
X82736247Y-7746785D02*
X82974342Y-7746785D01*
X82974342Y-7746785D02*
X83069580Y-7794404D01*
X83069580Y-7794404D02*
X83117200Y-7842023D01*
X83117200Y-7842023D02*
X83164819Y-7937261D01*
X83164819Y-7937261D02*
X83164819Y-8222975D01*
X83164819Y-8222975D02*
X83117200Y-8318213D01*
X83117200Y-8318213D02*
X83069580Y-8365832D01*
X14608333Y-29929819D02*
X14275000Y-29453628D01*
X14036905Y-29929819D02*
X14036905Y-28929819D01*
X14036905Y-28929819D02*
X14417857Y-28929819D01*
X14417857Y-28929819D02*
X14513095Y-28977438D01*
X14513095Y-28977438D02*
X14560714Y-29025057D01*
X14560714Y-29025057D02*
X14608333Y-29120295D01*
X14608333Y-29120295D02*
X14608333Y-29263152D01*
X14608333Y-29263152D02*
X14560714Y-29358390D01*
X14560714Y-29358390D02*
X14513095Y-29406009D01*
X14513095Y-29406009D02*
X14417857Y-29453628D01*
X14417857Y-29453628D02*
X14036905Y-29453628D01*
X15465476Y-28929819D02*
X15275000Y-28929819D01*
X15275000Y-28929819D02*
X15179762Y-28977438D01*
X15179762Y-28977438D02*
X15132143Y-29025057D01*
X15132143Y-29025057D02*
X15036905Y-29167914D01*
X15036905Y-29167914D02*
X14989286Y-29358390D01*
X14989286Y-29358390D02*
X14989286Y-29739342D01*
X14989286Y-29739342D02*
X15036905Y-29834580D01*
X15036905Y-29834580D02*
X15084524Y-29882200D01*
X15084524Y-29882200D02*
X15179762Y-29929819D01*
X15179762Y-29929819D02*
X15370238Y-29929819D01*
X15370238Y-29929819D02*
X15465476Y-29882200D01*
X15465476Y-29882200D02*
X15513095Y-29834580D01*
X15513095Y-29834580D02*
X15560714Y-29739342D01*
X15560714Y-29739342D02*
X15560714Y-29501247D01*
X15560714Y-29501247D02*
X15513095Y-29406009D01*
X15513095Y-29406009D02*
X15465476Y-29358390D01*
X15465476Y-29358390D02*
X15370238Y-29310771D01*
X15370238Y-29310771D02*
X15179762Y-29310771D01*
X15179762Y-29310771D02*
X15084524Y-29358390D01*
X15084524Y-29358390D02*
X15036905Y-29406009D01*
X15036905Y-29406009D02*
X14989286Y-29501247D01*
X35722142Y-34864819D02*
X35388809Y-34388628D01*
X35150714Y-34864819D02*
X35150714Y-33864819D01*
X35150714Y-33864819D02*
X35531666Y-33864819D01*
X35531666Y-33864819D02*
X35626904Y-33912438D01*
X35626904Y-33912438D02*
X35674523Y-33960057D01*
X35674523Y-33960057D02*
X35722142Y-34055295D01*
X35722142Y-34055295D02*
X35722142Y-34198152D01*
X35722142Y-34198152D02*
X35674523Y-34293390D01*
X35674523Y-34293390D02*
X35626904Y-34341009D01*
X35626904Y-34341009D02*
X35531666Y-34388628D01*
X35531666Y-34388628D02*
X35150714Y-34388628D01*
X36674523Y-34864819D02*
X36103095Y-34864819D01*
X36388809Y-34864819D02*
X36388809Y-33864819D01*
X36388809Y-33864819D02*
X36293571Y-34007676D01*
X36293571Y-34007676D02*
X36198333Y-34102914D01*
X36198333Y-34102914D02*
X36103095Y-34150533D01*
X37245952Y-34293390D02*
X37150714Y-34245771D01*
X37150714Y-34245771D02*
X37103095Y-34198152D01*
X37103095Y-34198152D02*
X37055476Y-34102914D01*
X37055476Y-34102914D02*
X37055476Y-34055295D01*
X37055476Y-34055295D02*
X37103095Y-33960057D01*
X37103095Y-33960057D02*
X37150714Y-33912438D01*
X37150714Y-33912438D02*
X37245952Y-33864819D01*
X37245952Y-33864819D02*
X37436428Y-33864819D01*
X37436428Y-33864819D02*
X37531666Y-33912438D01*
X37531666Y-33912438D02*
X37579285Y-33960057D01*
X37579285Y-33960057D02*
X37626904Y-34055295D01*
X37626904Y-34055295D02*
X37626904Y-34102914D01*
X37626904Y-34102914D02*
X37579285Y-34198152D01*
X37579285Y-34198152D02*
X37531666Y-34245771D01*
X37531666Y-34245771D02*
X37436428Y-34293390D01*
X37436428Y-34293390D02*
X37245952Y-34293390D01*
X37245952Y-34293390D02*
X37150714Y-34341009D01*
X37150714Y-34341009D02*
X37103095Y-34388628D01*
X37103095Y-34388628D02*
X37055476Y-34483866D01*
X37055476Y-34483866D02*
X37055476Y-34674342D01*
X37055476Y-34674342D02*
X37103095Y-34769580D01*
X37103095Y-34769580D02*
X37150714Y-34817200D01*
X37150714Y-34817200D02*
X37245952Y-34864819D01*
X37245952Y-34864819D02*
X37436428Y-34864819D01*
X37436428Y-34864819D02*
X37531666Y-34817200D01*
X37531666Y-34817200D02*
X37579285Y-34769580D01*
X37579285Y-34769580D02*
X37626904Y-34674342D01*
X37626904Y-34674342D02*
X37626904Y-34483866D01*
X37626904Y-34483866D02*
X37579285Y-34388628D01*
X37579285Y-34388628D02*
X37531666Y-34341009D01*
X37531666Y-34341009D02*
X37436428Y-34293390D01*
X15282142Y-14654819D02*
X14948809Y-14178628D01*
X14710714Y-14654819D02*
X14710714Y-13654819D01*
X14710714Y-13654819D02*
X15091666Y-13654819D01*
X15091666Y-13654819D02*
X15186904Y-13702438D01*
X15186904Y-13702438D02*
X15234523Y-13750057D01*
X15234523Y-13750057D02*
X15282142Y-13845295D01*
X15282142Y-13845295D02*
X15282142Y-13988152D01*
X15282142Y-13988152D02*
X15234523Y-14083390D01*
X15234523Y-14083390D02*
X15186904Y-14131009D01*
X15186904Y-14131009D02*
X15091666Y-14178628D01*
X15091666Y-14178628D02*
X14710714Y-14178628D01*
X16234523Y-14654819D02*
X15663095Y-14654819D01*
X15948809Y-14654819D02*
X15948809Y-13654819D01*
X15948809Y-13654819D02*
X15853571Y-13797676D01*
X15853571Y-13797676D02*
X15758333Y-13892914D01*
X15758333Y-13892914D02*
X15663095Y-13940533D01*
X16567857Y-13654819D02*
X17234523Y-13654819D01*
X17234523Y-13654819D02*
X16805952Y-14654819D01*
X75429819Y-8721666D02*
X74953628Y-9054999D01*
X75429819Y-9293094D02*
X74429819Y-9293094D01*
X74429819Y-9293094D02*
X74429819Y-8912142D01*
X74429819Y-8912142D02*
X74477438Y-8816904D01*
X74477438Y-8816904D02*
X74525057Y-8769285D01*
X74525057Y-8769285D02*
X74620295Y-8721666D01*
X74620295Y-8721666D02*
X74763152Y-8721666D01*
X74763152Y-8721666D02*
X74858390Y-8769285D01*
X74858390Y-8769285D02*
X74906009Y-8816904D01*
X74906009Y-8816904D02*
X74953628Y-8912142D01*
X74953628Y-8912142D02*
X74953628Y-9293094D01*
X74763152Y-7864523D02*
X75429819Y-7864523D01*
X74382200Y-8102618D02*
X75096485Y-8340713D01*
X75096485Y-8340713D02*
X75096485Y-7721666D01*
X31304761Y-17225057D02*
X31209523Y-17177438D01*
X31209523Y-17177438D02*
X31114285Y-17082200D01*
X31114285Y-17082200D02*
X30971428Y-16939342D01*
X30971428Y-16939342D02*
X30876190Y-16891723D01*
X30876190Y-16891723D02*
X30780952Y-16891723D01*
X30828571Y-17129819D02*
X30733333Y-17082200D01*
X30733333Y-17082200D02*
X30638095Y-16986961D01*
X30638095Y-16986961D02*
X30590476Y-16796485D01*
X30590476Y-16796485D02*
X30590476Y-16463152D01*
X30590476Y-16463152D02*
X30638095Y-16272676D01*
X30638095Y-16272676D02*
X30733333Y-16177438D01*
X30733333Y-16177438D02*
X30828571Y-16129819D01*
X30828571Y-16129819D02*
X31019047Y-16129819D01*
X31019047Y-16129819D02*
X31114285Y-16177438D01*
X31114285Y-16177438D02*
X31209523Y-16272676D01*
X31209523Y-16272676D02*
X31257142Y-16463152D01*
X31257142Y-16463152D02*
X31257142Y-16796485D01*
X31257142Y-16796485D02*
X31209523Y-16986961D01*
X31209523Y-16986961D02*
X31114285Y-17082200D01*
X31114285Y-17082200D02*
X31019047Y-17129819D01*
X31019047Y-17129819D02*
X30828571Y-17129819D01*
X32161904Y-16129819D02*
X31685714Y-16129819D01*
X31685714Y-16129819D02*
X31638095Y-16606009D01*
X31638095Y-16606009D02*
X31685714Y-16558390D01*
X31685714Y-16558390D02*
X31780952Y-16510771D01*
X31780952Y-16510771D02*
X32019047Y-16510771D01*
X32019047Y-16510771D02*
X32114285Y-16558390D01*
X32114285Y-16558390D02*
X32161904Y-16606009D01*
X32161904Y-16606009D02*
X32209523Y-16701247D01*
X32209523Y-16701247D02*
X32209523Y-16939342D01*
X32209523Y-16939342D02*
X32161904Y-17034580D01*
X32161904Y-17034580D02*
X32114285Y-17082200D01*
X32114285Y-17082200D02*
X32019047Y-17129819D01*
X32019047Y-17129819D02*
X31780952Y-17129819D01*
X31780952Y-17129819D02*
X31685714Y-17082200D01*
X31685714Y-17082200D02*
X31638095Y-17034580D01*
X51624580Y-43336666D02*
X51672200Y-43384285D01*
X51672200Y-43384285D02*
X51719819Y-43527142D01*
X51719819Y-43527142D02*
X51719819Y-43622380D01*
X51719819Y-43622380D02*
X51672200Y-43765237D01*
X51672200Y-43765237D02*
X51576961Y-43860475D01*
X51576961Y-43860475D02*
X51481723Y-43908094D01*
X51481723Y-43908094D02*
X51291247Y-43955713D01*
X51291247Y-43955713D02*
X51148390Y-43955713D01*
X51148390Y-43955713D02*
X50957914Y-43908094D01*
X50957914Y-43908094D02*
X50862676Y-43860475D01*
X50862676Y-43860475D02*
X50767438Y-43765237D01*
X50767438Y-43765237D02*
X50719819Y-43622380D01*
X50719819Y-43622380D02*
X50719819Y-43527142D01*
X50719819Y-43527142D02*
X50767438Y-43384285D01*
X50767438Y-43384285D02*
X50815057Y-43336666D01*
X51719819Y-42860475D02*
X51719819Y-42669999D01*
X51719819Y-42669999D02*
X51672200Y-42574761D01*
X51672200Y-42574761D02*
X51624580Y-42527142D01*
X51624580Y-42527142D02*
X51481723Y-42431904D01*
X51481723Y-42431904D02*
X51291247Y-42384285D01*
X51291247Y-42384285D02*
X50910295Y-42384285D01*
X50910295Y-42384285D02*
X50815057Y-42431904D01*
X50815057Y-42431904D02*
X50767438Y-42479523D01*
X50767438Y-42479523D02*
X50719819Y-42574761D01*
X50719819Y-42574761D02*
X50719819Y-42765237D01*
X50719819Y-42765237D02*
X50767438Y-42860475D01*
X50767438Y-42860475D02*
X50815057Y-42908094D01*
X50815057Y-42908094D02*
X50910295Y-42955713D01*
X50910295Y-42955713D02*
X51148390Y-42955713D01*
X51148390Y-42955713D02*
X51243628Y-42908094D01*
X51243628Y-42908094D02*
X51291247Y-42860475D01*
X51291247Y-42860475D02*
X51338866Y-42765237D01*
X51338866Y-42765237D02*
X51338866Y-42574761D01*
X51338866Y-42574761D02*
X51291247Y-42479523D01*
X51291247Y-42479523D02*
X51243628Y-42431904D01*
X51243628Y-42431904D02*
X51148390Y-42384285D01*
X16363095Y-28779819D02*
X16363095Y-29589342D01*
X16363095Y-29589342D02*
X16410714Y-29684580D01*
X16410714Y-29684580D02*
X16458333Y-29732200D01*
X16458333Y-29732200D02*
X16553571Y-29779819D01*
X16553571Y-29779819D02*
X16744047Y-29779819D01*
X16744047Y-29779819D02*
X16839285Y-29732200D01*
X16839285Y-29732200D02*
X16886904Y-29684580D01*
X16886904Y-29684580D02*
X16934523Y-29589342D01*
X16934523Y-29589342D02*
X16934523Y-28779819D01*
X17839285Y-29113152D02*
X17839285Y-29779819D01*
X17601190Y-28732200D02*
X17363095Y-29446485D01*
X17363095Y-29446485D02*
X17982142Y-29446485D01*
X80084642Y-7614819D02*
X79751309Y-7138628D01*
X79513214Y-7614819D02*
X79513214Y-6614819D01*
X79513214Y-6614819D02*
X79894166Y-6614819D01*
X79894166Y-6614819D02*
X79989404Y-6662438D01*
X79989404Y-6662438D02*
X80037023Y-6710057D01*
X80037023Y-6710057D02*
X80084642Y-6805295D01*
X80084642Y-6805295D02*
X80084642Y-6948152D01*
X80084642Y-6948152D02*
X80037023Y-7043390D01*
X80037023Y-7043390D02*
X79989404Y-7091009D01*
X79989404Y-7091009D02*
X79894166Y-7138628D01*
X79894166Y-7138628D02*
X79513214Y-7138628D01*
X81037023Y-7614819D02*
X80465595Y-7614819D01*
X80751309Y-7614819D02*
X80751309Y-6614819D01*
X80751309Y-6614819D02*
X80656071Y-6757676D01*
X80656071Y-6757676D02*
X80560833Y-6852914D01*
X80560833Y-6852914D02*
X80465595Y-6900533D01*
X81513214Y-7614819D02*
X81703690Y-7614819D01*
X81703690Y-7614819D02*
X81798928Y-7567200D01*
X81798928Y-7567200D02*
X81846547Y-7519580D01*
X81846547Y-7519580D02*
X81941785Y-7376723D01*
X81941785Y-7376723D02*
X81989404Y-7186247D01*
X81989404Y-7186247D02*
X81989404Y-6805295D01*
X81989404Y-6805295D02*
X81941785Y-6710057D01*
X81941785Y-6710057D02*
X81894166Y-6662438D01*
X81894166Y-6662438D02*
X81798928Y-6614819D01*
X81798928Y-6614819D02*
X81608452Y-6614819D01*
X81608452Y-6614819D02*
X81513214Y-6662438D01*
X81513214Y-6662438D02*
X81465595Y-6710057D01*
X81465595Y-6710057D02*
X81417976Y-6805295D01*
X81417976Y-6805295D02*
X81417976Y-7043390D01*
X81417976Y-7043390D02*
X81465595Y-7138628D01*
X81465595Y-7138628D02*
X81513214Y-7186247D01*
X81513214Y-7186247D02*
X81608452Y-7233866D01*
X81608452Y-7233866D02*
X81798928Y-7233866D01*
X81798928Y-7233866D02*
X81894166Y-7186247D01*
X81894166Y-7186247D02*
X81941785Y-7138628D01*
X81941785Y-7138628D02*
X81989404Y-7043390D01*
X7129819Y-10383333D02*
X7844104Y-10383333D01*
X7844104Y-10383333D02*
X7986961Y-10430952D01*
X7986961Y-10430952D02*
X8082200Y-10526190D01*
X8082200Y-10526190D02*
X8129819Y-10669047D01*
X8129819Y-10669047D02*
X8129819Y-10764285D01*
X7129819Y-10002380D02*
X7129819Y-9383333D01*
X7129819Y-9383333D02*
X7510771Y-9716666D01*
X7510771Y-9716666D02*
X7510771Y-9573809D01*
X7510771Y-9573809D02*
X7558390Y-9478571D01*
X7558390Y-9478571D02*
X7606009Y-9430952D01*
X7606009Y-9430952D02*
X7701247Y-9383333D01*
X7701247Y-9383333D02*
X7939342Y-9383333D01*
X7939342Y-9383333D02*
X8034580Y-9430952D01*
X8034580Y-9430952D02*
X8082200Y-9478571D01*
X8082200Y-9478571D02*
X8129819Y-9573809D01*
X8129819Y-9573809D02*
X8129819Y-9859523D01*
X8129819Y-9859523D02*
X8082200Y-9954761D01*
X8082200Y-9954761D02*
X8034580Y-10002380D01*
X12161905Y-12504819D02*
X12161905Y-11504819D01*
X12161905Y-11504819D02*
X12400000Y-11504819D01*
X12400000Y-11504819D02*
X12542857Y-11552438D01*
X12542857Y-11552438D02*
X12638095Y-11647676D01*
X12638095Y-11647676D02*
X12685714Y-11742914D01*
X12685714Y-11742914D02*
X12733333Y-11933390D01*
X12733333Y-11933390D02*
X12733333Y-12076247D01*
X12733333Y-12076247D02*
X12685714Y-12266723D01*
X12685714Y-12266723D02*
X12638095Y-12361961D01*
X12638095Y-12361961D02*
X12542857Y-12457200D01*
X12542857Y-12457200D02*
X12400000Y-12504819D01*
X12400000Y-12504819D02*
X12161905Y-12504819D01*
X13066667Y-11504819D02*
X13733333Y-11504819D01*
X13733333Y-11504819D02*
X13304762Y-12504819D01*
X55630057Y-30422738D02*
X55582438Y-30517976D01*
X55582438Y-30517976D02*
X55487200Y-30613214D01*
X55487200Y-30613214D02*
X55344342Y-30756071D01*
X55344342Y-30756071D02*
X55296723Y-30851309D01*
X55296723Y-30851309D02*
X55296723Y-30946547D01*
X55534819Y-30898928D02*
X55487200Y-30994166D01*
X55487200Y-30994166D02*
X55391961Y-31089404D01*
X55391961Y-31089404D02*
X55201485Y-31137023D01*
X55201485Y-31137023D02*
X54868152Y-31137023D01*
X54868152Y-31137023D02*
X54677676Y-31089404D01*
X54677676Y-31089404D02*
X54582438Y-30994166D01*
X54582438Y-30994166D02*
X54534819Y-30898928D01*
X54534819Y-30898928D02*
X54534819Y-30708452D01*
X54534819Y-30708452D02*
X54582438Y-30613214D01*
X54582438Y-30613214D02*
X54677676Y-30517976D01*
X54677676Y-30517976D02*
X54868152Y-30470357D01*
X54868152Y-30470357D02*
X55201485Y-30470357D01*
X55201485Y-30470357D02*
X55391961Y-30517976D01*
X55391961Y-30517976D02*
X55487200Y-30613214D01*
X55487200Y-30613214D02*
X55534819Y-30708452D01*
X55534819Y-30708452D02*
X55534819Y-30898928D01*
X54630057Y-30089404D02*
X54582438Y-30041785D01*
X54582438Y-30041785D02*
X54534819Y-29946547D01*
X54534819Y-29946547D02*
X54534819Y-29708452D01*
X54534819Y-29708452D02*
X54582438Y-29613214D01*
X54582438Y-29613214D02*
X54630057Y-29565595D01*
X54630057Y-29565595D02*
X54725295Y-29517976D01*
X54725295Y-29517976D02*
X54820533Y-29517976D01*
X54820533Y-29517976D02*
X54963390Y-29565595D01*
X54963390Y-29565595D02*
X55534819Y-30137023D01*
X55534819Y-30137023D02*
X55534819Y-29517976D01*
X60440057Y-34647738D02*
X60392438Y-34742976D01*
X60392438Y-34742976D02*
X60297200Y-34838214D01*
X60297200Y-34838214D02*
X60154342Y-34981071D01*
X60154342Y-34981071D02*
X60106723Y-35076309D01*
X60106723Y-35076309D02*
X60106723Y-35171547D01*
X60344819Y-35123928D02*
X60297200Y-35219166D01*
X60297200Y-35219166D02*
X60201961Y-35314404D01*
X60201961Y-35314404D02*
X60011485Y-35362023D01*
X60011485Y-35362023D02*
X59678152Y-35362023D01*
X59678152Y-35362023D02*
X59487676Y-35314404D01*
X59487676Y-35314404D02*
X59392438Y-35219166D01*
X59392438Y-35219166D02*
X59344819Y-35123928D01*
X59344819Y-35123928D02*
X59344819Y-34933452D01*
X59344819Y-34933452D02*
X59392438Y-34838214D01*
X59392438Y-34838214D02*
X59487676Y-34742976D01*
X59487676Y-34742976D02*
X59678152Y-34695357D01*
X59678152Y-34695357D02*
X60011485Y-34695357D01*
X60011485Y-34695357D02*
X60201961Y-34742976D01*
X60201961Y-34742976D02*
X60297200Y-34838214D01*
X60297200Y-34838214D02*
X60344819Y-34933452D01*
X60344819Y-34933452D02*
X60344819Y-35123928D01*
X60344819Y-33742976D02*
X60344819Y-34314404D01*
X60344819Y-34028690D02*
X59344819Y-34028690D01*
X59344819Y-34028690D02*
X59487676Y-34123928D01*
X59487676Y-34123928D02*
X59582914Y-34219166D01*
X59582914Y-34219166D02*
X59630533Y-34314404D01*
X81379819Y-39513333D02*
X82094104Y-39513333D01*
X82094104Y-39513333D02*
X82236961Y-39560952D01*
X82236961Y-39560952D02*
X82332200Y-39656190D01*
X82332200Y-39656190D02*
X82379819Y-39799047D01*
X82379819Y-39799047D02*
X82379819Y-39894285D01*
X82379819Y-38513333D02*
X82379819Y-39084761D01*
X82379819Y-38799047D02*
X81379819Y-38799047D01*
X81379819Y-38799047D02*
X81522676Y-38894285D01*
X81522676Y-38894285D02*
X81617914Y-38989523D01*
X81617914Y-38989523D02*
X81665533Y-39084761D01*
X26713095Y-30029819D02*
X26713095Y-30839342D01*
X26713095Y-30839342D02*
X26760714Y-30934580D01*
X26760714Y-30934580D02*
X26808333Y-30982200D01*
X26808333Y-30982200D02*
X26903571Y-31029819D01*
X26903571Y-31029819D02*
X27094047Y-31029819D01*
X27094047Y-31029819D02*
X27189285Y-30982200D01*
X27189285Y-30982200D02*
X27236904Y-30934580D01*
X27236904Y-30934580D02*
X27284523Y-30839342D01*
X27284523Y-30839342D02*
X27284523Y-30029819D01*
X28236904Y-30029819D02*
X27760714Y-30029819D01*
X27760714Y-30029819D02*
X27713095Y-30506009D01*
X27713095Y-30506009D02*
X27760714Y-30458390D01*
X27760714Y-30458390D02*
X27855952Y-30410771D01*
X27855952Y-30410771D02*
X28094047Y-30410771D01*
X28094047Y-30410771D02*
X28189285Y-30458390D01*
X28189285Y-30458390D02*
X28236904Y-30506009D01*
X28236904Y-30506009D02*
X28284523Y-30601247D01*
X28284523Y-30601247D02*
X28284523Y-30839342D01*
X28284523Y-30839342D02*
X28236904Y-30934580D01*
X28236904Y-30934580D02*
X28189285Y-30982200D01*
X28189285Y-30982200D02*
X28094047Y-31029819D01*
X28094047Y-31029819D02*
X27855952Y-31029819D01*
X27855952Y-31029819D02*
X27760714Y-30982200D01*
X27760714Y-30982200D02*
X27713095Y-30934580D01*
X26713095Y-16789819D02*
X26713095Y-17599342D01*
X26713095Y-17599342D02*
X26760714Y-17694580D01*
X26760714Y-17694580D02*
X26808333Y-17742200D01*
X26808333Y-17742200D02*
X26903571Y-17789819D01*
X26903571Y-17789819D02*
X27094047Y-17789819D01*
X27094047Y-17789819D02*
X27189285Y-17742200D01*
X27189285Y-17742200D02*
X27236904Y-17694580D01*
X27236904Y-17694580D02*
X27284523Y-17599342D01*
X27284523Y-17599342D02*
X27284523Y-16789819D01*
X28189285Y-16789819D02*
X27998809Y-16789819D01*
X27998809Y-16789819D02*
X27903571Y-16837438D01*
X27903571Y-16837438D02*
X27855952Y-16885057D01*
X27855952Y-16885057D02*
X27760714Y-17027914D01*
X27760714Y-17027914D02*
X27713095Y-17218390D01*
X27713095Y-17218390D02*
X27713095Y-17599342D01*
X27713095Y-17599342D02*
X27760714Y-17694580D01*
X27760714Y-17694580D02*
X27808333Y-17742200D01*
X27808333Y-17742200D02*
X27903571Y-17789819D01*
X27903571Y-17789819D02*
X28094047Y-17789819D01*
X28094047Y-17789819D02*
X28189285Y-17742200D01*
X28189285Y-17742200D02*
X28236904Y-17694580D01*
X28236904Y-17694580D02*
X28284523Y-17599342D01*
X28284523Y-17599342D02*
X28284523Y-17361247D01*
X28284523Y-17361247D02*
X28236904Y-17266009D01*
X28236904Y-17266009D02*
X28189285Y-17218390D01*
X28189285Y-17218390D02*
X28094047Y-17170771D01*
X28094047Y-17170771D02*
X27903571Y-17170771D01*
X27903571Y-17170771D02*
X27808333Y-17218390D01*
X27808333Y-17218390D02*
X27760714Y-17266009D01*
X27760714Y-17266009D02*
X27713095Y-17361247D01*
X19982142Y-8054819D02*
X19648809Y-7578628D01*
X19410714Y-8054819D02*
X19410714Y-7054819D01*
X19410714Y-7054819D02*
X19791666Y-7054819D01*
X19791666Y-7054819D02*
X19886904Y-7102438D01*
X19886904Y-7102438D02*
X19934523Y-7150057D01*
X19934523Y-7150057D02*
X19982142Y-7245295D01*
X19982142Y-7245295D02*
X19982142Y-7388152D01*
X19982142Y-7388152D02*
X19934523Y-7483390D01*
X19934523Y-7483390D02*
X19886904Y-7531009D01*
X19886904Y-7531009D02*
X19791666Y-7578628D01*
X19791666Y-7578628D02*
X19410714Y-7578628D01*
X20934523Y-8054819D02*
X20363095Y-8054819D01*
X20648809Y-8054819D02*
X20648809Y-7054819D01*
X20648809Y-7054819D02*
X20553571Y-7197676D01*
X20553571Y-7197676D02*
X20458333Y-7292914D01*
X20458333Y-7292914D02*
X20363095Y-7340533D01*
X21791666Y-7054819D02*
X21601190Y-7054819D01*
X21601190Y-7054819D02*
X21505952Y-7102438D01*
X21505952Y-7102438D02*
X21458333Y-7150057D01*
X21458333Y-7150057D02*
X21363095Y-7292914D01*
X21363095Y-7292914D02*
X21315476Y-7483390D01*
X21315476Y-7483390D02*
X21315476Y-7864342D01*
X21315476Y-7864342D02*
X21363095Y-7959580D01*
X21363095Y-7959580D02*
X21410714Y-8007200D01*
X21410714Y-8007200D02*
X21505952Y-8054819D01*
X21505952Y-8054819D02*
X21696428Y-8054819D01*
X21696428Y-8054819D02*
X21791666Y-8007200D01*
X21791666Y-8007200D02*
X21839285Y-7959580D01*
X21839285Y-7959580D02*
X21886904Y-7864342D01*
X21886904Y-7864342D02*
X21886904Y-7626247D01*
X21886904Y-7626247D02*
X21839285Y-7531009D01*
X21839285Y-7531009D02*
X21791666Y-7483390D01*
X21791666Y-7483390D02*
X21696428Y-7435771D01*
X21696428Y-7435771D02*
X21505952Y-7435771D01*
X21505952Y-7435771D02*
X21410714Y-7483390D01*
X21410714Y-7483390D02*
X21363095Y-7531009D01*
X21363095Y-7531009D02*
X21315476Y-7626247D01*
X50982142Y-37854580D02*
X50934523Y-37902200D01*
X50934523Y-37902200D02*
X50791666Y-37949819D01*
X50791666Y-37949819D02*
X50696428Y-37949819D01*
X50696428Y-37949819D02*
X50553571Y-37902200D01*
X50553571Y-37902200D02*
X50458333Y-37806961D01*
X50458333Y-37806961D02*
X50410714Y-37711723D01*
X50410714Y-37711723D02*
X50363095Y-37521247D01*
X50363095Y-37521247D02*
X50363095Y-37378390D01*
X50363095Y-37378390D02*
X50410714Y-37187914D01*
X50410714Y-37187914D02*
X50458333Y-37092676D01*
X50458333Y-37092676D02*
X50553571Y-36997438D01*
X50553571Y-36997438D02*
X50696428Y-36949819D01*
X50696428Y-36949819D02*
X50791666Y-36949819D01*
X50791666Y-36949819D02*
X50934523Y-36997438D01*
X50934523Y-36997438D02*
X50982142Y-37045057D01*
X51934523Y-37949819D02*
X51363095Y-37949819D01*
X51648809Y-37949819D02*
X51648809Y-36949819D01*
X51648809Y-36949819D02*
X51553571Y-37092676D01*
X51553571Y-37092676D02*
X51458333Y-37187914D01*
X51458333Y-37187914D02*
X51363095Y-37235533D01*
X52553571Y-36949819D02*
X52648809Y-36949819D01*
X52648809Y-36949819D02*
X52744047Y-36997438D01*
X52744047Y-36997438D02*
X52791666Y-37045057D01*
X52791666Y-37045057D02*
X52839285Y-37140295D01*
X52839285Y-37140295D02*
X52886904Y-37330771D01*
X52886904Y-37330771D02*
X52886904Y-37568866D01*
X52886904Y-37568866D02*
X52839285Y-37759342D01*
X52839285Y-37759342D02*
X52791666Y-37854580D01*
X52791666Y-37854580D02*
X52744047Y-37902200D01*
X52744047Y-37902200D02*
X52648809Y-37949819D01*
X52648809Y-37949819D02*
X52553571Y-37949819D01*
X52553571Y-37949819D02*
X52458333Y-37902200D01*
X52458333Y-37902200D02*
X52410714Y-37854580D01*
X52410714Y-37854580D02*
X52363095Y-37759342D01*
X52363095Y-37759342D02*
X52315476Y-37568866D01*
X52315476Y-37568866D02*
X52315476Y-37330771D01*
X52315476Y-37330771D02*
X52363095Y-37140295D01*
X52363095Y-37140295D02*
X52410714Y-37045057D01*
X52410714Y-37045057D02*
X52458333Y-36997438D01*
X52458333Y-36997438D02*
X52553571Y-36949819D01*
X39594819Y-25441904D02*
X40404342Y-25441904D01*
X40404342Y-25441904D02*
X40499580Y-25394285D01*
X40499580Y-25394285D02*
X40547200Y-25346666D01*
X40547200Y-25346666D02*
X40594819Y-25251428D01*
X40594819Y-25251428D02*
X40594819Y-25060952D01*
X40594819Y-25060952D02*
X40547200Y-24965714D01*
X40547200Y-24965714D02*
X40499580Y-24918095D01*
X40499580Y-24918095D02*
X40404342Y-24870476D01*
X40404342Y-24870476D02*
X39594819Y-24870476D01*
X40594819Y-23870476D02*
X40594819Y-24441904D01*
X40594819Y-24156190D02*
X39594819Y-24156190D01*
X39594819Y-24156190D02*
X39737676Y-24251428D01*
X39737676Y-24251428D02*
X39832914Y-24346666D01*
X39832914Y-24346666D02*
X39880533Y-24441904D01*
X10431905Y-30224819D02*
X10431905Y-29224819D01*
X10431905Y-29224819D02*
X10670000Y-29224819D01*
X10670000Y-29224819D02*
X10812857Y-29272438D01*
X10812857Y-29272438D02*
X10908095Y-29367676D01*
X10908095Y-29367676D02*
X10955714Y-29462914D01*
X10955714Y-29462914D02*
X11003333Y-29653390D01*
X11003333Y-29653390D02*
X11003333Y-29796247D01*
X11003333Y-29796247D02*
X10955714Y-29986723D01*
X10955714Y-29986723D02*
X10908095Y-30081961D01*
X10908095Y-30081961D02*
X10812857Y-30177200D01*
X10812857Y-30177200D02*
X10670000Y-30224819D01*
X10670000Y-30224819D02*
X10431905Y-30224819D01*
X11384286Y-29320057D02*
X11431905Y-29272438D01*
X11431905Y-29272438D02*
X11527143Y-29224819D01*
X11527143Y-29224819D02*
X11765238Y-29224819D01*
X11765238Y-29224819D02*
X11860476Y-29272438D01*
X11860476Y-29272438D02*
X11908095Y-29320057D01*
X11908095Y-29320057D02*
X11955714Y-29415295D01*
X11955714Y-29415295D02*
X11955714Y-29510533D01*
X11955714Y-29510533D02*
X11908095Y-29653390D01*
X11908095Y-29653390D02*
X11336667Y-30224819D01*
X11336667Y-30224819D02*
X11955714Y-30224819D01*
X34308333Y-25729819D02*
X33975000Y-25253628D01*
X33736905Y-25729819D02*
X33736905Y-24729819D01*
X33736905Y-24729819D02*
X34117857Y-24729819D01*
X34117857Y-24729819D02*
X34213095Y-24777438D01*
X34213095Y-24777438D02*
X34260714Y-24825057D01*
X34260714Y-24825057D02*
X34308333Y-24920295D01*
X34308333Y-24920295D02*
X34308333Y-25063152D01*
X34308333Y-25063152D02*
X34260714Y-25158390D01*
X34260714Y-25158390D02*
X34213095Y-25206009D01*
X34213095Y-25206009D02*
X34117857Y-25253628D01*
X34117857Y-25253628D02*
X33736905Y-25253628D01*
X34641667Y-24729819D02*
X35308333Y-24729819D01*
X35308333Y-24729819D02*
X34879762Y-25729819D01*
X27894580Y-38214166D02*
X27942200Y-38261785D01*
X27942200Y-38261785D02*
X27989819Y-38404642D01*
X27989819Y-38404642D02*
X27989819Y-38499880D01*
X27989819Y-38499880D02*
X27942200Y-38642737D01*
X27942200Y-38642737D02*
X27846961Y-38737975D01*
X27846961Y-38737975D02*
X27751723Y-38785594D01*
X27751723Y-38785594D02*
X27561247Y-38833213D01*
X27561247Y-38833213D02*
X27418390Y-38833213D01*
X27418390Y-38833213D02*
X27227914Y-38785594D01*
X27227914Y-38785594D02*
X27132676Y-38737975D01*
X27132676Y-38737975D02*
X27037438Y-38642737D01*
X27037438Y-38642737D02*
X26989819Y-38499880D01*
X26989819Y-38499880D02*
X26989819Y-38404642D01*
X26989819Y-38404642D02*
X27037438Y-38261785D01*
X27037438Y-38261785D02*
X27085057Y-38214166D01*
X26989819Y-37880832D02*
X26989819Y-37214166D01*
X26989819Y-37214166D02*
X27989819Y-37642737D01*
X46937142Y-28879580D02*
X46889523Y-28927200D01*
X46889523Y-28927200D02*
X46746666Y-28974819D01*
X46746666Y-28974819D02*
X46651428Y-28974819D01*
X46651428Y-28974819D02*
X46508571Y-28927200D01*
X46508571Y-28927200D02*
X46413333Y-28831961D01*
X46413333Y-28831961D02*
X46365714Y-28736723D01*
X46365714Y-28736723D02*
X46318095Y-28546247D01*
X46318095Y-28546247D02*
X46318095Y-28403390D01*
X46318095Y-28403390D02*
X46365714Y-28212914D01*
X46365714Y-28212914D02*
X46413333Y-28117676D01*
X46413333Y-28117676D02*
X46508571Y-28022438D01*
X46508571Y-28022438D02*
X46651428Y-27974819D01*
X46651428Y-27974819D02*
X46746666Y-27974819D01*
X46746666Y-27974819D02*
X46889523Y-28022438D01*
X46889523Y-28022438D02*
X46937142Y-28070057D01*
X47889523Y-28974819D02*
X47318095Y-28974819D01*
X47603809Y-28974819D02*
X47603809Y-27974819D01*
X47603809Y-27974819D02*
X47508571Y-28117676D01*
X47508571Y-28117676D02*
X47413333Y-28212914D01*
X47413333Y-28212914D02*
X47318095Y-28260533D01*
X48841904Y-28974819D02*
X48270476Y-28974819D01*
X48556190Y-28974819D02*
X48556190Y-27974819D01*
X48556190Y-27974819D02*
X48460952Y-28117676D01*
X48460952Y-28117676D02*
X48365714Y-28212914D01*
X48365714Y-28212914D02*
X48270476Y-28260533D01*
X34144642Y-22029819D02*
X33811309Y-21553628D01*
X33573214Y-22029819D02*
X33573214Y-21029819D01*
X33573214Y-21029819D02*
X33954166Y-21029819D01*
X33954166Y-21029819D02*
X34049404Y-21077438D01*
X34049404Y-21077438D02*
X34097023Y-21125057D01*
X34097023Y-21125057D02*
X34144642Y-21220295D01*
X34144642Y-21220295D02*
X34144642Y-21363152D01*
X34144642Y-21363152D02*
X34097023Y-21458390D01*
X34097023Y-21458390D02*
X34049404Y-21506009D01*
X34049404Y-21506009D02*
X33954166Y-21553628D01*
X33954166Y-21553628D02*
X33573214Y-21553628D01*
X35097023Y-22029819D02*
X34525595Y-22029819D01*
X34811309Y-22029819D02*
X34811309Y-21029819D01*
X34811309Y-21029819D02*
X34716071Y-21172676D01*
X34716071Y-21172676D02*
X34620833Y-21267914D01*
X34620833Y-21267914D02*
X34525595Y-21315533D01*
X35954166Y-21363152D02*
X35954166Y-22029819D01*
X35716071Y-20982200D02*
X35477976Y-21696485D01*
X35477976Y-21696485D02*
X36097023Y-21696485D01*
X37484580Y-2641666D02*
X37532200Y-2689285D01*
X37532200Y-2689285D02*
X37579819Y-2832142D01*
X37579819Y-2832142D02*
X37579819Y-2927380D01*
X37579819Y-2927380D02*
X37532200Y-3070237D01*
X37532200Y-3070237D02*
X37436961Y-3165475D01*
X37436961Y-3165475D02*
X37341723Y-3213094D01*
X37341723Y-3213094D02*
X37151247Y-3260713D01*
X37151247Y-3260713D02*
X37008390Y-3260713D01*
X37008390Y-3260713D02*
X36817914Y-3213094D01*
X36817914Y-3213094D02*
X36722676Y-3165475D01*
X36722676Y-3165475D02*
X36627438Y-3070237D01*
X36627438Y-3070237D02*
X36579819Y-2927380D01*
X36579819Y-2927380D02*
X36579819Y-2832142D01*
X36579819Y-2832142D02*
X36627438Y-2689285D01*
X36627438Y-2689285D02*
X36675057Y-2641666D01*
X36913152Y-1784523D02*
X37579819Y-1784523D01*
X36532200Y-2022618D02*
X37246485Y-2260713D01*
X37246485Y-2260713D02*
X37246485Y-1641666D01*
X73754819Y-8631666D02*
X73278628Y-8964999D01*
X73754819Y-9203094D02*
X72754819Y-9203094D01*
X72754819Y-9203094D02*
X72754819Y-8822142D01*
X72754819Y-8822142D02*
X72802438Y-8726904D01*
X72802438Y-8726904D02*
X72850057Y-8679285D01*
X72850057Y-8679285D02*
X72945295Y-8631666D01*
X72945295Y-8631666D02*
X73088152Y-8631666D01*
X73088152Y-8631666D02*
X73183390Y-8679285D01*
X73183390Y-8679285D02*
X73231009Y-8726904D01*
X73231009Y-8726904D02*
X73278628Y-8822142D01*
X73278628Y-8822142D02*
X73278628Y-9203094D01*
X72754819Y-7726904D02*
X72754819Y-8203094D01*
X72754819Y-8203094D02*
X73231009Y-8250713D01*
X73231009Y-8250713D02*
X73183390Y-8203094D01*
X73183390Y-8203094D02*
X73135771Y-8107856D01*
X73135771Y-8107856D02*
X73135771Y-7869761D01*
X73135771Y-7869761D02*
X73183390Y-7774523D01*
X73183390Y-7774523D02*
X73231009Y-7726904D01*
X73231009Y-7726904D02*
X73326247Y-7679285D01*
X73326247Y-7679285D02*
X73564342Y-7679285D01*
X73564342Y-7679285D02*
X73659580Y-7726904D01*
X73659580Y-7726904D02*
X73707200Y-7774523D01*
X73707200Y-7774523D02*
X73754819Y-7869761D01*
X73754819Y-7869761D02*
X73754819Y-8107856D01*
X73754819Y-8107856D02*
X73707200Y-8203094D01*
X73707200Y-8203094D02*
X73659580Y-8250713D01*
X38529819Y-12891666D02*
X38053628Y-13224999D01*
X38529819Y-13463094D02*
X37529819Y-13463094D01*
X37529819Y-13463094D02*
X37529819Y-13082142D01*
X37529819Y-13082142D02*
X37577438Y-12986904D01*
X37577438Y-12986904D02*
X37625057Y-12939285D01*
X37625057Y-12939285D02*
X37720295Y-12891666D01*
X37720295Y-12891666D02*
X37863152Y-12891666D01*
X37863152Y-12891666D02*
X37958390Y-12939285D01*
X37958390Y-12939285D02*
X38006009Y-12986904D01*
X38006009Y-12986904D02*
X38053628Y-13082142D01*
X38053628Y-13082142D02*
X38053628Y-13463094D01*
X38529819Y-11939285D02*
X38529819Y-12510713D01*
X38529819Y-12224999D02*
X37529819Y-12224999D01*
X37529819Y-12224999D02*
X37672676Y-12320237D01*
X37672676Y-12320237D02*
X37767914Y-12415475D01*
X37767914Y-12415475D02*
X37815533Y-12510713D01*
X40134580Y-11191666D02*
X40182200Y-11239285D01*
X40182200Y-11239285D02*
X40229819Y-11382142D01*
X40229819Y-11382142D02*
X40229819Y-11477380D01*
X40229819Y-11477380D02*
X40182200Y-11620237D01*
X40182200Y-11620237D02*
X40086961Y-11715475D01*
X40086961Y-11715475D02*
X39991723Y-11763094D01*
X39991723Y-11763094D02*
X39801247Y-11810713D01*
X39801247Y-11810713D02*
X39658390Y-11810713D01*
X39658390Y-11810713D02*
X39467914Y-11763094D01*
X39467914Y-11763094D02*
X39372676Y-11715475D01*
X39372676Y-11715475D02*
X39277438Y-11620237D01*
X39277438Y-11620237D02*
X39229819Y-11477380D01*
X39229819Y-11477380D02*
X39229819Y-11382142D01*
X39229819Y-11382142D02*
X39277438Y-11239285D01*
X39277438Y-11239285D02*
X39325057Y-11191666D01*
X39658390Y-10620237D02*
X39610771Y-10715475D01*
X39610771Y-10715475D02*
X39563152Y-10763094D01*
X39563152Y-10763094D02*
X39467914Y-10810713D01*
X39467914Y-10810713D02*
X39420295Y-10810713D01*
X39420295Y-10810713D02*
X39325057Y-10763094D01*
X39325057Y-10763094D02*
X39277438Y-10715475D01*
X39277438Y-10715475D02*
X39229819Y-10620237D01*
X39229819Y-10620237D02*
X39229819Y-10429761D01*
X39229819Y-10429761D02*
X39277438Y-10334523D01*
X39277438Y-10334523D02*
X39325057Y-10286904D01*
X39325057Y-10286904D02*
X39420295Y-10239285D01*
X39420295Y-10239285D02*
X39467914Y-10239285D01*
X39467914Y-10239285D02*
X39563152Y-10286904D01*
X39563152Y-10286904D02*
X39610771Y-10334523D01*
X39610771Y-10334523D02*
X39658390Y-10429761D01*
X39658390Y-10429761D02*
X39658390Y-10620237D01*
X39658390Y-10620237D02*
X39706009Y-10715475D01*
X39706009Y-10715475D02*
X39753628Y-10763094D01*
X39753628Y-10763094D02*
X39848866Y-10810713D01*
X39848866Y-10810713D02*
X40039342Y-10810713D01*
X40039342Y-10810713D02*
X40134580Y-10763094D01*
X40134580Y-10763094D02*
X40182200Y-10715475D01*
X40182200Y-10715475D02*
X40229819Y-10620237D01*
X40229819Y-10620237D02*
X40229819Y-10429761D01*
X40229819Y-10429761D02*
X40182200Y-10334523D01*
X40182200Y-10334523D02*
X40134580Y-10286904D01*
X40134580Y-10286904D02*
X40039342Y-10239285D01*
X40039342Y-10239285D02*
X39848866Y-10239285D01*
X39848866Y-10239285D02*
X39753628Y-10286904D01*
X39753628Y-10286904D02*
X39706009Y-10334523D01*
X39706009Y-10334523D02*
X39658390Y-10429761D01*
X34308333Y-31029819D02*
X33975000Y-30553628D01*
X33736905Y-31029819D02*
X33736905Y-30029819D01*
X33736905Y-30029819D02*
X34117857Y-30029819D01*
X34117857Y-30029819D02*
X34213095Y-30077438D01*
X34213095Y-30077438D02*
X34260714Y-30125057D01*
X34260714Y-30125057D02*
X34308333Y-30220295D01*
X34308333Y-30220295D02*
X34308333Y-30363152D01*
X34308333Y-30363152D02*
X34260714Y-30458390D01*
X34260714Y-30458390D02*
X34213095Y-30506009D01*
X34213095Y-30506009D02*
X34117857Y-30553628D01*
X34117857Y-30553628D02*
X33736905Y-30553628D01*
X34879762Y-30458390D02*
X34784524Y-30410771D01*
X34784524Y-30410771D02*
X34736905Y-30363152D01*
X34736905Y-30363152D02*
X34689286Y-30267914D01*
X34689286Y-30267914D02*
X34689286Y-30220295D01*
X34689286Y-30220295D02*
X34736905Y-30125057D01*
X34736905Y-30125057D02*
X34784524Y-30077438D01*
X34784524Y-30077438D02*
X34879762Y-30029819D01*
X34879762Y-30029819D02*
X35070238Y-30029819D01*
X35070238Y-30029819D02*
X35165476Y-30077438D01*
X35165476Y-30077438D02*
X35213095Y-30125057D01*
X35213095Y-30125057D02*
X35260714Y-30220295D01*
X35260714Y-30220295D02*
X35260714Y-30267914D01*
X35260714Y-30267914D02*
X35213095Y-30363152D01*
X35213095Y-30363152D02*
X35165476Y-30410771D01*
X35165476Y-30410771D02*
X35070238Y-30458390D01*
X35070238Y-30458390D02*
X34879762Y-30458390D01*
X34879762Y-30458390D02*
X34784524Y-30506009D01*
X34784524Y-30506009D02*
X34736905Y-30553628D01*
X34736905Y-30553628D02*
X34689286Y-30648866D01*
X34689286Y-30648866D02*
X34689286Y-30839342D01*
X34689286Y-30839342D02*
X34736905Y-30934580D01*
X34736905Y-30934580D02*
X34784524Y-30982200D01*
X34784524Y-30982200D02*
X34879762Y-31029819D01*
X34879762Y-31029819D02*
X35070238Y-31029819D01*
X35070238Y-31029819D02*
X35165476Y-30982200D01*
X35165476Y-30982200D02*
X35213095Y-30934580D01*
X35213095Y-30934580D02*
X35260714Y-30839342D01*
X35260714Y-30839342D02*
X35260714Y-30648866D01*
X35260714Y-30648866D02*
X35213095Y-30553628D01*
X35213095Y-30553628D02*
X35165476Y-30506009D01*
X35165476Y-30506009D02*
X35070238Y-30458390D01*
X31379761Y-31125057D02*
X31284523Y-31077438D01*
X31284523Y-31077438D02*
X31189285Y-30982200D01*
X31189285Y-30982200D02*
X31046428Y-30839342D01*
X31046428Y-30839342D02*
X30951190Y-30791723D01*
X30951190Y-30791723D02*
X30855952Y-30791723D01*
X30903571Y-31029819D02*
X30808333Y-30982200D01*
X30808333Y-30982200D02*
X30713095Y-30886961D01*
X30713095Y-30886961D02*
X30665476Y-30696485D01*
X30665476Y-30696485D02*
X30665476Y-30363152D01*
X30665476Y-30363152D02*
X30713095Y-30172676D01*
X30713095Y-30172676D02*
X30808333Y-30077438D01*
X30808333Y-30077438D02*
X30903571Y-30029819D01*
X30903571Y-30029819D02*
X31094047Y-30029819D01*
X31094047Y-30029819D02*
X31189285Y-30077438D01*
X31189285Y-30077438D02*
X31284523Y-30172676D01*
X31284523Y-30172676D02*
X31332142Y-30363152D01*
X31332142Y-30363152D02*
X31332142Y-30696485D01*
X31332142Y-30696485D02*
X31284523Y-30886961D01*
X31284523Y-30886961D02*
X31189285Y-30982200D01*
X31189285Y-30982200D02*
X31094047Y-31029819D01*
X31094047Y-31029819D02*
X30903571Y-31029819D01*
X31665476Y-30029819D02*
X32284523Y-30029819D01*
X32284523Y-30029819D02*
X31951190Y-30410771D01*
X31951190Y-30410771D02*
X32094047Y-30410771D01*
X32094047Y-30410771D02*
X32189285Y-30458390D01*
X32189285Y-30458390D02*
X32236904Y-30506009D01*
X32236904Y-30506009D02*
X32284523Y-30601247D01*
X32284523Y-30601247D02*
X32284523Y-30839342D01*
X32284523Y-30839342D02*
X32236904Y-30934580D01*
X32236904Y-30934580D02*
X32189285Y-30982200D01*
X32189285Y-30982200D02*
X32094047Y-31029819D01*
X32094047Y-31029819D02*
X31808333Y-31029819D01*
X31808333Y-31029819D02*
X31713095Y-30982200D01*
X31713095Y-30982200D02*
X31665476Y-30934580D01*
X33788095Y-8392319D02*
X33788095Y-9201842D01*
X33788095Y-9201842D02*
X33835714Y-9297080D01*
X33835714Y-9297080D02*
X33883333Y-9344700D01*
X33883333Y-9344700D02*
X33978571Y-9392319D01*
X33978571Y-9392319D02*
X34169047Y-9392319D01*
X34169047Y-9392319D02*
X34264285Y-9344700D01*
X34264285Y-9344700D02*
X34311904Y-9297080D01*
X34311904Y-9297080D02*
X34359523Y-9201842D01*
X34359523Y-9201842D02*
X34359523Y-8392319D01*
X34978571Y-8820890D02*
X34883333Y-8773271D01*
X34883333Y-8773271D02*
X34835714Y-8725652D01*
X34835714Y-8725652D02*
X34788095Y-8630414D01*
X34788095Y-8630414D02*
X34788095Y-8582795D01*
X34788095Y-8582795D02*
X34835714Y-8487557D01*
X34835714Y-8487557D02*
X34883333Y-8439938D01*
X34883333Y-8439938D02*
X34978571Y-8392319D01*
X34978571Y-8392319D02*
X35169047Y-8392319D01*
X35169047Y-8392319D02*
X35264285Y-8439938D01*
X35264285Y-8439938D02*
X35311904Y-8487557D01*
X35311904Y-8487557D02*
X35359523Y-8582795D01*
X35359523Y-8582795D02*
X35359523Y-8630414D01*
X35359523Y-8630414D02*
X35311904Y-8725652D01*
X35311904Y-8725652D02*
X35264285Y-8773271D01*
X35264285Y-8773271D02*
X35169047Y-8820890D01*
X35169047Y-8820890D02*
X34978571Y-8820890D01*
X34978571Y-8820890D02*
X34883333Y-8868509D01*
X34883333Y-8868509D02*
X34835714Y-8916128D01*
X34835714Y-8916128D02*
X34788095Y-9011366D01*
X34788095Y-9011366D02*
X34788095Y-9201842D01*
X34788095Y-9201842D02*
X34835714Y-9297080D01*
X34835714Y-9297080D02*
X34883333Y-9344700D01*
X34883333Y-9344700D02*
X34978571Y-9392319D01*
X34978571Y-9392319D02*
X35169047Y-9392319D01*
X35169047Y-9392319D02*
X35264285Y-9344700D01*
X35264285Y-9344700D02*
X35311904Y-9297080D01*
X35311904Y-9297080D02*
X35359523Y-9201842D01*
X35359523Y-9201842D02*
X35359523Y-9011366D01*
X35359523Y-9011366D02*
X35311904Y-8916128D01*
X35311904Y-8916128D02*
X35264285Y-8868509D01*
X35264285Y-8868509D02*
X35169047Y-8820890D01*
X78934819Y-37041904D02*
X79744342Y-37041904D01*
X79744342Y-37041904D02*
X79839580Y-36994285D01*
X79839580Y-36994285D02*
X79887200Y-36946666D01*
X79887200Y-36946666D02*
X79934819Y-36851428D01*
X79934819Y-36851428D02*
X79934819Y-36660952D01*
X79934819Y-36660952D02*
X79887200Y-36565714D01*
X79887200Y-36565714D02*
X79839580Y-36518095D01*
X79839580Y-36518095D02*
X79744342Y-36470476D01*
X79744342Y-36470476D02*
X78934819Y-36470476D01*
X78934819Y-36089523D02*
X78934819Y-35470476D01*
X78934819Y-35470476D02*
X79315771Y-35803809D01*
X79315771Y-35803809D02*
X79315771Y-35660952D01*
X79315771Y-35660952D02*
X79363390Y-35565714D01*
X79363390Y-35565714D02*
X79411009Y-35518095D01*
X79411009Y-35518095D02*
X79506247Y-35470476D01*
X79506247Y-35470476D02*
X79744342Y-35470476D01*
X79744342Y-35470476D02*
X79839580Y-35518095D01*
X79839580Y-35518095D02*
X79887200Y-35565714D01*
X79887200Y-35565714D02*
X79934819Y-35660952D01*
X79934819Y-35660952D02*
X79934819Y-35946666D01*
X79934819Y-35946666D02*
X79887200Y-36041904D01*
X79887200Y-36041904D02*
X79839580Y-36089523D01*
X17301905Y-5604819D02*
X17301905Y-4604819D01*
X17301905Y-4604819D02*
X17540000Y-4604819D01*
X17540000Y-4604819D02*
X17682857Y-4652438D01*
X17682857Y-4652438D02*
X17778095Y-4747676D01*
X17778095Y-4747676D02*
X17825714Y-4842914D01*
X17825714Y-4842914D02*
X17873333Y-5033390D01*
X17873333Y-5033390D02*
X17873333Y-5176247D01*
X17873333Y-5176247D02*
X17825714Y-5366723D01*
X17825714Y-5366723D02*
X17778095Y-5461961D01*
X17778095Y-5461961D02*
X17682857Y-5557200D01*
X17682857Y-5557200D02*
X17540000Y-5604819D01*
X17540000Y-5604819D02*
X17301905Y-5604819D01*
X18730476Y-4604819D02*
X18540000Y-4604819D01*
X18540000Y-4604819D02*
X18444762Y-4652438D01*
X18444762Y-4652438D02*
X18397143Y-4700057D01*
X18397143Y-4700057D02*
X18301905Y-4842914D01*
X18301905Y-4842914D02*
X18254286Y-5033390D01*
X18254286Y-5033390D02*
X18254286Y-5414342D01*
X18254286Y-5414342D02*
X18301905Y-5509580D01*
X18301905Y-5509580D02*
X18349524Y-5557200D01*
X18349524Y-5557200D02*
X18444762Y-5604819D01*
X18444762Y-5604819D02*
X18635238Y-5604819D01*
X18635238Y-5604819D02*
X18730476Y-5557200D01*
X18730476Y-5557200D02*
X18778095Y-5509580D01*
X18778095Y-5509580D02*
X18825714Y-5414342D01*
X18825714Y-5414342D02*
X18825714Y-5176247D01*
X18825714Y-5176247D02*
X18778095Y-5081009D01*
X18778095Y-5081009D02*
X18730476Y-5033390D01*
X18730476Y-5033390D02*
X18635238Y-4985771D01*
X18635238Y-4985771D02*
X18444762Y-4985771D01*
X18444762Y-4985771D02*
X18349524Y-5033390D01*
X18349524Y-5033390D02*
X18301905Y-5081009D01*
X18301905Y-5081009D02*
X18254286Y-5176247D01*
D14*
%TO.C,R13*%
X54397776Y-40467500D02*
X54907224Y-40467500D01*
X54397776Y-41512500D02*
X54907224Y-41512500D01*
%TO.C,R2*%
X57967776Y-40467500D02*
X58477224Y-40467500D01*
X57967776Y-41512500D02*
X58477224Y-41512500D01*
%TO.C,C3*%
X83840000Y-11103733D02*
X83840000Y-11396267D01*
X84860000Y-11103733D02*
X84860000Y-11396267D01*
%TO.C,D3*%
X37535000Y-27275000D02*
X37535000Y-29735000D01*
X37535000Y-29735000D02*
X39005000Y-29735000D01*
X39005000Y-29735000D02*
X39005000Y-27275000D01*
%TO.C,SW1*%
X475000Y-26900000D02*
X475000Y-29100000D01*
X475000Y-33200000D02*
X475000Y-35500000D01*
X5075000Y-26900000D02*
X5075000Y-35500000D01*
%TO.C,D1*%
X5865000Y-19002500D02*
X9985000Y-19002500D01*
X5865000Y-19170000D02*
X5865000Y-19002500D01*
X5865000Y-23947500D02*
X5865000Y-23780000D01*
X9985000Y-19002500D02*
X9985000Y-19170000D01*
X9985000Y-23780000D02*
X9985000Y-23947500D01*
X9985000Y-23947500D02*
X5865000Y-23947500D01*
X11515000Y-24255000D02*
X10835000Y-24255000D01*
X11175000Y-23785000D01*
X11515000Y-24255000D01*
G36*
X11515000Y-24255000D02*
G01*
X10835000Y-24255000D01*
X11175000Y-23785000D01*
X11515000Y-24255000D01*
G37*
%TO.C,U2*%
X137500Y-2120000D02*
X67577500Y-2120000D01*
X137500Y-42460000D02*
X137500Y-2120000D01*
X67577500Y-2120000D02*
X67577500Y-42460000D01*
X67577500Y-42460000D02*
X137500Y-42460000D01*
X67957500Y-35450000D02*
X67957500Y-30450000D01*
%TO.C,R11*%
X16907776Y-19852500D02*
X17417224Y-19852500D01*
X16907776Y-20897500D02*
X17417224Y-20897500D01*
%TO.C,R9*%
X35887500Y-27817776D02*
X35887500Y-28327224D01*
X36932500Y-27817776D02*
X36932500Y-28327224D01*
%TO.C,BT1*%
X30585000Y-38140000D02*
X30585000Y-35490000D01*
X33345000Y-35490000D02*
X30585000Y-35490000D01*
X33345000Y-38140000D02*
X30585000Y-38140000D01*
X33345000Y-38140000D02*
X33345000Y-35490000D01*
X33345000Y-39410000D02*
X33345000Y-40790000D01*
X33345000Y-40790000D02*
X31965000Y-40790000D01*
%TO.C,C5*%
X59710000Y-29926233D02*
X59710000Y-30218767D01*
X60730000Y-29926233D02*
X60730000Y-30218767D01*
%TO.C,Q4*%
X15465000Y-22640000D02*
X15515000Y-22640000D01*
X15465000Y-24160000D02*
X15465000Y-22640000D01*
X16465000Y-24160000D02*
X15465000Y-24160000D01*
X16635000Y-22640000D02*
X17415000Y-22640000D01*
X18535000Y-22640000D02*
X18585000Y-22640000D01*
X18585000Y-22640000D02*
X18585000Y-24160000D01*
X18585000Y-24160000D02*
X17585000Y-24160000D01*
X17405000Y-22100000D02*
X17075000Y-22340000D01*
X17075000Y-21860000D01*
X17405000Y-22100000D01*
G36*
X17405000Y-22100000D02*
G01*
X17075000Y-22340000D01*
X17075000Y-21860000D01*
X17405000Y-22100000D01*
G37*
%TO.C,L1*%
X40930000Y-38075000D02*
X41630000Y-38075000D01*
X40930000Y-42495000D02*
X40930000Y-38075000D01*
X41630000Y-42495000D02*
X40930000Y-42495000D01*
X44650000Y-38075000D02*
X45350000Y-38075000D01*
X45350000Y-38075000D02*
X45350000Y-42495000D01*
X45350000Y-42495000D02*
X44650000Y-42495000D01*
%TO.C,U9*%
X35512500Y-37815000D02*
X37332500Y-37815000D01*
X35512500Y-37865000D02*
X35512500Y-37815000D01*
X35512500Y-40935000D02*
X35512500Y-40885000D01*
X37332500Y-37815000D02*
X37332500Y-37865000D01*
X37332500Y-38985000D02*
X37332500Y-39765000D01*
X37332500Y-40885000D02*
X37332500Y-40935000D01*
X37332500Y-40935000D02*
X35512500Y-40935000D01*
X34972500Y-37865000D02*
X34732500Y-37535000D01*
X35212500Y-37535000D01*
X34972500Y-37865000D01*
G36*
X34972500Y-37865000D02*
G01*
X34732500Y-37535000D01*
X35212500Y-37535000D01*
X34972500Y-37865000D01*
G37*
%TO.C,F1*%
X9590000Y-16502064D02*
X9590000Y-15297936D01*
X11410000Y-16502064D02*
X11410000Y-15297936D01*
%TO.C,Q7*%
X30652500Y-11365000D02*
X32172500Y-11365000D01*
X30652500Y-12365000D02*
X30652500Y-11365000D01*
X30652500Y-14485000D02*
X30652500Y-13485000D01*
X32172500Y-11365000D02*
X32172500Y-11415000D01*
X32172500Y-12535000D02*
X32172500Y-13315000D01*
X32172500Y-14435000D02*
X32172500Y-14485000D01*
X32172500Y-14485000D02*
X30652500Y-14485000D01*
X32712500Y-13305000D02*
X32472500Y-12975000D01*
X32952500Y-12975000D01*
X32712500Y-13305000D01*
G36*
X32712500Y-13305000D02*
G01*
X32472500Y-12975000D01*
X32952500Y-12975000D01*
X32712500Y-13305000D01*
G37*
%TO.C,Q6*%
X18777500Y-10215000D02*
X20297500Y-10215000D01*
X18777500Y-10265000D02*
X18777500Y-10215000D01*
X18777500Y-12165000D02*
X18777500Y-11385000D01*
X18777500Y-13335000D02*
X18777500Y-13285000D01*
X20297500Y-10215000D02*
X20297500Y-11215000D01*
X20297500Y-12335000D02*
X20297500Y-13335000D01*
X20297500Y-13335000D02*
X18777500Y-13335000D01*
X18477500Y-11725000D02*
X17997500Y-11725000D01*
X18237500Y-11395000D01*
X18477500Y-11725000D01*
G36*
X18477500Y-11725000D02*
G01*
X17997500Y-11725000D01*
X18237500Y-11395000D01*
X18477500Y-11725000D01*
G37*
%TO.C,C1*%
X24766233Y-6715000D02*
X25058767Y-6715000D01*
X24766233Y-7735000D02*
X25058767Y-7735000D01*
%TO.C,R12*%
X31220276Y-23002500D02*
X31729724Y-23002500D01*
X31220276Y-24047500D02*
X31729724Y-24047500D01*
%TO.C,R10*%
X16920276Y-18152500D02*
X17429724Y-18152500D01*
X16920276Y-19197500D02*
X17429724Y-19197500D01*
%TO.C,D5*%
X15610000Y-2875000D02*
X11600000Y-2875000D01*
X15610000Y-4875000D02*
X11600000Y-4875000D01*
X15610000Y-4875000D02*
X15610000Y-2875000D01*
%TO.C,U7*%
X46667500Y-38775000D02*
X49387500Y-38775000D01*
X49387500Y-41545000D02*
X46667500Y-41545000D01*
X46137500Y-39160000D02*
X45807500Y-39400000D01*
X45807500Y-38920000D01*
X46137500Y-39160000D01*
G36*
X46137500Y-39160000D02*
G01*
X45807500Y-39400000D01*
X45807500Y-38920000D01*
X46137500Y-39160000D01*
G37*
%TO.C,D8*%
X74040000Y-3154000D02*
X74040000Y-3310000D01*
X74040000Y-5470000D02*
X74040000Y-5626000D01*
X74040000Y-3154484D02*
G75*
G02*
X77271437Y-3310000I1560000J-1235516D01*
G01*
X74559039Y-3310000D02*
G75*
G02*
X76640961Y-3310000I1040961J-1080000D01*
G01*
X76640961Y-5470000D02*
G75*
G02*
X74559039Y-5470000I-1040961J1080000D01*
G01*
X77271437Y-5470000D02*
G75*
G02*
X74040000Y-5625516I-1671437J1080000D01*
G01*
%TO.C,C6*%
X79040000Y-42051233D02*
X79040000Y-42343767D01*
X80060000Y-42051233D02*
X80060000Y-42343767D01*
%TO.C,R3*%
X82217500Y-11484724D02*
X82217500Y-10975276D01*
X83262500Y-11484724D02*
X83262500Y-10975276D01*
%TO.C,R6*%
X13952500Y-27242224D02*
X13952500Y-26732776D01*
X14997500Y-27242224D02*
X14997500Y-26732776D01*
%TO.C,R18*%
X36607224Y-35387500D02*
X36097776Y-35387500D01*
X36607224Y-36432500D02*
X36097776Y-36432500D01*
%TO.C,R17*%
X14665000Y-11602064D02*
X14665000Y-10147936D01*
X16485000Y-11602064D02*
X16485000Y-10147936D01*
%TO.C,R4*%
X74417500Y-11487224D02*
X74417500Y-10977776D01*
X75462500Y-11487224D02*
X75462500Y-10977776D01*
%TO.C,Q5*%
X30677500Y-17415000D02*
X32197500Y-17415000D01*
X30677500Y-18415000D02*
X30677500Y-17415000D01*
X30677500Y-20535000D02*
X30677500Y-19535000D01*
X32197500Y-17415000D02*
X32197500Y-17465000D01*
X32197500Y-18585000D02*
X32197500Y-19365000D01*
X32197500Y-20485000D02*
X32197500Y-20535000D01*
X32197500Y-20535000D02*
X30677500Y-20535000D01*
X32737500Y-19355000D02*
X32497500Y-19025000D01*
X32977500Y-19025000D01*
X32737500Y-19355000D01*
G36*
X32737500Y-19355000D02*
G01*
X32497500Y-19025000D01*
X32977500Y-19025000D01*
X32737500Y-19355000D01*
G37*
%TO.C,C9*%
X50730000Y-40503767D02*
X50730000Y-40211233D01*
X51750000Y-40503767D02*
X51750000Y-40211233D01*
%TO.C,U4*%
X17775000Y-25815000D02*
X16375000Y-25815000D01*
X17785000Y-28135000D02*
X16375000Y-28135000D01*
X18395000Y-28415000D02*
X17915000Y-28415000D01*
X18155000Y-28085000D01*
X18395000Y-28415000D01*
G36*
X18395000Y-28415000D02*
G01*
X17915000Y-28415000D01*
X18155000Y-28085000D01*
X18395000Y-28415000D01*
G37*
%TO.C,R19*%
X80982224Y-5207500D02*
X80472776Y-5207500D01*
X80982224Y-6252500D02*
X80472776Y-6252500D01*
%TO.C,J3*%
X-3202500Y-9170000D02*
X-3202500Y-17790000D01*
X-3202500Y-17790000D02*
X6217500Y-17790000D01*
X107500Y-9170000D02*
X107500Y-17790000D01*
X6217500Y-9170000D02*
X-3202500Y-9170000D01*
X6217500Y-9170000D02*
X6217500Y-10680000D01*
X6217500Y-12780000D02*
X6217500Y-14180000D01*
X6217500Y-17790000D02*
X6217500Y-16280000D01*
X6907500Y-11730000D02*
X7507500Y-11430000D01*
X7507500Y-11430000D02*
X7507500Y-12030000D01*
X7507500Y-12030000D02*
X6907500Y-11730000D01*
%TO.C,D7*%
X11925000Y-11185000D02*
X11925000Y-7175000D01*
X11925000Y-11185000D02*
X13925000Y-11185000D01*
X13925000Y-11185000D02*
X13925000Y-7175000D01*
%TO.C,Q2*%
X55920000Y-29567500D02*
X56920000Y-29567500D01*
X55920000Y-31087500D02*
X55920000Y-29567500D01*
X55970000Y-31087500D02*
X55920000Y-31087500D01*
X57870000Y-31087500D02*
X57090000Y-31087500D01*
X58040000Y-29567500D02*
X59040000Y-29567500D01*
X59040000Y-29567500D02*
X59040000Y-31087500D01*
X59040000Y-31087500D02*
X58990000Y-31087500D01*
X57430000Y-31867500D02*
X57100000Y-31627500D01*
X57430000Y-31387500D01*
X57430000Y-31867500D01*
G36*
X57430000Y-31867500D02*
G01*
X57100000Y-31627500D01*
X57430000Y-31387500D01*
X57430000Y-31867500D01*
G37*
%TO.C,Q1*%
X55930000Y-33792500D02*
X55980000Y-33792500D01*
X55930000Y-35312500D02*
X55930000Y-33792500D01*
X56930000Y-35312500D02*
X55930000Y-35312500D01*
X57100000Y-33792500D02*
X57880000Y-33792500D01*
X59000000Y-33792500D02*
X59050000Y-33792500D01*
X59050000Y-33792500D02*
X59050000Y-35312500D01*
X59050000Y-35312500D02*
X58050000Y-35312500D01*
X57870000Y-33252500D02*
X57540000Y-33492500D01*
X57540000Y-33012500D01*
X57870000Y-33252500D01*
G36*
X57870000Y-33252500D02*
G01*
X57540000Y-33492500D01*
X57540000Y-33012500D01*
X57870000Y-33252500D01*
G37*
%TO.C,J1*%
X85575000Y-43760000D02*
X87495000Y-43760000D01*
X87495000Y-34600000D02*
X85575000Y-34600000D01*
X89505000Y-34600000D02*
X91210000Y-34600000D01*
X91210000Y-34600000D02*
X91210000Y-43760000D01*
X91210000Y-43760000D02*
X89505000Y-43760000D01*
%TO.C,U5*%
X21715000Y-24475000D02*
X21715000Y-29675000D01*
X21715000Y-29675000D02*
X26615000Y-29675000D01*
X23165000Y-24475000D02*
X21715000Y-24475000D01*
X26615000Y-24475000D02*
X25165000Y-24475000D01*
X26615000Y-29675000D02*
X26615000Y-24475000D01*
X25165000Y-24475000D02*
G75*
G02*
X23165000Y-24475000I-1000000J0D01*
G01*
%TO.C,U6*%
X21715000Y-18205000D02*
X21715000Y-23405000D01*
X21715000Y-23405000D02*
X23165000Y-23405000D01*
X25165000Y-23405000D02*
X26615000Y-23405000D01*
X26615000Y-18205000D02*
X21715000Y-18205000D01*
X26615000Y-23405000D02*
X26615000Y-18205000D01*
X23165000Y-23405000D02*
G75*
G02*
X25165000Y-23405000I1000000J0D01*
G01*
%TO.C,R16*%
X19717224Y-8602500D02*
X19207776Y-8602500D01*
X19717224Y-9647500D02*
X19207776Y-9647500D01*
%TO.C,C10*%
X48216233Y-37010000D02*
X48508767Y-37010000D01*
X48216233Y-38030000D02*
X48508767Y-38030000D01*
%TO.C,U1*%
X41630000Y-390000D02*
X41630000Y-6550000D01*
X41630000Y-390000D02*
X59870000Y-390000D01*
X41630000Y-25350000D02*
X41630000Y-26130000D01*
X41630000Y-26130000D02*
X42630000Y-26130000D01*
X59870000Y-390000D02*
X59870000Y-6805000D01*
X59870000Y-25350000D02*
X59870000Y-26130000D01*
X59870000Y-26130000D02*
X58870000Y-26130000D01*
X41625000Y-7275000D02*
X41125000Y-7275000D01*
X41625000Y-6775000D01*
X41625000Y-7275000D01*
G36*
X41625000Y-7275000D02*
G01*
X41125000Y-7275000D01*
X41625000Y-6775000D01*
X41625000Y-7275000D01*
G37*
%TO.C,D2*%
X10377500Y-25765000D02*
X11897500Y-25765000D01*
X10377500Y-26765000D02*
X10377500Y-25765000D01*
X10377500Y-28885000D02*
X10377500Y-27885000D01*
X11897500Y-25765000D02*
X11897500Y-25815000D01*
X11897500Y-26935000D02*
X11897500Y-27715000D01*
X11897500Y-28835000D02*
X11897500Y-28885000D01*
X11897500Y-28885000D02*
X10377500Y-28885000D01*
X12437500Y-27705000D02*
X12197500Y-27375000D01*
X12677500Y-27375000D01*
X12437500Y-27705000D01*
G36*
X12437500Y-27705000D02*
G01*
X12197500Y-27375000D01*
X12677500Y-27375000D01*
X12437500Y-27705000D01*
G37*
%TO.C,R7*%
X31729724Y-24752500D02*
X31220276Y-24752500D01*
X31729724Y-25797500D02*
X31220276Y-25797500D01*
%TO.C,C7*%
X28455000Y-38193767D02*
X28455000Y-37901233D01*
X29475000Y-38193767D02*
X29475000Y-37901233D01*
%TO.C,C11*%
X43142500Y-31022500D02*
X43930000Y-31022500D01*
X43536250Y-30628750D02*
X43536250Y-31416250D01*
X44170000Y-30524437D02*
X44170000Y-31810000D01*
X44170000Y-30524437D02*
X45234437Y-29460000D01*
X44170000Y-35215563D02*
X44170000Y-33930000D01*
X44170000Y-35215563D02*
X45234437Y-36280000D01*
X45234437Y-29460000D02*
X50990000Y-29460000D01*
X45234437Y-36280000D02*
X50990000Y-36280000D01*
X50990000Y-29460000D02*
X50990000Y-31810000D01*
X50990000Y-36280000D02*
X50990000Y-33930000D01*
%TO.C,R14*%
X31220276Y-21252500D02*
X31729724Y-21252500D01*
X31220276Y-22297500D02*
X31729724Y-22297500D01*
%TO.C,C4*%
X36615000Y-5041233D02*
X36615000Y-5333767D01*
X37635000Y-5041233D02*
X37635000Y-5333767D01*
%TO.C,R5*%
X72792500Y-11467224D02*
X72792500Y-10957776D01*
X73837500Y-11467224D02*
X73837500Y-10957776D01*
%TO.C,R1*%
X37502500Y-9857776D02*
X37502500Y-10367224D01*
X38547500Y-9857776D02*
X38547500Y-10367224D01*
%TO.C,C8*%
X39165000Y-8483767D02*
X39165000Y-8191233D01*
X40185000Y-8483767D02*
X40185000Y-8191233D01*
%TO.C,R8*%
X33952500Y-27820276D02*
X33952500Y-28329724D01*
X34997500Y-27820276D02*
X34997500Y-28329724D01*
%TO.C,Q3*%
X30715000Y-26515000D02*
X32235000Y-26515000D01*
X30715000Y-26565000D02*
X30715000Y-26515000D01*
X30715000Y-28465000D02*
X30715000Y-27685000D01*
X30715000Y-29635000D02*
X30715000Y-29585000D01*
X32235000Y-26515000D02*
X32235000Y-27515000D01*
X32235000Y-28635000D02*
X32235000Y-29635000D01*
X32235000Y-29635000D02*
X30715000Y-29635000D01*
X30415000Y-28025000D02*
X29935000Y-28025000D01*
X30175000Y-27695000D01*
X30415000Y-28025000D01*
G36*
X30415000Y-28025000D02*
G01*
X29935000Y-28025000D01*
X30175000Y-27695000D01*
X30415000Y-28025000D01*
G37*
%TO.C,U8*%
X29790000Y-902500D02*
X29790000Y-2162500D01*
X29790000Y-7722500D02*
X29790000Y-6462500D01*
X33550000Y-902500D02*
X29790000Y-902500D01*
X33550000Y-7722500D02*
X29790000Y-7722500D01*
X35070000Y-7952500D02*
X34590000Y-7952500D01*
X34830000Y-7622500D01*
X35070000Y-7952500D01*
G36*
X35070000Y-7952500D02*
G01*
X34590000Y-7952500D01*
X34830000Y-7622500D01*
X35070000Y-7952500D01*
G37*
%TO.C,U3*%
X68220000Y-36805000D02*
X68275000Y-36805000D01*
X68220000Y-40925000D02*
X68220000Y-36805000D01*
X68275000Y-40925000D02*
X68220000Y-40925000D01*
X78285000Y-36805000D02*
X78340000Y-36805000D01*
X78340000Y-36805000D02*
X78340000Y-40925000D01*
X78340000Y-40925000D02*
X78285000Y-40925000D01*
X78620000Y-36505000D02*
X78290000Y-36265000D01*
X78620000Y-36025000D01*
X78620000Y-36505000D01*
G36*
X78620000Y-36505000D02*
G01*
X78290000Y-36265000D01*
X78620000Y-36025000D01*
X78620000Y-36505000D01*
G37*
%TO.C,D6*%
X14365000Y-5925000D02*
X14365000Y-7925000D01*
X14365000Y-5925000D02*
X18375000Y-5925000D01*
X14365000Y-7925000D02*
X18375000Y-7925000D01*
%TD*%
M02*
