%TF.GenerationSoftware,KiCad,Pcbnew,9.0.6*%
%TF.CreationDate,2026-02-25T21:50:57+01:00*%
%TF.ProjectId,ESP32_DALITester,45535033-325f-4444-914c-495465737465,rev?*%
%TF.SameCoordinates,Original*%
%TF.FileFunction,Copper,L2,Bot*%
%TF.FilePolarity,Positive*%
%FSLAX46Y46*%
G04 Gerber Fmt 4.6, Leading zero omitted, Abs format (unit mm)*
G04 Created by KiCad (PCBNEW 9.0.6) date 2026-02-25 21:50:57*
%MOMM*%
%LPD*%
G01*
G04 APERTURE LIST*
G04 Aperture macros list*
%AMRoundRect*
0 Rectangle with rounded corners*
0 $1 Rounding radius*
0 $2 $3 $4 $5 $6 $7 $8 $9 X,Y pos of 4 corners*
0 Add a 4 corners polygon primitive as box body*
4,1,4,$2,$3,$4,$5,$6,$7,$8,$9,$2,$3,0*
0 Add four circle primitives for the rounded corners*
1,1,$1+$1,$2,$3*
1,1,$1+$1,$4,$5*
1,1,$1+$1,$6,$7*
1,1,$1+$1,$8,$9*
0 Add four rect primitives between the rounded corners*
20,1,$1+$1,$2,$3,$4,$5,0*
20,1,$1+$1,$4,$5,$6,$7,0*
20,1,$1+$1,$6,$7,$8,$9,0*
20,1,$1+$1,$8,$9,$2,$3,0*%
G04 Aperture macros list end*
%TA.AperFunction,ComponentPad*%
%ADD10C,3.500000*%
%TD*%
%TA.AperFunction,ComponentPad*%
%ADD11O,3.500000X2.200000*%
%TD*%
%TA.AperFunction,ComponentPad*%
%ADD12R,2.500000X1.500000*%
%TD*%
%TA.AperFunction,ComponentPad*%
%ADD13O,2.500000X1.500000*%
%TD*%
%TA.AperFunction,ComponentPad*%
%ADD14C,4.000000*%
%TD*%
%TA.AperFunction,ComponentPad*%
%ADD15R,1.500000X1.500000*%
%TD*%
%TA.AperFunction,ComponentPad*%
%ADD16C,1.500000*%
%TD*%
%TA.AperFunction,ComponentPad*%
%ADD17R,1.700000X1.700000*%
%TD*%
%TA.AperFunction,ComponentPad*%
%ADD18C,1.700000*%
%TD*%
%TA.AperFunction,ComponentPad*%
%ADD19C,2.200000*%
%TD*%
%TA.AperFunction,ComponentPad*%
%ADD20O,2.300000X1.600000*%
%TD*%
%TA.AperFunction,ComponentPad*%
%ADD21R,1.800000X1.800000*%
%TD*%
%TA.AperFunction,ComponentPad*%
%ADD22C,1.800000*%
%TD*%
%TA.AperFunction,ComponentPad*%
%ADD23RoundRect,0.250000X-1.550000X0.650000X-1.550000X-0.650000X1.550000X-0.650000X1.550000X0.650000X0*%
%TD*%
%TA.AperFunction,ComponentPad*%
%ADD24O,3.600000X1.800000*%
%TD*%
%TA.AperFunction,HeatsinkPad*%
%ADD25O,2.100000X1.000000*%
%TD*%
%TA.AperFunction,HeatsinkPad*%
%ADD26O,1.800000X1.000000*%
%TD*%
%TA.AperFunction,HeatsinkPad*%
%ADD27C,0.600000*%
%TD*%
%TA.AperFunction,ComponentPad*%
%ADD28R,1.750000X2.250000*%
%TD*%
%TA.AperFunction,ComponentPad*%
%ADD29O,1.750000X2.250000*%
%TD*%
%TA.AperFunction,SMDPad,CuDef*%
%ADD30RoundRect,0.120000X-0.780000X0.280000X-0.780000X-0.280000X0.780000X-0.280000X0.780000X0.280000X0*%
%TD*%
%TA.AperFunction,ViaPad*%
%ADD31C,0.600000*%
%TD*%
%TA.AperFunction,Conductor*%
%ADD32C,0.250000*%
%TD*%
%TA.AperFunction,Conductor*%
%ADD33C,0.500000*%
%TD*%
G04 APERTURE END LIST*
D10*
%TO.P,J5,1,Pin_1*%
%TO.N,GND*%
X64450000Y-5250000D03*
%TD*%
%TO.P,J4,1,Pin_1*%
%TO.N,GND*%
X3250000Y-39350000D03*
%TD*%
%TO.P,J2,1,Pin_1*%
%TO.N,GND*%
X3250000Y-5250000D03*
%TD*%
D11*
%TO.P,SW1,*%
%TO.N,*%
X2775000Y-27100000D03*
X2775000Y-35300000D03*
D12*
%TO.P,SW1,1,A*%
%TO.N,+VSW*%
X2775000Y-29200000D03*
D13*
%TO.P,SW1,2,B*%
%TO.N,+BATT*%
X2775000Y-31200000D03*
%TO.P,SW1,3,C*%
%TO.N,unconnected-(SW1A-C-Pad3)*%
X2775000Y-33200000D03*
%TD*%
D14*
%TO.P,U2,*%
%TO.N,*%
X64457500Y-39340000D03*
X64457500Y-5240000D03*
X3257500Y-39340000D03*
X3257500Y-5240000D03*
D15*
%TO.P,U2,1,VCC*%
%TO.N,+3.3V*%
X65957500Y-32450000D03*
D16*
%TO.P,U2,2,GND*%
%TO.N,GND*%
X65957500Y-29910000D03*
%TO.P,U2,3,~{CS}*%
%TO.N,LCD_CS*%
X65957500Y-27370000D03*
%TO.P,U2,4,RESET*%
%TO.N,LCD_RST*%
X65957500Y-24830000D03*
%TO.P,U2,5,D/~{C}*%
%TO.N,LCD_DC*%
X65957500Y-22290000D03*
%TO.P,U2,6,MOSI*%
%TO.N,LCD_MOSI*%
X65957500Y-19750000D03*
%TO.P,U2,7,SCK*%
%TO.N,LCD_CLK*%
X65957500Y-17210000D03*
%TO.P,U2,8,LED*%
%TO.N,LCD_LED*%
X65957500Y-14670000D03*
%TO.P,U2,9,MISO*%
%TO.N,LCD_MISO*%
X65957500Y-12130000D03*
%TD*%
D17*
%TO.P,BT1,1,+*%
%TO.N,+BATT*%
X31965000Y-39410000D03*
D18*
%TO.P,BT1,2,-*%
%TO.N,GND*%
X31965000Y-36870000D03*
%TD*%
D19*
%TO.P,SW5,*%
%TO.N,*%
X79500000Y-22500000D03*
D20*
X75000000Y-22500000D03*
%TD*%
D21*
%TO.P,D8,1,K*%
%TO.N,Net-(D8-K)*%
X74330000Y-4390000D03*
D22*
%TO.P,D8,2,A*%
%TO.N,Net-(D8-A)*%
X76870000Y-4390000D03*
%TD*%
D23*
%TO.P,J3,1,Pin_1*%
%TO.N,Net-(J3-Pin_1)*%
X4907500Y-11730000D03*
D24*
%TO.P,J3,2,Pin_2*%
%TO.N,DA2*%
X4907500Y-15230000D03*
%TD*%
D25*
%TO.P,J1,S1,SHIELD*%
%TO.N,GND*%
X84300000Y-43500000D03*
D26*
X88500000Y-43500000D03*
D25*
X84300000Y-34860000D03*
D26*
X88500000Y-34860000D03*
%TD*%
D27*
%TO.P,U1,39,GND*%
%TO.N,GND*%
X47850000Y-15020000D03*
X47850000Y-16420000D03*
X48550000Y-14320000D03*
X48550000Y-15720000D03*
X48550000Y-17120000D03*
X49225000Y-15020000D03*
X49225000Y-16420000D03*
X49950000Y-14320000D03*
X49950000Y-15720000D03*
X49950000Y-17120000D03*
X50650000Y-15020000D03*
X50650000Y-16420000D03*
%TD*%
D28*
%TO.P,PS1,1,-Vin*%
%TO.N,Net-(D5-A)*%
X31332500Y-9517500D03*
D29*
%TO.P,PS1,2,+Vin*%
%TO.N,Net-(D5-K)*%
X28792500Y-9517500D03*
%TO.P,PS1,3,-Vout*%
%TO.N,GNDPWR*%
X26252500Y-9517500D03*
%TO.P,PS1,4,+Vout*%
%TO.N,Net-(PS1-+Vout)*%
X23712500Y-9517500D03*
%TD*%
D30*
%TO.P,K1,1*%
%TO.N,Net-(D5-K)*%
X16750000Y-3775000D03*
%TO.P,K1,2*%
%TO.N,unconnected-(K1-Pad2)*%
X16750000Y-6975000D03*
%TO.P,K1,3*%
%TO.N,GNDPWR*%
X16750000Y-9175000D03*
%TO.P,K1,4*%
%TO.N,DA2*%
X16750000Y-11375000D03*
%TO.P,K1,5*%
%TO.N,DA1*%
X9750000Y-11375000D03*
%TO.P,K1,6*%
%TO.N,VCOM*%
X9750000Y-9175000D03*
%TO.P,K1,7*%
%TO.N,unconnected-(K1-Pad7)*%
X9750000Y-6975000D03*
%TO.P,K1,8*%
%TO.N,Net-(D5-A)*%
X9750000Y-3775000D03*
%TD*%
D10*
%TO.P,J6,1,Pin_1*%
%TO.N,GND*%
X64450000Y-39350000D03*
%TD*%
D31*
%TO.N,BAT_V*%
X43040000Y-15670000D03*
X50320000Y-28400000D03*
%TO.N,+VSW*%
X36470000Y-1960000D03*
%TO.N,ENC_BTN*%
X44700000Y-14330000D03*
X80440000Y-11180000D03*
%TO.N,+3.3V*%
X77730000Y-39800000D03*
X36400000Y-25730000D03*
X43230000Y-9230000D03*
X73900000Y-35060000D03*
X44890000Y-34240000D03*
%TO.N,Prg_EN*%
X43430000Y-10530000D03*
X57420000Y-28050000D03*
%TO.N,Net-(D1--)*%
X20200000Y-29887500D03*
X15325000Y-22537500D03*
X18025000Y-25787500D03*
%TO.N,DA1*%
X13000000Y-14812500D03*
%TO.N,DA2*%
X6075000Y-22800000D03*
%TO.N,Prg_Boot*%
X58510000Y-35460000D03*
X59410000Y-25440000D03*
%TO.N,ENC_B*%
X75640000Y-13430000D03*
X44540000Y-18190000D03*
%TO.N,ENC_A*%
X72000000Y-11830000D03*
X44480000Y-16900000D03*
%TO.N,+5V*%
X82580000Y-36790000D03*
X82860000Y-5730000D03*
X82580000Y-41610000D03*
X38240000Y-41000000D03*
%TO.N,Prg_RX*%
X58280000Y-13040000D03*
X76450000Y-34930000D03*
%TO.N,Prg_TX*%
X75160000Y-35020000D03*
X61450000Y-14210000D03*
%TO.N,GND*%
X73460000Y-31290000D03*
X83990000Y-27780000D03*
X76010000Y-15400000D03*
X75870000Y-39370000D03*
X75980000Y-26660000D03*
X75350000Y-20490000D03*
X88110000Y-40590000D03*
X28940000Y-14870000D03*
X69640000Y-7890000D03*
X83110000Y-2920000D03*
X32200000Y-34290000D03*
X80490000Y-19940000D03*
X55390000Y-14810000D03*
X42840000Y-36100000D03*
X32110000Y-1460000D03*
X87170000Y-22350000D03*
X61490000Y-3180000D03*
X86810000Y-5410000D03*
X62340000Y-32600000D03*
X85550000Y-3520000D03*
X63460000Y-30060000D03*
X86300000Y-39810000D03*
X61130000Y-39920000D03*
X39960000Y-41840000D03*
X32770000Y-27010000D03*
X45150000Y-11040000D03*
X56340000Y-16980000D03*
X40240000Y-35060000D03*
X80990000Y-13140000D03*
X49240000Y-23010000D03*
X79880000Y-33050000D03*
X87250000Y-11890000D03*
X35850000Y-13840000D03*
X34510000Y-19870000D03*
X57560000Y-42940000D03*
X83490000Y-14820000D03*
X86470000Y-36410000D03*
X68280000Y-43110000D03*
X69720000Y-33650000D03*
X34550000Y-15260000D03*
X31440000Y-3060000D03*
X53160000Y-29590000D03*
X57410000Y-8370000D03*
X62140000Y-24890000D03*
X80060000Y-25340000D03*
X46270000Y-22280000D03*
X32240000Y-6340000D03*
X63000000Y-22140000D03*
X70210000Y-38180000D03*
X77780000Y-11310000D03*
X53640000Y-34450000D03*
X64120000Y-19810000D03*
X41960000Y-28030000D03*
X87420000Y-32920000D03*
X39670000Y-3570000D03*
X77020000Y-43180000D03*
X57200000Y-22710000D03*
X38040000Y-17240000D03*
X77320000Y-13070000D03*
X48530000Y-30730000D03*
X35160000Y-32310000D03*
X84530000Y-32230000D03*
X38000000Y-23800000D03*
X49620000Y-34900000D03*
X68750000Y-3440000D03*
X51950000Y-8690000D03*
X27400000Y-33150000D03*
X28650000Y-41790000D03*
X30620000Y-32110000D03*
X40240000Y-15300000D03*
X54620000Y-38280000D03*
%TO.N,Net-(D5-A)*%
X9675000Y-4662500D03*
%TO.N,VCOM*%
X11175000Y-9312500D03*
%TO.N,Net-(D5-K)*%
X16775000Y-4662500D03*
%TD*%
D32*
%TO.N,BAT_V*%
X43010000Y-26440000D02*
X43010000Y-15700000D01*
X44970000Y-28400000D02*
X43010000Y-26440000D01*
X43010000Y-15700000D02*
X43040000Y-15670000D01*
X50320000Y-28400000D02*
X44970000Y-28400000D01*
D33*
%TO.N,+VSW*%
X25190000Y-38330000D02*
X13600000Y-38330000D01*
X35410000Y-3020000D02*
X35410000Y-10820000D01*
X13600000Y-38330000D02*
X4470000Y-29200000D01*
X4470000Y-29200000D02*
X2775000Y-29200000D01*
X25190000Y-38330000D02*
X29080000Y-34440000D01*
X36470000Y-1960000D02*
X35410000Y-3020000D01*
X35410000Y-10820000D02*
X29080000Y-17150000D01*
X29080000Y-17150000D02*
X29080000Y-34440000D01*
D32*
%TO.N,ENC_BTN*%
X80440000Y-11180000D02*
X79020000Y-9760000D01*
X44700000Y-13770000D02*
X44700000Y-14330000D01*
X79020000Y-9760000D02*
X48710000Y-9760000D01*
X48710000Y-9760000D02*
X44700000Y-13770000D01*
D33*
%TO.N,+3.3V*%
X61987500Y-36420000D02*
X65957500Y-32450000D01*
X44890000Y-34240000D02*
X47070000Y-36420000D01*
X36400000Y-25750000D02*
X36400000Y-25730000D01*
X47070000Y-36420000D02*
X61987500Y-36420000D01*
X36400000Y-25730000D02*
X36400000Y-16060000D01*
X44890000Y-34240000D02*
X36400000Y-25750000D01*
D32*
X77730000Y-39800000D02*
X73900000Y-35970000D01*
D33*
X36400000Y-16060000D02*
X43230000Y-9230000D01*
D32*
X73900000Y-35970000D02*
X73900000Y-35060000D01*
%TO.N,Prg_EN*%
X43430000Y-10530000D02*
X43700000Y-10800000D01*
X45210000Y-27730000D02*
X57100000Y-27730000D01*
X43700000Y-26220000D02*
X45210000Y-27730000D01*
X43700000Y-26050000D02*
X43700000Y-26220000D01*
X43700000Y-10800000D02*
X43700000Y-26050000D01*
X57100000Y-27730000D02*
X57420000Y-28050000D01*
D33*
%TO.N,+BATT*%
X2775000Y-31200000D02*
X4710000Y-31200000D01*
X12920000Y-39410000D02*
X31965000Y-39410000D01*
X4710000Y-31200000D02*
X12920000Y-39410000D01*
D32*
%TO.N,Net-(D1--)*%
X20200000Y-27962500D02*
X18025000Y-25787500D01*
X20200000Y-29887500D02*
X20200000Y-27962500D01*
X15325000Y-23087500D02*
X15325000Y-22537500D01*
X18025000Y-25787500D02*
X15325000Y-23087500D01*
D33*
%TO.N,DA1*%
X9750000Y-11562500D02*
X13000000Y-14812500D01*
X9750000Y-11375000D02*
X9750000Y-11562500D01*
%TO.N,DA2*%
X6040000Y-16362500D02*
X4907500Y-15230000D01*
X14875000Y-16362500D02*
X6040000Y-16362500D01*
X4907500Y-15230000D02*
X6050000Y-16372500D01*
X16750000Y-14487500D02*
X14875000Y-16362500D01*
X6050000Y-22775000D02*
X6075000Y-22800000D01*
X6050000Y-16372500D02*
X6050000Y-17325000D01*
X16750000Y-11375000D02*
X16750000Y-14487500D01*
X6050000Y-17325000D02*
X6050000Y-22775000D01*
D32*
%TO.N,Prg_Boot*%
X58510000Y-26340000D02*
X59410000Y-25440000D01*
X58510000Y-35460000D02*
X58510000Y-26340000D01*
%TO.N,ENC_B*%
X69945702Y-10661000D02*
X69540000Y-10661000D01*
X46029905Y-16700095D02*
X44540000Y-18190000D01*
X72714702Y-13430000D02*
X69945702Y-10661000D01*
X69540000Y-10661000D02*
X49084620Y-10661000D01*
X46029905Y-13715715D02*
X46029905Y-16700095D01*
X49084620Y-10661000D02*
X48682810Y-11062810D01*
X75640000Y-13430000D02*
X72714702Y-13430000D01*
X48682810Y-11062810D02*
X46029905Y-13715715D01*
%TO.N,ENC_A*%
X69630000Y-10210000D02*
X48897810Y-10210000D01*
X48438905Y-10668905D02*
X45578905Y-13528905D01*
X72000000Y-11830000D02*
X70380000Y-10210000D01*
X48897810Y-10210000D02*
X48438905Y-10668905D01*
X45578905Y-13528905D02*
X45578905Y-15801095D01*
X70380000Y-10210000D02*
X69630000Y-10210000D01*
X45578905Y-15801095D02*
X44480000Y-16900000D01*
%TO.N,+5V*%
X82580000Y-6010000D02*
X82860000Y-5730000D01*
X82580000Y-36790000D02*
X82580000Y-6010000D01*
D33*
X80140000Y-44050000D02*
X82580000Y-41610000D01*
X38290000Y-42530000D02*
X39810000Y-44050000D01*
X38240000Y-41000000D02*
X38290000Y-41050000D01*
X40030000Y-44050000D02*
X80140000Y-44050000D01*
X38290000Y-41050000D02*
X38290000Y-42530000D01*
X39810000Y-44050000D02*
X40030000Y-44050000D01*
X82580000Y-41610000D02*
X82580000Y-36790000D01*
D32*
%TO.N,Prg_RX*%
X76450000Y-29860000D02*
X70050000Y-23460000D01*
X67940000Y-13430000D02*
X58670000Y-13430000D01*
X76450000Y-34930000D02*
X76450000Y-29860000D01*
X70050000Y-23460000D02*
X70050000Y-15540000D01*
X58670000Y-13430000D02*
X58280000Y-13040000D01*
X70050000Y-15540000D02*
X67940000Y-13430000D01*
%TO.N,Prg_TX*%
X69120000Y-17650000D02*
X67380000Y-15910000D01*
X75160000Y-35020000D02*
X75160000Y-29930000D01*
X67380000Y-15910000D02*
X63150000Y-15910000D01*
X75160000Y-29930000D02*
X71100000Y-25870000D01*
X69120000Y-23890000D02*
X69120000Y-20790000D01*
X71100000Y-25870000D02*
X69120000Y-23890000D01*
X69120000Y-20790000D02*
X69120000Y-17650000D01*
X63150000Y-15910000D02*
X61450000Y-14210000D01*
D33*
%TO.N,GNDPWR*%
X26252500Y-11360000D02*
X26252500Y-9517500D01*
X20012500Y-9175000D02*
X22700000Y-11862500D01*
X22700000Y-11862500D02*
X25750000Y-11862500D01*
X25750000Y-11862500D02*
X26252500Y-11360000D01*
X16750000Y-9175000D02*
X20012500Y-9175000D01*
%TO.N,Net-(D5-A)*%
X11512500Y-5537500D02*
X29225000Y-5537500D01*
X29225000Y-5537500D02*
X31332500Y-7645000D01*
X9675000Y-4662500D02*
X9675000Y-3850000D01*
X9750000Y-3775000D02*
X11512500Y-5537500D01*
X31332500Y-9517500D02*
X31332500Y-7645000D01*
X9675000Y-3850000D02*
X9750000Y-3775000D01*
%TO.N,VCOM*%
X9887500Y-9312500D02*
X9750000Y-9175000D01*
X11175000Y-9312500D02*
X9887500Y-9312500D01*
%TO.N,Net-(D5-K)*%
X16775000Y-3800000D02*
X16750000Y-3775000D01*
X16775000Y-4662500D02*
X16775000Y-3800000D01*
%TD*%
%TA.AperFunction,Conductor*%
%TO.N,GND*%
G36*
X40845648Y-514852D02*
G01*
X40860000Y-549500D01*
X40860000Y-6820000D01*
X60579999Y-6820000D01*
X60580000Y-6820000D01*
X60577839Y-5095772D01*
X62257000Y-5095772D01*
X62257000Y-5384228D01*
X62294651Y-5670217D01*
X62294652Y-5670221D01*
X62294653Y-5670228D01*
X62369307Y-5948840D01*
X62369309Y-5948846D01*
X62479696Y-6215346D01*
X62623923Y-6465153D01*
X62623933Y-6465168D01*
X62799521Y-6693998D01*
X62799531Y-6694010D01*
X63003489Y-6897968D01*
X63003501Y-6897978D01*
X63232331Y-7073566D01*
X63232340Y-7073572D01*
X63232344Y-7073575D01*
X63482155Y-7217804D01*
X63748655Y-7328191D01*
X63748659Y-7328192D01*
X64027271Y-7402846D01*
X64027272Y-7402846D01*
X64027283Y-7402849D01*
X64313272Y-7440500D01*
X64313276Y-7440500D01*
X64601724Y-7440500D01*
X64601728Y-7440500D01*
X64887717Y-7402849D01*
X65166345Y-7328191D01*
X65432845Y-7217804D01*
X65682656Y-7073575D01*
X65911504Y-6897974D01*
X66115474Y-6694004D01*
X66291075Y-6465156D01*
X66435304Y-6215345D01*
X66545691Y-5948845D01*
X66620349Y-5670217D01*
X66658000Y-5384228D01*
X66658000Y-5095772D01*
X66620349Y-4809783D01*
X66545691Y-4531155D01*
X66435304Y-4264655D01*
X66291075Y-4014844D01*
X66291072Y-4014840D01*
X66291066Y-4014831D01*
X66115478Y-3786001D01*
X66115468Y-3785989D01*
X65911510Y-3582031D01*
X65911498Y-3582021D01*
X65813363Y-3506719D01*
X65765838Y-3470252D01*
X73229500Y-3470252D01*
X73229500Y-5309748D01*
X73241133Y-5368231D01*
X73251822Y-5384228D01*
X73285447Y-5434552D01*
X73312012Y-5452301D01*
X73351769Y-5478867D01*
X73410252Y-5490500D01*
X73410255Y-5490500D01*
X75249745Y-5490500D01*
X75249748Y-5490500D01*
X75308231Y-5478867D01*
X75374552Y-5434552D01*
X75418867Y-5368231D01*
X75430500Y-5309748D01*
X75430500Y-4303389D01*
X75769500Y-4303389D01*
X75769500Y-4476610D01*
X75796597Y-4647698D01*
X75796598Y-4647701D01*
X75850127Y-4812446D01*
X75928764Y-4966782D01*
X75928767Y-4966786D01*
X75928768Y-4966788D01*
X76030586Y-5106928D01*
X76030588Y-5106930D01*
X76030591Y-5106934D01*
X76153065Y-5229408D01*
X76153068Y-5229410D01*
X76153072Y-5229414D01*
X76293212Y-5331232D01*
X76293214Y-5331233D01*
X76293217Y-5331235D01*
X76397223Y-5384228D01*
X76447555Y-5409873D01*
X76612299Y-5463402D01*
X76783389Y-5490500D01*
X76783390Y-5490500D01*
X76956610Y-5490500D01*
X76956611Y-5490500D01*
X77127701Y-5463402D01*
X77292445Y-5409873D01*
X77446788Y-5331232D01*
X77586928Y-5229414D01*
X77709414Y-5106928D01*
X77811232Y-4966788D01*
X77889873Y-4812445D01*
X77943402Y-4647701D01*
X77970500Y-4476611D01*
X77970500Y-4303389D01*
X77943402Y-4132299D01*
X77889873Y-3967555D01*
X77811232Y-3813212D01*
X77709414Y-3673072D01*
X77709410Y-3673068D01*
X77709408Y-3673065D01*
X77586934Y-3550591D01*
X77586935Y-3550591D01*
X77446782Y-3448764D01*
X77292446Y-3370127D01*
X77127701Y-3316598D01*
X77127698Y-3316597D01*
X76996271Y-3295781D01*
X76956611Y-3289500D01*
X76783389Y-3289500D01*
X76751192Y-3294599D01*
X76612301Y-3316597D01*
X76612298Y-3316598D01*
X76447553Y-3370127D01*
X76293217Y-3448764D01*
X76153065Y-3550591D01*
X76030591Y-3673065D01*
X75928764Y-3813217D01*
X75850127Y-3967553D01*
X75796598Y-4132298D01*
X75796597Y-4132301D01*
X75769500Y-4303389D01*
X75430500Y-4303389D01*
X75430500Y-3470252D01*
X75418867Y-3411769D01*
X75391042Y-3370127D01*
X75374552Y-3345447D01*
X75331374Y-3316597D01*
X75308231Y-3301133D01*
X75249748Y-3289500D01*
X73410252Y-3289500D01*
X73351769Y-3301133D01*
X73285447Y-3345447D01*
X73244705Y-3406423D01*
X73241133Y-3411769D01*
X73229500Y-3470252D01*
X65765838Y-3470252D01*
X65682668Y-3406433D01*
X65682653Y-3406423D01*
X65432845Y-3262196D01*
X65432846Y-3262196D01*
X65166346Y-3151809D01*
X65166340Y-3151807D01*
X64887728Y-3077153D01*
X64887721Y-3077152D01*
X64887717Y-3077151D01*
X64601728Y-3039500D01*
X64313272Y-3039500D01*
X64027283Y-3077151D01*
X64027279Y-3077151D01*
X64027271Y-3077153D01*
X63748659Y-3151807D01*
X63748653Y-3151809D01*
X63482153Y-3262196D01*
X63232346Y-3406423D01*
X63232331Y-3406433D01*
X63003501Y-3582021D01*
X63003489Y-3582031D01*
X62799531Y-3785989D01*
X62799521Y-3786001D01*
X62623933Y-4014831D01*
X62623923Y-4014846D01*
X62479696Y-4264653D01*
X62369309Y-4531153D01*
X62369307Y-4531159D01*
X62294653Y-4809771D01*
X62294651Y-4809779D01*
X62294651Y-4809783D01*
X62257000Y-5095772D01*
X60577839Y-5095772D01*
X60572142Y-549559D01*
X60586450Y-514895D01*
X60621081Y-500500D01*
X89450500Y-500500D01*
X89485148Y-514852D01*
X89499500Y-549500D01*
X89499500Y-44450500D01*
X89485148Y-44485148D01*
X89450500Y-44499500D01*
X80444961Y-44499500D01*
X80410313Y-44485148D01*
X80395961Y-44450500D01*
X80410313Y-44415852D01*
X80415134Y-44411624D01*
X80416606Y-44410493D01*
X80416614Y-44410489D01*
X82733201Y-42093900D01*
X82755164Y-42081220D01*
X82773186Y-42076392D01*
X82887314Y-42010500D01*
X82903584Y-41994230D01*
X84244500Y-41994230D01*
X84244500Y-42145769D01*
X84283718Y-42292133D01*
X84283719Y-42292137D01*
X84359485Y-42423365D01*
X84466635Y-42530515D01*
X84514666Y-42558246D01*
X84597862Y-42606280D01*
X84597864Y-42606280D01*
X84597865Y-42606281D01*
X84713303Y-42637212D01*
X84744230Y-42645499D01*
X84744231Y-42645500D01*
X84744234Y-42645500D01*
X84895769Y-42645500D01*
X84895769Y-42645499D01*
X85042135Y-42606281D01*
X85173365Y-42530515D01*
X85280515Y-42423365D01*
X85356281Y-42292135D01*
X85395499Y-42145769D01*
X85395500Y-42145769D01*
X85395500Y-41994231D01*
X85395499Y-41994230D01*
X85374890Y-41917315D01*
X85356281Y-41847865D01*
X85356280Y-41847864D01*
X85356280Y-41847862D01*
X85280514Y-41716634D01*
X85173365Y-41609485D01*
X85042137Y-41533719D01*
X85042133Y-41533718D01*
X84895769Y-41494500D01*
X84895766Y-41494500D01*
X84744234Y-41494500D01*
X84744231Y-41494500D01*
X84597866Y-41533718D01*
X84597862Y-41533719D01*
X84466634Y-41609485D01*
X84466634Y-41609486D01*
X84359486Y-41716634D01*
X84359485Y-41716634D01*
X84283719Y-41847862D01*
X84283718Y-41847866D01*
X84244500Y-41994230D01*
X82903584Y-41994230D01*
X82980500Y-41917314D01*
X83046392Y-41803186D01*
X83080499Y-41675895D01*
X83080500Y-41675895D01*
X83080500Y-41544105D01*
X83080499Y-41544104D01*
X83046393Y-41416818D01*
X83046392Y-41416814D01*
X83037063Y-41400655D01*
X83030500Y-41376159D01*
X83030500Y-37023841D01*
X83037065Y-36999341D01*
X83046391Y-36983187D01*
X83046392Y-36983186D01*
X83080499Y-36855895D01*
X83080500Y-36855895D01*
X83080500Y-36724105D01*
X83080499Y-36724104D01*
X83046392Y-36596815D01*
X83046391Y-36596811D01*
X83004617Y-36524457D01*
X82980500Y-36482686D01*
X82919852Y-36422038D01*
X82905500Y-36387390D01*
X82905500Y-36214230D01*
X84244500Y-36214230D01*
X84244500Y-36365769D01*
X84283718Y-36512133D01*
X84283719Y-36512137D01*
X84332609Y-36596815D01*
X84359485Y-36643365D01*
X84466635Y-36750515D01*
X84514666Y-36778246D01*
X84597862Y-36826280D01*
X84597864Y-36826280D01*
X84597865Y-36826281D01*
X84659243Y-36842727D01*
X84744230Y-36865499D01*
X84744231Y-36865500D01*
X84744234Y-36865500D01*
X84895769Y-36865500D01*
X84895769Y-36865499D01*
X85042135Y-36826281D01*
X85173365Y-36750515D01*
X85280515Y-36643365D01*
X85356281Y-36512135D01*
X85395499Y-36365769D01*
X85395500Y-36365769D01*
X85395500Y-36214231D01*
X85395499Y-36214230D01*
X85356281Y-36067866D01*
X85356280Y-36067862D01*
X85299490Y-35969500D01*
X85280515Y-35936635D01*
X85173365Y-35829485D01*
X85042137Y-35753719D01*
X85042133Y-35753718D01*
X84895769Y-35714500D01*
X84895766Y-35714500D01*
X84744234Y-35714500D01*
X84744231Y-35714500D01*
X84597866Y-35753718D01*
X84597862Y-35753719D01*
X84466634Y-35829485D01*
X84466634Y-35829486D01*
X84359486Y-35936634D01*
X84359485Y-35936634D01*
X84283719Y-36067862D01*
X84283718Y-36067866D01*
X84244500Y-36214230D01*
X82905500Y-36214230D01*
X82905500Y-6273563D01*
X82919852Y-6238915D01*
X82941818Y-6226233D01*
X83002278Y-6210032D01*
X83053186Y-6196392D01*
X83167314Y-6130500D01*
X83260500Y-6037314D01*
X83326392Y-5923186D01*
X83360499Y-5795895D01*
X83360500Y-5795895D01*
X83360500Y-5664105D01*
X83360499Y-5664104D01*
X83326392Y-5536815D01*
X83326391Y-5536811D01*
X83260499Y-5422685D01*
X83167314Y-5329500D01*
X83053188Y-5263608D01*
X83053184Y-5263607D01*
X82925895Y-5229500D01*
X82925892Y-5229500D01*
X82794108Y-5229500D01*
X82794105Y-5229500D01*
X82666815Y-5263607D01*
X82666811Y-5263608D01*
X82552685Y-5329500D01*
X82552685Y-5329501D01*
X82459501Y-5422685D01*
X82459500Y-5422685D01*
X82393608Y-5536811D01*
X82393607Y-5536815D01*
X82359500Y-5664104D01*
X82359500Y-5749877D01*
X82345148Y-5784525D01*
X82319536Y-5810137D01*
X82319535Y-5810137D01*
X82276682Y-5884359D01*
X82276681Y-5884361D01*
X82266279Y-5923186D01*
X82266279Y-5923187D01*
X82254500Y-5967145D01*
X82254500Y-36387390D01*
X82240148Y-36422038D01*
X82179501Y-36482685D01*
X82179500Y-36482685D01*
X82113608Y-36596811D01*
X82113607Y-36596815D01*
X82079500Y-36724104D01*
X82079500Y-36855895D01*
X82113607Y-36983184D01*
X82113608Y-36983187D01*
X82122935Y-36999341D01*
X82129500Y-37023841D01*
X82129500Y-41376158D01*
X82125770Y-41394910D01*
X82124540Y-41397878D01*
X82113608Y-41416814D01*
X82107948Y-41437933D01*
X82106719Y-41440902D01*
X82103302Y-41444318D01*
X82096097Y-41456798D01*
X79967749Y-43585148D01*
X79933101Y-43599500D01*
X40016900Y-43599500D01*
X39982252Y-43585148D01*
X38754852Y-42357748D01*
X38740500Y-42323100D01*
X38740500Y-40934105D01*
X38740499Y-40934104D01*
X38706392Y-40806815D01*
X38706391Y-40806811D01*
X38640499Y-40692685D01*
X38547314Y-40599500D01*
X38433188Y-40533608D01*
X38433184Y-40533607D01*
X38305895Y-40499500D01*
X38305892Y-40499500D01*
X38174108Y-40499500D01*
X38174105Y-40499500D01*
X38046815Y-40533607D01*
X38046811Y-40533608D01*
X37932685Y-40599500D01*
X37932685Y-40599501D01*
X37839501Y-40692685D01*
X37839500Y-40692685D01*
X37773608Y-40806811D01*
X37773607Y-40806815D01*
X37739500Y-40934104D01*
X37739500Y-41065895D01*
X37773607Y-41193184D01*
X37773608Y-41193188D01*
X37832935Y-41295943D01*
X37839500Y-41320443D01*
X37839500Y-42589310D01*
X37863713Y-42679672D01*
X37863713Y-42679673D01*
X37870200Y-42703886D01*
X37870201Y-42703888D01*
X37929511Y-42806614D01*
X39533386Y-44410490D01*
X39533388Y-44410491D01*
X39534868Y-44411627D01*
X39535339Y-44412443D01*
X39535657Y-44412761D01*
X39535571Y-44412846D01*
X39553618Y-44444106D01*
X39543910Y-44480331D01*
X39511431Y-44499081D01*
X39505037Y-44499500D01*
X26379305Y-44499500D01*
X26344657Y-44485148D01*
X26330305Y-44450500D01*
X26330305Y-44450483D01*
X26330318Y-44415852D01*
X26330934Y-42679672D01*
X26331919Y-39909483D01*
X26346283Y-39874839D01*
X26380919Y-39860500D01*
X30865500Y-39860500D01*
X30900148Y-39874852D01*
X30914500Y-39909500D01*
X30914500Y-40279748D01*
X30926133Y-40338231D01*
X30943882Y-40364795D01*
X30970447Y-40404552D01*
X30997012Y-40422301D01*
X31036769Y-40448867D01*
X31095252Y-40460500D01*
X31095255Y-40460500D01*
X32834745Y-40460500D01*
X32834748Y-40460500D01*
X32893231Y-40448867D01*
X32959552Y-40404552D01*
X33003867Y-40338231D01*
X33015500Y-40279748D01*
X33015500Y-39195772D01*
X62257000Y-39195772D01*
X62257000Y-39484228D01*
X62294651Y-39770217D01*
X62294652Y-39770221D01*
X62294653Y-39770228D01*
X62369307Y-40048840D01*
X62369309Y-40048846D01*
X62479696Y-40315346D01*
X62623923Y-40565153D01*
X62623933Y-40565168D01*
X62799521Y-40793998D01*
X62799531Y-40794010D01*
X63003489Y-40997968D01*
X63003501Y-40997978D01*
X63232331Y-41173566D01*
X63232340Y-41173572D01*
X63232344Y-41173575D01*
X63482155Y-41317804D01*
X63748655Y-41428191D01*
X63748659Y-41428192D01*
X64027271Y-41502846D01*
X64027272Y-41502846D01*
X64027283Y-41502849D01*
X64313272Y-41540500D01*
X64313276Y-41540500D01*
X64601724Y-41540500D01*
X64601728Y-41540500D01*
X64887717Y-41502849D01*
X65166345Y-41428191D01*
X65432845Y-41317804D01*
X65682656Y-41173575D01*
X65911504Y-40997974D01*
X66115474Y-40794004D01*
X66291075Y-40565156D01*
X66435304Y-40315345D01*
X66545691Y-40048845D01*
X66620349Y-39770217D01*
X66658000Y-39484228D01*
X66658000Y-39195772D01*
X66620349Y-38909783D01*
X66545691Y-38631155D01*
X66435304Y-38364655D01*
X66291075Y-38114844D01*
X66291072Y-38114840D01*
X66291066Y-38114831D01*
X66115478Y-37886001D01*
X66115468Y-37885989D01*
X65911510Y-37682031D01*
X65911498Y-37682021D01*
X65682668Y-37506433D01*
X65682653Y-37506423D01*
X65432845Y-37362196D01*
X65432846Y-37362196D01*
X65166346Y-37251809D01*
X65166340Y-37251807D01*
X64887728Y-37177153D01*
X64887721Y-37177152D01*
X64887717Y-37177151D01*
X64601728Y-37139500D01*
X64313272Y-37139500D01*
X64027283Y-37177151D01*
X64027279Y-37177151D01*
X64027271Y-37177153D01*
X63748659Y-37251807D01*
X63748653Y-37251809D01*
X63482153Y-37362196D01*
X63232346Y-37506423D01*
X63232331Y-37506433D01*
X63003501Y-37682021D01*
X63003489Y-37682031D01*
X62799531Y-37885989D01*
X62799521Y-37886001D01*
X62623933Y-38114831D01*
X62623923Y-38114846D01*
X62479696Y-38364653D01*
X62369309Y-38631153D01*
X62369307Y-38631159D01*
X62294653Y-38909771D01*
X62294651Y-38909779D01*
X62294651Y-38909783D01*
X62257000Y-39195772D01*
X33015500Y-39195772D01*
X33015500Y-38540252D01*
X33003867Y-38481769D01*
X32977301Y-38442012D01*
X32959552Y-38415447D01*
X32919795Y-38388882D01*
X32893231Y-38371133D01*
X32834748Y-38359500D01*
X31095252Y-38359500D01*
X31036769Y-38371133D01*
X30970447Y-38415447D01*
X30926133Y-38481769D01*
X30914500Y-38540252D01*
X30914500Y-38540255D01*
X30914500Y-38910500D01*
X30900148Y-38945148D01*
X30865500Y-38959500D01*
X26381273Y-38959500D01*
X26346625Y-38945148D01*
X26332273Y-38910500D01*
X26332273Y-38910483D01*
X26332651Y-37844727D01*
X26347002Y-37810101D01*
X29440490Y-34716614D01*
X29499799Y-34613887D01*
X29514109Y-34560480D01*
X29530500Y-34499309D01*
X29530500Y-25664104D01*
X35899500Y-25664104D01*
X35899500Y-25795895D01*
X35933607Y-25923184D01*
X35933608Y-25923188D01*
X35951890Y-25954852D01*
X35999500Y-26037314D01*
X36092686Y-26130500D01*
X36173481Y-26177147D01*
X36207084Y-26196548D01*
X36217232Y-26204335D01*
X44406096Y-34393199D01*
X44418778Y-34415163D01*
X44423607Y-34433185D01*
X44423608Y-34433188D01*
X44477997Y-34527390D01*
X44489500Y-34547314D01*
X44582686Y-34640500D01*
X44615595Y-34659500D01*
X44696810Y-34706390D01*
X44696811Y-34706390D01*
X44696814Y-34706392D01*
X44714834Y-34711220D01*
X44736798Y-34723901D01*
X46793386Y-36780490D01*
X46872700Y-36826281D01*
X46896114Y-36839799D01*
X46924758Y-36847474D01*
X47010688Y-36870500D01*
X47010691Y-36870500D01*
X62046811Y-36870500D01*
X62115909Y-36851984D01*
X62150459Y-36842727D01*
X62161387Y-36839799D01*
X62264114Y-36780489D01*
X63624104Y-35420499D01*
X64050500Y-34994104D01*
X73399500Y-34994104D01*
X73399500Y-35125895D01*
X73433607Y-35253184D01*
X73433608Y-35253188D01*
X73499500Y-35367314D01*
X73560148Y-35427962D01*
X73574500Y-35462610D01*
X73574500Y-36012856D01*
X73596681Y-36095637D01*
X73596682Y-36095640D01*
X73639535Y-36169862D01*
X77215148Y-39745475D01*
X77229500Y-39780123D01*
X77229500Y-39865895D01*
X77263607Y-39993184D01*
X77263608Y-39993188D01*
X77295743Y-40048846D01*
X77329500Y-40107314D01*
X77422686Y-40200500D01*
X77464457Y-40224617D01*
X77536811Y-40266391D01*
X77536813Y-40266391D01*
X77536814Y-40266392D01*
X77586645Y-40279744D01*
X77664104Y-40300499D01*
X77664105Y-40300500D01*
X77664108Y-40300500D01*
X77795895Y-40300500D01*
X77795895Y-40300499D01*
X77923186Y-40266392D01*
X78037314Y-40200500D01*
X78130500Y-40107314D01*
X78196392Y-39993186D01*
X78230499Y-39865895D01*
X78230500Y-39865895D01*
X78230500Y-39734105D01*
X78230499Y-39734104D01*
X78196392Y-39606815D01*
X78196391Y-39606811D01*
X78130499Y-39492685D01*
X78037314Y-39399500D01*
X77923188Y-39333608D01*
X77923184Y-39333607D01*
X77795895Y-39299500D01*
X77795892Y-39299500D01*
X77710123Y-39299500D01*
X77675475Y-39285148D01*
X74239852Y-35849525D01*
X74225500Y-35814877D01*
X74225500Y-35462610D01*
X74239852Y-35427962D01*
X74300499Y-35367315D01*
X74300500Y-35367314D01*
X74366392Y-35253186D01*
X74400499Y-35125895D01*
X74400500Y-35125895D01*
X74400500Y-34994105D01*
X74400499Y-34994104D01*
X74366392Y-34866815D01*
X74366391Y-34866811D01*
X74300499Y-34752685D01*
X74207314Y-34659500D01*
X74093188Y-34593608D01*
X74093184Y-34593607D01*
X73965895Y-34559500D01*
X73965892Y-34559500D01*
X73834108Y-34559500D01*
X73834105Y-34559500D01*
X73706815Y-34593607D01*
X73706811Y-34593608D01*
X73592685Y-34659500D01*
X73592685Y-34659501D01*
X73499501Y-34752685D01*
X73499500Y-34752685D01*
X73433608Y-34866811D01*
X73433607Y-34866815D01*
X73399500Y-34994104D01*
X64050500Y-34994104D01*
X64088356Y-34956248D01*
X65629752Y-33414852D01*
X65664400Y-33400500D01*
X66727245Y-33400500D01*
X66727248Y-33400500D01*
X66785731Y-33388867D01*
X66852052Y-33344552D01*
X66896367Y-33278231D01*
X66908000Y-33219748D01*
X66908000Y-31680252D01*
X66896367Y-31621769D01*
X66869801Y-31582012D01*
X66852052Y-31555447D01*
X66812295Y-31528882D01*
X66785731Y-31511133D01*
X66727248Y-31499500D01*
X65187752Y-31499500D01*
X65129269Y-31511133D01*
X65062947Y-31555447D01*
X65018633Y-31621769D01*
X65007000Y-31680252D01*
X65007000Y-31680255D01*
X65007000Y-32743100D01*
X64992648Y-32777748D01*
X61815249Y-35955148D01*
X61780601Y-35969500D01*
X58811390Y-35969500D01*
X58776742Y-35955148D01*
X58762390Y-35920500D01*
X58776742Y-35885852D01*
X58786888Y-35878066D01*
X58817314Y-35860500D01*
X58910500Y-35767314D01*
X58976392Y-35653186D01*
X59010499Y-35525895D01*
X59010500Y-35525895D01*
X59010500Y-35394105D01*
X59010499Y-35394104D01*
X58976392Y-35266815D01*
X58976391Y-35266811D01*
X58910499Y-35152685D01*
X58849852Y-35092038D01*
X58835500Y-35057390D01*
X58835500Y-27276384D01*
X65007000Y-27276384D01*
X65007000Y-27463616D01*
X65024083Y-27549500D01*
X65043526Y-27647248D01*
X65043529Y-27647258D01*
X65115175Y-27820225D01*
X65115176Y-27820227D01*
X65115178Y-27820231D01*
X65219198Y-27975908D01*
X65351592Y-28108302D01*
X65507269Y-28212322D01*
X65507274Y-28212324D01*
X65680241Y-28283970D01*
X65680243Y-28283970D01*
X65680249Y-28283973D01*
X65863884Y-28320500D01*
X65863887Y-28320500D01*
X66051113Y-28320500D01*
X66051116Y-28320500D01*
X66234751Y-28283973D01*
X66407731Y-28212322D01*
X66563408Y-28108302D01*
X66695802Y-27975908D01*
X66799822Y-27820231D01*
X66871473Y-27647251D01*
X66908000Y-27463616D01*
X66908000Y-27276384D01*
X66871473Y-27092749D01*
X66799822Y-26919769D01*
X66695802Y-26764092D01*
X66563408Y-26631698D01*
X66407731Y-26527678D01*
X66407727Y-26527676D01*
X66407725Y-26527675D01*
X66234758Y-26456029D01*
X66234748Y-26456026D01*
X66160694Y-26441296D01*
X66051116Y-26419500D01*
X65863884Y-26419500D01*
X65772486Y-26437680D01*
X65680251Y-26456026D01*
X65680241Y-26456029D01*
X65507274Y-26527675D01*
X65507270Y-26527677D01*
X65507269Y-26527678D01*
X65467695Y-26554120D01*
X65351592Y-26631697D01*
X65219197Y-26764092D01*
X65115175Y-26919774D01*
X65043529Y-27092741D01*
X65043526Y-27092751D01*
X65025180Y-27184986D01*
X65007000Y-27276384D01*
X58835500Y-27276384D01*
X58835500Y-26495123D01*
X58849852Y-26460475D01*
X59355475Y-25954852D01*
X59390123Y-25940500D01*
X59475895Y-25940500D01*
X59475895Y-25940499D01*
X59603186Y-25906392D01*
X59717314Y-25840500D01*
X59810500Y-25747314D01*
X59876392Y-25633186D01*
X59910499Y-25505895D01*
X59910500Y-25505895D01*
X59910500Y-25374105D01*
X59910499Y-25374104D01*
X59876392Y-25246815D01*
X59876391Y-25246811D01*
X59810499Y-25132685D01*
X59717314Y-25039500D01*
X59603188Y-24973608D01*
X59603184Y-24973607D01*
X59475895Y-24939500D01*
X59475892Y-24939500D01*
X59344108Y-24939500D01*
X59344105Y-24939500D01*
X59216815Y-24973607D01*
X59216811Y-24973608D01*
X59102685Y-25039500D01*
X59102685Y-25039501D01*
X59009501Y-25132685D01*
X59009500Y-25132685D01*
X58943608Y-25246811D01*
X58943607Y-25246815D01*
X58909500Y-25374104D01*
X58909500Y-25459877D01*
X58895148Y-25494525D01*
X58249536Y-26140137D01*
X58249535Y-26140137D01*
X58206682Y-26214359D01*
X58205013Y-26220591D01*
X58205012Y-26220590D01*
X58205012Y-26220594D01*
X58184500Y-26297144D01*
X58184500Y-35057390D01*
X58170148Y-35092038D01*
X58109501Y-35152685D01*
X58109500Y-35152685D01*
X58043608Y-35266811D01*
X58043607Y-35266815D01*
X58009500Y-35394104D01*
X58009500Y-35525895D01*
X58043607Y-35653184D01*
X58043608Y-35653188D01*
X58101650Y-35753718D01*
X58109500Y-35767314D01*
X58202686Y-35860500D01*
X58233110Y-35878065D01*
X58255940Y-35907818D01*
X58251045Y-35945000D01*
X58221292Y-35967830D01*
X58208610Y-35969500D01*
X47276900Y-35969500D01*
X47242252Y-35955148D01*
X45373902Y-34086799D01*
X45361220Y-34064834D01*
X45356392Y-34046814D01*
X45290500Y-33932686D01*
X45197314Y-33839500D01*
X45083188Y-33773608D01*
X45083185Y-33773607D01*
X45065163Y-33768778D01*
X45043199Y-33756096D01*
X36891223Y-25604120D01*
X36879763Y-25586057D01*
X36879069Y-25584128D01*
X36866392Y-25536814D01*
X36854874Y-25516864D01*
X36853392Y-25512744D01*
X36853625Y-25507824D01*
X36850500Y-25496159D01*
X36850500Y-16266899D01*
X36864852Y-16232251D01*
X37492999Y-15604104D01*
X42539500Y-15604104D01*
X42539500Y-15735895D01*
X42573607Y-15863184D01*
X42573608Y-15863188D01*
X42639500Y-15977314D01*
X42670148Y-16007962D01*
X42684500Y-16042610D01*
X42684500Y-26482856D01*
X42706681Y-26565637D01*
X42706682Y-26565640D01*
X42749535Y-26639862D01*
X44707819Y-28598145D01*
X44707824Y-28598151D01*
X44709535Y-28599862D01*
X44770138Y-28660465D01*
X44797304Y-28676149D01*
X44844359Y-28703317D01*
X44844361Y-28703317D01*
X44844362Y-28703318D01*
X44859275Y-28707314D01*
X44927146Y-28725501D01*
X44927148Y-28725501D01*
X45015850Y-28725501D01*
X45015866Y-28725500D01*
X49917390Y-28725500D01*
X49952038Y-28739852D01*
X50012686Y-28800500D01*
X50054457Y-28824617D01*
X50126811Y-28866391D01*
X50126813Y-28866391D01*
X50126814Y-28866392D01*
X50227207Y-28893292D01*
X50254104Y-28900499D01*
X50254105Y-28900500D01*
X50254108Y-28900500D01*
X50385895Y-28900500D01*
X50385895Y-28900499D01*
X50513186Y-28866392D01*
X50627314Y-28800500D01*
X50720500Y-28707314D01*
X50782539Y-28599859D01*
X50786391Y-28593188D01*
X50786391Y-28593187D01*
X50786392Y-28593186D01*
X50820499Y-28465895D01*
X50820500Y-28465895D01*
X50820500Y-28334105D01*
X50820499Y-28334104D01*
X50786392Y-28206815D01*
X50786391Y-28206811D01*
X50741466Y-28129000D01*
X50736571Y-28091818D01*
X50759401Y-28062065D01*
X50783901Y-28055500D01*
X56870500Y-28055500D01*
X56905148Y-28069852D01*
X56919500Y-28104500D01*
X56919500Y-28115895D01*
X56953607Y-28243184D01*
X56953608Y-28243188D01*
X57006100Y-28334105D01*
X57019500Y-28357314D01*
X57112686Y-28450500D01*
X57139346Y-28465892D01*
X57226811Y-28516391D01*
X57226813Y-28516391D01*
X57226814Y-28516392D01*
X57327207Y-28543292D01*
X57354104Y-28550499D01*
X57354105Y-28550500D01*
X57354108Y-28550500D01*
X57485895Y-28550500D01*
X57485895Y-28550499D01*
X57613186Y-28516392D01*
X57727314Y-28450500D01*
X57820500Y-28357314D01*
X57886392Y-28243186D01*
X57920499Y-28115895D01*
X57920500Y-28115895D01*
X57920500Y-27984105D01*
X57920499Y-27984104D01*
X57886392Y-27856815D01*
X57886391Y-27856811D01*
X57820499Y-27742685D01*
X57727314Y-27649500D01*
X57613188Y-27583608D01*
X57613184Y-27583607D01*
X57485895Y-27549500D01*
X57485892Y-27549500D01*
X57400123Y-27549500D01*
X57365475Y-27535148D01*
X57299862Y-27469535D01*
X57225640Y-27426682D01*
X57225637Y-27426681D01*
X57142856Y-27404500D01*
X57142853Y-27404500D01*
X45365123Y-27404500D01*
X45330475Y-27390148D01*
X44039852Y-26099525D01*
X44025500Y-26064877D01*
X44025500Y-24736384D01*
X65007000Y-24736384D01*
X65007000Y-24923616D01*
X65010160Y-24939500D01*
X65043526Y-25107248D01*
X65043529Y-25107258D01*
X65115175Y-25280225D01*
X65115176Y-25280227D01*
X65115178Y-25280231D01*
X65219198Y-25435908D01*
X65351592Y-25568302D01*
X65507269Y-25672322D01*
X65507274Y-25672324D01*
X65680241Y-25743970D01*
X65680243Y-25743970D01*
X65680249Y-25743973D01*
X65863884Y-25780500D01*
X65863887Y-25780500D01*
X66051113Y-25780500D01*
X66051116Y-25780500D01*
X66234751Y-25743973D01*
X66407731Y-25672322D01*
X66563408Y-25568302D01*
X66695802Y-25435908D01*
X66799822Y-25280231D01*
X66871473Y-25107251D01*
X66908000Y-24923616D01*
X66908000Y-24736384D01*
X66871473Y-24552749D01*
X66799822Y-24379769D01*
X66695802Y-24224092D01*
X66563408Y-24091698D01*
X66560660Y-24089862D01*
X66524881Y-24065955D01*
X66407731Y-23987678D01*
X66407727Y-23987676D01*
X66407725Y-23987675D01*
X66234758Y-23916029D01*
X66234748Y-23916026D01*
X66160694Y-23901296D01*
X66051116Y-23879500D01*
X65863884Y-23879500D01*
X65772486Y-23897680D01*
X65680251Y-23916026D01*
X65680241Y-23916029D01*
X65507274Y-23987675D01*
X65507270Y-23987677D01*
X65507269Y-23987678D01*
X65467695Y-24014120D01*
X65351592Y-24091697D01*
X65219197Y-24224092D01*
X65115175Y-24379774D01*
X65043529Y-24552741D01*
X65043526Y-24552751D01*
X65025180Y-24644986D01*
X65007000Y-24736384D01*
X44025500Y-24736384D01*
X44025500Y-22196384D01*
X65007000Y-22196384D01*
X65007000Y-22383616D01*
X65031240Y-22505479D01*
X65043526Y-22567248D01*
X65043529Y-22567258D01*
X65115175Y-22740225D01*
X65115176Y-22740227D01*
X65115178Y-22740231D01*
X65219198Y-22895908D01*
X65351592Y-23028302D01*
X65507269Y-23132322D01*
X65507274Y-23132324D01*
X65680241Y-23203970D01*
X65680243Y-23203970D01*
X65680249Y-23203973D01*
X65863884Y-23240500D01*
X65863887Y-23240500D01*
X66051113Y-23240500D01*
X66051116Y-23240500D01*
X66234751Y-23203973D01*
X66407731Y-23132322D01*
X66563408Y-23028302D01*
X66695802Y-22895908D01*
X66799822Y-22740231D01*
X66871473Y-22567251D01*
X66908000Y-22383616D01*
X66908000Y-22196384D01*
X66871473Y-22012749D01*
X66799822Y-21839769D01*
X66695802Y-21684092D01*
X66563408Y-21551698D01*
X66407731Y-21447678D01*
X66407727Y-21447676D01*
X66407725Y-21447675D01*
X66234758Y-21376029D01*
X66234748Y-21376026D01*
X66160694Y-21361296D01*
X66051116Y-21339500D01*
X65863884Y-21339500D01*
X65772486Y-21357680D01*
X65680251Y-21376026D01*
X65680241Y-21376029D01*
X65507274Y-21447675D01*
X65507270Y-21447677D01*
X65507269Y-21447678D01*
X65467695Y-21474120D01*
X65351592Y-21551697D01*
X65219197Y-21684092D01*
X65115175Y-21839774D01*
X65043529Y-22012741D01*
X65043526Y-22012751D01*
X65025180Y-22104986D01*
X65007000Y-22196384D01*
X44025500Y-22196384D01*
X44025500Y-19656384D01*
X65007000Y-19656384D01*
X65007000Y-19843616D01*
X65031240Y-19965479D01*
X65043526Y-20027248D01*
X65043529Y-20027258D01*
X65115175Y-20200225D01*
X65115176Y-20200227D01*
X65115178Y-20200231D01*
X65219198Y-20355908D01*
X65351592Y-20488302D01*
X65507269Y-20592322D01*
X65507274Y-20592324D01*
X65680241Y-20663970D01*
X65680243Y-20663970D01*
X65680249Y-20663973D01*
X65863884Y-20700500D01*
X65863887Y-20700500D01*
X66051113Y-20700500D01*
X66051116Y-20700500D01*
X66234751Y-20663973D01*
X66407731Y-20592322D01*
X66563408Y-20488302D01*
X66695802Y-20355908D01*
X66799822Y-20200231D01*
X66871473Y-20027251D01*
X66908000Y-19843616D01*
X66908000Y-19656384D01*
X66871473Y-19472749D01*
X66799822Y-19299769D01*
X66695802Y-19144092D01*
X66563408Y-19011698D01*
X66407731Y-18907678D01*
X66407727Y-18907676D01*
X66407725Y-18907675D01*
X66234758Y-18836029D01*
X66234748Y-18836026D01*
X66160694Y-18821296D01*
X66051116Y-18799500D01*
X65863884Y-18799500D01*
X65772486Y-18817680D01*
X65680251Y-18836026D01*
X65680241Y-18836029D01*
X65507274Y-18907675D01*
X65507270Y-18907677D01*
X65507269Y-18907678D01*
X65467695Y-18934120D01*
X65351592Y-19011697D01*
X65219197Y-19144092D01*
X65115175Y-19299774D01*
X65043529Y-19472741D01*
X65043526Y-19472751D01*
X65025180Y-19564986D01*
X65007000Y-19656384D01*
X44025500Y-19656384D01*
X44025500Y-18482730D01*
X44039852Y-18448082D01*
X44074500Y-18433730D01*
X44109148Y-18448082D01*
X44116934Y-18458228D01*
X44139500Y-18497314D01*
X44232686Y-18590500D01*
X44274457Y-18614617D01*
X44346811Y-18656391D01*
X44346813Y-18656391D01*
X44346814Y-18656392D01*
X44447207Y-18683292D01*
X44474104Y-18690499D01*
X44474105Y-18690500D01*
X44474108Y-18690500D01*
X44605895Y-18690500D01*
X44605895Y-18690499D01*
X44733186Y-18656392D01*
X44847314Y-18590500D01*
X44940500Y-18497314D01*
X45006392Y-18383186D01*
X45040499Y-18255895D01*
X45040500Y-18255895D01*
X45040500Y-18170123D01*
X45054852Y-18135475D01*
X46290369Y-16899958D01*
X46290370Y-16899957D01*
X46333223Y-16825734D01*
X46355404Y-16742951D01*
X46355405Y-16742951D01*
X46355405Y-13870838D01*
X46369757Y-13836190D01*
X47231843Y-12974104D01*
X57779500Y-12974104D01*
X57779500Y-13105895D01*
X57813607Y-13233184D01*
X57813608Y-13233188D01*
X57879500Y-13347314D01*
X57972686Y-13440500D01*
X58014457Y-13464617D01*
X58086811Y-13506391D01*
X58086813Y-13506391D01*
X58086814Y-13506392D01*
X58187207Y-13533292D01*
X58214104Y-13540499D01*
X58214105Y-13540500D01*
X58214108Y-13540500D01*
X58299877Y-13540500D01*
X58334525Y-13554852D01*
X58409534Y-13629861D01*
X58409535Y-13629862D01*
X58470138Y-13690465D01*
X58497304Y-13706149D01*
X58544359Y-13733317D01*
X58544361Y-13733317D01*
X58544362Y-13733318D01*
X58592506Y-13746218D01*
X58627143Y-13755499D01*
X58627144Y-13755500D01*
X58627147Y-13755500D01*
X58712853Y-13755500D01*
X61078390Y-13755500D01*
X61113038Y-13769852D01*
X61127390Y-13804500D01*
X61113038Y-13839148D01*
X61049501Y-13902685D01*
X61049500Y-13902685D01*
X60983608Y-14016811D01*
X60983607Y-14016815D01*
X60949500Y-14144104D01*
X60949500Y-14275895D01*
X60983607Y-14403184D01*
X60983608Y-14403188D01*
X61044131Y-14508015D01*
X61049500Y-14517314D01*
X61142686Y-14610500D01*
X61184457Y-14634617D01*
X61256811Y-14676391D01*
X61256813Y-14676391D01*
X61256814Y-14676392D01*
X61357207Y-14703292D01*
X61384104Y-14710499D01*
X61384105Y-14710500D01*
X61384108Y-14710500D01*
X61469877Y-14710500D01*
X61504525Y-14724852D01*
X62950138Y-16170465D01*
X63024361Y-16213318D01*
X63089653Y-16230812D01*
X63107143Y-16235499D01*
X63107144Y-16235500D01*
X63107147Y-16235500D01*
X63192853Y-16235500D01*
X65580035Y-16235500D01*
X65614683Y-16249852D01*
X65629035Y-16284500D01*
X65614683Y-16319148D01*
X65598786Y-16329770D01*
X65507274Y-16367675D01*
X65507270Y-16367677D01*
X65507269Y-16367678D01*
X65481123Y-16385148D01*
X65351592Y-16471697D01*
X65219197Y-16604092D01*
X65141620Y-16720195D01*
X65126416Y-16742951D01*
X65115175Y-16759774D01*
X65043529Y-16932741D01*
X65043526Y-16932751D01*
X65025180Y-17024986D01*
X65007000Y-17116384D01*
X65007000Y-17303616D01*
X65017599Y-17356899D01*
X65043526Y-17487248D01*
X65043529Y-17487258D01*
X65115175Y-17660225D01*
X65115176Y-17660227D01*
X65115178Y-17660231D01*
X65219198Y-17815908D01*
X65351592Y-17948302D01*
X65507269Y-18052322D01*
X65507274Y-18052324D01*
X65680241Y-18123970D01*
X65680243Y-18123970D01*
X65680249Y-18123973D01*
X65863884Y-18160500D01*
X65863887Y-18160500D01*
X66051113Y-18160500D01*
X66051116Y-18160500D01*
X66234751Y-18123973D01*
X66407731Y-18052322D01*
X66563408Y-17948302D01*
X66695802Y-17815908D01*
X66799822Y-17660231D01*
X66871473Y-17487251D01*
X66908000Y-17303616D01*
X66908000Y-17116384D01*
X66871473Y-16932749D01*
X66857890Y-16899958D01*
X66799824Y-16759774D01*
X66799822Y-16759769D01*
X66695802Y-16604092D01*
X66563408Y-16471698D01*
X66407731Y-16367678D01*
X66407727Y-16367676D01*
X66407725Y-16367675D01*
X66316214Y-16329770D01*
X66289695Y-16303252D01*
X66289695Y-16265749D01*
X66316213Y-16239230D01*
X66334965Y-16235500D01*
X67224877Y-16235500D01*
X67259525Y-16249852D01*
X68780148Y-17770474D01*
X68794500Y-17805122D01*
X68794500Y-23932856D01*
X68816681Y-24015637D01*
X68816682Y-24015640D01*
X68859535Y-24089862D01*
X74820148Y-30050475D01*
X74834500Y-30085123D01*
X74834500Y-34617390D01*
X74820148Y-34652038D01*
X74759501Y-34712685D01*
X74759500Y-34712685D01*
X74693608Y-34826811D01*
X74693607Y-34826815D01*
X74659500Y-34954104D01*
X74659500Y-35085895D01*
X74693607Y-35213184D01*
X74693608Y-35213188D01*
X74759500Y-35327314D01*
X74852686Y-35420500D01*
X74890469Y-35442314D01*
X74966811Y-35486391D01*
X74966813Y-35486391D01*
X74966814Y-35486392D01*
X75067207Y-35513292D01*
X75094104Y-35520499D01*
X75094105Y-35520500D01*
X75094108Y-35520500D01*
X75225895Y-35520500D01*
X75225895Y-35520499D01*
X75353186Y-35486392D01*
X75467314Y-35420500D01*
X75560500Y-35327314D01*
X75626392Y-35213186D01*
X75660499Y-35085895D01*
X75660500Y-35085895D01*
X75660500Y-34954105D01*
X75660499Y-34954104D01*
X75626392Y-34826815D01*
X75626391Y-34826811D01*
X75574430Y-34736814D01*
X75560500Y-34712686D01*
X75499852Y-34652038D01*
X75485500Y-34617390D01*
X75485500Y-29887144D01*
X75464988Y-29810594D01*
X75464987Y-29810590D01*
X75464987Y-29810591D01*
X75463318Y-29804362D01*
X75463318Y-29804361D01*
X75420465Y-29730138D01*
X71299862Y-25609535D01*
X69459852Y-23769525D01*
X69445500Y-23734877D01*
X69445500Y-17696809D01*
X69445501Y-17696796D01*
X69445501Y-17607145D01*
X69423318Y-17524363D01*
X69423317Y-17524359D01*
X69401892Y-17487251D01*
X69401891Y-17487250D01*
X69380467Y-17450141D01*
X69380462Y-17450135D01*
X69318156Y-17387829D01*
X69318145Y-17387819D01*
X67579862Y-15649535D01*
X67505640Y-15606682D01*
X67505637Y-15606681D01*
X67422856Y-15584500D01*
X67422853Y-15584500D01*
X66461240Y-15584500D01*
X66426592Y-15570148D01*
X66412240Y-15535500D01*
X66426592Y-15500852D01*
X66434017Y-15494758D01*
X66563408Y-15408302D01*
X66695802Y-15275908D01*
X66799822Y-15120231D01*
X66871473Y-14947251D01*
X66908000Y-14763616D01*
X66908000Y-14576384D01*
X66871473Y-14392749D01*
X66799822Y-14219769D01*
X66695802Y-14064092D01*
X66563408Y-13931698D01*
X66561615Y-13930500D01*
X66491355Y-13883553D01*
X66434016Y-13845241D01*
X66413182Y-13814060D01*
X66420498Y-13777277D01*
X66451680Y-13756442D01*
X66461240Y-13755500D01*
X67784877Y-13755500D01*
X67819525Y-13769852D01*
X69710148Y-15660474D01*
X69724500Y-15695122D01*
X69724500Y-23502856D01*
X69746681Y-23585637D01*
X69746682Y-23585640D01*
X69789535Y-23659862D01*
X76110148Y-29980474D01*
X76124500Y-30015122D01*
X76124500Y-34527390D01*
X76110148Y-34562038D01*
X76049501Y-34622685D01*
X76049500Y-34622685D01*
X75983608Y-34736811D01*
X75983607Y-34736815D01*
X75949500Y-34864104D01*
X75949500Y-34995895D01*
X75983607Y-35123184D01*
X75983608Y-35123188D01*
X76035571Y-35213188D01*
X76049500Y-35237314D01*
X76142686Y-35330500D01*
X76184457Y-35354617D01*
X76256811Y-35396391D01*
X76256813Y-35396391D01*
X76256814Y-35396392D01*
X76346787Y-35420500D01*
X76384104Y-35430499D01*
X76384105Y-35430500D01*
X76384108Y-35430500D01*
X76515895Y-35430500D01*
X76515895Y-35430499D01*
X76643186Y-35396392D01*
X76757314Y-35330500D01*
X76850500Y-35237314D01*
X76916392Y-35123186D01*
X76950499Y-34995895D01*
X76950500Y-34995895D01*
X76950500Y-34864105D01*
X76950499Y-34864104D01*
X76920645Y-34752686D01*
X76916392Y-34736814D01*
X76916391Y-34736813D01*
X76916391Y-34736811D01*
X76850499Y-34622685D01*
X76789852Y-34562038D01*
X76775500Y-34527390D01*
X76775500Y-29817144D01*
X76756428Y-29745970D01*
X76753318Y-29734362D01*
X76753318Y-29734361D01*
X76715890Y-29669535D01*
X76710465Y-29660138D01*
X76649862Y-29599535D01*
X76648156Y-29597829D01*
X76648145Y-29597819D01*
X70389852Y-23339525D01*
X70375500Y-23304877D01*
X70375500Y-22398997D01*
X73649500Y-22398997D01*
X73649500Y-22601003D01*
X73675652Y-22732482D01*
X73688908Y-22799124D01*
X73688910Y-22799130D01*
X73691148Y-22804534D01*
X73766214Y-22985756D01*
X73878442Y-23153718D01*
X74021282Y-23296558D01*
X74189244Y-23408786D01*
X74375873Y-23486091D01*
X74573997Y-23525500D01*
X74574000Y-23525500D01*
X75426000Y-23525500D01*
X75426003Y-23525500D01*
X75624127Y-23486091D01*
X75810756Y-23408786D01*
X75978718Y-23296558D01*
X76121558Y-23153718D01*
X76233786Y-22985756D01*
X76311091Y-22799127D01*
X76350500Y-22601003D01*
X76350500Y-22398997D01*
X76350232Y-22397648D01*
X78199500Y-22397648D01*
X78199500Y-22602351D01*
X78231522Y-22804531D01*
X78231523Y-22804534D01*
X78294779Y-22999217D01*
X78387714Y-23181612D01*
X78387716Y-23181615D01*
X78508035Y-23347220D01*
X78508039Y-23347225D01*
X78652775Y-23491961D01*
X78652779Y-23491964D01*
X78652781Y-23491966D01*
X78818390Y-23612287D01*
X79000781Y-23705220D01*
X79195466Y-23768477D01*
X79397648Y-23800500D01*
X79397649Y-23800500D01*
X79602351Y-23800500D01*
X79602352Y-23800500D01*
X79804534Y-23768477D01*
X79999219Y-23705220D01*
X80181610Y-23612287D01*
X80347219Y-23491966D01*
X80347222Y-23491962D01*
X80347225Y-23491961D01*
X80491961Y-23347225D01*
X80491962Y-23347222D01*
X80491966Y-23347219D01*
X80612287Y-23181610D01*
X80705220Y-22999219D01*
X80768477Y-22804534D01*
X80800500Y-22602352D01*
X80800500Y-22397648D01*
X80768477Y-22195466D01*
X80705220Y-22000781D01*
X80612287Y-21818390D01*
X80491966Y-21652781D01*
X80491964Y-21652779D01*
X80491961Y-21652775D01*
X80347225Y-21508039D01*
X80347220Y-21508035D01*
X80181615Y-21387716D01*
X80181612Y-21387714D01*
X79999217Y-21294779D01*
X79804534Y-21231523D01*
X79804531Y-21231522D01*
X79649220Y-21206923D01*
X79602352Y-21199500D01*
X79397648Y-21199500D01*
X79359599Y-21205526D01*
X79195468Y-21231522D01*
X79195465Y-21231523D01*
X79000782Y-21294779D01*
X78818387Y-21387714D01*
X78818384Y-21387716D01*
X78652779Y-21508035D01*
X78508035Y-21652779D01*
X78387716Y-21818384D01*
X78387714Y-21818387D01*
X78294779Y-22000782D01*
X78231523Y-22195465D01*
X78231522Y-22195468D01*
X78199500Y-22397648D01*
X76350232Y-22397648D01*
X76311091Y-22200873D01*
X76233786Y-22014244D01*
X76121558Y-21846282D01*
X75978718Y-21703442D01*
X75810756Y-21591214D01*
X75810753Y-21591212D01*
X75810752Y-21591212D01*
X75624130Y-21513910D01*
X75624124Y-21513908D01*
X75544227Y-21498016D01*
X75426003Y-21474500D01*
X74573997Y-21474500D01*
X74475387Y-21494114D01*
X74375875Y-21513908D01*
X74375869Y-21513910D01*
X74189247Y-21591212D01*
X74021282Y-21703441D01*
X73878441Y-21846282D01*
X73766212Y-22014247D01*
X73688910Y-22200869D01*
X73688908Y-22200875D01*
X73669114Y-22300387D01*
X73649500Y-22398997D01*
X70375500Y-22398997D01*
X70375500Y-15586809D01*
X70375501Y-15586796D01*
X70375501Y-15497145D01*
X70353318Y-15414362D01*
X70349819Y-15408302D01*
X70310465Y-15340138D01*
X70249862Y-15279535D01*
X70248156Y-15277829D01*
X70248145Y-15277819D01*
X68139862Y-13169535D01*
X68065640Y-13126682D01*
X68065637Y-13126681D01*
X67982856Y-13104500D01*
X67982853Y-13104500D01*
X66334965Y-13104500D01*
X66300317Y-13090148D01*
X66285965Y-13055500D01*
X66300317Y-13020852D01*
X66316214Y-13010230D01*
X66346376Y-12997735D01*
X66407731Y-12972322D01*
X66563408Y-12868302D01*
X66695802Y-12735908D01*
X66799822Y-12580231D01*
X66871473Y-12407251D01*
X66908000Y-12223616D01*
X66908000Y-12036384D01*
X66871473Y-11852749D01*
X66850945Y-11803191D01*
X66799824Y-11679774D01*
X66799822Y-11679769D01*
X66695802Y-11524092D01*
X66563408Y-11391698D01*
X66407731Y-11287678D01*
X66407727Y-11287676D01*
X66407725Y-11287675D01*
X66234758Y-11216029D01*
X66234748Y-11216026D01*
X66160694Y-11201296D01*
X66051116Y-11179500D01*
X65863884Y-11179500D01*
X65772486Y-11197680D01*
X65680251Y-11216026D01*
X65680241Y-11216029D01*
X65507274Y-11287675D01*
X65507270Y-11287677D01*
X65507269Y-11287678D01*
X65467695Y-11314120D01*
X65351592Y-11391697D01*
X65219197Y-11524092D01*
X65144013Y-11636614D01*
X65137481Y-11646391D01*
X65115175Y-11679774D01*
X65043529Y-11852741D01*
X65043526Y-11852751D01*
X65029790Y-11921809D01*
X65007000Y-12036384D01*
X65007000Y-12223616D01*
X65026009Y-12319179D01*
X65043526Y-12407248D01*
X65043529Y-12407258D01*
X65115175Y-12580225D01*
X65115176Y-12580227D01*
X65115178Y-12580231D01*
X65219198Y-12735908D01*
X65351592Y-12868302D01*
X65507269Y-12972322D01*
X65507274Y-12972324D01*
X65598786Y-13010230D01*
X65625305Y-13036748D01*
X65625305Y-13074251D01*
X65598787Y-13100770D01*
X65580035Y-13104500D01*
X58829500Y-13104500D01*
X58794852Y-13090148D01*
X58780500Y-13055500D01*
X58780500Y-12974105D01*
X58780499Y-12974104D01*
X58767342Y-12925000D01*
X58746392Y-12846814D01*
X58746391Y-12846813D01*
X58746391Y-12846811D01*
X58682360Y-12735908D01*
X58680500Y-12732686D01*
X58587314Y-12639500D01*
X58473188Y-12573608D01*
X58473184Y-12573607D01*
X58345895Y-12539500D01*
X58345892Y-12539500D01*
X58214108Y-12539500D01*
X58214105Y-12539500D01*
X58086815Y-12573607D01*
X58086811Y-12573608D01*
X57972685Y-12639500D01*
X57972685Y-12639501D01*
X57879501Y-12732685D01*
X57879500Y-12732685D01*
X57813608Y-12846811D01*
X57813607Y-12846815D01*
X57779500Y-12974104D01*
X47231843Y-12974104D01*
X49205095Y-11000852D01*
X49239743Y-10986500D01*
X69497147Y-10986500D01*
X69790579Y-10986500D01*
X69825227Y-11000852D01*
X72454236Y-13629861D01*
X72454237Y-13629862D01*
X72514840Y-13690465D01*
X72542006Y-13706149D01*
X72589061Y-13733317D01*
X72589063Y-13733317D01*
X72589064Y-13733318D01*
X72637208Y-13746218D01*
X72671845Y-13755499D01*
X72671846Y-13755500D01*
X72671849Y-13755500D01*
X75237390Y-13755500D01*
X75272038Y-13769852D01*
X75332686Y-13830500D01*
X75347665Y-13839148D01*
X75446811Y-13896391D01*
X75446813Y-13896391D01*
X75446814Y-13896392D01*
X75547207Y-13923292D01*
X75574104Y-13930499D01*
X75574105Y-13930500D01*
X75574108Y-13930500D01*
X75705895Y-13930500D01*
X75705895Y-13930499D01*
X75833186Y-13896392D01*
X75947314Y-13830500D01*
X76040500Y-13737314D01*
X76106392Y-13623186D01*
X76140499Y-13495895D01*
X76140500Y-13495895D01*
X76140500Y-13364105D01*
X76140499Y-13364104D01*
X76106392Y-13236815D01*
X76106391Y-13236811D01*
X76042807Y-13126682D01*
X76040500Y-13122686D01*
X75947314Y-13029500D01*
X75833188Y-12963608D01*
X75833184Y-12963607D01*
X75705895Y-12929500D01*
X75705892Y-12929500D01*
X75574108Y-12929500D01*
X75574105Y-12929500D01*
X75446815Y-12963607D01*
X75446811Y-12963608D01*
X75332685Y-13029500D01*
X75332685Y-13029501D01*
X75272038Y-13090148D01*
X75237390Y-13104500D01*
X72869825Y-13104500D01*
X72835177Y-13090148D01*
X72133504Y-12388475D01*
X72119152Y-12353827D01*
X72133504Y-12319179D01*
X72155466Y-12306498D01*
X72193186Y-12296392D01*
X72307314Y-12230500D01*
X72400500Y-12137314D01*
X72466392Y-12023186D01*
X72500499Y-11895895D01*
X72500500Y-11895895D01*
X72500500Y-11764105D01*
X72500499Y-11764104D01*
X72480272Y-11688614D01*
X72466392Y-11636814D01*
X72466391Y-11636813D01*
X72466391Y-11636811D01*
X72406966Y-11533886D01*
X72400500Y-11522686D01*
X72307314Y-11429500D01*
X72289663Y-11419309D01*
X72193188Y-11363608D01*
X72193184Y-11363607D01*
X72065895Y-11329500D01*
X72065892Y-11329500D01*
X71980123Y-11329500D01*
X71945475Y-11315148D01*
X70799475Y-10169148D01*
X70785123Y-10134500D01*
X70799475Y-10099852D01*
X70834123Y-10085500D01*
X78864877Y-10085500D01*
X78899525Y-10099852D01*
X79925148Y-11125475D01*
X79939500Y-11160123D01*
X79939500Y-11245895D01*
X79973607Y-11373184D01*
X79973608Y-11373188D01*
X80039500Y-11487314D01*
X80132686Y-11580500D01*
X80142017Y-11585887D01*
X80246811Y-11646391D01*
X80246813Y-11646391D01*
X80246814Y-11646392D01*
X80347207Y-11673292D01*
X80374104Y-11680499D01*
X80374105Y-11680500D01*
X80374108Y-11680500D01*
X80505895Y-11680500D01*
X80505895Y-11680499D01*
X80633186Y-11646392D01*
X80747314Y-11580500D01*
X80840500Y-11487314D01*
X80906392Y-11373186D01*
X80940499Y-11245895D01*
X80940500Y-11245895D01*
X80940500Y-11114105D01*
X80940499Y-11114104D01*
X80922353Y-11046383D01*
X80906392Y-10986814D01*
X80906391Y-10986813D01*
X80906391Y-10986811D01*
X80844325Y-10879311D01*
X80840500Y-10872686D01*
X80747314Y-10779500D01*
X80633188Y-10713608D01*
X80633184Y-10713607D01*
X80505895Y-10679500D01*
X80505892Y-10679500D01*
X80420123Y-10679500D01*
X80385475Y-10665148D01*
X79219862Y-9499535D01*
X79145640Y-9456682D01*
X79145637Y-9456681D01*
X79062856Y-9434500D01*
X79062853Y-9434500D01*
X48667147Y-9434500D01*
X48667144Y-9434500D01*
X48584363Y-9456681D01*
X48584360Y-9456682D01*
X48551053Y-9475913D01*
X48540824Y-9481818D01*
X48510141Y-9499532D01*
X48510135Y-9499537D01*
X44439536Y-13570137D01*
X44439535Y-13570137D01*
X44396683Y-13644357D01*
X44396682Y-13644361D01*
X44388228Y-13675913D01*
X44388228Y-13675914D01*
X44374500Y-13727145D01*
X44374500Y-13927390D01*
X44360148Y-13962038D01*
X44299501Y-14022685D01*
X44299500Y-14022685D01*
X44233608Y-14136811D01*
X44233607Y-14136815D01*
X44199500Y-14264104D01*
X44199500Y-14395895D01*
X44233607Y-14523184D01*
X44233608Y-14523188D01*
X44284018Y-14610499D01*
X44299500Y-14637314D01*
X44392686Y-14730500D01*
X44434457Y-14754617D01*
X44506811Y-14796391D01*
X44506813Y-14796391D01*
X44506814Y-14796392D01*
X44607207Y-14823292D01*
X44634104Y-14830499D01*
X44634105Y-14830500D01*
X44634108Y-14830500D01*
X44765895Y-14830500D01*
X44765895Y-14830499D01*
X44893186Y-14796392D01*
X45007314Y-14730500D01*
X45100500Y-14637314D01*
X45161970Y-14530844D01*
X45191723Y-14508015D01*
X45228905Y-14512910D01*
X45251735Y-14542663D01*
X45253405Y-14555345D01*
X45253405Y-15645972D01*
X45239053Y-15680620D01*
X44534525Y-16385148D01*
X44499877Y-16399500D01*
X44414105Y-16399500D01*
X44286815Y-16433607D01*
X44286811Y-16433608D01*
X44172685Y-16499500D01*
X44172685Y-16499501D01*
X44109148Y-16563038D01*
X44074500Y-16577390D01*
X44039852Y-16563038D01*
X44025500Y-16528390D01*
X44025500Y-10846809D01*
X44025501Y-10846796D01*
X44025501Y-10757145D01*
X44003318Y-10674363D01*
X44003318Y-10674362D01*
X43992508Y-10655639D01*
X43960465Y-10600138D01*
X43941606Y-10581279D01*
X43939023Y-10577493D01*
X43936053Y-10563283D01*
X43930500Y-10549877D01*
X43930500Y-10464105D01*
X43930499Y-10464104D01*
X43896392Y-10336815D01*
X43896391Y-10336811D01*
X43830499Y-10222685D01*
X43737314Y-10129500D01*
X43623188Y-10063608D01*
X43623184Y-10063607D01*
X43495895Y-10029500D01*
X43495892Y-10029500D01*
X43364108Y-10029500D01*
X43364105Y-10029500D01*
X43236815Y-10063607D01*
X43236811Y-10063608D01*
X43122685Y-10129500D01*
X43122685Y-10129501D01*
X43029501Y-10222685D01*
X43029500Y-10222685D01*
X42963608Y-10336811D01*
X42963607Y-10336815D01*
X42929500Y-10464104D01*
X42929500Y-10595895D01*
X42963607Y-10723184D01*
X42963608Y-10723188D01*
X43000481Y-10787052D01*
X43029500Y-10837314D01*
X43122686Y-10930500D01*
X43164457Y-10954617D01*
X43236811Y-10996391D01*
X43236814Y-10996392D01*
X43338182Y-11023553D01*
X43367935Y-11046383D01*
X43374500Y-11070883D01*
X43374500Y-15200325D01*
X43360148Y-15234973D01*
X43325500Y-15249325D01*
X43301000Y-15242760D01*
X43233188Y-15203608D01*
X43233184Y-15203607D01*
X43105895Y-15169500D01*
X43105892Y-15169500D01*
X42974108Y-15169500D01*
X42974105Y-15169500D01*
X42846815Y-15203607D01*
X42846811Y-15203608D01*
X42732685Y-15269500D01*
X42732685Y-15269501D01*
X42639501Y-15362685D01*
X42639500Y-15362685D01*
X42573608Y-15476811D01*
X42573607Y-15476815D01*
X42539500Y-15604104D01*
X37492999Y-15604104D01*
X37530855Y-15566248D01*
X40364418Y-12732685D01*
X43383202Y-9713900D01*
X43405169Y-9701219D01*
X43423183Y-9696393D01*
X43423183Y-9696392D01*
X43423186Y-9696392D01*
X43537314Y-9630500D01*
X43630500Y-9537314D01*
X43696392Y-9423186D01*
X43730499Y-9295895D01*
X43730500Y-9295895D01*
X43730500Y-9164105D01*
X43730499Y-9164104D01*
X43704618Y-9067513D01*
X43696392Y-9036814D01*
X43696391Y-9036813D01*
X43696391Y-9036811D01*
X43630499Y-8922685D01*
X43537314Y-8829500D01*
X43423188Y-8763608D01*
X43423184Y-8763607D01*
X43295895Y-8729500D01*
X43295892Y-8729500D01*
X43164108Y-8729500D01*
X43164105Y-8729500D01*
X43036815Y-8763607D01*
X43036811Y-8763608D01*
X42922685Y-8829500D01*
X42922685Y-8829501D01*
X42829501Y-8922685D01*
X42829500Y-8922685D01*
X42763608Y-9036811D01*
X42763607Y-9036815D01*
X42758780Y-9054831D01*
X42746098Y-9076796D01*
X36039512Y-15783384D01*
X36039511Y-15783385D01*
X35980201Y-15886111D01*
X35978532Y-15892343D01*
X35978531Y-15892342D01*
X35978531Y-15892346D01*
X35949500Y-16000688D01*
X35949500Y-25496159D01*
X35942936Y-25520655D01*
X35933608Y-25536814D01*
X35933606Y-25536818D01*
X35899500Y-25664104D01*
X29530500Y-25664104D01*
X29530500Y-17356899D01*
X29544852Y-17322251D01*
X32647334Y-14219769D01*
X35770490Y-11096614D01*
X35808661Y-11030500D01*
X35829798Y-10993889D01*
X35829799Y-10993886D01*
X35837722Y-10964318D01*
X35860500Y-10879311D01*
X35860500Y-3226898D01*
X35874851Y-3192251D01*
X36623201Y-2443900D01*
X36645164Y-2431220D01*
X36663186Y-2426392D01*
X36777314Y-2360500D01*
X36870500Y-2267314D01*
X36936392Y-2153186D01*
X36970499Y-2025895D01*
X36970500Y-2025895D01*
X36970500Y-1894105D01*
X36970499Y-1894104D01*
X36963292Y-1867207D01*
X36936392Y-1766814D01*
X36936391Y-1766813D01*
X36936391Y-1766811D01*
X36870499Y-1652685D01*
X36777314Y-1559500D01*
X36663188Y-1493608D01*
X36663184Y-1493607D01*
X36535895Y-1459500D01*
X36535892Y-1459500D01*
X36404108Y-1459500D01*
X36404105Y-1459500D01*
X36276815Y-1493607D01*
X36276811Y-1493608D01*
X36162685Y-1559500D01*
X36162685Y-1559501D01*
X36069501Y-1652685D01*
X36069500Y-1652685D01*
X36003608Y-1766811D01*
X36003607Y-1766815D01*
X35998779Y-1784833D01*
X35986097Y-1806798D01*
X35049512Y-2743384D01*
X35049511Y-2743385D01*
X34990201Y-2846111D01*
X34988532Y-2852343D01*
X34988531Y-2852342D01*
X34988531Y-2852346D01*
X34959500Y-2960688D01*
X34959500Y-10613100D01*
X34945148Y-10647748D01*
X28719511Y-16873385D01*
X28660201Y-16976111D01*
X28658532Y-16982343D01*
X28658531Y-16982342D01*
X28658531Y-16982346D01*
X28629500Y-17090688D01*
X28629500Y-34233099D01*
X28615148Y-34267747D01*
X26416801Y-36466093D01*
X26382153Y-36480445D01*
X26347505Y-36466093D01*
X26333153Y-36431447D01*
X26339996Y-17168617D01*
X26342944Y-17151901D01*
X27880000Y-12925000D01*
X27880000Y-10492108D01*
X27894352Y-10457460D01*
X27929000Y-10443108D01*
X27963648Y-10457460D01*
X27968642Y-10463307D01*
X27972155Y-10468142D01*
X27972159Y-10468147D01*
X28091853Y-10587841D01*
X28091857Y-10587844D01*
X28091859Y-10587846D01*
X28228815Y-10687350D01*
X28379651Y-10764205D01*
X28540653Y-10816518D01*
X28707856Y-10843000D01*
X28707857Y-10843000D01*
X28877143Y-10843000D01*
X28877144Y-10843000D01*
X29044347Y-10816518D01*
X29205349Y-10764205D01*
X29356185Y-10687350D01*
X29493141Y-10587846D01*
X29493144Y-10587842D01*
X29493147Y-10587841D01*
X29612841Y-10468147D01*
X29612842Y-10468144D01*
X29612846Y-10468141D01*
X29712350Y-10331185D01*
X29789205Y-10180349D01*
X29841518Y-10019347D01*
X29868000Y-9852144D01*
X29868000Y-9182856D01*
X29841518Y-9015653D01*
X29789205Y-8854651D01*
X29712350Y-8703815D01*
X29612846Y-8566859D01*
X29612844Y-8566857D01*
X29612841Y-8566853D01*
X29493147Y-8447159D01*
X29493142Y-8447155D01*
X29493141Y-8447154D01*
X29356185Y-8347650D01*
X29205349Y-8270795D01*
X29205348Y-8270794D01*
X29205347Y-8270794D01*
X29044347Y-8218482D01*
X29044344Y-8218481D01*
X28915902Y-8198138D01*
X28877144Y-8192000D01*
X28707856Y-8192000D01*
X28676391Y-8196983D01*
X28540655Y-8218481D01*
X28540652Y-8218482D01*
X28379652Y-8270794D01*
X28228815Y-8347650D01*
X28091857Y-8447155D01*
X27972155Y-8566857D01*
X27968640Y-8571695D01*
X27936662Y-8591288D01*
X27900196Y-8582531D01*
X27880603Y-8550553D01*
X27880000Y-8542891D01*
X27880000Y-6037000D01*
X27894352Y-6002352D01*
X27929000Y-5988000D01*
X29018101Y-5988000D01*
X29052749Y-6002352D01*
X30867648Y-7817251D01*
X30882000Y-7851899D01*
X30882000Y-8143000D01*
X30867648Y-8177648D01*
X30833000Y-8192000D01*
X30437752Y-8192000D01*
X30379269Y-8203633D01*
X30312947Y-8247947D01*
X30268633Y-8314269D01*
X30257000Y-8372752D01*
X30257000Y-10662248D01*
X30268633Y-10720731D01*
X30270275Y-10723188D01*
X30312947Y-10787052D01*
X30339512Y-10804801D01*
X30379269Y-10831367D01*
X30437752Y-10843000D01*
X30437755Y-10843000D01*
X32227245Y-10843000D01*
X32227248Y-10843000D01*
X32285731Y-10831367D01*
X32352052Y-10787052D01*
X32396367Y-10720731D01*
X32408000Y-10662248D01*
X32408000Y-8372752D01*
X32396367Y-8314269D01*
X32367318Y-8270795D01*
X32352052Y-8247947D01*
X32307952Y-8218481D01*
X32285731Y-8203633D01*
X32227248Y-8192000D01*
X32227245Y-8192000D01*
X31832000Y-8192000D01*
X31797352Y-8177648D01*
X31783000Y-8143000D01*
X31783000Y-7585688D01*
X31753969Y-7477346D01*
X31753968Y-7477342D01*
X31753968Y-7477343D01*
X31752299Y-7471114D01*
X31752299Y-7471113D01*
X31692989Y-7368386D01*
X29501614Y-5177011D01*
X29398888Y-5117701D01*
X29398886Y-5117700D01*
X29374673Y-5111213D01*
X29344551Y-5103142D01*
X29284311Y-5087000D01*
X29284309Y-5087000D01*
X27929000Y-5087000D01*
X27894352Y-5072648D01*
X27880000Y-5038000D01*
X27880000Y-549500D01*
X27894352Y-514852D01*
X27929000Y-500500D01*
X40811000Y-500500D01*
X40845648Y-514852D01*
G37*
%TD.AperFunction*%
%TD*%
M02*
