M48
; DRILL file {KiCad 9.0.6} date 2026-02-25T21:51:00+0100
; FORMAT={-:-/ absolute / metric / decimal}
; #@! TF.CreationDate,2026-02-25T21:51:00+01:00
; #@! TF.GenerationSoftware,Kicad,Pcbnew,9.0.6
; #@! TF.FileFunction,Plated,1,2,PTH
FMAT,2
METRIC
; #@! TA.AperFunction,Plated,PTH,ComponentDrill
T1C0.200
; #@! TA.AperFunction,Plated,PTH,ViaDrill
T2C0.300
; #@! TA.AperFunction,Plated,PTH,ComponentDrill
T3C0.600
; #@! TA.AperFunction,Plated,PTH,ComponentDrill
T4C0.900
; #@! TA.AperFunction,Plated,PTH,ComponentDrill
T5C1.000
; #@! TA.AperFunction,Plated,PTH,ComponentDrill
T6C1.075
; #@! TA.AperFunction,Plated,PTH,ComponentDrill
T7C1.200
; #@! TA.AperFunction,Plated,PTH,ComponentDrill
T8C1.500
; #@! TA.AperFunction,Plated,PTH,ComponentDrill
T9C1.550
; #@! TA.AperFunction,Plated,PTH,ComponentDrill
T10C2.050
; #@! TA.AperFunction,Plated,PTH,ComponentDrill
T11C2.700
; #@! TA.AperFunction,Plated,PTH,ComponentDrill
T12C3.200
%
G90
G05
T1
X47.85Y-15.02
X47.85Y-16.42
X48.55Y-14.32
X48.55Y-15.72
X48.55Y-17.12
X49.225Y-15.02
X49.225Y-16.42
X49.95Y-14.32
X49.95Y-15.72
X49.95Y-17.12
X50.65Y-15.02
X50.65Y-16.42
T2
X6.075Y-22.8
X9.675Y-4.662
X11.175Y-9.312
X13.0Y-14.812
X15.325Y-22.537
X16.775Y-4.662
X18.025Y-25.787
X20.2Y-29.887
X27.4Y-33.15
X28.65Y-41.79
X28.94Y-14.87
X30.62Y-32.11
X31.44Y-3.06
X32.11Y-1.46
X32.2Y-34.29
X32.24Y-6.34
X32.77Y-27.01
X34.51Y-19.87
X34.55Y-15.26
X35.16Y-32.31
X35.85Y-13.84
X36.4Y-25.73
X36.47Y-1.96
X38.0Y-23.8
X38.04Y-17.24
X38.24Y-41.0
X39.67Y-3.57
X39.96Y-41.84
X40.24Y-15.3
X40.24Y-35.06
X41.96Y-28.03
X42.84Y-36.1
X43.04Y-15.67
X43.23Y-9.23
X43.43Y-10.53
X44.48Y-16.9
X44.54Y-18.19
X44.7Y-14.33
X44.89Y-34.24
X45.15Y-11.04
X46.27Y-22.28
X48.53Y-30.73
X49.24Y-23.01
X49.62Y-34.9
X50.32Y-28.4
X51.95Y-8.69
X53.16Y-29.59
X53.64Y-34.45
X54.62Y-38.28
X55.39Y-14.81
X56.34Y-16.98
X57.2Y-22.71
X57.41Y-8.37
X57.42Y-28.05
X57.56Y-42.94
X58.28Y-13.04
X58.51Y-35.46
X59.41Y-25.44
X61.13Y-39.92
X61.45Y-14.21
X61.49Y-3.18
X62.14Y-24.89
X62.34Y-32.6
X63.0Y-22.14
X63.46Y-30.06
X64.12Y-19.81
X68.28Y-43.11
X68.75Y-3.44
X69.64Y-7.89
X69.72Y-33.65
X70.21Y-38.18
X72.0Y-11.83
X73.46Y-31.29
X73.9Y-35.06
X75.16Y-35.02
X75.35Y-20.49
X75.64Y-13.43
X75.87Y-39.37
X75.98Y-26.66
X76.01Y-15.4
X76.45Y-34.93
X77.02Y-43.18
X77.32Y-13.07
X77.73Y-39.8
X77.78Y-11.31
X79.88Y-33.05
X80.06Y-25.34
X80.44Y-11.18
X80.49Y-19.94
X80.99Y-13.14
X82.58Y-36.79
X82.58Y-41.61
X82.86Y-5.73
X83.11Y-2.92
X83.49Y-14.82
X83.99Y-27.78
X84.53Y-32.23
X85.55Y-3.52
X86.3Y-39.81
X86.47Y-36.41
X86.81Y-5.41
X87.17Y-22.35
X87.25Y-11.89
X87.42Y-32.92
X88.11Y-40.59
T4
X2.775Y-29.2
X2.775Y-31.2
X2.775Y-33.2
X74.33Y-4.39
X76.87Y-4.39
T5
X31.965Y-36.87
X31.965Y-39.41
X65.957Y-12.13
X65.957Y-14.67
X65.957Y-17.21
X65.957Y-19.75
X65.957Y-22.29
X65.957Y-24.83
X65.957Y-27.37
X65.957Y-29.91
X65.957Y-32.45
T6
X23.712Y-9.518
X26.252Y-9.518
X28.793Y-9.518
X31.332Y-9.518
T7
X4.907Y-11.73
X4.907Y-15.23
T8
X2.775Y-27.1
X2.775Y-35.3
T10
X79.5Y-22.5
T11
X3.257Y-5.24
X3.257Y-39.34
X64.457Y-5.24
X64.457Y-39.34
T12
X3.25Y-5.25
X3.25Y-39.35
X64.45Y-5.25
X64.45Y-39.35
T3
G00X83.75Y-34.86
M15
G01X84.85Y-34.86
M16
G05
G00X83.75Y-43.5
M15
G01X84.85Y-43.5
M16
G05
G00X88.1Y-34.86
M15
G01X88.9Y-34.86
M16
G05
G00X88.1Y-43.5
M15
G01X88.9Y-43.5
M16
G05
T9
G00X75.325Y-22.5
M15
G01X74.675Y-22.5
M16
G05
M30
