%TF.GenerationSoftware,KiCad,Pcbnew,9.0.6*%
%TF.CreationDate,2026-02-25T21:50:58+01:00*%
%TF.ProjectId,ESP32_DALITester,45535033-325f-4444-914c-495465737465,rev?*%
%TF.SameCoordinates,Original*%
%TF.FileFunction,Soldermask,Top*%
%TF.FilePolarity,Negative*%
%FSLAX46Y46*%
G04 Gerber Fmt 4.6, Leading zero omitted, Abs format (unit mm)*
G04 Created by KiCad (PCBNEW 9.0.6) date 2026-02-25 21:50:58*
%MOMM*%
%LPD*%
G01*
G04 APERTURE LIST*
G04 Aperture macros list*
%AMRoundRect*
0 Rectangle with rounded corners*
0 $1 Rounding radius*
0 $2 $3 $4 $5 $6 $7 $8 $9 X,Y pos of 4 corners*
0 Add a 4 corners polygon primitive as box body*
4,1,4,$2,$3,$4,$5,$6,$7,$8,$9,$2,$3,0*
0 Add four circle primitives for the rounded corners*
1,1,$1+$1,$2,$3*
1,1,$1+$1,$4,$5*
1,1,$1+$1,$6,$7*
1,1,$1+$1,$8,$9*
0 Add four rect primitives between the rounded corners*
20,1,$1+$1,$2,$3,$4,$5,0*
20,1,$1+$1,$4,$5,$6,$7,0*
20,1,$1+$1,$6,$7,$8,$9,0*
20,1,$1+$1,$8,$9,$2,$3,0*%
G04 Aperture macros list end*
%ADD10C,3.500000*%
%ADD11RoundRect,0.237500X-0.250000X-0.237500X0.250000X-0.237500X0.250000X0.237500X-0.250000X0.237500X0*%
%ADD12RoundRect,0.237500X-0.237500X0.300000X-0.237500X-0.300000X0.237500X-0.300000X0.237500X0.300000X0*%
%ADD13RoundRect,0.237500X0.237500X-0.287500X0.237500X0.287500X-0.237500X0.287500X-0.237500X-0.287500X0*%
%ADD14O,3.500000X2.200000*%
%ADD15R,2.500000X1.500000*%
%ADD16O,2.500000X1.500000*%
%ADD17RoundRect,0.249999X0.800001X0.525001X-0.800001X0.525001X-0.800001X-0.525001X0.800001X-0.525001X0*%
%ADD18C,4.000000*%
%ADD19R,1.500000X1.500000*%
%ADD20C,1.500000*%
%ADD21RoundRect,0.237500X-0.237500X0.250000X-0.237500X-0.250000X0.237500X-0.250000X0.237500X0.250000X0*%
%ADD22R,1.700000X1.700000*%
%ADD23C,1.700000*%
%ADD24RoundRect,0.150000X-0.150000X0.587500X-0.150000X-0.587500X0.150000X-0.587500X0.150000X0.587500X0*%
%ADD25RoundRect,0.250001X0.999999X-0.499999X0.999999X0.499999X-0.999999X0.499999X-0.999999X-0.499999X0*%
%ADD26RoundRect,0.150000X-0.512500X-0.150000X0.512500X-0.150000X0.512500X0.150000X-0.512500X0.150000X0*%
%ADD27RoundRect,0.250001X0.624999X-0.462499X0.624999X0.462499X-0.624999X0.462499X-0.624999X-0.462499X0*%
%ADD28RoundRect,0.150000X0.587500X0.150000X-0.587500X0.150000X-0.587500X-0.150000X0.587500X-0.150000X0*%
%ADD29RoundRect,0.150000X-0.587500X-0.150000X0.587500X-0.150000X0.587500X0.150000X-0.587500X0.150000X0*%
%ADD30RoundRect,0.237500X-0.300000X-0.237500X0.300000X-0.237500X0.300000X0.237500X-0.300000X0.237500X0*%
%ADD31RoundRect,0.225000X0.225000X0.375000X-0.225000X0.375000X-0.225000X-0.375000X0.225000X-0.375000X0*%
%ADD32RoundRect,0.062500X-0.350000X-0.062500X0.350000X-0.062500X0.350000X0.062500X-0.350000X0.062500X0*%
%ADD33R,1.200000X2.000000*%
%ADD34C,2.200000*%
%ADD35O,2.300000X1.600000*%
%ADD36RoundRect,0.195000X-1.005000X0.455000X-1.005000X-0.455000X1.005000X-0.455000X1.005000X0.455000X0*%
%ADD37RoundRect,0.600000X-1.400000X1.400000X-1.400000X-1.400000X1.400000X-1.400000X1.400000X1.400000X0*%
%ADD38RoundRect,0.480000X-1.120000X1.120000X-1.120000X-1.120000X1.120000X-1.120000X1.120000X1.120000X0*%
%ADD39R,1.800000X1.800000*%
%ADD40C,1.800000*%
%ADD41RoundRect,0.237500X0.237500X-0.250000X0.237500X0.250000X-0.237500X0.250000X-0.237500X-0.250000X0*%
%ADD42RoundRect,0.237500X0.250000X0.237500X-0.250000X0.237500X-0.250000X-0.237500X0.250000X-0.237500X0*%
%ADD43RoundRect,0.250000X0.625000X-0.400000X0.625000X0.400000X-0.625000X0.400000X-0.625000X-0.400000X0*%
%ADD44RoundRect,0.237500X0.237500X-0.300000X0.237500X0.300000X-0.237500X0.300000X-0.237500X-0.300000X0*%
%ADD45RoundRect,0.100000X0.225000X0.100000X-0.225000X0.100000X-0.225000X-0.100000X0.225000X-0.100000X0*%
%ADD46RoundRect,0.250000X-1.550000X0.650000X-1.550000X-0.650000X1.550000X-0.650000X1.550000X0.650000X0*%
%ADD47O,3.600000X1.800000*%
%ADD48RoundRect,0.225000X0.375000X-0.225000X0.375000X0.225000X-0.375000X0.225000X-0.375000X-0.225000X0*%
%ADD49RoundRect,0.150000X0.150000X-0.587500X0.150000X0.587500X-0.150000X0.587500X-0.150000X-0.587500X0*%
%ADD50C,0.650000*%
%ADD51R,1.240000X0.600000*%
%ADD52R,1.240000X0.300000*%
%ADD53O,2.100000X1.000000*%
%ADD54O,1.800000X1.000000*%
%ADD55RoundRect,0.249999X-0.750001X-0.640001X0.750001X-0.640001X0.750001X0.640001X-0.750001X0.640001X0*%
%ADD56RoundRect,0.249999X0.750001X0.640001X-0.750001X0.640001X-0.750001X-0.640001X0.750001X-0.640001X0*%
%ADD57R,1.500000X0.900000*%
%ADD58R,0.900000X1.500000*%
%ADD59C,0.600000*%
%ADD60R,3.800000X3.800000*%
%ADD61RoundRect,0.250000X-1.500000X-0.550000X1.500000X-0.550000X1.500000X0.550000X-1.500000X0.550000X0*%
%ADD62RoundRect,0.375000X0.625000X0.375000X-0.625000X0.375000X-0.625000X-0.375000X0.625000X-0.375000X0*%
%ADD63RoundRect,0.500000X0.500000X1.400000X-0.500000X1.400000X-0.500000X-1.400000X0.500000X-1.400000X0*%
%ADD64RoundRect,0.150000X-0.150000X0.825000X-0.150000X-0.825000X0.150000X-0.825000X0.150000X0.825000X0*%
%ADD65RoundRect,0.225000X-0.225000X-0.375000X0.225000X-0.375000X0.225000X0.375000X-0.225000X0.375000X0*%
%ADD66R,1.750000X2.250000*%
%ADD67O,1.750000X2.250000*%
G04 APERTURE END LIST*
D10*
%TO.C,J5*%
X64450000Y-5250000D03*
%TD*%
%TO.C,J4*%
X3250000Y-39350000D03*
%TD*%
%TO.C,J2*%
X3250000Y-5250000D03*
%TD*%
D11*
%TO.C,R13*%
X53740000Y-40990000D03*
X55565000Y-40990000D03*
%TD*%
%TO.C,R2*%
X57310000Y-40990000D03*
X59135000Y-40990000D03*
%TD*%
D12*
%TO.C,C3*%
X84350000Y-10387500D03*
X84350000Y-12112500D03*
%TD*%
D13*
%TO.C,D3*%
X38270000Y-28950000D03*
X38270000Y-27200000D03*
%TD*%
D14*
%TO.C,SW1*%
X2775000Y-27100000D03*
X2775000Y-35300000D03*
D15*
X2775000Y-29200000D03*
D16*
X2775000Y-31200000D03*
X2775000Y-33200000D03*
%TD*%
D17*
%TO.C,D1*%
X11175000Y-22745000D03*
X11175000Y-20205000D03*
X4675000Y-20205000D03*
X4675000Y-22745000D03*
%TD*%
D18*
%TO.C,U2*%
X64457500Y-39340000D03*
X64457500Y-5240000D03*
X3257500Y-39340000D03*
X3257500Y-5240000D03*
D19*
X65957500Y-32450000D03*
D20*
X65957500Y-29910000D03*
X65957500Y-27370000D03*
X65957500Y-24830000D03*
X65957500Y-22290000D03*
X65957500Y-19750000D03*
X65957500Y-17210000D03*
X65957500Y-14670000D03*
X65957500Y-12130000D03*
%TD*%
D11*
%TO.C,R11*%
X16250000Y-20375000D03*
X18075000Y-20375000D03*
%TD*%
D21*
%TO.C,R9*%
X36410000Y-27160000D03*
X36410000Y-28985000D03*
%TD*%
D22*
%TO.C,BT1*%
X31965000Y-39410000D03*
D23*
X31965000Y-36870000D03*
%TD*%
D12*
%TO.C,C5*%
X60220000Y-29210000D03*
X60220000Y-30935000D03*
%TD*%
D24*
%TO.C,Q4*%
X17975000Y-22462500D03*
X16075000Y-22462500D03*
X17025000Y-24337500D03*
%TD*%
D25*
%TO.C,L1*%
X43140000Y-42135000D03*
X43140000Y-38435000D03*
%TD*%
D26*
%TO.C,U9*%
X35285000Y-38425000D03*
X35285000Y-39375000D03*
X35285000Y-40325000D03*
X37560000Y-40325000D03*
X37560000Y-38425000D03*
%TD*%
D27*
%TO.C,F1*%
X10500000Y-17387500D03*
X10500000Y-14412500D03*
%TD*%
D28*
%TO.C,Q7*%
X32350000Y-13875000D03*
X32350000Y-11975000D03*
X30475000Y-12925000D03*
%TD*%
D29*
%TO.C,Q6*%
X18600000Y-10825000D03*
X18600000Y-12725000D03*
X20475000Y-11775000D03*
%TD*%
D30*
%TO.C,C1*%
X24050000Y-7225000D03*
X25775000Y-7225000D03*
%TD*%
D11*
%TO.C,R12*%
X30562500Y-23525000D03*
X32387500Y-23525000D03*
%TD*%
%TO.C,R10*%
X16262500Y-18675000D03*
X18087500Y-18675000D03*
%TD*%
D31*
%TO.C,D5*%
X14900000Y-3875000D03*
X11600000Y-3875000D03*
%TD*%
D32*
%TO.C,U7*%
X46815000Y-39160000D03*
X46815000Y-39660000D03*
X46815000Y-40160000D03*
X46815000Y-40660000D03*
X46815000Y-41160000D03*
X49240000Y-41160000D03*
X49240000Y-40660000D03*
X49240000Y-40160000D03*
X49240000Y-39660000D03*
X49240000Y-39160000D03*
D33*
X48027500Y-40160000D03*
%TD*%
D34*
%TO.C,SW5*%
X79500000Y-22500000D03*
D35*
X75000000Y-22500000D03*
D36*
X72200000Y-20000000D03*
X72200000Y-25000000D03*
X72200000Y-22500000D03*
D37*
X79500000Y-16000000D03*
D38*
X87400000Y-17150000D03*
X71600000Y-17150000D03*
X87400000Y-27850000D03*
X71600000Y-27850000D03*
D37*
X79500000Y-29000000D03*
D36*
X86500000Y-20000000D03*
X86500000Y-25000000D03*
%TD*%
D39*
%TO.C,D8*%
X74330000Y-4390000D03*
D40*
X76870000Y-4390000D03*
%TD*%
D12*
%TO.C,C6*%
X79550000Y-41335000D03*
X79550000Y-43060000D03*
%TD*%
D41*
%TO.C,R3*%
X82740000Y-12142500D03*
X82740000Y-10317500D03*
%TD*%
%TO.C,R6*%
X14475000Y-27900000D03*
X14475000Y-26075000D03*
%TD*%
D42*
%TO.C,R18*%
X37265000Y-35910000D03*
X35440000Y-35910000D03*
%TD*%
D43*
%TO.C,R17*%
X15575000Y-12425000D03*
X15575000Y-9325000D03*
%TD*%
D41*
%TO.C,R4*%
X74940000Y-12145000D03*
X74940000Y-10320000D03*
%TD*%
D28*
%TO.C,Q5*%
X32375000Y-19925000D03*
X32375000Y-18025000D03*
X30500000Y-18975000D03*
%TD*%
D44*
%TO.C,C9*%
X51240000Y-41220000D03*
X51240000Y-39495000D03*
%TD*%
D45*
%TO.C,U4*%
X18025000Y-27625000D03*
X18025000Y-26975000D03*
X18025000Y-26325000D03*
X16125000Y-26325000D03*
X16125000Y-27625000D03*
%TD*%
D42*
%TO.C,R19*%
X81640000Y-5730000D03*
X79815000Y-5730000D03*
%TD*%
D46*
%TO.C,J3*%
X4907500Y-11730000D03*
D47*
X4907500Y-15230000D03*
%TD*%
D48*
%TO.C,D7*%
X12925000Y-10475000D03*
X12925000Y-7175000D03*
%TD*%
D49*
%TO.C,Q2*%
X56530000Y-31265000D03*
X58430000Y-31265000D03*
X57480000Y-29390000D03*
%TD*%
D24*
%TO.C,Q1*%
X58440000Y-33615000D03*
X56540000Y-33615000D03*
X57490000Y-35490000D03*
%TD*%
D50*
%TO.C,J1*%
X84820000Y-42070000D03*
X84820000Y-36290000D03*
D51*
X83700000Y-42380000D03*
X83700000Y-41580000D03*
D52*
X83700000Y-40430000D03*
X83700000Y-39430000D03*
X83700000Y-38930000D03*
X83700000Y-37930000D03*
D51*
X83700000Y-36780000D03*
X83700000Y-35980000D03*
X83700000Y-35980000D03*
X83700000Y-36780000D03*
D52*
X83700000Y-37430000D03*
X83700000Y-38430000D03*
X83700000Y-39930000D03*
X83700000Y-40930000D03*
D51*
X83700000Y-41580000D03*
X83700000Y-42380000D03*
D53*
X84300000Y-43500000D03*
D54*
X88500000Y-43500000D03*
D53*
X84300000Y-34860000D03*
D54*
X88500000Y-34860000D03*
%TD*%
D55*
%TO.C,U5*%
X20355000Y-25805000D03*
X20355000Y-28345000D03*
X27975000Y-28345000D03*
X27975000Y-25805000D03*
%TD*%
D56*
%TO.C,U6*%
X27975000Y-22075000D03*
X27975000Y-19535000D03*
X20355000Y-19535000D03*
X20355000Y-22075000D03*
%TD*%
D42*
%TO.C,R16*%
X20375000Y-9125000D03*
X18550000Y-9125000D03*
%TD*%
D30*
%TO.C,C10*%
X47500000Y-37520000D03*
X49225000Y-37520000D03*
%TD*%
D57*
%TO.C,U1*%
X42000000Y-8000000D03*
X42000000Y-9270000D03*
X42000000Y-10540000D03*
X42000000Y-11810000D03*
X42000000Y-13080000D03*
X42000000Y-14350000D03*
X42000000Y-15620000D03*
X42000000Y-16890000D03*
X42000000Y-18160000D03*
X42000000Y-19430000D03*
X42000000Y-20700000D03*
X42000000Y-21970000D03*
X42000000Y-23240000D03*
X42000000Y-24510000D03*
D58*
X45040000Y-25760000D03*
X46310000Y-25760000D03*
X47580000Y-25760000D03*
X48850000Y-25760000D03*
X50120000Y-25760000D03*
X51390000Y-25760000D03*
X52660000Y-25760000D03*
X53930000Y-25760000D03*
X55200000Y-25760000D03*
X56470000Y-25760000D03*
D57*
X59500000Y-24510000D03*
X59500000Y-23240000D03*
X59500000Y-21970000D03*
X59500000Y-20700000D03*
X59500000Y-19430000D03*
X59500000Y-18160000D03*
X59500000Y-16890000D03*
X59500000Y-15620000D03*
X59500000Y-14350000D03*
X59500000Y-13080000D03*
X59500000Y-11810000D03*
X59500000Y-10540000D03*
X59500000Y-9270000D03*
X59500000Y-8000000D03*
D59*
X47850000Y-15020000D03*
X47850000Y-16420000D03*
X48550000Y-14320000D03*
X48550000Y-15720000D03*
X48550000Y-17120000D03*
X49225000Y-15020000D03*
X49225000Y-16420000D03*
D60*
X49250000Y-15720000D03*
D59*
X49950000Y-14320000D03*
X49950000Y-15720000D03*
X49950000Y-17120000D03*
X50650000Y-15020000D03*
X50650000Y-16420000D03*
%TD*%
D28*
%TO.C,D2*%
X12075000Y-28275000D03*
X12075000Y-26375000D03*
X10200000Y-27325000D03*
%TD*%
D42*
%TO.C,R7*%
X32387500Y-25275000D03*
X30562500Y-25275000D03*
%TD*%
D44*
%TO.C,C7*%
X28965000Y-38910000D03*
X28965000Y-37185000D03*
%TD*%
D61*
%TO.C,C11*%
X44880000Y-32870000D03*
X50280000Y-32870000D03*
%TD*%
D11*
%TO.C,R14*%
X30562500Y-21775000D03*
X32387500Y-21775000D03*
%TD*%
D12*
%TO.C,C4*%
X37125000Y-4325000D03*
X37125000Y-6050000D03*
%TD*%
D41*
%TO.C,R5*%
X73315000Y-12125000D03*
X73315000Y-10300000D03*
%TD*%
D21*
%TO.C,R1*%
X38025000Y-9200000D03*
X38025000Y-11025000D03*
%TD*%
D44*
%TO.C,C8*%
X39675000Y-9200000D03*
X39675000Y-7475000D03*
%TD*%
D21*
%TO.C,R8*%
X34475000Y-27162500D03*
X34475000Y-28987500D03*
%TD*%
D29*
%TO.C,Q3*%
X30537500Y-27125000D03*
X30537500Y-29025000D03*
X32412500Y-28075000D03*
%TD*%
D62*
%TO.C,U8*%
X34850000Y-6612500D03*
X34850000Y-4312500D03*
D63*
X28550000Y-4312500D03*
D62*
X34850000Y-2012500D03*
%TD*%
D64*
%TO.C,U3*%
X77725000Y-36390000D03*
X76455000Y-36390000D03*
X75185000Y-36390000D03*
X73915000Y-36390000D03*
X72645000Y-36390000D03*
X71375000Y-36390000D03*
X70105000Y-36390000D03*
X68835000Y-36390000D03*
X68835000Y-41340000D03*
X70105000Y-41340000D03*
X71375000Y-41340000D03*
X72645000Y-41340000D03*
X73915000Y-41340000D03*
X75185000Y-41340000D03*
X76455000Y-41340000D03*
X77725000Y-41340000D03*
%TD*%
D65*
%TO.C,D6*%
X15075000Y-6925000D03*
X18375000Y-6925000D03*
%TD*%
D66*
%TO.C,PS1*%
X31332500Y-9517500D03*
D67*
X28792500Y-9517500D03*
X26252500Y-9517500D03*
X23712500Y-9517500D03*
%TD*%
D10*
%TO.C,J6*%
X64450000Y-39350000D03*
%TD*%
M02*
