M48
; DRILL file {KiCad 9.0.6} date 2026-03-19T20:59:05+0100
; FORMAT={-:-/ absolute / metric / decimal}
; #@! TF.CreationDate,2026-03-19T20:59:05+01:00
; #@! TF.GenerationSoftware,Kicad,Pcbnew,9.0.6
; #@! TF.FileFunction,Plated,1,2,PTH
FMAT,2
METRIC
; #@! TA.AperFunction,Plated,PTH,ComponentDrill
T1C0.200
; #@! TA.AperFunction,Plated,PTH,ViaDrill
T2C0.300
; #@! TA.AperFunction,Plated,PTH,ComponentDrill
T3C0.600
; #@! TA.AperFunction,Plated,PTH,ComponentDrill
T4C0.900
; #@! TA.AperFunction,Plated,PTH,ComponentDrill
T5C1.000
; #@! TA.AperFunction,Plated,PTH,ComponentDrill
T6C1.200
; #@! TA.AperFunction,Plated,PTH,ComponentDrill
T7C1.500
; #@! TA.AperFunction,Plated,PTH,ComponentDrill
T8C1.550
; #@! TA.AperFunction,Plated,PTH,ComponentDrill
T9C2.050
; #@! TA.AperFunction,Plated,PTH,ComponentDrill
T10C2.700
; #@! TA.AperFunction,Plated,PTH,ComponentDrill
T11C3.200
%
G90
G05
T1
X47.85Y-15.02
X47.85Y-16.42
X48.55Y-14.32
X48.55Y-15.72
X48.55Y-17.12
X49.225Y-15.02
X49.225Y-16.42
X49.95Y-14.32
X49.95Y-15.72
X49.95Y-17.12
X50.65Y-15.02
X50.65Y-16.42
T2
X1.74Y-8.62
X6.04Y-2.06
X6.44Y-7.68
X7.95Y-29.52
X11.27Y-4.91
X11.31Y-8.84
X12.93Y-16.91
X13.27Y-6.81
X15.13Y-20.455
X15.13Y-21.005
X15.27Y-32.562
X17.33Y-11.36
X17.97Y-35.812
X20.145Y-39.913
X21.04Y-10.85
X21.19Y-1.85
X22.11Y-6.23
X22.56Y-16.37
X23.56Y-19.6
X26.1Y-21.64
X26.99Y-15.64
X27.17Y-11.06
X28.19Y-43.18
X28.54Y-9.84
X29.18Y-24.5
X29.44Y-26.24
X29.69Y-7.08
X30.195Y-7.585
X31.82Y-1.4
X31.84Y-13.54
X32.07Y-21.87
X32.51Y-18.3
X33.26Y-35.39
X35.03Y-7.33
X35.56Y-20.04
X35.58Y-19.32
X36.22Y-11.12
X36.4Y-27.48
X36.66Y-43.11
X36.87Y-20.68
X37.36Y-12.34
X37.55Y-4.31
X38.24Y-16.37
X38.29Y-18.74
X39.96Y-33.35
X40.36Y-19.11
X40.47Y-15.71
X40.55Y-13.31
X40.7Y-37.77
X42.91Y-28.51
X44.4Y-32.39
X44.4Y-33.35
X44.79Y-40.17
X44.88Y-32.87
X45.32Y-37.1
X45.65Y-13.31
X46.01Y-43.9
X46.05Y-27.21
X47.8Y-21.21
X49.86Y-30.81
X52.63Y-28.95
X53.24Y-35.83
X54.67Y-20.95
X55.92Y-27.32
X55.96Y-13.91
X57.03Y-13.17
X57.26Y-31.2
X57.62Y-12.13
X57.83Y-16.55
X58.12Y-29.43
X58.32Y-12.69
X58.423Y-26.192
X59.01Y-36.27
X59.41Y-33.11
X59.46Y-43.65
X59.571Y-27.58
X60.9Y-11.408
X61.03Y-32.42
X61.3Y-18.51
X61.48Y-21.97
X61.57Y-12.64
X62.26Y-33.9
X62.29Y-23.88
X62.68Y-32.52
X63.28Y-15.34
X64.04Y-11.61
X64.56Y-26.45
X64.67Y-21.48
X64.68Y-28.17
X64.82Y-31.26
X66.69Y-28.7
X66.79Y-2.72
X66.95Y-41.76
X67.04Y-37.46
X67.37Y-12.48
X68.43Y-11.08
X69.19Y-24.64
X69.57Y-14.32
X70.0Y-39.13
X70.19Y-31.54
X72.53Y-34.73
X72.78Y-3.55
X73.32Y-12.86
X73.4Y-35.05
X73.43Y-39.97
X74.67Y-34.87
X74.68Y-40.03
X75.07Y-20.21
X75.18Y-32.44
X75.76Y-27.85
X75.91Y-34.86
X76.76Y-38.0
X76.8Y-27.865
X77.21Y-40.07
X77.39Y-3.66
X77.67Y-25.08
X78.68Y-41.31
X79.48Y-13.2
X79.51Y-20.39
X79.53Y-18.09
X80.0Y-9.25
X81.23Y-31.51
X81.67Y-35.98
X81.72Y-34.98
X81.74Y-33.35
X82.05Y-42.95
X82.58Y-36.79
X82.58Y-41.61
X82.64Y-26.52
X84.21Y-15.51
X84.72Y-37.45
X84.88Y-40.45
X86.99Y-41.25
X87.61Y-37.7
X87.86Y-13.36
X87.95Y-31.86
X88.05Y-1.83
X88.51Y-21.37
T4
X85.95Y-4.9
X85.95Y-6.9
X85.95Y-8.9
T5
X65.97Y-12.14
X65.97Y-14.68
X65.97Y-17.22
X65.97Y-19.76
X65.97Y-22.3
X65.97Y-24.84
X65.97Y-27.38
X65.97Y-29.92
X65.97Y-32.46
T6
X4.842Y-20.555
X4.842Y-24.055
T7
X85.95Y-2.8
X85.95Y-11.0
T9
X79.5Y-22.5
T10
X3.27Y-5.25
X3.27Y-39.35
X64.47Y-5.25
X64.47Y-39.35
T11
X3.25Y-5.25
X3.25Y-39.35
X64.45Y-5.25
X64.45Y-39.35
T3
G00X83.75Y-34.86
M15
G01X84.85Y-34.86
M16
G05
G00X83.75Y-43.5
M15
G01X84.85Y-43.5
M16
G05
G00X88.1Y-34.86
M15
G01X88.9Y-34.86
M16
G05
G00X88.1Y-43.5
M15
G01X88.9Y-43.5
M16
G05
T8
G00X74.675Y-22.5
M15
G01X75.325Y-22.5
M16
G05
M30
