%TF.GenerationSoftware,KiCad,Pcbnew,9.0.6*%
%TF.CreationDate,2026-03-19T20:59:03+01:00*%
%TF.ProjectId,ESP32_DALITester,45535033-325f-4444-914c-495465737465,rev?*%
%TF.SameCoordinates,Original*%
%TF.FileFunction,Copper,L2,Bot*%
%TF.FilePolarity,Positive*%
%FSLAX46Y46*%
G04 Gerber Fmt 4.6, Leading zero omitted, Abs format (unit mm)*
G04 Created by KiCad (PCBNEW 9.0.6) date 2026-03-19 20:59:03*
%MOMM*%
%LPD*%
G01*
G04 APERTURE LIST*
G04 Aperture macros list*
%AMRoundRect*
0 Rectangle with rounded corners*
0 $1 Rounding radius*
0 $2 $3 $4 $5 $6 $7 $8 $9 X,Y pos of 4 corners*
0 Add a 4 corners polygon primitive as box body*
4,1,4,$2,$3,$4,$5,$6,$7,$8,$9,$2,$3,0*
0 Add four circle primitives for the rounded corners*
1,1,$1+$1,$2,$3*
1,1,$1+$1,$4,$5*
1,1,$1+$1,$6,$7*
1,1,$1+$1,$8,$9*
0 Add four rect primitives between the rounded corners*
20,1,$1+$1,$2,$3,$4,$5,0*
20,1,$1+$1,$4,$5,$6,$7,0*
20,1,$1+$1,$6,$7,$8,$9,0*
20,1,$1+$1,$8,$9,$2,$3,0*%
G04 Aperture macros list end*
%TA.AperFunction,ComponentPad*%
%ADD10C,3.500000*%
%TD*%
%TA.AperFunction,HeatsinkPad*%
%ADD11O,2.100000X1.000000*%
%TD*%
%TA.AperFunction,HeatsinkPad*%
%ADD12O,1.800000X1.000000*%
%TD*%
%TA.AperFunction,HeatsinkPad*%
%ADD13C,0.600000*%
%TD*%
%TA.AperFunction,ComponentPad*%
%ADD14O,3.500000X2.200000*%
%TD*%
%TA.AperFunction,ComponentPad*%
%ADD15R,2.500000X1.500000*%
%TD*%
%TA.AperFunction,ComponentPad*%
%ADD16O,2.500000X1.500000*%
%TD*%
%TA.AperFunction,SMDPad,CuDef*%
%ADD17RoundRect,0.090000X-0.360000X0.660000X-0.360000X-0.660000X0.360000X-0.660000X0.360000X0.660000X0*%
%TD*%
%TA.AperFunction,ComponentPad*%
%ADD18C,4.000000*%
%TD*%
%TA.AperFunction,ComponentPad*%
%ADD19R,1.500000X1.500000*%
%TD*%
%TA.AperFunction,ComponentPad*%
%ADD20C,1.500000*%
%TD*%
%TA.AperFunction,SMDPad,CuDef*%
%ADD21RoundRect,0.250001X1.449999X-0.499999X1.449999X0.499999X-1.449999X0.499999X-1.449999X-0.499999X0*%
%TD*%
%TA.AperFunction,SMDPad,CuDef*%
%ADD22RoundRect,0.250000X1.500000X-0.250000X1.500000X0.250000X-1.500000X0.250000X-1.500000X-0.250000X0*%
%TD*%
%TA.AperFunction,SMDPad,CuDef*%
%ADD23RoundRect,0.250000X-0.750000X0.250000X-0.750000X-0.250000X0.750000X-0.250000X0.750000X0.250000X0*%
%TD*%
%TA.AperFunction,ComponentPad*%
%ADD24O,2.300000X1.600000*%
%TD*%
%TA.AperFunction,ComponentPad*%
%ADD25C,2.200000*%
%TD*%
%TA.AperFunction,SMDPad,CuDef*%
%ADD26RoundRect,0.195000X1.005000X-0.455000X1.005000X0.455000X-1.005000X0.455000X-1.005000X-0.455000X0*%
%TD*%
%TA.AperFunction,SMDPad,CuDef*%
%ADD27RoundRect,0.600000X1.400000X-1.400000X1.400000X1.400000X-1.400000X1.400000X-1.400000X-1.400000X0*%
%TD*%
%TA.AperFunction,SMDPad,CuDef*%
%ADD28RoundRect,0.480000X1.120000X-1.120000X1.120000X1.120000X-1.120000X1.120000X-1.120000X-1.120000X0*%
%TD*%
%TA.AperFunction,ComponentPad*%
%ADD29RoundRect,0.250000X1.550000X-0.650000X1.550000X0.650000X-1.550000X0.650000X-1.550000X-0.650000X0*%
%TD*%
%TA.AperFunction,ComponentPad*%
%ADD30O,3.600000X1.800000*%
%TD*%
%TA.AperFunction,ViaPad*%
%ADD31C,0.600000*%
%TD*%
%TA.AperFunction,Conductor*%
%ADD32C,0.400000*%
%TD*%
%TA.AperFunction,Conductor*%
%ADD33C,1.000000*%
%TD*%
%TA.AperFunction,Conductor*%
%ADD34C,0.250000*%
%TD*%
%TA.AperFunction,Conductor*%
%ADD35C,0.750000*%
%TD*%
%TA.AperFunction,Conductor*%
%ADD36C,0.500000*%
%TD*%
%TA.AperFunction,Conductor*%
%ADD37C,0.200000*%
%TD*%
G04 APERTURE END LIST*
D10*
%TO.P,J6,1,Pin_1*%
%TO.N,unconnected-(J6-Pin_1-Pad1)*%
X64450000Y-39350000D03*
%TD*%
%TO.P,J4,1,Pin_1*%
%TO.N,unconnected-(J4-Pin_1-Pad1)*%
X3250000Y-39350000D03*
%TD*%
D11*
%TO.P,J1,S1,SHIELD*%
%TO.N,GND*%
X84300000Y-43500000D03*
D12*
X88500000Y-43500000D03*
D11*
X84300000Y-34860000D03*
D12*
X88500000Y-34860000D03*
%TD*%
D10*
%TO.P,J5,1,Pin_1*%
%TO.N,unconnected-(J5-Pin_1-Pad1)*%
X64450000Y-5250000D03*
%TD*%
D13*
%TO.P,U1,39,GND*%
%TO.N,GND*%
X47850000Y-15020000D03*
X47850000Y-16420000D03*
X48550000Y-14320000D03*
X48550000Y-15720000D03*
X48550000Y-17120000D03*
X49225000Y-15020000D03*
X49225000Y-16420000D03*
X49950000Y-14320000D03*
X49950000Y-15720000D03*
X49950000Y-17120000D03*
X50650000Y-15020000D03*
X50650000Y-16420000D03*
%TD*%
D10*
%TO.P,J2,1,Pin_1*%
%TO.N,unconnected-(J2-Pin_1-Pad1)*%
X3250000Y-5250000D03*
%TD*%
D14*
%TO.P,SW1,*%
%TO.N,*%
X85950000Y-2800000D03*
X85950000Y-11000000D03*
D15*
%TO.P,SW1,1,A*%
%TO.N,+VSW*%
X85950000Y-4900000D03*
D16*
%TO.P,SW1,2,B*%
%TO.N,+BATT*%
X85950000Y-6900000D03*
%TO.P,SW1,3,C*%
%TO.N,unconnected-(SW1A-C-Pad3)*%
X85950000Y-8900000D03*
%TD*%
D17*
%TO.P,D12,1,VDD*%
%TO.N,+VSW*%
X70650000Y-6320000D03*
%TO.P,D12,2,DOUT*%
%TO.N,unconnected-(D12-DOUT-Pad2)*%
X73950000Y-6320000D03*
%TO.P,D12,3,VSS*%
%TO.N,GND*%
X73950000Y-11220000D03*
%TO.P,D12,4,DIN*%
%TO.N,WSLED*%
X70650000Y-11220000D03*
%TD*%
D18*
%TO.P,U2,*%
%TO.N,*%
X64470000Y-39350000D03*
X64470000Y-5250000D03*
X3270000Y-39350000D03*
X3270000Y-5250000D03*
D19*
%TO.P,U2,1,VCC*%
%TO.N,+3.3V*%
X65970000Y-12140000D03*
D20*
%TO.P,U2,2,GND*%
%TO.N,GND*%
X65970000Y-14680000D03*
%TO.P,U2,3,~{CS}*%
%TO.N,LCD_CS*%
X65970000Y-17220000D03*
%TO.P,U2,4,RESET*%
%TO.N,LCD_RST*%
X65970000Y-19760000D03*
%TO.P,U2,5,D/~{C}*%
%TO.N,LCD_DC*%
X65970000Y-22300000D03*
%TO.P,U2,6,MOSI*%
%TO.N,LCD_MOSI*%
X65970000Y-24840000D03*
%TO.P,U2,7,SCK*%
%TO.N,LCD_CLK*%
X65970000Y-27380000D03*
%TO.P,U2,8,LED*%
%TO.N,LCD_LED*%
X65970000Y-29920000D03*
%TO.P,U2,9,MISO*%
%TO.N,LCD_MISO*%
X65970000Y-32460000D03*
%TD*%
D21*
%TO.P,BT1,1,-*%
%TO.N,GND*%
X45785000Y-42560000D03*
D22*
X51535000Y-40210000D03*
D21*
X45785000Y-35860000D03*
D22*
%TO.P,BT1,2,+*%
%TO.N,+BATT*%
X51535000Y-38210000D03*
%TD*%
D23*
%TO.P,J7,1,Pin_1*%
%TO.N,LCD_CLK*%
X61450000Y-29643333D03*
%TD*%
%TO.P,J8,1,Pin_1*%
%TO.N,LCD_MISO*%
X61450000Y-31340000D03*
%TD*%
D24*
%TO.P,SW5,*%
%TO.N,*%
X75000000Y-22500000D03*
D25*
X79500000Y-22500000D03*
D26*
%TO.P,SW5,A,A*%
%TO.N,ENC_A*%
X72200000Y-25000000D03*
%TO.P,SW5,B,B*%
%TO.N,ENC_B*%
X72200000Y-20000000D03*
%TO.P,SW5,C,C*%
%TO.N,GND*%
X72200000Y-22500000D03*
D27*
%TO.P,SW5,MP,MP*%
X79500000Y-29000000D03*
D28*
X71600000Y-27850000D03*
X87400000Y-27850000D03*
X71600000Y-17150000D03*
X87400000Y-17150000D03*
D27*
X79500000Y-16000000D03*
D26*
%TO.P,SW5,S1,S1*%
%TO.N,ENC_BTN*%
X86500000Y-25000000D03*
%TO.P,SW5,S2,S2*%
%TO.N,GND*%
X86500000Y-20000000D03*
%TD*%
D29*
%TO.P,J3,1,Pin_1*%
%TO.N,DA2*%
X4842500Y-24055000D03*
D30*
%TO.P,J3,2,Pin_2*%
%TO.N,Net-(D13-A1)*%
X4842500Y-20555000D03*
%TD*%
D23*
%TO.P,J9,1,Pin_1*%
%TO.N,LCD_MOSI*%
X61450000Y-26250000D03*
%TD*%
%TO.P,J10,1,Pin_1*%
%TO.N,SD_CS*%
X61450000Y-27946667D03*
%TD*%
D31*
%TO.N,+VSW*%
X29690000Y-7080000D03*
X30195000Y-7585000D03*
%TO.N,ENC_BTN*%
X37360000Y-12340000D03*
%TO.N,+3.3V*%
X77210000Y-40070000D03*
X35580000Y-19320000D03*
X44880000Y-32870000D03*
X35560000Y-20040000D03*
X44400000Y-32390000D03*
X44400000Y-33350000D03*
X33260000Y-35390000D03*
X73400000Y-35050000D03*
%TO.N,+BATT*%
X75760000Y-27850000D03*
X76800000Y-27865000D03*
%TO.N,DA2*%
X12930000Y-16910000D03*
%TO.N,Net-(Q1-G)*%
X74680000Y-40030000D03*
X57260000Y-31200000D03*
%TO.N,Net-(Q1-S)*%
X73430000Y-39970000D03*
X59410000Y-33110000D03*
%TO.N,Prg_Boot*%
X58423347Y-26191653D03*
X61030000Y-32420000D03*
%TO.N,PSU_EN*%
X29180000Y-24500000D03*
X28540000Y-9840000D03*
%TO.N,ENC_B*%
X38290000Y-18740000D03*
%TO.N,ENC_A*%
X38240000Y-16370000D03*
%TO.N,+5V*%
X82580000Y-36790000D03*
X82580000Y-41610000D03*
%TO.N,Prg_RX*%
X58320000Y-12690000D03*
X75910000Y-34860000D03*
%TO.N,SD_CS*%
X57830000Y-16550000D03*
%TO.N,Prg_TX*%
X74670000Y-34870000D03*
X57620000Y-12130000D03*
%TO.N,LCD_MOSI*%
X57030000Y-13170000D03*
%TO.N,LCD_CLK*%
X59570847Y-27580000D03*
%TO.N,LCD_MISO*%
X62680000Y-32520000D03*
%TO.N,GND*%
X81230000Y-31510000D03*
X66950000Y-41760000D03*
X53240000Y-35830000D03*
X77390000Y-3660000D03*
X21040000Y-10850000D03*
X26990000Y-15640000D03*
X69570000Y-14320000D03*
X31840000Y-13540000D03*
X59460000Y-43650000D03*
X32510000Y-18300000D03*
X64560000Y-26450000D03*
X6040000Y-2060000D03*
X28190000Y-43180000D03*
X32070000Y-21870000D03*
X37550000Y-4310000D03*
X61480000Y-21970000D03*
X86990000Y-41250000D03*
X66790000Y-2720000D03*
X36870000Y-20680000D03*
X13270000Y-6810000D03*
X75180000Y-32440000D03*
X42910000Y-28510000D03*
X87860000Y-13360000D03*
X87950000Y-31860000D03*
X70190000Y-31540000D03*
X15130000Y-21005000D03*
X77670000Y-25080000D03*
X64040000Y-11610000D03*
X35030000Y-7330000D03*
X82050000Y-42950000D03*
X26100000Y-21640000D03*
X11310000Y-8840000D03*
X22560000Y-16370000D03*
X31820000Y-1400000D03*
X82640000Y-26520000D03*
X67370000Y-12480000D03*
X66690000Y-28700000D03*
X76760000Y-38000000D03*
X69190000Y-24640000D03*
X36660000Y-43110000D03*
X63280000Y-15340000D03*
X80000000Y-9250000D03*
X22110000Y-6230000D03*
X64680000Y-28170000D03*
X67040000Y-37460000D03*
X59010000Y-36270000D03*
X40700000Y-37770000D03*
X87610000Y-37700000D03*
X40550000Y-13310000D03*
X40470000Y-15710000D03*
X75070000Y-20210000D03*
X62290000Y-23880000D03*
X72530000Y-34730000D03*
X1740000Y-8620000D03*
X61570000Y-12640000D03*
X40360000Y-19110000D03*
X73320000Y-12860000D03*
X52630000Y-28950000D03*
X11270000Y-4910000D03*
X49860000Y-30810000D03*
X55920000Y-27320000D03*
X81670000Y-35980000D03*
X23560000Y-19600000D03*
X36220000Y-11120000D03*
X79510000Y-20390000D03*
X17330000Y-11360000D03*
X45650000Y-13310000D03*
X45320000Y-37100000D03*
X64670000Y-21480000D03*
X46050000Y-27210000D03*
X39960000Y-33350000D03*
X36400000Y-27480000D03*
X79530000Y-18090000D03*
X27170000Y-11060000D03*
X84210000Y-15510000D03*
X78680000Y-41310000D03*
X29440000Y-26240000D03*
X47800000Y-21210000D03*
X64820000Y-31260000D03*
X79480000Y-13200000D03*
X61300000Y-18510000D03*
X54670000Y-20950000D03*
X6440000Y-7680000D03*
X44790000Y-40170000D03*
X70000000Y-39130000D03*
X68430000Y-11080000D03*
X72780000Y-3550000D03*
X58120000Y-29430000D03*
X88050000Y-1830000D03*
X15130000Y-20455000D03*
X55960000Y-13910000D03*
X88510000Y-21370000D03*
X21190000Y-1850000D03*
X46010000Y-43900000D03*
X62260000Y-33900000D03*
%TO.N,Net-(J1-CC2)*%
X81720000Y-34980000D03*
X84720000Y-37450000D03*
%TO.N,Net-(J1-CC1)*%
X84880000Y-40450000D03*
X81740000Y-33350000D03*
%TO.N,Net-(D1--)*%
X20145000Y-39912500D03*
X15270000Y-32562500D03*
X17970000Y-35812500D03*
%TO.N,WSLED*%
X60900000Y-11408000D03*
%TO.N,Net-(D13-A1)*%
X7950000Y-29520000D03*
%TD*%
D32*
%TO.N,+VSW*%
X70650000Y-7274000D02*
X71730000Y-8354000D01*
D33*
X71730000Y-8354000D02*
X78146000Y-8354000D01*
X81580000Y-4920000D02*
X84860000Y-4920000D01*
X30195000Y-7585000D02*
X30964000Y-8354000D01*
D32*
X70650000Y-6320000D02*
X70650000Y-7274000D01*
D33*
X30964000Y-8354000D02*
X71730000Y-8354000D01*
D32*
X70560000Y-6230000D02*
X70650000Y-6320000D01*
D33*
X78146000Y-8354000D02*
X81580000Y-4920000D01*
X30195000Y-7585000D02*
X29690000Y-7080000D01*
D34*
%TO.N,ENC_BTN*%
X40520000Y-9180000D02*
X37360000Y-12340000D01*
X77860000Y-19130000D02*
X76780000Y-18050000D01*
X86500000Y-25000000D02*
X80630000Y-19130000D01*
X80630000Y-19130000D02*
X77860000Y-19130000D01*
X74710000Y-9180000D02*
X40520000Y-9180000D01*
X76780000Y-18050000D02*
X76780000Y-11250000D01*
X76780000Y-11250000D02*
X74710000Y-9180000D01*
D35*
%TO.N,+3.3V*%
X44400000Y-32390000D02*
X35560000Y-23550000D01*
D36*
X65970000Y-12140000D02*
X64488000Y-10658000D01*
X42360000Y-35390000D02*
X44400000Y-33350000D01*
X62783917Y-42889000D02*
X75611000Y-42889000D01*
D35*
X35580000Y-19320000D02*
X35580000Y-20000000D01*
D36*
X38720000Y-19550000D02*
X36130000Y-19550000D01*
X51640000Y-36870000D02*
X52029000Y-37259000D01*
X64488000Y-10658000D02*
X41132208Y-10658000D01*
X41132208Y-10658000D02*
X39526000Y-12264208D01*
X47690000Y-32870000D02*
X51640000Y-36820000D01*
D35*
X35560000Y-19340000D02*
X35580000Y-19320000D01*
D36*
X52029000Y-37259000D02*
X57153918Y-37259000D01*
D35*
X35560000Y-20040000D02*
X35560000Y-19340000D01*
D36*
X77210000Y-41290000D02*
X77210000Y-40070000D01*
D34*
X35580000Y-19320000D02*
X35650000Y-19390000D01*
D36*
X51640000Y-36820000D02*
X51640000Y-36870000D01*
X44400000Y-33350000D02*
X44880000Y-32870000D01*
X73550000Y-37550000D02*
X73400000Y-37400000D01*
X33260000Y-35390000D02*
X42360000Y-35390000D01*
X39526000Y-12264208D02*
X39526000Y-18744000D01*
D35*
X44400000Y-32390000D02*
X44880000Y-32870000D01*
D36*
X39526000Y-18744000D02*
X38720000Y-19550000D01*
X44880000Y-32870000D02*
X47690000Y-32870000D01*
X77210000Y-40070000D02*
X76070000Y-40070000D01*
X36130000Y-19550000D02*
X35630000Y-20050000D01*
X73400000Y-37400000D02*
X73400000Y-35050000D01*
X76070000Y-40070000D02*
X73550000Y-37550000D01*
X75611000Y-42889000D02*
X77210000Y-41290000D01*
D35*
X35560000Y-23550000D02*
X35560000Y-20040000D01*
X35580000Y-20000000D02*
X35630000Y-20050000D01*
D36*
X57153918Y-37259000D02*
X62783917Y-42889000D01*
D33*
%TO.N,+BATT*%
X75530000Y-28110000D02*
X75775000Y-27865000D01*
X75775000Y-27865000D02*
X75760000Y-27850000D01*
X51535000Y-38210000D02*
X56760000Y-38210000D01*
X80450000Y-42390000D02*
X80450000Y-35650000D01*
X56760000Y-38210000D02*
X62020000Y-43470000D01*
X80450000Y-35650000D02*
X75530000Y-30730000D01*
X76800000Y-27865000D02*
X75775000Y-27865000D01*
X75530000Y-30730000D02*
X75530000Y-28110000D01*
X62020000Y-43530000D02*
X62330000Y-43840000D01*
X79000000Y-43840000D02*
X80450000Y-42390000D01*
X62020000Y-43470000D02*
X62020000Y-43530000D01*
X62330000Y-43840000D02*
X79000000Y-43840000D01*
D36*
%TO.N,DA2*%
X12930000Y-16910000D02*
X10000000Y-19840000D01*
X10000000Y-19840000D02*
X10000000Y-22410000D01*
X8295000Y-24055000D02*
X4842500Y-24055000D01*
X9940000Y-22410000D02*
X8295000Y-24055000D01*
X10000000Y-22410000D02*
X9940000Y-22410000D01*
D34*
%TO.N,Net-(Q1-G)*%
X70386810Y-35739000D02*
X62676810Y-35739000D01*
X74680000Y-40030000D02*
X74530000Y-39880000D01*
X58414702Y-32354702D02*
X57260000Y-31200000D01*
X59540000Y-32354702D02*
X58414702Y-32354702D01*
X74530000Y-39880000D02*
X74527810Y-39880000D01*
X60036000Y-32850702D02*
X59540000Y-32354702D01*
X60036000Y-33098190D02*
X60036000Y-32850702D01*
X62676810Y-35739000D02*
X60036000Y-33098190D01*
X74527810Y-39880000D02*
X70386810Y-35739000D01*
%TO.N,Net-(Q1-S)*%
X62490000Y-36190000D02*
X59410000Y-33110000D01*
X73430000Y-39420000D02*
X70200000Y-36190000D01*
X73430000Y-39970000D02*
X73430000Y-39420000D01*
X70200000Y-36190000D02*
X62490000Y-36190000D01*
D37*
%TO.N,Prg_Boot*%
X58970847Y-31183094D02*
X60208876Y-32421124D01*
X60210000Y-32420000D02*
X61030000Y-32420000D01*
X58970847Y-31183094D02*
X58970847Y-26739153D01*
X58970847Y-26739153D02*
X58423347Y-26191653D01*
X60208876Y-32421124D02*
X60210000Y-32420000D01*
D34*
%TO.N,PSU_EN*%
X28540000Y-23860000D02*
X29180000Y-24500000D01*
X28540000Y-9840000D02*
X28540000Y-23860000D01*
%TO.N,ENC_B*%
X38950000Y-18080000D02*
X38290000Y-18740000D01*
X40893620Y-10082000D02*
X38950000Y-12025620D01*
X73290000Y-20000000D02*
X75869000Y-17421000D01*
X72200000Y-20000000D02*
X73290000Y-20000000D01*
X75869000Y-17421000D02*
X75869000Y-11614620D01*
X74336380Y-10082000D02*
X40893620Y-10082000D01*
X38950000Y-12025620D02*
X38950000Y-18080000D01*
X75869000Y-11614620D02*
X74336380Y-10082000D01*
%TO.N,ENC_A*%
X40706810Y-9631000D02*
X38499000Y-11838810D01*
X38499000Y-11838810D02*
X38499000Y-16111000D01*
X74523190Y-9631000D02*
X40706810Y-9631000D01*
X76320000Y-11427810D02*
X74523190Y-9631000D01*
X77130000Y-23700000D02*
X77130000Y-19917810D01*
X75830000Y-25000000D02*
X77130000Y-23700000D01*
X76320000Y-19107810D02*
X76320000Y-11427810D01*
X38499000Y-16111000D02*
X38240000Y-16370000D01*
X77130000Y-19917810D02*
X76320000Y-19107810D01*
X72200000Y-25000000D02*
X75830000Y-25000000D01*
D36*
%TO.N,+5V*%
X82580000Y-41610000D02*
X82580000Y-36790000D01*
D34*
%TO.N,Prg_RX*%
X59500000Y-13882190D02*
X59500000Y-13870000D01*
X64174810Y-34837000D02*
X63821000Y-34483190D01*
X74989000Y-33469000D02*
X75910000Y-34390000D01*
X74989000Y-33469000D02*
X71843190Y-33469000D01*
X63821000Y-18203190D02*
X59500000Y-13882190D01*
X59500000Y-13870000D02*
X58320000Y-12690000D01*
X71843190Y-33469000D02*
X70475190Y-34837000D01*
X63821000Y-34483190D02*
X63821000Y-18203190D01*
X70475190Y-34837000D02*
X64174810Y-34837000D01*
X75910000Y-34390000D02*
X75910000Y-34860000D01*
D37*
%TO.N,SD_CS*%
X61450000Y-27946667D02*
X60787457Y-27946667D01*
X61028304Y-27946667D02*
X57830000Y-24748362D01*
X57830000Y-24748362D02*
X57830000Y-16550000D01*
X61450000Y-27946667D02*
X61028304Y-27946667D01*
D34*
%TO.N,Prg_TX*%
X70662000Y-35288000D02*
X63988000Y-35288000D01*
X57620000Y-12875298D02*
X57620000Y-12130000D01*
X74290000Y-33920000D02*
X72030000Y-33920000D01*
X59049000Y-14056810D02*
X58308190Y-13316000D01*
X58060702Y-13316000D02*
X57620000Y-12875298D01*
X59049000Y-14069000D02*
X59049000Y-14056810D01*
X63988000Y-35288000D02*
X63370000Y-34670000D01*
X74670000Y-34300000D02*
X74670000Y-34870000D01*
X58308190Y-13316000D02*
X58060702Y-13316000D01*
X74290000Y-33920000D02*
X74670000Y-34300000D01*
X63370000Y-18390000D02*
X59049000Y-14069000D01*
X63370000Y-34670000D02*
X63370000Y-18390000D01*
X72030000Y-33920000D02*
X70662000Y-35288000D01*
D37*
%TO.N,LCD_MOSI*%
X62944000Y-25806000D02*
X62500000Y-26250000D01*
X57750132Y-13890132D02*
X58279868Y-13890132D01*
X57030000Y-13170000D02*
X57750132Y-13890132D01*
X62944000Y-18566454D02*
X62944000Y-25806000D01*
X58279868Y-13902322D02*
X62944000Y-18566454D01*
X62500000Y-26250000D02*
X61450000Y-26250000D01*
X58279868Y-13890132D02*
X58279868Y-13902322D01*
%TO.N,LCD_CLK*%
X59575000Y-27584153D02*
X59575000Y-28675000D01*
X60543333Y-29643333D02*
X59575000Y-28675000D01*
X59570847Y-27580000D02*
X59575000Y-27584153D01*
X61450000Y-29643333D02*
X60543333Y-29643333D01*
%TO.N,LCD_MISO*%
X61450000Y-31340000D02*
X61500000Y-31340000D01*
X61500000Y-31340000D02*
X62680000Y-32520000D01*
D35*
%TO.N,GND*%
X22560000Y-16370000D02*
X23050000Y-15880000D01*
X15140000Y-19700000D02*
X15710000Y-19130000D01*
X15140000Y-20965000D02*
X15140000Y-19700000D01*
X15710000Y-19130000D02*
X19800000Y-19130000D01*
X19800000Y-19130000D02*
X22560000Y-16370000D01*
D37*
%TO.N,Net-(J1-CC2)*%
X86499000Y-35740000D02*
X86499000Y-36741000D01*
X86499000Y-36741000D02*
X85800000Y-37440000D01*
X84730000Y-37440000D02*
X84720000Y-37450000D01*
X86499000Y-34216100D02*
X86499000Y-35740000D01*
X85800000Y-37440000D02*
X84730000Y-37440000D01*
X86033900Y-33751000D02*
X86126450Y-33843550D01*
X86126450Y-33843550D02*
X86499000Y-34216100D01*
X82949000Y-33751000D02*
X86033900Y-33751000D01*
X81720000Y-34980000D02*
X82949000Y-33751000D01*
%TO.N,Net-(J1-CC1)*%
X86900000Y-34050000D02*
X86900000Y-39860000D01*
X86200000Y-33350000D02*
X86900000Y-34050000D01*
X86900000Y-39860000D02*
X86330000Y-40430000D01*
X84900000Y-40430000D02*
X84880000Y-40450000D01*
X81740000Y-33350000D02*
X86200000Y-33350000D01*
X86330000Y-40430000D02*
X84900000Y-40430000D01*
D32*
%TO.N,Net-(D1--)*%
X20145000Y-37987500D02*
X17970000Y-35812500D01*
X20145000Y-39912500D02*
X20145000Y-37987500D01*
X15270000Y-33112500D02*
X15270000Y-32562500D01*
X17970000Y-35812500D02*
X15270000Y-33112500D01*
D37*
%TO.N,WSLED*%
X70650000Y-11220000D02*
X68470000Y-13400000D01*
X63900000Y-13400000D02*
X61908000Y-11408000D01*
X61908000Y-11408000D02*
X60900000Y-11408000D01*
X68470000Y-13400000D02*
X63900000Y-13400000D01*
D36*
%TO.N,Net-(D13-A1)*%
X6020000Y-27590000D02*
X7950000Y-29520000D01*
X4842500Y-20555000D02*
X2505000Y-20555000D01*
X2520000Y-27590000D02*
X6020000Y-27590000D01*
X2505000Y-20555000D02*
X1510000Y-21550000D01*
X1470000Y-21590000D02*
X1470000Y-25700000D01*
X1510000Y-21550000D02*
X1470000Y-21590000D01*
X1470000Y-25700000D02*
X1470000Y-26540000D01*
X1470000Y-26540000D02*
X2520000Y-27590000D01*
%TD*%
%TA.AperFunction,Conductor*%
%TO.N,GND*%
G36*
X38943039Y-520185D02*
G01*
X38988794Y-572989D01*
X39000000Y-624500D01*
X39000000Y-6999999D01*
X39000000Y-7000000D01*
X62390000Y-6920000D01*
X62390000Y-6511109D01*
X62409685Y-6444070D01*
X62462489Y-6398315D01*
X62531647Y-6388371D01*
X62595203Y-6417396D01*
X62621387Y-6449110D01*
X62636416Y-6475143D01*
X62636431Y-6475164D01*
X62812024Y-6704002D01*
X62812030Y-6704009D01*
X63015990Y-6907969D01*
X63015997Y-6907975D01*
X63127607Y-6993616D01*
X63244844Y-7083575D01*
X63244851Y-7083579D01*
X63494647Y-7227800D01*
X63494663Y-7227808D01*
X63761139Y-7338185D01*
X63761145Y-7338186D01*
X63761155Y-7338191D01*
X64028127Y-7409725D01*
X64087787Y-7446090D01*
X64118316Y-7508937D01*
X64110021Y-7578313D01*
X64065536Y-7632190D01*
X63998984Y-7653465D01*
X63996033Y-7653500D01*
X31305519Y-7653500D01*
X31238480Y-7633815D01*
X31217838Y-7617181D01*
X30641543Y-7040886D01*
X30136546Y-6535888D01*
X30136545Y-6535887D01*
X30021807Y-6459222D01*
X29894332Y-6406421D01*
X29894322Y-6406418D01*
X29758996Y-6379500D01*
X29758994Y-6379500D01*
X29621006Y-6379500D01*
X29621004Y-6379500D01*
X29485677Y-6406418D01*
X29485667Y-6406421D01*
X29358192Y-6459222D01*
X29243454Y-6535887D01*
X29145887Y-6633454D01*
X29069222Y-6748192D01*
X29016421Y-6875667D01*
X29016418Y-6875677D01*
X28989500Y-7011003D01*
X28989500Y-7011006D01*
X28989500Y-7148994D01*
X28989500Y-7148996D01*
X28989499Y-7148996D01*
X29016418Y-7284322D01*
X29016421Y-7284332D01*
X29069222Y-7411807D01*
X29145887Y-7526545D01*
X29145888Y-7526546D01*
X29650886Y-8031543D01*
X30517453Y-8898111D01*
X30517454Y-8898112D01*
X30632190Y-8974776D01*
X30730790Y-9015617D01*
X30759671Y-9027580D01*
X30759672Y-9027580D01*
X30759677Y-9027582D01*
X30786545Y-9032925D01*
X30786551Y-9032926D01*
X30786591Y-9032934D01*
X30876937Y-9050905D01*
X30895006Y-9054500D01*
X30895007Y-9054500D01*
X39885811Y-9054500D01*
X39952850Y-9074185D01*
X39998605Y-9126989D01*
X40008549Y-9196147D01*
X39979524Y-9259703D01*
X39973492Y-9266181D01*
X37436492Y-11803181D01*
X37375169Y-11836666D01*
X37348811Y-11839500D01*
X37294108Y-11839500D01*
X37166812Y-11873608D01*
X37052686Y-11939500D01*
X37052683Y-11939502D01*
X36959502Y-12032683D01*
X36959500Y-12032686D01*
X36893608Y-12146812D01*
X36877959Y-12205218D01*
X36859500Y-12274108D01*
X36859500Y-12405892D01*
X36867920Y-12437316D01*
X36893608Y-12533187D01*
X36893975Y-12533822D01*
X36959500Y-12647314D01*
X37052686Y-12740500D01*
X37166814Y-12806392D01*
X37294108Y-12840500D01*
X37294110Y-12840500D01*
X37425890Y-12840500D01*
X37425892Y-12840500D01*
X37553186Y-12806392D01*
X37667314Y-12740500D01*
X37760500Y-12647314D01*
X37826392Y-12533186D01*
X37860500Y-12405892D01*
X37860500Y-12351189D01*
X37869144Y-12321748D01*
X37875668Y-12291762D01*
X37879422Y-12286746D01*
X37880185Y-12284150D01*
X37896819Y-12263508D01*
X37961819Y-12198508D01*
X38023142Y-12165023D01*
X38092834Y-12170007D01*
X38148767Y-12211879D01*
X38173184Y-12277343D01*
X38173500Y-12286189D01*
X38173500Y-15774513D01*
X38153815Y-15841552D01*
X38101011Y-15887307D01*
X38081597Y-15894287D01*
X38046813Y-15903608D01*
X37932686Y-15969500D01*
X37932683Y-15969502D01*
X37839502Y-16062683D01*
X37839500Y-16062686D01*
X37773608Y-16176812D01*
X37755958Y-16242686D01*
X37739500Y-16304108D01*
X37739500Y-16435892D01*
X37751773Y-16481697D01*
X37773608Y-16563187D01*
X37796413Y-16602686D01*
X37839500Y-16677314D01*
X37932686Y-16770500D01*
X38012968Y-16816851D01*
X38041503Y-16833326D01*
X38046814Y-16836392D01*
X38174108Y-16870500D01*
X38174110Y-16870500D01*
X38305890Y-16870500D01*
X38305892Y-16870500D01*
X38433186Y-16836392D01*
X38438496Y-16833325D01*
X38506396Y-16816851D01*
X38572424Y-16839701D01*
X38615616Y-16894621D01*
X38624500Y-16940711D01*
X38624500Y-17893811D01*
X38604815Y-17960850D01*
X38588181Y-17981492D01*
X38366492Y-18203181D01*
X38305169Y-18236666D01*
X38278811Y-18239500D01*
X38224108Y-18239500D01*
X38096812Y-18273608D01*
X37982686Y-18339500D01*
X37982683Y-18339502D01*
X37889502Y-18432683D01*
X37889500Y-18432686D01*
X37823608Y-18546812D01*
X37812704Y-18587507D01*
X37789500Y-18674108D01*
X37789500Y-18805892D01*
X37820509Y-18921621D01*
X37825712Y-18941037D01*
X37822953Y-18941776D01*
X37828951Y-18997503D01*
X37797683Y-19059986D01*
X37737599Y-19095645D01*
X37706919Y-19099500D01*
X36188816Y-19099500D01*
X36121777Y-19079815D01*
X36081429Y-19037500D01*
X36071680Y-19020614D01*
X36040515Y-18966635D01*
X35933365Y-18859485D01*
X35836064Y-18803308D01*
X35802136Y-18783719D01*
X35728950Y-18764109D01*
X35655766Y-18744500D01*
X35504233Y-18744500D01*
X35361100Y-18782851D01*
X35361101Y-18782852D01*
X35357864Y-18783719D01*
X35226635Y-18859485D01*
X35226632Y-18859487D01*
X35099487Y-18986632D01*
X35099485Y-18986635D01*
X35023719Y-19117863D01*
X34992749Y-19233449D01*
X34984500Y-19264234D01*
X34984500Y-19964234D01*
X34984500Y-23474234D01*
X34984500Y-23625766D01*
X35004109Y-23698950D01*
X35023719Y-23772136D01*
X35061602Y-23837750D01*
X35099485Y-23903365D01*
X35099487Y-23903367D01*
X44031471Y-32835351D01*
X44064956Y-32896674D01*
X44059972Y-32966366D01*
X44047901Y-32990388D01*
X44040759Y-33001426D01*
X43999500Y-33042686D01*
X43933608Y-33156814D01*
X43928927Y-33174283D01*
X43918317Y-33190683D01*
X43908980Y-33198723D01*
X43901887Y-33211008D01*
X42209716Y-34903181D01*
X42148393Y-34936666D01*
X42122035Y-34939500D01*
X33513937Y-34939500D01*
X33461249Y-34925381D01*
X33460696Y-34926719D01*
X33453188Y-34923609D01*
X33453186Y-34923608D01*
X33325892Y-34889500D01*
X33194108Y-34889500D01*
X33066812Y-34923608D01*
X32952686Y-34989500D01*
X32952683Y-34989502D01*
X32859502Y-35082683D01*
X32859500Y-35082686D01*
X32793608Y-35196812D01*
X32770867Y-35281684D01*
X32759500Y-35324108D01*
X32759500Y-35455892D01*
X32766094Y-35480500D01*
X32793608Y-35583187D01*
X32826554Y-35640250D01*
X32859500Y-35697314D01*
X32952686Y-35790500D01*
X33051521Y-35847563D01*
X33061425Y-35853281D01*
X33066814Y-35856392D01*
X33194108Y-35890500D01*
X33194110Y-35890500D01*
X33325890Y-35890500D01*
X33325892Y-35890500D01*
X33453186Y-35856392D01*
X33453194Y-35856387D01*
X33460696Y-35853281D01*
X33461249Y-35854618D01*
X33513937Y-35840500D01*
X42419308Y-35840500D01*
X42419309Y-35840500D01*
X42509673Y-35816286D01*
X42533887Y-35809799D01*
X42636614Y-35750489D01*
X44538989Y-33848112D01*
X44586222Y-33820845D01*
X44585668Y-33819506D01*
X44593176Y-33816394D01*
X44593186Y-33816392D01*
X44707314Y-33750500D01*
X44800500Y-33657314D01*
X44866392Y-33543186D01*
X44866393Y-33543180D01*
X44869504Y-33535674D01*
X44870841Y-33536228D01*
X44874035Y-33530695D01*
X44876962Y-33517244D01*
X44898113Y-33488990D01*
X44912925Y-33474178D01*
X44968510Y-33442085D01*
X45102135Y-33406281D01*
X45221938Y-33337113D01*
X45283938Y-33320500D01*
X47452035Y-33320500D01*
X47519074Y-33340185D01*
X47539716Y-33356819D01*
X51199665Y-37016769D01*
X51219371Y-37042449D01*
X51220200Y-37043886D01*
X51220201Y-37043887D01*
X51279511Y-37146614D01*
X51279513Y-37146616D01*
X51430716Y-37297819D01*
X51464201Y-37359142D01*
X51459217Y-37428834D01*
X51417345Y-37484767D01*
X51351881Y-37509184D01*
X51343035Y-37509500D01*
X49980730Y-37509500D01*
X49950300Y-37512353D01*
X49950298Y-37512353D01*
X49822119Y-37557206D01*
X49822117Y-37557207D01*
X49712850Y-37637850D01*
X49632207Y-37747117D01*
X49632206Y-37747119D01*
X49587353Y-37875298D01*
X49587353Y-37875300D01*
X49584500Y-37905730D01*
X49584500Y-38514269D01*
X49587353Y-38544699D01*
X49587353Y-38544701D01*
X49621105Y-38641155D01*
X49632207Y-38672882D01*
X49712850Y-38782150D01*
X49822118Y-38862793D01*
X49864845Y-38877744D01*
X49950299Y-38907646D01*
X49980730Y-38910500D01*
X49980734Y-38910500D01*
X51466007Y-38910500D01*
X56418481Y-38910500D01*
X56485520Y-38930185D01*
X56506162Y-38946819D01*
X61366276Y-43806932D01*
X61393156Y-43847159D01*
X61399224Y-43861810D01*
X61475887Y-43976545D01*
X61787161Y-44287819D01*
X61820646Y-44349142D01*
X61815662Y-44418834D01*
X61773790Y-44474767D01*
X61708326Y-44499184D01*
X61699480Y-44499500D01*
X26569018Y-44499500D01*
X26501979Y-44479815D01*
X26456224Y-44427011D01*
X26445018Y-44375218D01*
X26452281Y-41183579D01*
X26490000Y-24610000D01*
X15300000Y-9930000D01*
X11155622Y-9889435D01*
X9170006Y-9870000D01*
X9170000Y-9870000D01*
X624500Y-9870000D01*
X557461Y-9850315D01*
X511706Y-9797511D01*
X506615Y-9774108D01*
X28039500Y-9774108D01*
X28039500Y-9905891D01*
X28073608Y-10033187D01*
X28106554Y-10090250D01*
X28139500Y-10147314D01*
X28139502Y-10147316D01*
X28178181Y-10185995D01*
X28211666Y-10247318D01*
X28214500Y-10273676D01*
X28214500Y-23902852D01*
X28236682Y-23985640D01*
X28258108Y-24022750D01*
X28279535Y-24059862D01*
X28279536Y-24059863D01*
X28279537Y-24059864D01*
X28643181Y-24423507D01*
X28676666Y-24484830D01*
X28679500Y-24511188D01*
X28679500Y-24565892D01*
X28688341Y-24598887D01*
X28713608Y-24693187D01*
X28744319Y-24746379D01*
X28779500Y-24807314D01*
X28872686Y-24900500D01*
X28986814Y-24966392D01*
X29114108Y-25000500D01*
X29114110Y-25000500D01*
X29245890Y-25000500D01*
X29245892Y-25000500D01*
X29373186Y-24966392D01*
X29487314Y-24900500D01*
X29580500Y-24807314D01*
X29646392Y-24693186D01*
X29680500Y-24565892D01*
X29680500Y-24434108D01*
X29646392Y-24306814D01*
X29643417Y-24301662D01*
X29621578Y-24263835D01*
X29580500Y-24192686D01*
X29487314Y-24099500D01*
X29418659Y-24059862D01*
X29373187Y-24033608D01*
X29309539Y-24016554D01*
X29245892Y-23999500D01*
X29245891Y-23999500D01*
X29191188Y-23999500D01*
X29124149Y-23979815D01*
X29103507Y-23963181D01*
X28901819Y-23761492D01*
X28868334Y-23700169D01*
X28865500Y-23673811D01*
X28865500Y-10273676D01*
X28885185Y-10206637D01*
X28901819Y-10185995D01*
X28940500Y-10147314D01*
X29006392Y-10033186D01*
X29040500Y-9905892D01*
X29040500Y-9774108D01*
X29006392Y-9646814D01*
X28940500Y-9532686D01*
X28847314Y-9439500D01*
X28790250Y-9406554D01*
X28733187Y-9373608D01*
X28645941Y-9350231D01*
X28605892Y-9339500D01*
X28474108Y-9339500D01*
X28346812Y-9373608D01*
X28232686Y-9439500D01*
X28232683Y-9439502D01*
X28139502Y-9532683D01*
X28139500Y-9532686D01*
X28073608Y-9646812D01*
X28039500Y-9774108D01*
X506615Y-9774108D01*
X500500Y-9746000D01*
X500500Y-5105778D01*
X1069500Y-5105778D01*
X1069500Y-5394221D01*
X1069501Y-5394238D01*
X1107149Y-5680206D01*
X1107150Y-5680211D01*
X1107151Y-5680217D01*
X1179305Y-5949500D01*
X1181809Y-5958844D01*
X1181814Y-5958860D01*
X1292191Y-6225336D01*
X1292199Y-6225352D01*
X1436420Y-6475148D01*
X1436431Y-6475164D01*
X1612024Y-6704002D01*
X1612030Y-6704009D01*
X1815990Y-6907969D01*
X1815997Y-6907975D01*
X1927607Y-6993616D01*
X2044844Y-7083575D01*
X2044851Y-7083579D01*
X2294647Y-7227800D01*
X2294663Y-7227808D01*
X2561139Y-7338185D01*
X2561145Y-7338186D01*
X2561155Y-7338191D01*
X2839783Y-7412849D01*
X3125772Y-7450500D01*
X3125779Y-7450500D01*
X3414221Y-7450500D01*
X3414228Y-7450500D01*
X3700217Y-7412849D01*
X3978845Y-7338191D01*
X3978857Y-7338185D01*
X3978860Y-7338185D01*
X4245336Y-7227808D01*
X4245339Y-7227806D01*
X4245345Y-7227804D01*
X4495156Y-7083575D01*
X4724004Y-6907974D01*
X4927974Y-6704004D01*
X5103575Y-6475156D01*
X5247804Y-6225345D01*
X5274167Y-6161700D01*
X5358185Y-5958860D01*
X5358185Y-5958857D01*
X5358191Y-5958845D01*
X5432849Y-5680217D01*
X5470500Y-5394228D01*
X5470500Y-5105772D01*
X5432849Y-4819783D01*
X5358191Y-4541155D01*
X5358186Y-4541145D01*
X5358185Y-4541139D01*
X5247808Y-4274663D01*
X5247800Y-4274647D01*
X5103579Y-4024851D01*
X5103575Y-4024844D01*
X5017207Y-3912287D01*
X4927975Y-3795997D01*
X4927969Y-3795990D01*
X4724009Y-3592030D01*
X4724002Y-3592024D01*
X4495164Y-3416431D01*
X4495162Y-3416429D01*
X4495156Y-3416425D01*
X4495151Y-3416422D01*
X4495148Y-3416420D01*
X4245352Y-3272199D01*
X4245336Y-3272191D01*
X3978860Y-3161814D01*
X3978848Y-3161810D01*
X3978845Y-3161809D01*
X3700217Y-3087151D01*
X3700211Y-3087150D01*
X3700206Y-3087149D01*
X3414238Y-3049501D01*
X3414233Y-3049500D01*
X3414228Y-3049500D01*
X3125772Y-3049500D01*
X3125766Y-3049500D01*
X3125761Y-3049501D01*
X2839793Y-3087149D01*
X2839786Y-3087150D01*
X2839783Y-3087151D01*
X2774909Y-3104534D01*
X2561155Y-3161809D01*
X2561139Y-3161814D01*
X2294663Y-3272191D01*
X2294647Y-3272199D01*
X2044851Y-3416420D01*
X2044835Y-3416431D01*
X1815997Y-3592024D01*
X1815990Y-3592030D01*
X1612030Y-3795990D01*
X1612024Y-3795997D01*
X1436431Y-4024835D01*
X1436420Y-4024851D01*
X1292199Y-4274647D01*
X1292191Y-4274663D01*
X1181814Y-4541139D01*
X1181809Y-4541155D01*
X1107152Y-4819780D01*
X1107149Y-4819793D01*
X1069501Y-5105761D01*
X1069500Y-5105778D01*
X500500Y-5105778D01*
X500500Y-624500D01*
X520185Y-557461D01*
X572989Y-511706D01*
X624500Y-500500D01*
X38876000Y-500500D01*
X38943039Y-520185D01*
G37*
%TD.AperFunction*%
%TA.AperFunction,Conductor*%
G36*
X89442539Y-520185D02*
G01*
X89488294Y-572989D01*
X89499500Y-624500D01*
X89499500Y-44375500D01*
X89479815Y-44442539D01*
X89427011Y-44488294D01*
X89375500Y-44499500D01*
X79630520Y-44499500D01*
X79563481Y-44479815D01*
X79517726Y-44427011D01*
X79507782Y-44357853D01*
X79536807Y-44294297D01*
X79542839Y-44287819D01*
X80994111Y-42836546D01*
X80994112Y-42836545D01*
X80994114Y-42836543D01*
X81070775Y-42721811D01*
X81123580Y-42594328D01*
X81150500Y-42458994D01*
X81150500Y-42321006D01*
X81150500Y-36724108D01*
X82079500Y-36724108D01*
X82079500Y-36855892D01*
X82087304Y-36885017D01*
X82113608Y-36983186D01*
X82116718Y-36990693D01*
X82115381Y-36991246D01*
X82129500Y-37043936D01*
X82129500Y-41356062D01*
X82115383Y-41408751D01*
X82116719Y-41409304D01*
X82113608Y-41416814D01*
X82079500Y-41544108D01*
X82079500Y-41675891D01*
X82113608Y-41803187D01*
X82139402Y-41847863D01*
X82179500Y-41917314D01*
X82272686Y-42010500D01*
X82386814Y-42076392D01*
X82514108Y-42110500D01*
X82514110Y-42110500D01*
X82645890Y-42110500D01*
X82645892Y-42110500D01*
X82773186Y-42076392D01*
X82887314Y-42010500D01*
X82903580Y-41994234D01*
X84244500Y-41994234D01*
X84244500Y-42145765D01*
X84283719Y-42292136D01*
X84321602Y-42357750D01*
X84359485Y-42423365D01*
X84466635Y-42530515D01*
X84597865Y-42606281D01*
X84744234Y-42645500D01*
X84744236Y-42645500D01*
X84895764Y-42645500D01*
X84895766Y-42645500D01*
X85042135Y-42606281D01*
X85173365Y-42530515D01*
X85280515Y-42423365D01*
X85356281Y-42292135D01*
X85395500Y-42145766D01*
X85395500Y-41994234D01*
X85356281Y-41847865D01*
X85280515Y-41716635D01*
X85173365Y-41609485D01*
X85099109Y-41566613D01*
X85042136Y-41533719D01*
X84964239Y-41512847D01*
X84895766Y-41494500D01*
X84744234Y-41494500D01*
X84597863Y-41533719D01*
X84466635Y-41609485D01*
X84466632Y-41609487D01*
X84359487Y-41716632D01*
X84359485Y-41716635D01*
X84283719Y-41847863D01*
X84244500Y-41994234D01*
X82903580Y-41994234D01*
X82980500Y-41917314D01*
X83046392Y-41803186D01*
X83080500Y-41675892D01*
X83080500Y-41544108D01*
X83046392Y-41416814D01*
X83046388Y-41416807D01*
X83043281Y-41409304D01*
X83044616Y-41408751D01*
X83030500Y-41356062D01*
X83030500Y-37043936D01*
X83044618Y-36991246D01*
X83043282Y-36990693D01*
X83046388Y-36983192D01*
X83046392Y-36983186D01*
X83080500Y-36855892D01*
X83080500Y-36724108D01*
X83046392Y-36596814D01*
X82980500Y-36482686D01*
X82887314Y-36389500D01*
X82830250Y-36356554D01*
X82773187Y-36323608D01*
X82709539Y-36306554D01*
X82645892Y-36289500D01*
X82514108Y-36289500D01*
X82386812Y-36323608D01*
X82272686Y-36389500D01*
X82272683Y-36389502D01*
X82179502Y-36482683D01*
X82179500Y-36482686D01*
X82113608Y-36596812D01*
X82079500Y-36724108D01*
X81150500Y-36724108D01*
X81150500Y-35581007D01*
X81150500Y-35581002D01*
X81147685Y-35566855D01*
X81147683Y-35566847D01*
X81147094Y-35563886D01*
X81123580Y-35445672D01*
X81108107Y-35408318D01*
X81105881Y-35399399D01*
X81106950Y-35373309D01*
X81104159Y-35347349D01*
X81108357Y-35338960D01*
X81108742Y-35329588D01*
X81123746Y-35308218D01*
X81128065Y-35299589D01*
X81072533Y-35290251D01*
X81023613Y-35247606D01*
X80994114Y-35203457D01*
X80994112Y-35203454D01*
X80704766Y-34914108D01*
X81219500Y-34914108D01*
X81219500Y-35045892D01*
X81221455Y-35053187D01*
X81246490Y-35146622D01*
X81244827Y-35216472D01*
X81223578Y-35247865D01*
X81239254Y-35250779D01*
X81265348Y-35251711D01*
X81274417Y-35257313D01*
X81282276Y-35258774D01*
X81292776Y-35268654D01*
X81313870Y-35281684D01*
X81319499Y-35287313D01*
X81319500Y-35287314D01*
X81412686Y-35380500D01*
X81526814Y-35446392D01*
X81654108Y-35480500D01*
X81654110Y-35480500D01*
X81785890Y-35480500D01*
X81785892Y-35480500D01*
X81913186Y-35446392D01*
X82027314Y-35380500D01*
X82120500Y-35287314D01*
X82186392Y-35173186D01*
X82220500Y-35045892D01*
X82220500Y-34955832D01*
X82240185Y-34888793D01*
X82256819Y-34868151D01*
X83037152Y-34087819D01*
X83098475Y-34054334D01*
X83124833Y-34051500D01*
X85858067Y-34051500D01*
X85925106Y-34071185D01*
X85945748Y-34087819D01*
X86162181Y-34304252D01*
X86195666Y-34365575D01*
X86198500Y-34391933D01*
X86198500Y-36565167D01*
X86178815Y-36632206D01*
X86162181Y-36652848D01*
X85711848Y-37103181D01*
X85650525Y-37136666D01*
X85624167Y-37139500D01*
X85168676Y-37139500D01*
X85141624Y-37131556D01*
X85113851Y-37126721D01*
X85106000Y-37121096D01*
X85101637Y-37119815D01*
X85084737Y-37106770D01*
X85082832Y-37105018D01*
X85027314Y-37049500D01*
X85014288Y-37041979D01*
X85004207Y-37032708D01*
X84992969Y-37014029D01*
X84977927Y-36998251D01*
X84975312Y-36984679D01*
X84968188Y-36972838D01*
X84968832Y-36951049D01*
X84964708Y-36929643D01*
X84969845Y-36916812D01*
X84970254Y-36902999D01*
X84982576Y-36885017D01*
X84990680Y-36864780D01*
X85002672Y-36855692D01*
X85009751Y-36845364D01*
X85024514Y-36839142D01*
X85035409Y-36830887D01*
X85035096Y-36830345D01*
X85039418Y-36827849D01*
X85040711Y-36826870D01*
X85042123Y-36826284D01*
X85042135Y-36826281D01*
X85173365Y-36750515D01*
X85280515Y-36643365D01*
X85356281Y-36512135D01*
X85395500Y-36365766D01*
X85395500Y-36214234D01*
X85356281Y-36067865D01*
X85280515Y-35936635D01*
X85173365Y-35829485D01*
X85105836Y-35790497D01*
X85042136Y-35753719D01*
X84968950Y-35734109D01*
X84895766Y-35714500D01*
X84744234Y-35714500D01*
X84597863Y-35753719D01*
X84466635Y-35829485D01*
X84466632Y-35829487D01*
X84359487Y-35936632D01*
X84359485Y-35936635D01*
X84283719Y-36067863D01*
X84269799Y-36119814D01*
X84244500Y-36214234D01*
X84244500Y-36365766D01*
X84264109Y-36438950D01*
X84283719Y-36512136D01*
X84314337Y-36565167D01*
X84359485Y-36643365D01*
X84466635Y-36750515D01*
X84512588Y-36777046D01*
X84560804Y-36827613D01*
X84574027Y-36896220D01*
X84548059Y-36961085D01*
X84512589Y-36991819D01*
X84412692Y-37049496D01*
X84412683Y-37049502D01*
X84319502Y-37142683D01*
X84319500Y-37142686D01*
X84253608Y-37256812D01*
X84224665Y-37364833D01*
X84219500Y-37384108D01*
X84219500Y-37515892D01*
X84223592Y-37531162D01*
X84253608Y-37643187D01*
X84280298Y-37689415D01*
X84319500Y-37757314D01*
X84412686Y-37850500D01*
X84526814Y-37916392D01*
X84654108Y-37950500D01*
X84654110Y-37950500D01*
X84785890Y-37950500D01*
X84785892Y-37950500D01*
X84913186Y-37916392D01*
X85027314Y-37850500D01*
X85100996Y-37776818D01*
X85162320Y-37743334D01*
X85188677Y-37740500D01*
X85839560Y-37740500D01*
X85839562Y-37740500D01*
X85915989Y-37720021D01*
X85984511Y-37680460D01*
X86040460Y-37624511D01*
X86387819Y-37277152D01*
X86449142Y-37243667D01*
X86518834Y-37248651D01*
X86574767Y-37290523D01*
X86599184Y-37355987D01*
X86599500Y-37364833D01*
X86599500Y-39684167D01*
X86579815Y-39751206D01*
X86563181Y-39771848D01*
X86241848Y-40093181D01*
X86180525Y-40126666D01*
X86154167Y-40129500D01*
X85318676Y-40129500D01*
X85251637Y-40109815D01*
X85230995Y-40093181D01*
X85187316Y-40049502D01*
X85187314Y-40049500D01*
X85130250Y-40016554D01*
X85073187Y-39983608D01*
X84965291Y-39954698D01*
X84945892Y-39949500D01*
X84814108Y-39949500D01*
X84686812Y-39983608D01*
X84572686Y-40049500D01*
X84572683Y-40049502D01*
X84479502Y-40142683D01*
X84479500Y-40142686D01*
X84413608Y-40256812D01*
X84379500Y-40384108D01*
X84379500Y-40515891D01*
X84413608Y-40643187D01*
X84429357Y-40670464D01*
X84479500Y-40757314D01*
X84572686Y-40850500D01*
X84686814Y-40916392D01*
X84814108Y-40950500D01*
X84814110Y-40950500D01*
X84945890Y-40950500D01*
X84945892Y-40950500D01*
X85073186Y-40916392D01*
X85187314Y-40850500D01*
X85270995Y-40766819D01*
X85332318Y-40733334D01*
X85358676Y-40730500D01*
X86369560Y-40730500D01*
X86369562Y-40730500D01*
X86445989Y-40710021D01*
X86514511Y-40670460D01*
X86570460Y-40614511D01*
X87140460Y-40044511D01*
X87180022Y-39975988D01*
X87200500Y-39899562D01*
X87200500Y-39820438D01*
X87200500Y-34010438D01*
X87180021Y-33934011D01*
X87180017Y-33934004D01*
X87140464Y-33865495D01*
X87140458Y-33865487D01*
X86384512Y-33109541D01*
X86384507Y-33109537D01*
X86375065Y-33104086D01*
X86375064Y-33104086D01*
X86315991Y-33069980D01*
X86315990Y-33069979D01*
X86290513Y-33063152D01*
X86239562Y-33049500D01*
X86239560Y-33049500D01*
X82198676Y-33049500D01*
X82131637Y-33029815D01*
X82110995Y-33013181D01*
X82047316Y-32949502D01*
X82047314Y-32949500D01*
X81979293Y-32910228D01*
X81933187Y-32883608D01*
X81857447Y-32863314D01*
X81805892Y-32849500D01*
X81674108Y-32849500D01*
X81546812Y-32883608D01*
X81432686Y-32949500D01*
X81432683Y-32949502D01*
X81339502Y-33042683D01*
X81339500Y-33042686D01*
X81273608Y-33156812D01*
X81259749Y-33208537D01*
X81239500Y-33284108D01*
X81239500Y-33415892D01*
X81255118Y-33474178D01*
X81273608Y-33543187D01*
X81306554Y-33600250D01*
X81339500Y-33657314D01*
X81432686Y-33750500D01*
X81546814Y-33816392D01*
X81674108Y-33850500D01*
X81674110Y-33850500D01*
X81805890Y-33850500D01*
X81805892Y-33850500D01*
X81933186Y-33816392D01*
X82047314Y-33750500D01*
X82110995Y-33686819D01*
X82137922Y-33672115D01*
X82163741Y-33655523D01*
X82169941Y-33654631D01*
X82172318Y-33653334D01*
X82198676Y-33650500D01*
X82325167Y-33650500D01*
X82392206Y-33670185D01*
X82437961Y-33722989D01*
X82447905Y-33792147D01*
X82418880Y-33855703D01*
X82412851Y-33862177D01*
X82107896Y-34167132D01*
X81831847Y-34443181D01*
X81770524Y-34476666D01*
X81744166Y-34479500D01*
X81654108Y-34479500D01*
X81526812Y-34513608D01*
X81412686Y-34579500D01*
X81412683Y-34579502D01*
X81319502Y-34672683D01*
X81319500Y-34672686D01*
X81253608Y-34786812D01*
X81231355Y-34869864D01*
X81219500Y-34914108D01*
X80704766Y-34914108D01*
X76266819Y-30476161D01*
X76233334Y-30414838D01*
X76230500Y-30388480D01*
X76230500Y-28689500D01*
X76250185Y-28622461D01*
X76302989Y-28576706D01*
X76354500Y-28565500D01*
X76868995Y-28565500D01*
X76960041Y-28547389D01*
X77004328Y-28538580D01*
X77131811Y-28485775D01*
X77246542Y-28409114D01*
X77344114Y-28311542D01*
X77420775Y-28196811D01*
X77473580Y-28069328D01*
X77490173Y-27985911D01*
X77500500Y-27933995D01*
X77500500Y-27796004D01*
X77473581Y-27660677D01*
X77473580Y-27660676D01*
X77473580Y-27660672D01*
X77453405Y-27611965D01*
X77420778Y-27533195D01*
X77420771Y-27533182D01*
X77344114Y-27418458D01*
X77344111Y-27418454D01*
X77246545Y-27320888D01*
X77246541Y-27320885D01*
X77131817Y-27244228D01*
X77131804Y-27244221D01*
X77004332Y-27191421D01*
X77004322Y-27191418D01*
X76868995Y-27164500D01*
X76868993Y-27164500D01*
X75916615Y-27164500D01*
X75892423Y-27162117D01*
X75828996Y-27149500D01*
X75828994Y-27149500D01*
X75691006Y-27149500D01*
X75691004Y-27149500D01*
X75555677Y-27176418D01*
X75555667Y-27176421D01*
X75428192Y-27229222D01*
X75313454Y-27305887D01*
X75215888Y-27403453D01*
X75215885Y-27403457D01*
X75162260Y-27483713D01*
X75146839Y-27502503D01*
X74985890Y-27663451D01*
X74985887Y-27663454D01*
X74938359Y-27734587D01*
X74938358Y-27734588D01*
X74909229Y-27778180D01*
X74909221Y-27778195D01*
X74856421Y-27905667D01*
X74856418Y-27905677D01*
X74829500Y-28041004D01*
X74829500Y-28041007D01*
X74829500Y-30661006D01*
X74829500Y-30798994D01*
X74829500Y-30798996D01*
X74829499Y-30798996D01*
X74856418Y-30934322D01*
X74856421Y-30934332D01*
X74909222Y-31061807D01*
X74985887Y-31176545D01*
X74985888Y-31176546D01*
X79713181Y-35903838D01*
X79746666Y-35965161D01*
X79749500Y-35991519D01*
X79749500Y-42048481D01*
X79729815Y-42115520D01*
X79713181Y-42136162D01*
X78746162Y-43103181D01*
X78684839Y-43136666D01*
X78658481Y-43139500D01*
X76296965Y-43139500D01*
X76229926Y-43119815D01*
X76184171Y-43067011D01*
X76174227Y-42997853D01*
X76203252Y-42934297D01*
X76209284Y-42927819D01*
X76844968Y-42292135D01*
X77570489Y-41566614D01*
X77629798Y-41463887D01*
X77629799Y-41463886D01*
X77660500Y-41349309D01*
X77660500Y-40323936D01*
X77674618Y-40271246D01*
X77673282Y-40270693D01*
X77676388Y-40263192D01*
X77676392Y-40263186D01*
X77710500Y-40135892D01*
X77710500Y-40004108D01*
X77676392Y-39876814D01*
X77610500Y-39762686D01*
X77517314Y-39669500D01*
X77430712Y-39619500D01*
X77403187Y-39603608D01*
X77339539Y-39586554D01*
X77275892Y-39569500D01*
X77144108Y-39569500D01*
X77016814Y-39603608D01*
X77009304Y-39606719D01*
X77008750Y-39605381D01*
X76956063Y-39619500D01*
X76307965Y-39619500D01*
X76240926Y-39599815D01*
X76220284Y-39583181D01*
X73886819Y-37249716D01*
X73853334Y-37188393D01*
X73850500Y-37162035D01*
X73850500Y-35303936D01*
X73864618Y-35251246D01*
X73863282Y-35250693D01*
X73866388Y-35243192D01*
X73866392Y-35243186D01*
X73900500Y-35115892D01*
X73900500Y-34984108D01*
X73866392Y-34856814D01*
X73800500Y-34742686D01*
X73707314Y-34649500D01*
X73650250Y-34616554D01*
X73593187Y-34583608D01*
X73515092Y-34562683D01*
X73465892Y-34549500D01*
X73334108Y-34549500D01*
X73206812Y-34583608D01*
X73092686Y-34649500D01*
X73092683Y-34649502D01*
X72999502Y-34742683D01*
X72999500Y-34742686D01*
X72933608Y-34856812D01*
X72909480Y-34946860D01*
X72899500Y-34984108D01*
X72899500Y-35115892D01*
X72913279Y-35167316D01*
X72933608Y-35243186D01*
X72936718Y-35250693D01*
X72935381Y-35251246D01*
X72949500Y-35303936D01*
X72949500Y-37459309D01*
X72959126Y-37495235D01*
X72968753Y-37531163D01*
X72968752Y-37531163D01*
X72969564Y-37534191D01*
X72967907Y-37604041D01*
X72928749Y-37661906D01*
X72864522Y-37689415D01*
X72795619Y-37677834D01*
X72762111Y-37653974D01*
X70845701Y-35737564D01*
X70812216Y-35676241D01*
X70817200Y-35606549D01*
X70857901Y-35551503D01*
X70861851Y-35548470D01*
X70861862Y-35548465D01*
X72128508Y-34281819D01*
X72189831Y-34248334D01*
X72216189Y-34245500D01*
X74103811Y-34245500D01*
X74170850Y-34265185D01*
X74191492Y-34281819D01*
X74283248Y-34373575D01*
X74316733Y-34434898D01*
X74311749Y-34504590D01*
X74283250Y-34548935D01*
X74269503Y-34562681D01*
X74269500Y-34562686D01*
X74203608Y-34676812D01*
X74185958Y-34742686D01*
X74169500Y-34804108D01*
X74169500Y-34935892D01*
X74170467Y-34939500D01*
X74203608Y-35063187D01*
X74214866Y-35082686D01*
X74269500Y-35177314D01*
X74362686Y-35270500D01*
X74476814Y-35336392D01*
X74604108Y-35370500D01*
X74604110Y-35370500D01*
X74735890Y-35370500D01*
X74735892Y-35370500D01*
X74863186Y-35336392D01*
X74977314Y-35270500D01*
X75070500Y-35177314D01*
X75136392Y-35063186D01*
X75170500Y-34935892D01*
X75170500Y-34804108D01*
X75136392Y-34676814D01*
X75130618Y-34666814D01*
X75120622Y-34649500D01*
X75070500Y-34562686D01*
X75031819Y-34524005D01*
X75017408Y-34497613D01*
X75000890Y-34472485D01*
X74999839Y-34465439D01*
X74998334Y-34462682D01*
X74995507Y-34437604D01*
X74995500Y-34436925D01*
X74995500Y-34257147D01*
X74993569Y-34249942D01*
X74993409Y-34234371D01*
X75000951Y-34207665D01*
X75005226Y-34180247D01*
X75010315Y-34174512D01*
X75012400Y-34167132D01*
X75033185Y-34148742D01*
X75051603Y-34127989D01*
X75058984Y-34125916D01*
X75064729Y-34120834D01*
X75092156Y-34116601D01*
X75118871Y-34109100D01*
X75126202Y-34111347D01*
X75133781Y-34110178D01*
X75159139Y-34121443D01*
X75185672Y-34129577D01*
X75195510Y-34137602D01*
X75197633Y-34138545D01*
X75198750Y-34140244D01*
X75205083Y-34145410D01*
X75479868Y-34420195D01*
X75513353Y-34481518D01*
X75508369Y-34551210D01*
X75499574Y-34569876D01*
X75443609Y-34666810D01*
X75443609Y-34666811D01*
X75443609Y-34666812D01*
X75443608Y-34666814D01*
X75409500Y-34794108D01*
X75409500Y-34925892D01*
X75415117Y-34946858D01*
X75415118Y-34946860D01*
X75417522Y-34955832D01*
X75443608Y-35053186D01*
X75509500Y-35167314D01*
X75602686Y-35260500D01*
X75716814Y-35326392D01*
X75844108Y-35360500D01*
X75844110Y-35360500D01*
X75975890Y-35360500D01*
X75975892Y-35360500D01*
X76103186Y-35326392D01*
X76217314Y-35260500D01*
X76310500Y-35167314D01*
X76376392Y-35053186D01*
X76410500Y-34925892D01*
X76410500Y-34794108D01*
X76376392Y-34666814D01*
X76310500Y-34552686D01*
X76271820Y-34514006D01*
X76238335Y-34452683D01*
X76235501Y-34426325D01*
X76235501Y-34347148D01*
X76213318Y-34264362D01*
X76213318Y-34264361D01*
X76189279Y-34222725D01*
X76170465Y-34190138D01*
X76109862Y-34129535D01*
X76109859Y-34129533D01*
X75188862Y-33208535D01*
X75151750Y-33187108D01*
X75114640Y-33165682D01*
X75073246Y-33154591D01*
X75031853Y-33143500D01*
X71886043Y-33143500D01*
X71800337Y-33143500D01*
X71717549Y-33165682D01*
X71643328Y-33208535D01*
X71643325Y-33208537D01*
X70376682Y-34475181D01*
X70315359Y-34508666D01*
X70289001Y-34511500D01*
X64360999Y-34511500D01*
X64331558Y-34502855D01*
X64301572Y-34496332D01*
X64296556Y-34492577D01*
X64293960Y-34491815D01*
X64273318Y-34475181D01*
X64182819Y-34384682D01*
X64149334Y-34323359D01*
X64146500Y-34297001D01*
X64146500Y-32366379D01*
X65019500Y-32366379D01*
X65019500Y-32553620D01*
X65056025Y-32737243D01*
X65056027Y-32737251D01*
X65127676Y-32910228D01*
X65127681Y-32910237D01*
X65231697Y-33065907D01*
X65231700Y-33065911D01*
X65364088Y-33198299D01*
X65364092Y-33198302D01*
X65519762Y-33302318D01*
X65519771Y-33302323D01*
X65521857Y-33303187D01*
X65692749Y-33373973D01*
X65876379Y-33410499D01*
X65876383Y-33410500D01*
X65876384Y-33410500D01*
X66063617Y-33410500D01*
X66063618Y-33410499D01*
X66247251Y-33373973D01*
X66420231Y-33302322D01*
X66575908Y-33198302D01*
X66708302Y-33065908D01*
X66812322Y-32910231D01*
X66883973Y-32737251D01*
X66920500Y-32553616D01*
X66920500Y-32366384D01*
X66883973Y-32182749D01*
X66823869Y-32037646D01*
X66812323Y-32009771D01*
X66812318Y-32009762D01*
X66708302Y-31854092D01*
X66708299Y-31854088D01*
X66575911Y-31721700D01*
X66575907Y-31721697D01*
X66420237Y-31617681D01*
X66420228Y-31617676D01*
X66247251Y-31546027D01*
X66247243Y-31546025D01*
X66063620Y-31509500D01*
X66063616Y-31509500D01*
X65876384Y-31509500D01*
X65876379Y-31509500D01*
X65692756Y-31546025D01*
X65692748Y-31546027D01*
X65519771Y-31617676D01*
X65519762Y-31617681D01*
X65364092Y-31721697D01*
X65364088Y-31721700D01*
X65231700Y-31854088D01*
X65231697Y-31854092D01*
X65127681Y-32009762D01*
X65127676Y-32009771D01*
X65056027Y-32182748D01*
X65056025Y-32182756D01*
X65019500Y-32366379D01*
X64146500Y-32366379D01*
X64146500Y-29826379D01*
X65019500Y-29826379D01*
X65019500Y-30013620D01*
X65056025Y-30197243D01*
X65056027Y-30197251D01*
X65127676Y-30370228D01*
X65127681Y-30370237D01*
X65231697Y-30525907D01*
X65231700Y-30525911D01*
X65364088Y-30658299D01*
X65364092Y-30658302D01*
X65519762Y-30762318D01*
X65519771Y-30762323D01*
X65558956Y-30778554D01*
X65692749Y-30833973D01*
X65876379Y-30870499D01*
X65876383Y-30870500D01*
X65876384Y-30870500D01*
X66063617Y-30870500D01*
X66063618Y-30870499D01*
X66247251Y-30833973D01*
X66420231Y-30762322D01*
X66575908Y-30658302D01*
X66708302Y-30525908D01*
X66812322Y-30370231D01*
X66883973Y-30197251D01*
X66920500Y-30013616D01*
X66920500Y-29826384D01*
X66883973Y-29642749D01*
X66812322Y-29469769D01*
X66812321Y-29469768D01*
X66812318Y-29469762D01*
X66708302Y-29314092D01*
X66708299Y-29314088D01*
X66575911Y-29181700D01*
X66575907Y-29181697D01*
X66420237Y-29077681D01*
X66420228Y-29077676D01*
X66247251Y-29006027D01*
X66247243Y-29006025D01*
X66063620Y-28969500D01*
X66063616Y-28969500D01*
X65876384Y-28969500D01*
X65876379Y-28969500D01*
X65692756Y-29006025D01*
X65692748Y-29006027D01*
X65519771Y-29077676D01*
X65519762Y-29077681D01*
X65364092Y-29181697D01*
X65364088Y-29181700D01*
X65231700Y-29314088D01*
X65231697Y-29314092D01*
X65127681Y-29469762D01*
X65127676Y-29469771D01*
X65056027Y-29642748D01*
X65056025Y-29642756D01*
X65019500Y-29826379D01*
X64146500Y-29826379D01*
X64146500Y-27286379D01*
X65019500Y-27286379D01*
X65019500Y-27473620D01*
X65056025Y-27657243D01*
X65056027Y-27657251D01*
X65127676Y-27830228D01*
X65127681Y-27830237D01*
X65231697Y-27985907D01*
X65231700Y-27985911D01*
X65364088Y-28118299D01*
X65364092Y-28118302D01*
X65519762Y-28222318D01*
X65519768Y-28222321D01*
X65519769Y-28222322D01*
X65692749Y-28293973D01*
X65876379Y-28330499D01*
X65876383Y-28330500D01*
X65876384Y-28330500D01*
X66063617Y-28330500D01*
X66063618Y-28330499D01*
X66247251Y-28293973D01*
X66420231Y-28222322D01*
X66575908Y-28118302D01*
X66708302Y-27985908D01*
X66812322Y-27830231D01*
X66883973Y-27657251D01*
X66920500Y-27473616D01*
X66920500Y-27286384D01*
X66883973Y-27102749D01*
X66812322Y-26929769D01*
X66812321Y-26929768D01*
X66812318Y-26929762D01*
X66708302Y-26774092D01*
X66708299Y-26774088D01*
X66575911Y-26641700D01*
X66575907Y-26641697D01*
X66420237Y-26537681D01*
X66420228Y-26537676D01*
X66247251Y-26466027D01*
X66247243Y-26466025D01*
X66063620Y-26429500D01*
X66063616Y-26429500D01*
X65876384Y-26429500D01*
X65876379Y-26429500D01*
X65692756Y-26466025D01*
X65692748Y-26466027D01*
X65519771Y-26537676D01*
X65519762Y-26537681D01*
X65364092Y-26641697D01*
X65364088Y-26641700D01*
X65231700Y-26774088D01*
X65231697Y-26774092D01*
X65127681Y-26929762D01*
X65127676Y-26929771D01*
X65056027Y-27102748D01*
X65056025Y-27102756D01*
X65019500Y-27286379D01*
X64146500Y-27286379D01*
X64146500Y-24746379D01*
X65019500Y-24746379D01*
X65019500Y-24933620D01*
X65056025Y-25117243D01*
X65056027Y-25117251D01*
X65127676Y-25290228D01*
X65127681Y-25290237D01*
X65231697Y-25445907D01*
X65231700Y-25445911D01*
X65364088Y-25578299D01*
X65364092Y-25578302D01*
X65519762Y-25682318D01*
X65519771Y-25682323D01*
X65539191Y-25690367D01*
X65692749Y-25753973D01*
X65876379Y-25790499D01*
X65876383Y-25790500D01*
X65876384Y-25790500D01*
X66063617Y-25790500D01*
X66063618Y-25790499D01*
X66247251Y-25753973D01*
X66420231Y-25682322D01*
X66575908Y-25578302D01*
X66708302Y-25445908D01*
X66812322Y-25290231D01*
X66883973Y-25117251D01*
X66920500Y-24933616D01*
X66920500Y-24746384D01*
X66883973Y-24562749D01*
X66812322Y-24389769D01*
X66812321Y-24389768D01*
X66812318Y-24389762D01*
X66708302Y-24234092D01*
X66708299Y-24234088D01*
X66575911Y-24101700D01*
X66575907Y-24101697D01*
X66420237Y-23997681D01*
X66420228Y-23997676D01*
X66247251Y-23926027D01*
X66247243Y-23926025D01*
X66063620Y-23889500D01*
X66063616Y-23889500D01*
X65876384Y-23889500D01*
X65876379Y-23889500D01*
X65692756Y-23926025D01*
X65692748Y-23926027D01*
X65519771Y-23997676D01*
X65519762Y-23997681D01*
X65364092Y-24101697D01*
X65364088Y-24101700D01*
X65231700Y-24234088D01*
X65231697Y-24234092D01*
X65127681Y-24389762D01*
X65127676Y-24389771D01*
X65056027Y-24562748D01*
X65056025Y-24562756D01*
X65019500Y-24746379D01*
X64146500Y-24746379D01*
X64146500Y-22206379D01*
X65019500Y-22206379D01*
X65019500Y-22393620D01*
X65056025Y-22577243D01*
X65056027Y-22577251D01*
X65127676Y-22750228D01*
X65127681Y-22750237D01*
X65231697Y-22905907D01*
X65231700Y-22905911D01*
X65364088Y-23038299D01*
X65364092Y-23038302D01*
X65519762Y-23142318D01*
X65519768Y-23142321D01*
X65519769Y-23142322D01*
X65692749Y-23213973D01*
X65876379Y-23250499D01*
X65876383Y-23250500D01*
X65876384Y-23250500D01*
X66063617Y-23250500D01*
X66063618Y-23250499D01*
X66247251Y-23213973D01*
X66420231Y-23142322D01*
X66575908Y-23038302D01*
X66708302Y-22905908D01*
X66812322Y-22750231D01*
X66883973Y-22577251D01*
X66919431Y-22398992D01*
X73649500Y-22398992D01*
X73649500Y-22601007D01*
X73688907Y-22799119D01*
X73688909Y-22799127D01*
X73766212Y-22985752D01*
X73766217Y-22985762D01*
X73878441Y-23153718D01*
X74021281Y-23296558D01*
X74189237Y-23408782D01*
X74189241Y-23408784D01*
X74189244Y-23408786D01*
X74375873Y-23486091D01*
X74573992Y-23525499D01*
X74573996Y-23525500D01*
X74573997Y-23525500D01*
X75426004Y-23525500D01*
X75426005Y-23525499D01*
X75624127Y-23486091D01*
X75810756Y-23408786D01*
X75978718Y-23296558D01*
X76121558Y-23153718D01*
X76233786Y-22985756D01*
X76311091Y-22799127D01*
X76350500Y-22601003D01*
X76350500Y-22398997D01*
X76311091Y-22200873D01*
X76233786Y-22014244D01*
X76233784Y-22014241D01*
X76233782Y-22014237D01*
X76121558Y-21846281D01*
X75978718Y-21703441D01*
X75810762Y-21591217D01*
X75810752Y-21591212D01*
X75624127Y-21513909D01*
X75624119Y-21513907D01*
X75426007Y-21474500D01*
X75426003Y-21474500D01*
X74573997Y-21474500D01*
X74573992Y-21474500D01*
X74375880Y-21513907D01*
X74375872Y-21513909D01*
X74189247Y-21591212D01*
X74189237Y-21591217D01*
X74021281Y-21703441D01*
X73878441Y-21846281D01*
X73766217Y-22014237D01*
X73766212Y-22014247D01*
X73688909Y-22200872D01*
X73688907Y-22200880D01*
X73649500Y-22398992D01*
X66919431Y-22398992D01*
X66920500Y-22393616D01*
X66920500Y-22206384D01*
X66883973Y-22022749D01*
X66812322Y-21849769D01*
X66812321Y-21849768D01*
X66812318Y-21849762D01*
X66708302Y-21694092D01*
X66708299Y-21694088D01*
X66575911Y-21561700D01*
X66575907Y-21561697D01*
X66420237Y-21457681D01*
X66420228Y-21457676D01*
X66247251Y-21386027D01*
X66247243Y-21386025D01*
X66063620Y-21349500D01*
X66063616Y-21349500D01*
X65876384Y-21349500D01*
X65876379Y-21349500D01*
X65692756Y-21386025D01*
X65692748Y-21386027D01*
X65519771Y-21457676D01*
X65519762Y-21457681D01*
X65364092Y-21561697D01*
X65364088Y-21561700D01*
X65231700Y-21694088D01*
X65231697Y-21694092D01*
X65127681Y-21849762D01*
X65127676Y-21849771D01*
X65056027Y-22022748D01*
X65056025Y-22022756D01*
X65019500Y-22206379D01*
X64146500Y-22206379D01*
X64146500Y-19666379D01*
X65019500Y-19666379D01*
X65019500Y-19853620D01*
X65056025Y-20037243D01*
X65056027Y-20037251D01*
X65127676Y-20210228D01*
X65127681Y-20210237D01*
X65231697Y-20365907D01*
X65231700Y-20365911D01*
X65364088Y-20498299D01*
X65364092Y-20498302D01*
X65519762Y-20602318D01*
X65519768Y-20602321D01*
X65519769Y-20602322D01*
X65692749Y-20673973D01*
X65876379Y-20710499D01*
X65876383Y-20710500D01*
X65876384Y-20710500D01*
X66063617Y-20710500D01*
X66063618Y-20710499D01*
X66247251Y-20673973D01*
X66420231Y-20602322D01*
X66575908Y-20498302D01*
X66708302Y-20365908D01*
X66812322Y-20210231D01*
X66883973Y-20037251D01*
X66920500Y-19853616D01*
X66920500Y-19666384D01*
X66883973Y-19482749D01*
X66812322Y-19309769D01*
X66812321Y-19309768D01*
X66812318Y-19309762D01*
X66708302Y-19154092D01*
X66708299Y-19154088D01*
X66575911Y-19021700D01*
X66575907Y-19021697D01*
X66420237Y-18917681D01*
X66420228Y-18917676D01*
X66247251Y-18846027D01*
X66247243Y-18846025D01*
X66063620Y-18809500D01*
X66063616Y-18809500D01*
X65876384Y-18809500D01*
X65876379Y-18809500D01*
X65692756Y-18846025D01*
X65692748Y-18846027D01*
X65519771Y-18917676D01*
X65519762Y-18917681D01*
X65364092Y-19021697D01*
X65364088Y-19021700D01*
X65231700Y-19154088D01*
X65231697Y-19154092D01*
X65127681Y-19309762D01*
X65127676Y-19309771D01*
X65056027Y-19482748D01*
X65056025Y-19482756D01*
X65019500Y-19666379D01*
X64146500Y-19666379D01*
X64146500Y-18160339D01*
X64146500Y-18160337D01*
X64128418Y-18092853D01*
X64124318Y-18077551D01*
X64100990Y-18037147D01*
X64081465Y-18003328D01*
X64020862Y-17942725D01*
X64020859Y-17942723D01*
X63204515Y-17126379D01*
X65019500Y-17126379D01*
X65019500Y-17313620D01*
X65056025Y-17497243D01*
X65056027Y-17497251D01*
X65127676Y-17670228D01*
X65127681Y-17670237D01*
X65231697Y-17825907D01*
X65231700Y-17825911D01*
X65364088Y-17958299D01*
X65364092Y-17958302D01*
X65519762Y-18062318D01*
X65519768Y-18062321D01*
X65519769Y-18062322D01*
X65692749Y-18133973D01*
X65825291Y-18160337D01*
X65876379Y-18170499D01*
X65876383Y-18170500D01*
X65876384Y-18170500D01*
X66063617Y-18170500D01*
X66063618Y-18170499D01*
X66247251Y-18133973D01*
X66420231Y-18062322D01*
X66575908Y-17958302D01*
X66708302Y-17825908D01*
X66812322Y-17670231D01*
X66883973Y-17497251D01*
X66920500Y-17313616D01*
X66920500Y-17126384D01*
X66883973Y-16942749D01*
X66812625Y-16770500D01*
X66812323Y-16769771D01*
X66812318Y-16769762D01*
X66708302Y-16614092D01*
X66708299Y-16614088D01*
X66575911Y-16481700D01*
X66575907Y-16481697D01*
X66420237Y-16377681D01*
X66420228Y-16377676D01*
X66247251Y-16306027D01*
X66247243Y-16306025D01*
X66063620Y-16269500D01*
X66063616Y-16269500D01*
X65876384Y-16269500D01*
X65876379Y-16269500D01*
X65692756Y-16306025D01*
X65692748Y-16306027D01*
X65519771Y-16377676D01*
X65519762Y-16377681D01*
X65364092Y-16481697D01*
X65364088Y-16481700D01*
X65231700Y-16614088D01*
X65231697Y-16614092D01*
X65127681Y-16769762D01*
X65127676Y-16769771D01*
X65056027Y-16942748D01*
X65056025Y-16942756D01*
X65019500Y-17126379D01*
X63204515Y-17126379D01*
X59788660Y-13710523D01*
X59768956Y-13684845D01*
X59760465Y-13670138D01*
X58856819Y-12766492D01*
X58823334Y-12705169D01*
X58820500Y-12678811D01*
X58820500Y-12624110D01*
X58820500Y-12624108D01*
X58786392Y-12496814D01*
X58720500Y-12382686D01*
X58627314Y-12289500D01*
X58529440Y-12232992D01*
X58513187Y-12223608D01*
X58444553Y-12205218D01*
X58385892Y-12189500D01*
X58254108Y-12189500D01*
X58245981Y-12189500D01*
X58245981Y-12186340D01*
X58191652Y-12177869D01*
X58139395Y-12131490D01*
X58122329Y-12072066D01*
X58121561Y-12072168D01*
X58120885Y-12067037D01*
X58120500Y-12065695D01*
X58120500Y-12064110D01*
X58120500Y-12064108D01*
X58086392Y-11936814D01*
X58020500Y-11822686D01*
X57927314Y-11729500D01*
X57870250Y-11696554D01*
X57813187Y-11663608D01*
X57749539Y-11646554D01*
X57685892Y-11629500D01*
X57554108Y-11629500D01*
X57426812Y-11663608D01*
X57312686Y-11729500D01*
X57312683Y-11729502D01*
X57219502Y-11822683D01*
X57219500Y-11822686D01*
X57153608Y-11936812D01*
X57140207Y-11986827D01*
X57119500Y-12064108D01*
X57119500Y-12195892D01*
X57129441Y-12232992D01*
X57153608Y-12323187D01*
X57186554Y-12380250D01*
X57219500Y-12437314D01*
X57219502Y-12437316D01*
X57254685Y-12472499D01*
X57288170Y-12533822D01*
X57283186Y-12603514D01*
X57241314Y-12659447D01*
X57175850Y-12683864D01*
X57134912Y-12679955D01*
X57095893Y-12669500D01*
X57095892Y-12669500D01*
X56964108Y-12669500D01*
X56836812Y-12703608D01*
X56722686Y-12769500D01*
X56722683Y-12769502D01*
X56629502Y-12862683D01*
X56629500Y-12862686D01*
X56563608Y-12976812D01*
X56529500Y-13104108D01*
X56529500Y-13235891D01*
X56563608Y-13363187D01*
X56596554Y-13420250D01*
X56629500Y-13477314D01*
X56722686Y-13570500D01*
X56836814Y-13636392D01*
X56964108Y-13670500D01*
X56964110Y-13670500D01*
X57054167Y-13670500D01*
X57121206Y-13690185D01*
X57141848Y-13706819D01*
X57509672Y-14074643D01*
X57565621Y-14130592D01*
X57565623Y-14130593D01*
X57565627Y-14130596D01*
X57634136Y-14170149D01*
X57634143Y-14170153D01*
X57710570Y-14190632D01*
X57789694Y-14190632D01*
X58091845Y-14190632D01*
X58158884Y-14210317D01*
X58179526Y-14226951D01*
X62607181Y-18654606D01*
X62640666Y-18715929D01*
X62643500Y-18742287D01*
X62643500Y-25521780D01*
X62623815Y-25588819D01*
X62571011Y-25634574D01*
X62501853Y-25644518D01*
X62445867Y-25621551D01*
X62439382Y-25616765D01*
X62412882Y-25597207D01*
X62412880Y-25597206D01*
X62284700Y-25552353D01*
X62254270Y-25549500D01*
X62254266Y-25549500D01*
X60645734Y-25549500D01*
X60645730Y-25549500D01*
X60615300Y-25552353D01*
X60615298Y-25552353D01*
X60487119Y-25597206D01*
X60487117Y-25597207D01*
X60377850Y-25677850D01*
X60297207Y-25787117D01*
X60297206Y-25787119D01*
X60252353Y-25915298D01*
X60252353Y-25915300D01*
X60249500Y-25945730D01*
X60249500Y-26443529D01*
X60229815Y-26510568D01*
X60177011Y-26556323D01*
X60107853Y-26566267D01*
X60044297Y-26537242D01*
X60037819Y-26531210D01*
X58166819Y-24660210D01*
X58133334Y-24598887D01*
X58130500Y-24572529D01*
X58130500Y-17008676D01*
X58150185Y-16941637D01*
X58166819Y-16920995D01*
X58193193Y-16894621D01*
X58230500Y-16857314D01*
X58296392Y-16743186D01*
X58330500Y-16615892D01*
X58330500Y-16484108D01*
X58296392Y-16356814D01*
X58230500Y-16242686D01*
X58137314Y-16149500D01*
X58080250Y-16116554D01*
X58023187Y-16083608D01*
X57945092Y-16062683D01*
X57895892Y-16049500D01*
X57764108Y-16049500D01*
X57636812Y-16083608D01*
X57522686Y-16149500D01*
X57522683Y-16149502D01*
X57429502Y-16242683D01*
X57429500Y-16242686D01*
X57363608Y-16356812D01*
X57329500Y-16484108D01*
X57329500Y-16615891D01*
X57363608Y-16743187D01*
X57396554Y-16800250D01*
X57429500Y-16857314D01*
X57429502Y-16857316D01*
X57493181Y-16920995D01*
X57526666Y-16982318D01*
X57529500Y-17008676D01*
X57529500Y-24787924D01*
X57543152Y-24838875D01*
X57549979Y-24864352D01*
X57549980Y-24864353D01*
X57580885Y-24917882D01*
X57580886Y-24917884D01*
X57589537Y-24932869D01*
X57589541Y-24932874D01*
X58212108Y-25555442D01*
X58245593Y-25616765D01*
X58240609Y-25686457D01*
X58198737Y-25742390D01*
X58186428Y-25750510D01*
X58116033Y-25791153D01*
X58116030Y-25791155D01*
X58022849Y-25884336D01*
X58022847Y-25884339D01*
X57956955Y-25998465D01*
X57922847Y-26125761D01*
X57922847Y-26257545D01*
X57936545Y-26308667D01*
X57956955Y-26384840D01*
X57977825Y-26420987D01*
X58022847Y-26498967D01*
X58116033Y-26592153D01*
X58230161Y-26658045D01*
X58357455Y-26692153D01*
X58357457Y-26692153D01*
X58447514Y-26692153D01*
X58476954Y-26700797D01*
X58506941Y-26707321D01*
X58511956Y-26711075D01*
X58514553Y-26711838D01*
X58535195Y-26728472D01*
X58634028Y-26827305D01*
X58667513Y-26888628D01*
X58670347Y-26914986D01*
X58670347Y-31222656D01*
X58675041Y-31240173D01*
X58690826Y-31299084D01*
X58690827Y-31299085D01*
X58706158Y-31325639D01*
X58706159Y-31325640D01*
X58730386Y-31367603D01*
X58730388Y-31367606D01*
X59180302Y-31817521D01*
X59213787Y-31878844D01*
X59208803Y-31948536D01*
X59166931Y-32004469D01*
X59101467Y-32028886D01*
X59092621Y-32029202D01*
X58600891Y-32029202D01*
X58533852Y-32009517D01*
X58513210Y-31992883D01*
X57796819Y-31276492D01*
X57763334Y-31215169D01*
X57760500Y-31188811D01*
X57760500Y-31134110D01*
X57760500Y-31134108D01*
X57726392Y-31006814D01*
X57725518Y-31005301D01*
X57684542Y-30934328D01*
X57660500Y-30892686D01*
X57567314Y-30799500D01*
X57502913Y-30762318D01*
X57453187Y-30733608D01*
X57389539Y-30716554D01*
X57325892Y-30699500D01*
X57194108Y-30699500D01*
X57066812Y-30733608D01*
X56952686Y-30799500D01*
X56952683Y-30799502D01*
X56859502Y-30892683D01*
X56859500Y-30892686D01*
X56793608Y-31006812D01*
X56769994Y-31094942D01*
X56759500Y-31134108D01*
X56759500Y-31265892D01*
X56768394Y-31299084D01*
X56793608Y-31393187D01*
X56826554Y-31450250D01*
X56859500Y-31507314D01*
X56952686Y-31600500D01*
X57066814Y-31666392D01*
X57194108Y-31700500D01*
X57248811Y-31700500D01*
X57315850Y-31720185D01*
X57336492Y-31736819D01*
X58214840Y-32615167D01*
X58289063Y-32658020D01*
X58371849Y-32680202D01*
X58865442Y-32680202D01*
X58932481Y-32699887D01*
X58978236Y-32752691D01*
X58988180Y-32821849D01*
X58972829Y-32866200D01*
X58970744Y-32869814D01*
X58943608Y-32916813D01*
X58925189Y-32985554D01*
X58909500Y-33044108D01*
X58909500Y-33175892D01*
X58918247Y-33208535D01*
X58943608Y-33303187D01*
X58953604Y-33320500D01*
X59009500Y-33417314D01*
X59102686Y-33510500D01*
X59216814Y-33576392D01*
X59344108Y-33610500D01*
X59398811Y-33610500D01*
X59465850Y-33630185D01*
X59486492Y-33646819D01*
X62229533Y-36389859D01*
X62229535Y-36389862D01*
X62290138Y-36450465D01*
X62327250Y-36471891D01*
X62336370Y-36477157D01*
X62336373Y-36477159D01*
X62364358Y-36493317D01*
X62364360Y-36493317D01*
X62364361Y-36493318D01*
X62447147Y-36515501D01*
X62447149Y-36515501D01*
X62540449Y-36515501D01*
X62540465Y-36515500D01*
X70013811Y-36515500D01*
X70080850Y-36535185D01*
X70101492Y-36551819D01*
X73033248Y-39483575D01*
X73066733Y-39544898D01*
X73061749Y-39614590D01*
X73033253Y-39658933D01*
X73029501Y-39662684D01*
X73029500Y-39662686D01*
X72963608Y-39776812D01*
X72951919Y-39820438D01*
X72929500Y-39904108D01*
X72929500Y-40035892D01*
X72931810Y-40044513D01*
X72963608Y-40163187D01*
X72996302Y-40219814D01*
X73029500Y-40277314D01*
X73122686Y-40370500D01*
X73196298Y-40413000D01*
X73226603Y-40430497D01*
X73236814Y-40436392D01*
X73364108Y-40470500D01*
X73364110Y-40470500D01*
X73495890Y-40470500D01*
X73495892Y-40470500D01*
X73623186Y-40436392D01*
X73737314Y-40370500D01*
X73830500Y-40277314D01*
X73896392Y-40163186D01*
X73930500Y-40035892D01*
X73930500Y-40035883D01*
X73931561Y-40027832D01*
X73934652Y-40028238D01*
X73936738Y-40021133D01*
X73938318Y-39999045D01*
X73946390Y-39988261D01*
X73950185Y-39975340D01*
X73966918Y-39960840D01*
X73980190Y-39943112D01*
X73992810Y-39938404D01*
X74002989Y-39929585D01*
X74024906Y-39926433D01*
X74045654Y-39918695D01*
X74058814Y-39921557D01*
X74072147Y-39919641D01*
X74092290Y-39928840D01*
X74113927Y-39933547D01*
X74131652Y-39946815D01*
X74135703Y-39948666D01*
X74142181Y-39954698D01*
X74143181Y-39955698D01*
X74176666Y-40017021D01*
X74179500Y-40043379D01*
X74179500Y-40095892D01*
X74192038Y-40142686D01*
X74213608Y-40223187D01*
X74244858Y-40277313D01*
X74279500Y-40337314D01*
X74372686Y-40430500D01*
X74486814Y-40496392D01*
X74614108Y-40530500D01*
X74614110Y-40530500D01*
X74745890Y-40530500D01*
X74745892Y-40530500D01*
X74873186Y-40496392D01*
X74987314Y-40430500D01*
X75080500Y-40337314D01*
X75146392Y-40223186D01*
X75180500Y-40095892D01*
X75180500Y-40095890D01*
X75182603Y-40088042D01*
X75184769Y-40088622D01*
X75208308Y-40035391D01*
X75266626Y-39996911D01*
X75336491Y-39996068D01*
X75390674Y-40027777D01*
X75793386Y-40430489D01*
X75896113Y-40489799D01*
X75920321Y-40496284D01*
X75920324Y-40496286D01*
X75920325Y-40496286D01*
X75950447Y-40504357D01*
X76010691Y-40520500D01*
X76635500Y-40520500D01*
X76702539Y-40540185D01*
X76748294Y-40592989D01*
X76759500Y-40644500D01*
X76759500Y-41052035D01*
X76739815Y-41119074D01*
X76723181Y-41139716D01*
X75460716Y-42402181D01*
X75399393Y-42435666D01*
X75373035Y-42438500D01*
X63021883Y-42438500D01*
X62954844Y-42418815D01*
X62934202Y-42402181D01*
X59737799Y-39205778D01*
X62269500Y-39205778D01*
X62269500Y-39494221D01*
X62269501Y-39494238D01*
X62307149Y-39780206D01*
X62307150Y-39780211D01*
X62307151Y-39780217D01*
X62377969Y-40044513D01*
X62381809Y-40058844D01*
X62381814Y-40058860D01*
X62492191Y-40325336D01*
X62492199Y-40325352D01*
X62636420Y-40575148D01*
X62636431Y-40575164D01*
X62812024Y-40804002D01*
X62812030Y-40804009D01*
X63015990Y-41007969D01*
X63015996Y-41007974D01*
X63244844Y-41183575D01*
X63244851Y-41183579D01*
X63494647Y-41327800D01*
X63494663Y-41327808D01*
X63761139Y-41438185D01*
X63761145Y-41438186D01*
X63761155Y-41438191D01*
X64039783Y-41512849D01*
X64325772Y-41550500D01*
X64325779Y-41550500D01*
X64614221Y-41550500D01*
X64614228Y-41550500D01*
X64900217Y-41512849D01*
X65178845Y-41438191D01*
X65178857Y-41438185D01*
X65178860Y-41438185D01*
X65445336Y-41327808D01*
X65445339Y-41327806D01*
X65445345Y-41327804D01*
X65695156Y-41183575D01*
X65924004Y-41007974D01*
X66127974Y-40804004D01*
X66303575Y-40575156D01*
X66447804Y-40325345D01*
X66452918Y-40313000D01*
X66558185Y-40058860D01*
X66558185Y-40058857D01*
X66558191Y-40058845D01*
X66632849Y-39780217D01*
X66670500Y-39494228D01*
X66670500Y-39205772D01*
X66632849Y-38919783D01*
X66558191Y-38641155D01*
X66558186Y-38641145D01*
X66558185Y-38641139D01*
X66447808Y-38374663D01*
X66447800Y-38374647D01*
X66303579Y-38124851D01*
X66303575Y-38124844D01*
X66157729Y-37934773D01*
X66127975Y-37895997D01*
X66127969Y-37895990D01*
X65924009Y-37692030D01*
X65924002Y-37692024D01*
X65695164Y-37516431D01*
X65695162Y-37516429D01*
X65695156Y-37516425D01*
X65695151Y-37516422D01*
X65695148Y-37516420D01*
X65445352Y-37372199D01*
X65445336Y-37372191D01*
X65178860Y-37261814D01*
X65178848Y-37261810D01*
X65178845Y-37261809D01*
X64900217Y-37187151D01*
X64900211Y-37187150D01*
X64900206Y-37187149D01*
X64614238Y-37149501D01*
X64614233Y-37149500D01*
X64614228Y-37149500D01*
X64325772Y-37149500D01*
X64325766Y-37149500D01*
X64325761Y-37149501D01*
X64039793Y-37187149D01*
X64039786Y-37187150D01*
X64039783Y-37187151D01*
X63806287Y-37249716D01*
X63761155Y-37261809D01*
X63761139Y-37261814D01*
X63494663Y-37372191D01*
X63494647Y-37372199D01*
X63244851Y-37516420D01*
X63244835Y-37516431D01*
X63015997Y-37692024D01*
X63015990Y-37692030D01*
X62812030Y-37895990D01*
X62812024Y-37895997D01*
X62636431Y-38124835D01*
X62636420Y-38124851D01*
X62492199Y-38374647D01*
X62492191Y-38374663D01*
X62381814Y-38641139D01*
X62381809Y-38641155D01*
X62309639Y-38910500D01*
X62307152Y-38919780D01*
X62307149Y-38919793D01*
X62269501Y-39205761D01*
X62269500Y-39205778D01*
X59737799Y-39205778D01*
X57430534Y-36898513D01*
X57430532Y-36898511D01*
X57372109Y-36864780D01*
X57327806Y-36839201D01*
X57315698Y-36835957D01*
X57303591Y-36832713D01*
X57303588Y-36832712D01*
X57265396Y-36822478D01*
X57213227Y-36808500D01*
X57213226Y-36808500D01*
X52266965Y-36808500D01*
X52237524Y-36799855D01*
X52207538Y-36793332D01*
X52202522Y-36789577D01*
X52199926Y-36788815D01*
X52179284Y-36772181D01*
X52080333Y-36673230D01*
X52060624Y-36647545D01*
X52059799Y-36646117D01*
X52059799Y-36646114D01*
X52047616Y-36625012D01*
X52042718Y-36616529D01*
X52013065Y-36565167D01*
X52000490Y-36543386D01*
X47966614Y-32509511D01*
X47863887Y-32450201D01*
X47835993Y-32442727D01*
X47835990Y-32442726D01*
X47799354Y-32432909D01*
X47749309Y-32419500D01*
X47749308Y-32419500D01*
X45294742Y-32419500D01*
X45227703Y-32399815D01*
X45207061Y-32383181D01*
X36171819Y-23347939D01*
X36138334Y-23286616D01*
X36135500Y-23260258D01*
X36135500Y-20358675D01*
X36141801Y-20319649D01*
X36145784Y-20307636D01*
X36166281Y-20272135D01*
X36203024Y-20135004D01*
X36204160Y-20131581D01*
X36215737Y-20114866D01*
X36234179Y-20082925D01*
X36280287Y-20036818D01*
X36341610Y-20003334D01*
X36367967Y-20000500D01*
X38779308Y-20000500D01*
X38779309Y-20000500D01*
X38850580Y-19981401D01*
X38869666Y-19976288D01*
X38869667Y-19976287D01*
X38869673Y-19976286D01*
X38893887Y-19969799D01*
X38996614Y-19910489D01*
X39886489Y-19020614D01*
X39945799Y-18917887D01*
X39952285Y-18893675D01*
X39952286Y-18893675D01*
X39952286Y-18893671D01*
X39976500Y-18803309D01*
X39976500Y-12502173D01*
X39996185Y-12435134D01*
X40012819Y-12414492D01*
X41282492Y-11144819D01*
X41343815Y-11111334D01*
X41370173Y-11108500D01*
X60300495Y-11108500D01*
X60367534Y-11128185D01*
X60413289Y-11180989D01*
X60423233Y-11250147D01*
X60420270Y-11264591D01*
X60399500Y-11342108D01*
X60399500Y-11473892D01*
X60416554Y-11537539D01*
X60433608Y-11601187D01*
X60449955Y-11629500D01*
X60499500Y-11715314D01*
X60592686Y-11808500D01*
X60706814Y-11874392D01*
X60834108Y-11908500D01*
X60834110Y-11908500D01*
X60965890Y-11908500D01*
X60965892Y-11908500D01*
X61093186Y-11874392D01*
X61207314Y-11808500D01*
X61270995Y-11744819D01*
X61332318Y-11711334D01*
X61358676Y-11708500D01*
X61732167Y-11708500D01*
X61799206Y-11728185D01*
X61819848Y-11744819D01*
X63659540Y-13584511D01*
X63715489Y-13640460D01*
X63715491Y-13640461D01*
X63715495Y-13640464D01*
X63763992Y-13668463D01*
X63784011Y-13680021D01*
X63860438Y-13700500D01*
X63860440Y-13700500D01*
X68509560Y-13700500D01*
X68509562Y-13700500D01*
X68585989Y-13680021D01*
X68654511Y-13640460D01*
X68710460Y-13584511D01*
X70096771Y-12198198D01*
X70158092Y-12164715D01*
X70217007Y-12166231D01*
X70222330Y-12167678D01*
X70222338Y-12167682D01*
X70246627Y-12170500D01*
X71053372Y-12170499D01*
X71077662Y-12167682D01*
X71177016Y-12123813D01*
X71253813Y-12047016D01*
X71297682Y-11947662D01*
X71300500Y-11923373D01*
X71300499Y-10531499D01*
X71320184Y-10464461D01*
X71372987Y-10418706D01*
X71424499Y-10407500D01*
X74150191Y-10407500D01*
X74217230Y-10427185D01*
X74237872Y-10443819D01*
X75507181Y-11713128D01*
X75540666Y-11774451D01*
X75543500Y-11800809D01*
X75543500Y-17234810D01*
X75523815Y-17301849D01*
X75507181Y-17322491D01*
X73612178Y-19217493D01*
X73550855Y-19250978D01*
X73481163Y-19245994D01*
X73449222Y-19225466D01*
X73448266Y-19226784D01*
X73440370Y-19221048D01*
X73440367Y-19221045D01*
X73328740Y-19164168D01*
X73328738Y-19164167D01*
X73328734Y-19164166D01*
X73236133Y-19149500D01*
X73236128Y-19149500D01*
X71163872Y-19149500D01*
X71163867Y-19149500D01*
X71071265Y-19164166D01*
X71071260Y-19164168D01*
X70959633Y-19221045D01*
X70959632Y-19221046D01*
X70959627Y-19221049D01*
X70871049Y-19309627D01*
X70871046Y-19309632D01*
X70871045Y-19309633D01*
X70819331Y-19411127D01*
X70814168Y-19421260D01*
X70814166Y-19421265D01*
X70799500Y-19513866D01*
X70799500Y-20486133D01*
X70814166Y-20578734D01*
X70814167Y-20578738D01*
X70814168Y-20578740D01*
X70871045Y-20690367D01*
X70871047Y-20690369D01*
X70871049Y-20690372D01*
X70959627Y-20778950D01*
X70959629Y-20778951D01*
X70959633Y-20778955D01*
X71071260Y-20835832D01*
X71071264Y-20835832D01*
X71071265Y-20835833D01*
X71163867Y-20850500D01*
X71163872Y-20850500D01*
X73236133Y-20850500D01*
X73328734Y-20835833D01*
X73328734Y-20835832D01*
X73328740Y-20835832D01*
X73440367Y-20778955D01*
X73528955Y-20690367D01*
X73585832Y-20578740D01*
X73585833Y-20578734D01*
X73600500Y-20486133D01*
X73600500Y-20201188D01*
X73620185Y-20134149D01*
X73636819Y-20113507D01*
X75782819Y-17967507D01*
X75844142Y-17934022D01*
X75913834Y-17939006D01*
X75969767Y-17980878D01*
X75994184Y-18046342D01*
X75994500Y-18055188D01*
X75994500Y-19150662D01*
X76016682Y-19233450D01*
X76023925Y-19245994D01*
X76059535Y-19307672D01*
X76059537Y-19307674D01*
X76768181Y-20016318D01*
X76801666Y-20077641D01*
X76804500Y-20103999D01*
X76804500Y-23513811D01*
X76784815Y-23580850D01*
X76768181Y-23601492D01*
X75731492Y-24638181D01*
X75670169Y-24671666D01*
X75643811Y-24674500D01*
X73724500Y-24674500D01*
X73657461Y-24654815D01*
X73611706Y-24602011D01*
X73600500Y-24550500D01*
X73600500Y-24513866D01*
X73585833Y-24421265D01*
X73585832Y-24421264D01*
X73585832Y-24421260D01*
X73528955Y-24309633D01*
X73528951Y-24309629D01*
X73528950Y-24309627D01*
X73440372Y-24221049D01*
X73440369Y-24221047D01*
X73440367Y-24221045D01*
X73328740Y-24164168D01*
X73328738Y-24164167D01*
X73328734Y-24164166D01*
X73236133Y-24149500D01*
X73236128Y-24149500D01*
X71163872Y-24149500D01*
X71163867Y-24149500D01*
X71071265Y-24164166D01*
X71071260Y-24164168D01*
X70959633Y-24221045D01*
X70959632Y-24221046D01*
X70959627Y-24221049D01*
X70871049Y-24309627D01*
X70871046Y-24309632D01*
X70871045Y-24309633D01*
X70814168Y-24421260D01*
X70814166Y-24421265D01*
X70799500Y-24513866D01*
X70799500Y-25486133D01*
X70814166Y-25578734D01*
X70814167Y-25578738D01*
X70814168Y-25578740D01*
X70871045Y-25690367D01*
X70871047Y-25690369D01*
X70871049Y-25690372D01*
X70959627Y-25778950D01*
X70959629Y-25778951D01*
X70959633Y-25778955D01*
X71071260Y-25835832D01*
X71071264Y-25835832D01*
X71071265Y-25835833D01*
X71163867Y-25850500D01*
X71163872Y-25850500D01*
X73236133Y-25850500D01*
X73328734Y-25835833D01*
X73328734Y-25835832D01*
X73328740Y-25835832D01*
X73440367Y-25778955D01*
X73528955Y-25690367D01*
X73585832Y-25578740D01*
X73590463Y-25549500D01*
X73600500Y-25486133D01*
X73600500Y-25449500D01*
X73620185Y-25382461D01*
X73672989Y-25336706D01*
X73724500Y-25325500D01*
X75872851Y-25325500D01*
X75872853Y-25325500D01*
X75955639Y-25303318D01*
X76029862Y-25260465D01*
X77319652Y-23970672D01*
X77319657Y-23970669D01*
X77329860Y-23960465D01*
X77329862Y-23960465D01*
X77390465Y-23899862D01*
X77433318Y-23825638D01*
X77445979Y-23778387D01*
X77455501Y-23742853D01*
X77455501Y-23657147D01*
X77455500Y-23657143D01*
X77455500Y-22397648D01*
X78199500Y-22397648D01*
X78199500Y-22602351D01*
X78231522Y-22804534D01*
X78294781Y-22999223D01*
X78337392Y-23082850D01*
X78373501Y-23153718D01*
X78387715Y-23181613D01*
X78508028Y-23347213D01*
X78652786Y-23491971D01*
X78775120Y-23580850D01*
X78818390Y-23612287D01*
X78906425Y-23657143D01*
X79000776Y-23705218D01*
X79000778Y-23705218D01*
X79000781Y-23705220D01*
X79062190Y-23725173D01*
X79195465Y-23768477D01*
X79258034Y-23778387D01*
X79397648Y-23800500D01*
X79397649Y-23800500D01*
X79602351Y-23800500D01*
X79602352Y-23800500D01*
X79804534Y-23768477D01*
X79999219Y-23705220D01*
X80181610Y-23612287D01*
X80301063Y-23525500D01*
X80347213Y-23491971D01*
X80347215Y-23491968D01*
X80347219Y-23491966D01*
X80491966Y-23347219D01*
X80491968Y-23347215D01*
X80491971Y-23347213D01*
X80562236Y-23250500D01*
X80612287Y-23181610D01*
X80705220Y-22999219D01*
X80768477Y-22804534D01*
X80800500Y-22602352D01*
X80800500Y-22397648D01*
X80770206Y-22206383D01*
X80768477Y-22195465D01*
X80712358Y-22022749D01*
X80705220Y-22000781D01*
X80705218Y-22000778D01*
X80705218Y-22000776D01*
X80628275Y-21849769D01*
X80612287Y-21818390D01*
X80581927Y-21776603D01*
X80491971Y-21652786D01*
X80347213Y-21508028D01*
X80181613Y-21387715D01*
X80181612Y-21387714D01*
X80181610Y-21387713D01*
X80106613Y-21349500D01*
X79999223Y-21294781D01*
X79804534Y-21231522D01*
X79629995Y-21203878D01*
X79602352Y-21199500D01*
X79397648Y-21199500D01*
X79373329Y-21203351D01*
X79195465Y-21231522D01*
X79000776Y-21294781D01*
X78818386Y-21387715D01*
X78652786Y-21508028D01*
X78508028Y-21652786D01*
X78387715Y-21818386D01*
X78294781Y-22000776D01*
X78231522Y-22195465D01*
X78199500Y-22397648D01*
X77455500Y-22397648D01*
X77455500Y-19874957D01*
X77442547Y-19826614D01*
X77433318Y-19792171D01*
X77390465Y-19717948D01*
X76681819Y-19009302D01*
X76667115Y-18982374D01*
X76650523Y-18956556D01*
X76649631Y-18950355D01*
X76648334Y-18947979D01*
X76645500Y-18921621D01*
X76645500Y-18675188D01*
X76665185Y-18608149D01*
X76717989Y-18562394D01*
X76787147Y-18552450D01*
X76850703Y-18581475D01*
X76857181Y-18587507D01*
X77595194Y-19325520D01*
X77595204Y-19325531D01*
X77660139Y-19390466D01*
X77678033Y-19400796D01*
X77695928Y-19411128D01*
X77734360Y-19433317D01*
X77734361Y-19433317D01*
X77734362Y-19433318D01*
X77817147Y-19455501D01*
X77817149Y-19455501D01*
X77910449Y-19455501D01*
X77910465Y-19455500D01*
X80443811Y-19455500D01*
X80510850Y-19475185D01*
X80531492Y-19491819D01*
X82858063Y-21818390D01*
X85172494Y-24132820D01*
X85205979Y-24194143D01*
X85200995Y-24263835D01*
X85176685Y-24301662D01*
X85176784Y-24301734D01*
X85175532Y-24303456D01*
X85172499Y-24308177D01*
X85171051Y-24309624D01*
X85171046Y-24309632D01*
X85171045Y-24309633D01*
X85114168Y-24421260D01*
X85114166Y-24421265D01*
X85099500Y-24513866D01*
X85099500Y-25486133D01*
X85114166Y-25578734D01*
X85114167Y-25578738D01*
X85114168Y-25578740D01*
X85171045Y-25690367D01*
X85171047Y-25690369D01*
X85171049Y-25690372D01*
X85259627Y-25778950D01*
X85259629Y-25778951D01*
X85259633Y-25778955D01*
X85371260Y-25835832D01*
X85371264Y-25835832D01*
X85371265Y-25835833D01*
X85463867Y-25850500D01*
X85463872Y-25850500D01*
X87536133Y-25850500D01*
X87628734Y-25835833D01*
X87628734Y-25835832D01*
X87628740Y-25835832D01*
X87740367Y-25778955D01*
X87828955Y-25690367D01*
X87885832Y-25578740D01*
X87890463Y-25549500D01*
X87900500Y-25486133D01*
X87900500Y-24513866D01*
X87885833Y-24421265D01*
X87885832Y-24421264D01*
X87885832Y-24421260D01*
X87828955Y-24309633D01*
X87828951Y-24309629D01*
X87828950Y-24309627D01*
X87740372Y-24221049D01*
X87740369Y-24221047D01*
X87740367Y-24221045D01*
X87628740Y-24164168D01*
X87628738Y-24164167D01*
X87628734Y-24164166D01*
X87536133Y-24149500D01*
X87536128Y-24149500D01*
X86161188Y-24149500D01*
X86094149Y-24129815D01*
X86073507Y-24113181D01*
X83468360Y-21508034D01*
X80829862Y-18869535D01*
X80789142Y-18846025D01*
X80755640Y-18826682D01*
X80714246Y-18815591D01*
X80672853Y-18804500D01*
X80672852Y-18804500D01*
X78046188Y-18804500D01*
X77979149Y-18784815D01*
X77958507Y-18768181D01*
X77141819Y-17951492D01*
X77108334Y-17890169D01*
X77105500Y-17863811D01*
X77105500Y-11207148D01*
X77105500Y-11207147D01*
X77098343Y-11180438D01*
X77083318Y-11124361D01*
X77040465Y-11050138D01*
X75256508Y-9266181D01*
X75223023Y-9204858D01*
X75228007Y-9135166D01*
X75269879Y-9079233D01*
X75335343Y-9054816D01*
X75344189Y-9054500D01*
X78214996Y-9054500D01*
X78323457Y-9032925D01*
X78350328Y-9027580D01*
X78432325Y-8993616D01*
X78477807Y-8974777D01*
X78477808Y-8974776D01*
X78477811Y-8974775D01*
X78592543Y-8898114D01*
X81833837Y-5656818D01*
X81895160Y-5623334D01*
X81921518Y-5620500D01*
X84387939Y-5620500D01*
X84454978Y-5640185D01*
X84500733Y-5692989D01*
X84509556Y-5720306D01*
X84511132Y-5728230D01*
X84555447Y-5794552D01*
X84621769Y-5838867D01*
X84621770Y-5838868D01*
X84680247Y-5850499D01*
X84680250Y-5850500D01*
X84901059Y-5850500D01*
X84968098Y-5870185D01*
X85013853Y-5922989D01*
X85023797Y-5992147D01*
X84994772Y-6055703D01*
X84969950Y-6077602D01*
X84844092Y-6161697D01*
X84844088Y-6161700D01*
X84711700Y-6294088D01*
X84711697Y-6294092D01*
X84607681Y-6449762D01*
X84607676Y-6449771D01*
X84536027Y-6622748D01*
X84536025Y-6622756D01*
X84499500Y-6806379D01*
X84499500Y-6993620D01*
X84536025Y-7177243D01*
X84536027Y-7177251D01*
X84607676Y-7350228D01*
X84607681Y-7350237D01*
X84711697Y-7505907D01*
X84711700Y-7505911D01*
X84844088Y-7638299D01*
X84844092Y-7638302D01*
X84999762Y-7742318D01*
X84999766Y-7742320D01*
X84999769Y-7742322D01*
X85082065Y-7776410D01*
X85103862Y-7785439D01*
X85158265Y-7829280D01*
X85180330Y-7895574D01*
X85163051Y-7963274D01*
X85111913Y-8010884D01*
X85103862Y-8014561D01*
X84999772Y-8057676D01*
X84999762Y-8057681D01*
X84844092Y-8161697D01*
X84844088Y-8161700D01*
X84711700Y-8294088D01*
X84711697Y-8294092D01*
X84607681Y-8449762D01*
X84607676Y-8449771D01*
X84536027Y-8622748D01*
X84536025Y-8622756D01*
X84499500Y-8806379D01*
X84499500Y-8993620D01*
X84536025Y-9177243D01*
X84536027Y-9177251D01*
X84607676Y-9350228D01*
X84607681Y-9350237D01*
X84711697Y-9505907D01*
X84711700Y-9505911D01*
X84812449Y-9606660D01*
X84845934Y-9667983D01*
X84840950Y-9737675D01*
X84799078Y-9793608D01*
X84781063Y-9804826D01*
X84618386Y-9887715D01*
X84452786Y-10008028D01*
X84308028Y-10152786D01*
X84187715Y-10318386D01*
X84094781Y-10500776D01*
X84031522Y-10695465D01*
X83999500Y-10897648D01*
X83999500Y-11102351D01*
X84031522Y-11304534D01*
X84094781Y-11499223D01*
X84187715Y-11681613D01*
X84308028Y-11847213D01*
X84452786Y-11991971D01*
X84556108Y-12067037D01*
X84618390Y-12112287D01*
X84721286Y-12164715D01*
X84800776Y-12205218D01*
X84800778Y-12205218D01*
X84800781Y-12205220D01*
X84905137Y-12239127D01*
X84995465Y-12268477D01*
X85094420Y-12284150D01*
X85197648Y-12300500D01*
X85197649Y-12300500D01*
X86702351Y-12300500D01*
X86702352Y-12300500D01*
X86904534Y-12268477D01*
X87099219Y-12205220D01*
X87281610Y-12112287D01*
X87391172Y-12032686D01*
X87447213Y-11991971D01*
X87447215Y-11991968D01*
X87447219Y-11991966D01*
X87591966Y-11847219D01*
X87591968Y-11847215D01*
X87591971Y-11847213D01*
X87666363Y-11744819D01*
X87712287Y-11681610D01*
X87805220Y-11499219D01*
X87868477Y-11304534D01*
X87900500Y-11102352D01*
X87900500Y-10897648D01*
X87868477Y-10695466D01*
X87843690Y-10619181D01*
X87810369Y-10516628D01*
X87805220Y-10500781D01*
X87805218Y-10500778D01*
X87805218Y-10500776D01*
X87757691Y-10407500D01*
X87712287Y-10318390D01*
X87660651Y-10247318D01*
X87591971Y-10152786D01*
X87447213Y-10008028D01*
X87281613Y-9887715D01*
X87281612Y-9887714D01*
X87281610Y-9887713D01*
X87185780Y-9838885D01*
X87118936Y-9804826D01*
X87068140Y-9756851D01*
X87051345Y-9689030D01*
X87073883Y-9622895D01*
X87087544Y-9606665D01*
X87188302Y-9505908D01*
X87292322Y-9350231D01*
X87363973Y-9177251D01*
X87400500Y-8993616D01*
X87400500Y-8806384D01*
X87363973Y-8622749D01*
X87292322Y-8449769D01*
X87292321Y-8449768D01*
X87292318Y-8449762D01*
X87188302Y-8294092D01*
X87188299Y-8294088D01*
X87055911Y-8161700D01*
X87055907Y-8161697D01*
X86900237Y-8057681D01*
X86900224Y-8057674D01*
X86796138Y-8014561D01*
X86741734Y-7970720D01*
X86719669Y-7904426D01*
X86736948Y-7836727D01*
X86788085Y-7789116D01*
X86796138Y-7785439D01*
X86900224Y-7742325D01*
X86900224Y-7742324D01*
X86900231Y-7742322D01*
X87055908Y-7638302D01*
X87188302Y-7505908D01*
X87292322Y-7350231D01*
X87363973Y-7177251D01*
X87400500Y-6993616D01*
X87400500Y-6806384D01*
X87363973Y-6622749D01*
X87292322Y-6449769D01*
X87292321Y-6449768D01*
X87292318Y-6449762D01*
X87188302Y-6294092D01*
X87188299Y-6294088D01*
X87055911Y-6161700D01*
X87055907Y-6161697D01*
X86930050Y-6077602D01*
X86885245Y-6023990D01*
X86876538Y-5954665D01*
X86906692Y-5891637D01*
X86966135Y-5854918D01*
X86998941Y-5850500D01*
X87219750Y-5850500D01*
X87219751Y-5850499D01*
X87234568Y-5847552D01*
X87278229Y-5838868D01*
X87278229Y-5838867D01*
X87278231Y-5838867D01*
X87344552Y-5794552D01*
X87388867Y-5728231D01*
X87388867Y-5728229D01*
X87388868Y-5728229D01*
X87400499Y-5669752D01*
X87400500Y-5669750D01*
X87400500Y-4130249D01*
X87400499Y-4130247D01*
X87388868Y-4071770D01*
X87388867Y-4071769D01*
X87348315Y-4011079D01*
X87327437Y-3944402D01*
X87345921Y-3877022D01*
X87378533Y-3841869D01*
X87447215Y-3791969D01*
X87447215Y-3791968D01*
X87447219Y-3791966D01*
X87591966Y-3647219D01*
X87591968Y-3647215D01*
X87591971Y-3647213D01*
X87644732Y-3574590D01*
X87712287Y-3481610D01*
X87805220Y-3299219D01*
X87868477Y-3104534D01*
X87900500Y-2902352D01*
X87900500Y-2697648D01*
X87868477Y-2495466D01*
X87805220Y-2300781D01*
X87805218Y-2300778D01*
X87805218Y-2300776D01*
X87771503Y-2234607D01*
X87712287Y-2118390D01*
X87704556Y-2107749D01*
X87591971Y-1952786D01*
X87447213Y-1808028D01*
X87281613Y-1687715D01*
X87281612Y-1687714D01*
X87281610Y-1687713D01*
X87224653Y-1658691D01*
X87099223Y-1594781D01*
X86904534Y-1531522D01*
X86729995Y-1503878D01*
X86702352Y-1499500D01*
X85197648Y-1499500D01*
X85173329Y-1503351D01*
X84995465Y-1531522D01*
X84800776Y-1594781D01*
X84618386Y-1687715D01*
X84452786Y-1808028D01*
X84308028Y-1952786D01*
X84187715Y-2118386D01*
X84094781Y-2300776D01*
X84031522Y-2495465D01*
X83999500Y-2697648D01*
X83999500Y-2902351D01*
X84031522Y-3104534D01*
X84094781Y-3299223D01*
X84187715Y-3481613D01*
X84308028Y-3647213D01*
X84452782Y-3791967D01*
X84452787Y-3791971D01*
X84521467Y-3841870D01*
X84564133Y-3897200D01*
X84570112Y-3966813D01*
X84561768Y-3992833D01*
X84556411Y-4004804D01*
X84555448Y-4005448D01*
X84511133Y-4071769D01*
X84499500Y-4130252D01*
X84499500Y-4131995D01*
X84493169Y-4146145D01*
X84479193Y-4162525D01*
X84469215Y-4181602D01*
X84456969Y-4188575D01*
X84447821Y-4199298D01*
X84427208Y-4205522D01*
X84408500Y-4216176D01*
X84381510Y-4219321D01*
X84380934Y-4219496D01*
X84380668Y-4219420D01*
X84379983Y-4219500D01*
X81511003Y-4219500D01*
X81402590Y-4241065D01*
X81402589Y-4241065D01*
X81389131Y-4243742D01*
X81375673Y-4246419D01*
X81375671Y-4246420D01*
X81322866Y-4268292D01*
X81322864Y-4268293D01*
X81322863Y-4268292D01*
X81248191Y-4299223D01*
X81163392Y-4355884D01*
X81163391Y-4355886D01*
X81134233Y-4375368D01*
X81133451Y-4375891D01*
X77892162Y-7617181D01*
X77830839Y-7650666D01*
X77804481Y-7653500D01*
X71647254Y-7653500D01*
X71580215Y-7633815D01*
X71559573Y-7617181D01*
X71259291Y-7316899D01*
X71225806Y-7255576D01*
X71230790Y-7185884D01*
X71248958Y-7157619D01*
X71247319Y-7156496D01*
X71253809Y-7147019D01*
X71253813Y-7147016D01*
X71297682Y-7047662D01*
X71300500Y-7023373D01*
X71300499Y-5616628D01*
X71300499Y-5616625D01*
X73299500Y-5616625D01*
X73299500Y-7023365D01*
X73299502Y-7023388D01*
X73302317Y-7047659D01*
X73302318Y-7047662D01*
X73346186Y-7147015D01*
X73346187Y-7147016D01*
X73422984Y-7223813D01*
X73522338Y-7267682D01*
X73546627Y-7270500D01*
X74353372Y-7270499D01*
X74377662Y-7267682D01*
X74477016Y-7223813D01*
X74553813Y-7147016D01*
X74597682Y-7047662D01*
X74600500Y-7023373D01*
X74600499Y-5616628D01*
X74597682Y-5592338D01*
X74553813Y-5492984D01*
X74477016Y-5416187D01*
X74477014Y-5416186D01*
X74377663Y-5372318D01*
X74353373Y-5369500D01*
X73546634Y-5369500D01*
X73546611Y-5369502D01*
X73522340Y-5372317D01*
X73522337Y-5372318D01*
X73422984Y-5416186D01*
X73346187Y-5492983D01*
X73302318Y-5592335D01*
X73302318Y-5592337D01*
X73299500Y-5616625D01*
X71300499Y-5616625D01*
X71300499Y-5616622D01*
X71297682Y-5592340D01*
X71297682Y-5592338D01*
X71253813Y-5492984D01*
X71177016Y-5416187D01*
X71177014Y-5416186D01*
X71077663Y-5372318D01*
X71053373Y-5369500D01*
X70246634Y-5369500D01*
X70246611Y-5369502D01*
X70222340Y-5372317D01*
X70222337Y-5372318D01*
X70122984Y-5416186D01*
X70046187Y-5492983D01*
X70002318Y-5592335D01*
X70002318Y-5592337D01*
X69999500Y-5616625D01*
X69999500Y-7023365D01*
X69999502Y-7023388D01*
X70002317Y-7047659D01*
X70002318Y-7047662D01*
X70046186Y-7147015D01*
X70046187Y-7147016D01*
X70122984Y-7223813D01*
X70178708Y-7248417D01*
X70180881Y-7249377D01*
X70205158Y-7269883D01*
X70230488Y-7289075D01*
X70232281Y-7292794D01*
X70234257Y-7294463D01*
X70247224Y-7320149D01*
X70249500Y-7326360D01*
X70249500Y-7326727D01*
X70276793Y-7428588D01*
X70304615Y-7476778D01*
X70308302Y-7486838D01*
X70309918Y-7511439D01*
X70315732Y-7535399D01*
X70312169Y-7545691D01*
X70312884Y-7556557D01*
X70300943Y-7578127D01*
X70292880Y-7601426D01*
X70284320Y-7608157D01*
X70279046Y-7617686D01*
X70257339Y-7629376D01*
X70237960Y-7644617D01*
X70224069Y-7647294D01*
X70217530Y-7650816D01*
X70209156Y-7650168D01*
X70191872Y-7653500D01*
X64943967Y-7653500D01*
X64876928Y-7633815D01*
X64831173Y-7581011D01*
X64821229Y-7511853D01*
X64850254Y-7448297D01*
X64909032Y-7410523D01*
X64911833Y-7409736D01*
X65178845Y-7338191D01*
X65178857Y-7338185D01*
X65178860Y-7338185D01*
X65445336Y-7227808D01*
X65445339Y-7227806D01*
X65445345Y-7227804D01*
X65695156Y-7083575D01*
X65924004Y-6907974D01*
X66127974Y-6704004D01*
X66303575Y-6475156D01*
X66447804Y-6225345D01*
X66474167Y-6161700D01*
X66558185Y-5958860D01*
X66558185Y-5958857D01*
X66558191Y-5958845D01*
X66632849Y-5680217D01*
X66670500Y-5394228D01*
X66670500Y-5105772D01*
X66632849Y-4819783D01*
X66558191Y-4541155D01*
X66558186Y-4541145D01*
X66558185Y-4541139D01*
X66447808Y-4274663D01*
X66447800Y-4274647D01*
X66303579Y-4024851D01*
X66303575Y-4024844D01*
X66217207Y-3912287D01*
X66127975Y-3795997D01*
X66127969Y-3795990D01*
X65924009Y-3592030D01*
X65924002Y-3592024D01*
X65695164Y-3416431D01*
X65695162Y-3416429D01*
X65695156Y-3416425D01*
X65695151Y-3416422D01*
X65695148Y-3416420D01*
X65445352Y-3272199D01*
X65445336Y-3272191D01*
X65178860Y-3161814D01*
X65178848Y-3161810D01*
X65178845Y-3161809D01*
X64900217Y-3087151D01*
X64900211Y-3087150D01*
X64900206Y-3087149D01*
X64614238Y-3049501D01*
X64614233Y-3049500D01*
X64614228Y-3049500D01*
X64325772Y-3049500D01*
X64325766Y-3049500D01*
X64325761Y-3049501D01*
X64039793Y-3087149D01*
X64039786Y-3087150D01*
X64039783Y-3087151D01*
X63974909Y-3104534D01*
X63761155Y-3161809D01*
X63761139Y-3161814D01*
X63494663Y-3272191D01*
X63494647Y-3272199D01*
X63244851Y-3416420D01*
X63244835Y-3416431D01*
X63015997Y-3592024D01*
X63015990Y-3592030D01*
X62812030Y-3795990D01*
X62812024Y-3795997D01*
X62636431Y-4024835D01*
X62636424Y-4024845D01*
X62621387Y-4050891D01*
X62570819Y-4099106D01*
X62502212Y-4112328D01*
X62437347Y-4086360D01*
X62396820Y-4029445D01*
X62390000Y-3988890D01*
X62390000Y-624500D01*
X62409685Y-557461D01*
X62462489Y-511706D01*
X62514000Y-500500D01*
X89375500Y-500500D01*
X89442539Y-520185D01*
G37*
%TD.AperFunction*%
%TA.AperFunction,Conductor*%
G36*
X61791206Y-32060185D02*
G01*
X61811848Y-32076819D01*
X62143181Y-32408152D01*
X62176666Y-32469475D01*
X62179500Y-32495833D01*
X62179500Y-32585891D01*
X62213608Y-32713187D01*
X62246554Y-32770250D01*
X62279500Y-32827314D01*
X62372686Y-32920500D01*
X62446927Y-32963363D01*
X62485362Y-32985554D01*
X62486814Y-32986392D01*
X62614108Y-33020500D01*
X62614110Y-33020500D01*
X62745890Y-33020500D01*
X62745892Y-33020500D01*
X62873186Y-32986392D01*
X62873187Y-32986391D01*
X62881037Y-32984288D01*
X62881376Y-32985554D01*
X62942513Y-32978980D01*
X63004993Y-33010253D01*
X63040647Y-33070341D01*
X63044500Y-33101010D01*
X63044500Y-34712852D01*
X63066682Y-34795640D01*
X63088108Y-34832750D01*
X63109535Y-34869862D01*
X63109537Y-34869864D01*
X63441492Y-35201819D01*
X63474977Y-35263142D01*
X63469993Y-35332834D01*
X63428121Y-35388767D01*
X63362657Y-35413184D01*
X63353811Y-35413500D01*
X62862999Y-35413500D01*
X62795960Y-35393815D01*
X62775318Y-35377181D01*
X60397819Y-32999682D01*
X60383115Y-32972754D01*
X60366523Y-32946936D01*
X60365631Y-32940735D01*
X60364334Y-32938359D01*
X60361500Y-32912001D01*
X60361500Y-32844500D01*
X60381185Y-32777461D01*
X60433989Y-32731706D01*
X60485500Y-32720500D01*
X60571324Y-32720500D01*
X60638363Y-32740185D01*
X60659005Y-32756819D01*
X60722686Y-32820500D01*
X60836814Y-32886392D01*
X60964108Y-32920500D01*
X60964110Y-32920500D01*
X61095890Y-32920500D01*
X61095892Y-32920500D01*
X61223186Y-32886392D01*
X61337314Y-32820500D01*
X61430500Y-32727314D01*
X61496392Y-32613186D01*
X61530500Y-32485892D01*
X61530500Y-32354108D01*
X61496392Y-32226814D01*
X61496212Y-32226503D01*
X61496141Y-32226208D01*
X61493280Y-32219300D01*
X61493555Y-32219186D01*
X61490804Y-32216011D01*
X61486639Y-32187047D01*
X61479738Y-32158604D01*
X61481724Y-32152864D01*
X61480860Y-32146853D01*
X61493016Y-32120233D01*
X61502588Y-32092576D01*
X61507362Y-32088821D01*
X61509885Y-32083297D01*
X61534504Y-32067475D01*
X61557508Y-32049384D01*
X61564860Y-32047966D01*
X61568663Y-32045523D01*
X61603598Y-32040500D01*
X61724167Y-32040500D01*
X61791206Y-32060185D01*
G37*
%TD.AperFunction*%
%TA.AperFunction,Conductor*%
G36*
X64317074Y-11128185D02*
G01*
X64337716Y-11144819D01*
X64983181Y-11790284D01*
X65016666Y-11851607D01*
X65019500Y-11877965D01*
X65019500Y-12909747D01*
X65027767Y-12951310D01*
X65021539Y-13020901D01*
X64978675Y-13076078D01*
X64912785Y-13099322D01*
X64906149Y-13099500D01*
X64075833Y-13099500D01*
X64008794Y-13079815D01*
X63988152Y-13063181D01*
X62245152Y-11320181D01*
X62211667Y-11258858D01*
X62216651Y-11189166D01*
X62258523Y-11133233D01*
X62323987Y-11108816D01*
X62332833Y-11108500D01*
X64250035Y-11108500D01*
X64317074Y-11128185D01*
G37*
%TD.AperFunction*%
%TA.AperFunction,Conductor*%
G36*
X69942539Y-10427185D02*
G01*
X69988294Y-10479989D01*
X69999500Y-10531500D01*
X69999500Y-11394166D01*
X69979815Y-11461205D01*
X69963181Y-11481847D01*
X68381848Y-13063181D01*
X68320525Y-13096666D01*
X68294167Y-13099500D01*
X67033851Y-13099500D01*
X66966812Y-13079815D01*
X66921057Y-13027011D01*
X66911113Y-12957853D01*
X66912233Y-12951310D01*
X66920500Y-12909747D01*
X66920500Y-11370249D01*
X66920499Y-11370247D01*
X66908868Y-11311770D01*
X66908867Y-11311769D01*
X66864552Y-11245447D01*
X66798230Y-11201132D01*
X66798229Y-11201131D01*
X66739752Y-11189500D01*
X66739748Y-11189500D01*
X65707965Y-11189500D01*
X65640926Y-11169815D01*
X65620284Y-11153181D01*
X65086284Y-10619181D01*
X65052799Y-10557858D01*
X65057783Y-10488166D01*
X65099655Y-10432233D01*
X65165119Y-10407816D01*
X65173965Y-10407500D01*
X69875500Y-10407500D01*
X69942539Y-10427185D01*
G37*
%TD.AperFunction*%
%TD*%
M02*
