%TF.GenerationSoftware,KiCad,Pcbnew,9.0.6*%
%TF.CreationDate,2026-03-19T20:59:03+01:00*%
%TF.ProjectId,ESP32_DALITester,45535033-325f-4444-914c-495465737465,rev?*%
%TF.SameCoordinates,Original*%
%TF.FileFunction,Legend,Bot*%
%TF.FilePolarity,Positive*%
%FSLAX46Y46*%
G04 Gerber Fmt 4.6, Leading zero omitted, Abs format (unit mm)*
G04 Created by KiCad (PCBNEW 9.0.6) date 2026-03-19 20:59:03*
%MOMM*%
%LPD*%
G01*
G04 APERTURE LIST*
%ADD10C,0.250000*%
%ADD11C,1.000000*%
%ADD12C,0.200000*%
%ADD13C,0.150000*%
%ADD14C,0.100000*%
%ADD15C,0.120000*%
G04 APERTURE END LIST*
D10*
G36*
X72828071Y-3373311D02*
G01*
X72853384Y-3423936D01*
X72853384Y-3479206D01*
X72828071Y-3529830D01*
X72777447Y-3555142D01*
X72550750Y-3555142D01*
X72531956Y-3545745D01*
X72531956Y-3348000D01*
X72777447Y-3348000D01*
X72828071Y-3373311D01*
G37*
G36*
X75065288Y-3938475D02*
G01*
X69348623Y-3938475D01*
X69348623Y-3451571D01*
X69481956Y-3451571D01*
X69481956Y-3508714D01*
X69484358Y-3533100D01*
X69486076Y-3537248D01*
X69486395Y-3541730D01*
X69495153Y-3564616D01*
X69552296Y-3678902D01*
X69554861Y-3682977D01*
X69555504Y-3684905D01*
X69557585Y-3687305D01*
X69565350Y-3699639D01*
X69577189Y-3709907D01*
X69587461Y-3721750D01*
X69599798Y-3729516D01*
X69602195Y-3731595D01*
X69604119Y-3732236D01*
X69608198Y-3734804D01*
X69722484Y-3791946D01*
X69745370Y-3800703D01*
X69749849Y-3801021D01*
X69753999Y-3802740D01*
X69778385Y-3805142D01*
X70006956Y-3805142D01*
X70031342Y-3802740D01*
X70035491Y-3801021D01*
X70039971Y-3800703D01*
X70062857Y-3791946D01*
X70177143Y-3734804D01*
X70197880Y-3721750D01*
X70229836Y-3684905D01*
X70245260Y-3638635D01*
X70241803Y-3589985D01*
X70219992Y-3546362D01*
X70183147Y-3514405D01*
X70136876Y-3498982D01*
X70088227Y-3502439D01*
X70065341Y-3511196D01*
X69977447Y-3555142D01*
X69807894Y-3555142D01*
X69757268Y-3529829D01*
X69732424Y-3480142D01*
X69757268Y-3430454D01*
X69807893Y-3405142D01*
X69949814Y-3405142D01*
X69974200Y-3402740D01*
X69978348Y-3401021D01*
X69982830Y-3400703D01*
X70005715Y-3391946D01*
X70120000Y-3334804D01*
X70124078Y-3332236D01*
X70126003Y-3331595D01*
X70128399Y-3329516D01*
X70140737Y-3321750D01*
X70151008Y-3309907D01*
X70162848Y-3299639D01*
X70170612Y-3287305D01*
X70172694Y-3284905D01*
X70173336Y-3282977D01*
X70175902Y-3278902D01*
X70233046Y-3164615D01*
X70241803Y-3141730D01*
X70242121Y-3137248D01*
X70243840Y-3133100D01*
X70246242Y-3108714D01*
X70246242Y-3051571D01*
X70243840Y-3027185D01*
X70242121Y-3023036D01*
X70241803Y-3018555D01*
X70233046Y-2995670D01*
X70175902Y-2881383D01*
X70175121Y-2880142D01*
X70510528Y-2880142D01*
X70510528Y-3680142D01*
X70512930Y-3704528D01*
X70531594Y-3749588D01*
X70566082Y-3784076D01*
X70611142Y-3802740D01*
X70659914Y-3802740D01*
X70704974Y-3784076D01*
X70715087Y-3773962D01*
X70751055Y-3791946D01*
X70773941Y-3800703D01*
X70778420Y-3801021D01*
X70782570Y-3802740D01*
X70806956Y-3805142D01*
X70978385Y-3805142D01*
X71002771Y-3802740D01*
X71006919Y-3801021D01*
X71011401Y-3800703D01*
X71034286Y-3791946D01*
X71148571Y-3734804D01*
X71152649Y-3732236D01*
X71154574Y-3731595D01*
X71156970Y-3729516D01*
X71169308Y-3721750D01*
X71179579Y-3709907D01*
X71191419Y-3699639D01*
X71199183Y-3687305D01*
X71201265Y-3684905D01*
X71201907Y-3682977D01*
X71204473Y-3678902D01*
X71261617Y-3564615D01*
X71270374Y-3541730D01*
X71270692Y-3537248D01*
X71272411Y-3533100D01*
X71274813Y-3508714D01*
X71274813Y-2880142D01*
X71272411Y-2855756D01*
X71427215Y-2855756D01*
X71427215Y-2904528D01*
X71445879Y-2949588D01*
X71480367Y-2984076D01*
X71525427Y-3002740D01*
X71549813Y-3005142D01*
X71710527Y-3005142D01*
X71710527Y-3479206D01*
X71685214Y-3529830D01*
X71634590Y-3555142D01*
X71549813Y-3555142D01*
X71525427Y-3557544D01*
X71480367Y-3576208D01*
X71445879Y-3610696D01*
X71427215Y-3655756D01*
X71427215Y-3704528D01*
X71445879Y-3749588D01*
X71480367Y-3784076D01*
X71525427Y-3802740D01*
X71549813Y-3805142D01*
X71664099Y-3805142D01*
X71688485Y-3802740D01*
X71692633Y-3801021D01*
X71697115Y-3800703D01*
X71720000Y-3791946D01*
X71834285Y-3734804D01*
X71838363Y-3732236D01*
X71840288Y-3731595D01*
X71842684Y-3729516D01*
X71855022Y-3721750D01*
X71865293Y-3709907D01*
X71877133Y-3699639D01*
X71884897Y-3687305D01*
X71886979Y-3684905D01*
X71887621Y-3682977D01*
X71890187Y-3678902D01*
X71947331Y-3564615D01*
X71956088Y-3541730D01*
X71956406Y-3537248D01*
X71958125Y-3533100D01*
X71960527Y-3508714D01*
X71960527Y-3051571D01*
X72281956Y-3051571D01*
X72281956Y-3680142D01*
X72284358Y-3704528D01*
X72303022Y-3749588D01*
X72337510Y-3784076D01*
X72382570Y-3802740D01*
X72431342Y-3802740D01*
X72461743Y-3790147D01*
X72465339Y-3791945D01*
X72488225Y-3800703D01*
X72492705Y-3801021D01*
X72496855Y-3802740D01*
X72521241Y-3805142D01*
X72806956Y-3805142D01*
X72831342Y-3802740D01*
X72835490Y-3801021D01*
X72839972Y-3800703D01*
X72862857Y-3791946D01*
X72977142Y-3734804D01*
X72981220Y-3732236D01*
X72983145Y-3731595D01*
X72985541Y-3729516D01*
X72997879Y-3721750D01*
X73008150Y-3709907D01*
X73019990Y-3699639D01*
X73027754Y-3687305D01*
X73029836Y-3684905D01*
X73030478Y-3682977D01*
X73033044Y-3678902D01*
X73090188Y-3564615D01*
X73098945Y-3541730D01*
X73099263Y-3537248D01*
X73100982Y-3533100D01*
X73103384Y-3508714D01*
X73103384Y-3394428D01*
X73100982Y-3370042D01*
X73099263Y-3365893D01*
X73098945Y-3361412D01*
X73090188Y-3338527D01*
X73033044Y-3224240D01*
X73030478Y-3220164D01*
X73029836Y-3218237D01*
X73027754Y-3215836D01*
X73019990Y-3203503D01*
X73008150Y-3193234D01*
X72997879Y-3181392D01*
X72985541Y-3173625D01*
X72983145Y-3171547D01*
X72981220Y-3170905D01*
X72977142Y-3168338D01*
X72862857Y-3111196D01*
X72839972Y-3102439D01*
X72835490Y-3102120D01*
X72831342Y-3100402D01*
X72806956Y-3098000D01*
X72550749Y-3098000D01*
X72531956Y-3088603D01*
X72531956Y-3081079D01*
X72557268Y-3030453D01*
X72607892Y-3005142D01*
X72777448Y-3005142D01*
X72865339Y-3049088D01*
X72888225Y-3057846D01*
X72936874Y-3061304D01*
X72983145Y-3045880D01*
X73019990Y-3013924D01*
X73041802Y-2970302D01*
X73045260Y-2921652D01*
X73029837Y-2875381D01*
X73012816Y-2855756D01*
X73198643Y-2855756D01*
X73198643Y-2904528D01*
X73217307Y-2949588D01*
X73251795Y-2984076D01*
X73296855Y-3002740D01*
X73321241Y-3005142D01*
X73481955Y-3005142D01*
X73481955Y-3479206D01*
X73456642Y-3529830D01*
X73406018Y-3555142D01*
X73321241Y-3555142D01*
X73296855Y-3557544D01*
X73251795Y-3576208D01*
X73217307Y-3610696D01*
X73198643Y-3655756D01*
X73198643Y-3704528D01*
X73217307Y-3749588D01*
X73251795Y-3784076D01*
X73296855Y-3802740D01*
X73321241Y-3805142D01*
X73435527Y-3805142D01*
X73459913Y-3802740D01*
X73464061Y-3801021D01*
X73468543Y-3800703D01*
X73491428Y-3791946D01*
X73605713Y-3734804D01*
X73609791Y-3732236D01*
X73611716Y-3731595D01*
X73614112Y-3729516D01*
X73626450Y-3721750D01*
X73636721Y-3709907D01*
X73648561Y-3699639D01*
X73656325Y-3687305D01*
X73658407Y-3684905D01*
X73659049Y-3682977D01*
X73661615Y-3678902D01*
X73718759Y-3564615D01*
X73727516Y-3541730D01*
X73727834Y-3537248D01*
X73729553Y-3533100D01*
X73731955Y-3508714D01*
X73731955Y-3337285D01*
X73996241Y-3337285D01*
X73996241Y-3451571D01*
X73998643Y-3475957D01*
X74000361Y-3480105D01*
X74000680Y-3484587D01*
X74009438Y-3507473D01*
X74066581Y-3621759D01*
X74073188Y-3632255D01*
X74074451Y-3635303D01*
X74077267Y-3638734D01*
X74079635Y-3642496D01*
X74082129Y-3644659D01*
X74089996Y-3654245D01*
X74147138Y-3711388D01*
X74156723Y-3719254D01*
X74158888Y-3721750D01*
X74162649Y-3724117D01*
X74166080Y-3726933D01*
X74169126Y-3728195D01*
X74179626Y-3734804D01*
X74293910Y-3791945D01*
X74316796Y-3800703D01*
X74321276Y-3801021D01*
X74325426Y-3802740D01*
X74349812Y-3805142D01*
X74635527Y-3805142D01*
X74647870Y-3803926D01*
X74651161Y-3804160D01*
X74655491Y-3803175D01*
X74659913Y-3802740D01*
X74662961Y-3801477D01*
X74675055Y-3798728D01*
X74846483Y-3741585D01*
X74868858Y-3731595D01*
X74905704Y-3699640D01*
X74927516Y-3656016D01*
X74930973Y-3607366D01*
X74915551Y-3561097D01*
X74883595Y-3524251D01*
X74839971Y-3502439D01*
X74791321Y-3498982D01*
X74767427Y-3504414D01*
X74615241Y-3555142D01*
X74379321Y-3555142D01*
X74309571Y-3520267D01*
X74281116Y-3491813D01*
X74246241Y-3422062D01*
X74246241Y-3366793D01*
X74281115Y-3297044D01*
X74309572Y-3268588D01*
X74393439Y-3226654D01*
X74608701Y-3172839D01*
X74610500Y-3172195D01*
X74611400Y-3172132D01*
X74621539Y-3168252D01*
X74631777Y-3164594D01*
X74632502Y-3164056D01*
X74634286Y-3163374D01*
X74748571Y-3106231D01*
X74759069Y-3099622D01*
X74762115Y-3098361D01*
X74765543Y-3095547D01*
X74769309Y-3093177D01*
X74771475Y-3090679D01*
X74781057Y-3082816D01*
X74838200Y-3025674D01*
X74846069Y-3016085D01*
X74848561Y-3013924D01*
X74850926Y-3010166D01*
X74853745Y-3006732D01*
X74855008Y-3003681D01*
X74861615Y-2993187D01*
X74918758Y-2878902D01*
X74927516Y-2856016D01*
X74927834Y-2851534D01*
X74929553Y-2847386D01*
X74931955Y-2823000D01*
X74931955Y-2708714D01*
X74929553Y-2684328D01*
X74927834Y-2680179D01*
X74927516Y-2675698D01*
X74918759Y-2652813D01*
X74861615Y-2538526D01*
X74855008Y-2528031D01*
X74853745Y-2524981D01*
X74850926Y-2521546D01*
X74848561Y-2517789D01*
X74846069Y-2515627D01*
X74838200Y-2506039D01*
X74781057Y-2448897D01*
X74771475Y-2441033D01*
X74769309Y-2438536D01*
X74765543Y-2436165D01*
X74762115Y-2433352D01*
X74759069Y-2432090D01*
X74748571Y-2425482D01*
X74634286Y-2368339D01*
X74611400Y-2359581D01*
X74606918Y-2359262D01*
X74602770Y-2357544D01*
X74578384Y-2355142D01*
X74292669Y-2355142D01*
X74280325Y-2356357D01*
X74277034Y-2356124D01*
X74272704Y-2357108D01*
X74268283Y-2357544D01*
X74265233Y-2358807D01*
X74253140Y-2361557D01*
X74081712Y-2418700D01*
X74059337Y-2428690D01*
X74022492Y-2460645D01*
X74000680Y-2504270D01*
X73997223Y-2552920D01*
X74012646Y-2599189D01*
X74044601Y-2636034D01*
X74088226Y-2657846D01*
X74136876Y-2661303D01*
X74160770Y-2655870D01*
X74312953Y-2605142D01*
X74548876Y-2605142D01*
X74618624Y-2640016D01*
X74647080Y-2668473D01*
X74681955Y-2738222D01*
X74681955Y-2793491D01*
X74647080Y-2863239D01*
X74618624Y-2891696D01*
X74534756Y-2933630D01*
X74319495Y-2987446D01*
X74317695Y-2988089D01*
X74316796Y-2988153D01*
X74306649Y-2992035D01*
X74296420Y-2995691D01*
X74295695Y-2996227D01*
X74293910Y-2996911D01*
X74179625Y-3054054D01*
X74169130Y-3060660D01*
X74166080Y-3061924D01*
X74162645Y-3064742D01*
X74158888Y-3067108D01*
X74156726Y-3069599D01*
X74147138Y-3077469D01*
X74089996Y-3134612D01*
X74082132Y-3144193D01*
X74079635Y-3146360D01*
X74077264Y-3150125D01*
X74074451Y-3153554D01*
X74073189Y-3156599D01*
X74066581Y-3167098D01*
X74009438Y-3281383D01*
X74000680Y-3304269D01*
X74000361Y-3308750D01*
X73998643Y-3312899D01*
X73996241Y-3337285D01*
X73731955Y-3337285D01*
X73731955Y-3005142D01*
X73778384Y-3005142D01*
X73802770Y-3002740D01*
X73847830Y-2984076D01*
X73882318Y-2949588D01*
X73900982Y-2904528D01*
X73900982Y-2855756D01*
X73882318Y-2810696D01*
X73847830Y-2776208D01*
X73802770Y-2757544D01*
X73778384Y-2755142D01*
X73731955Y-2755142D01*
X73731955Y-2480142D01*
X73729553Y-2455756D01*
X73710889Y-2410696D01*
X73676401Y-2376208D01*
X73631341Y-2357544D01*
X73582569Y-2357544D01*
X73537509Y-2376208D01*
X73503021Y-2410696D01*
X73484357Y-2455756D01*
X73481955Y-2480142D01*
X73481955Y-2755142D01*
X73321241Y-2755142D01*
X73296855Y-2757544D01*
X73251795Y-2776208D01*
X73217307Y-2810696D01*
X73198643Y-2855756D01*
X73012816Y-2855756D01*
X72997881Y-2838536D01*
X72977143Y-2825482D01*
X72862858Y-2768339D01*
X72839972Y-2759581D01*
X72835490Y-2759262D01*
X72831342Y-2757544D01*
X72806956Y-2755142D01*
X72578384Y-2755142D01*
X72553998Y-2757544D01*
X72549849Y-2759262D01*
X72545368Y-2759581D01*
X72522483Y-2768338D01*
X72408196Y-2825482D01*
X72404117Y-2828049D01*
X72402193Y-2828691D01*
X72399796Y-2830769D01*
X72387459Y-2838536D01*
X72377189Y-2850377D01*
X72365348Y-2860647D01*
X72357581Y-2872984D01*
X72355503Y-2875381D01*
X72354861Y-2877305D01*
X72352294Y-2881384D01*
X72295152Y-2995670D01*
X72286395Y-3018556D01*
X72286076Y-3023035D01*
X72284358Y-3027185D01*
X72281956Y-3051571D01*
X71960527Y-3051571D01*
X71960527Y-3005142D01*
X72006956Y-3005142D01*
X72031342Y-3002740D01*
X72076402Y-2984076D01*
X72110890Y-2949588D01*
X72129554Y-2904528D01*
X72129554Y-2855756D01*
X72110890Y-2810696D01*
X72076402Y-2776208D01*
X72031342Y-2757544D01*
X72006956Y-2755142D01*
X71960527Y-2755142D01*
X71960527Y-2480142D01*
X71958125Y-2455756D01*
X71939461Y-2410696D01*
X71904973Y-2376208D01*
X71859913Y-2357544D01*
X71811141Y-2357544D01*
X71766081Y-2376208D01*
X71731593Y-2410696D01*
X71712929Y-2455756D01*
X71710527Y-2480142D01*
X71710527Y-2755142D01*
X71549813Y-2755142D01*
X71525427Y-2757544D01*
X71480367Y-2776208D01*
X71445879Y-2810696D01*
X71427215Y-2855756D01*
X71272411Y-2855756D01*
X71253747Y-2810696D01*
X71219259Y-2776208D01*
X71174199Y-2757544D01*
X71125427Y-2757544D01*
X71080367Y-2776208D01*
X71045879Y-2810696D01*
X71027215Y-2855756D01*
X71024813Y-2880142D01*
X71024813Y-3479206D01*
X70999500Y-3529830D01*
X70948876Y-3555142D01*
X70836465Y-3555142D01*
X70766713Y-3520267D01*
X70760528Y-3514081D01*
X70760528Y-2880142D01*
X70758126Y-2855756D01*
X70739462Y-2810696D01*
X70704974Y-2776208D01*
X70659914Y-2757544D01*
X70611142Y-2757544D01*
X70566082Y-2776208D01*
X70531594Y-2810696D01*
X70512930Y-2855756D01*
X70510528Y-2880142D01*
X70175121Y-2880142D01*
X70173337Y-2877309D01*
X70172695Y-2875381D01*
X70170611Y-2872978D01*
X70162848Y-2860646D01*
X70151011Y-2850380D01*
X70140739Y-2838536D01*
X70128399Y-2830768D01*
X70126003Y-2828690D01*
X70124077Y-2828048D01*
X70120001Y-2825482D01*
X70005716Y-2768339D01*
X69982830Y-2759581D01*
X69978348Y-2759262D01*
X69974200Y-2757544D01*
X69949814Y-2755142D01*
X69778385Y-2755142D01*
X69753999Y-2757544D01*
X69749850Y-2759262D01*
X69745369Y-2759581D01*
X69722484Y-2768338D01*
X69608197Y-2825482D01*
X69587460Y-2838536D01*
X69555504Y-2875381D01*
X69540080Y-2921651D01*
X69543538Y-2970301D01*
X69565350Y-3013924D01*
X69602195Y-3045880D01*
X69648465Y-3061304D01*
X69697115Y-3057846D01*
X69720001Y-3049088D01*
X69807893Y-3005142D01*
X69920306Y-3005142D01*
X69970929Y-3030454D01*
X69995773Y-3080142D01*
X69970929Y-3129830D01*
X69920305Y-3155142D01*
X69778385Y-3155142D01*
X69753999Y-3157544D01*
X69749850Y-3159262D01*
X69745369Y-3159581D01*
X69722484Y-3168338D01*
X69608197Y-3225482D01*
X69604120Y-3228048D01*
X69602195Y-3228690D01*
X69599796Y-3230769D01*
X69587460Y-3238536D01*
X69577190Y-3250376D01*
X69565350Y-3260646D01*
X69557583Y-3272982D01*
X69555504Y-3275381D01*
X69554862Y-3277306D01*
X69552296Y-3281383D01*
X69495153Y-3395669D01*
X69486395Y-3418555D01*
X69486076Y-3423036D01*
X69484358Y-3427185D01*
X69481956Y-3451571D01*
X69348623Y-3451571D01*
X69348623Y-2221809D01*
X75065288Y-2221809D01*
X75065288Y-3938475D01*
G37*
D11*
X26180000Y-24850000D02*
X15070000Y-10310000D01*
X26180000Y-24850000D02*
X26180000Y-44910000D01*
X15070000Y-10310000D02*
X-390000Y-10310000D01*
D10*
G36*
X55905766Y-31290016D02*
G01*
X55981226Y-31365477D01*
X56026240Y-31545531D01*
X56026240Y-31914753D01*
X55981226Y-32094807D01*
X55905767Y-32170267D01*
X55836017Y-32205142D01*
X55666463Y-32205142D01*
X55596711Y-32170266D01*
X55521254Y-32094809D01*
X55476240Y-31914753D01*
X55476240Y-31545531D01*
X55521253Y-31365476D01*
X55596713Y-31290016D01*
X55666462Y-31255142D01*
X55836018Y-31255142D01*
X55905766Y-31290016D01*
G37*
G36*
X57911955Y-28341278D02*
G01*
X57771527Y-28341278D01*
X57647334Y-28299881D01*
X57568258Y-28220805D01*
X57526324Y-28136936D01*
X57476241Y-27936603D01*
X57476241Y-27795953D01*
X57526324Y-27595620D01*
X57568258Y-27511751D01*
X57647336Y-27432673D01*
X57771524Y-27391278D01*
X57911955Y-27391278D01*
X57911955Y-28341278D01*
G37*
G36*
X57620052Y-25494220D02*
G01*
X57695512Y-25569681D01*
X57740526Y-25749735D01*
X57740526Y-26118957D01*
X57695512Y-26299011D01*
X57620053Y-26374471D01*
X57550303Y-26409346D01*
X57380749Y-26409346D01*
X57310997Y-26374470D01*
X57235540Y-26299013D01*
X57190526Y-26118957D01*
X57190526Y-25749735D01*
X57235539Y-25569680D01*
X57310999Y-25494220D01*
X57380748Y-25459346D01*
X57550304Y-25459346D01*
X57620052Y-25494220D01*
G37*
G36*
X59495288Y-32588475D02*
G01*
X53835765Y-32588475D01*
X53835765Y-31530142D01*
X55226240Y-31530142D01*
X55226240Y-31930142D01*
X55226659Y-31934396D01*
X55226388Y-31936218D01*
X55227737Y-31945346D01*
X55228642Y-31954528D01*
X55229346Y-31956229D01*
X55229972Y-31960459D01*
X55287115Y-32189031D01*
X55295360Y-32212107D01*
X55300894Y-32219576D01*
X55304450Y-32228160D01*
X55319995Y-32247102D01*
X55434281Y-32361388D01*
X55443864Y-32369253D01*
X55446030Y-32371750D01*
X55449791Y-32374117D01*
X55453223Y-32376934D01*
X55456271Y-32378196D01*
X55466768Y-32384804D01*
X55581052Y-32441945D01*
X55603938Y-32450703D01*
X55608418Y-32451021D01*
X55612568Y-32452740D01*
X55636954Y-32455142D01*
X55865526Y-32455142D01*
X55889912Y-32452740D01*
X55894061Y-32451021D01*
X55898541Y-32450703D01*
X55921427Y-32441946D01*
X56035713Y-32384804D01*
X56046210Y-32378195D01*
X56049259Y-32376933D01*
X56052691Y-32374115D01*
X56056450Y-32371750D01*
X56058611Y-32369257D01*
X56068201Y-32361388D01*
X56182486Y-32247102D01*
X56198031Y-32228160D01*
X56201587Y-32219572D01*
X56207120Y-32212106D01*
X56215365Y-32189031D01*
X56265802Y-31987285D01*
X56483383Y-31987285D01*
X56483383Y-32101571D01*
X56485785Y-32125957D01*
X56487503Y-32130105D01*
X56487822Y-32134587D01*
X56496580Y-32157473D01*
X56553723Y-32271759D01*
X56560330Y-32282255D01*
X56561593Y-32285303D01*
X56564409Y-32288734D01*
X56566777Y-32292496D01*
X56569271Y-32294659D01*
X56577138Y-32304245D01*
X56634280Y-32361388D01*
X56643865Y-32369254D01*
X56646030Y-32371750D01*
X56649791Y-32374117D01*
X56653222Y-32376933D01*
X56656268Y-32378195D01*
X56666768Y-32384804D01*
X56781052Y-32441945D01*
X56803938Y-32450703D01*
X56808418Y-32451021D01*
X56812568Y-32452740D01*
X56836954Y-32455142D01*
X57122669Y-32455142D01*
X57135012Y-32453926D01*
X57138303Y-32454160D01*
X57142633Y-32453175D01*
X57147055Y-32452740D01*
X57150103Y-32451477D01*
X57162197Y-32448728D01*
X57333625Y-32391585D01*
X57356000Y-32381595D01*
X57392846Y-32349640D01*
X57414658Y-32306016D01*
X57418115Y-32257366D01*
X57402693Y-32211097D01*
X57370737Y-32174251D01*
X57327113Y-32152439D01*
X57278463Y-32148982D01*
X57254569Y-32154414D01*
X57102383Y-32205142D01*
X56866463Y-32205142D01*
X56796713Y-32170267D01*
X56768258Y-32141813D01*
X56733383Y-32072062D01*
X56733383Y-32016793D01*
X56768257Y-31947044D01*
X56796714Y-31918588D01*
X56880581Y-31876654D01*
X57095843Y-31822839D01*
X57097642Y-31822195D01*
X57098542Y-31822132D01*
X57108681Y-31818252D01*
X57118919Y-31814594D01*
X57119644Y-31814056D01*
X57121428Y-31813374D01*
X57235713Y-31756231D01*
X57246211Y-31749622D01*
X57249257Y-31748361D01*
X57252685Y-31745547D01*
X57256451Y-31743177D01*
X57258617Y-31740679D01*
X57268199Y-31732816D01*
X57325342Y-31675674D01*
X57333211Y-31666085D01*
X57335703Y-31663924D01*
X57338068Y-31660166D01*
X57340887Y-31656732D01*
X57342150Y-31653681D01*
X57348757Y-31643187D01*
X57405900Y-31528902D01*
X57414658Y-31506016D01*
X57414976Y-31501534D01*
X57416695Y-31497386D01*
X57419097Y-31473000D01*
X57419097Y-31358714D01*
X57416695Y-31334328D01*
X57414976Y-31330179D01*
X57414658Y-31325698D01*
X57405901Y-31302813D01*
X57348757Y-31188526D01*
X57342150Y-31178031D01*
X57340887Y-31174981D01*
X57338068Y-31171546D01*
X57335703Y-31167789D01*
X57333211Y-31165627D01*
X57325342Y-31156039D01*
X57299445Y-31130142D01*
X57683383Y-31130142D01*
X57683383Y-32330142D01*
X57685785Y-32354528D01*
X57704449Y-32399588D01*
X57738937Y-32434076D01*
X57783997Y-32452740D01*
X57832769Y-32452740D01*
X57877829Y-32434076D01*
X57912317Y-32399588D01*
X57930981Y-32354528D01*
X57933383Y-32330142D01*
X57933383Y-31130142D01*
X58254812Y-31130142D01*
X58254812Y-32330142D01*
X58257214Y-32354528D01*
X58275878Y-32399588D01*
X58310366Y-32434076D01*
X58355426Y-32452740D01*
X58404198Y-32452740D01*
X58449258Y-32434076D01*
X58483746Y-32399588D01*
X58502410Y-32354528D01*
X58504812Y-32330142D01*
X58504812Y-31693588D01*
X58666539Y-32040146D01*
X58671828Y-32049075D01*
X58672929Y-32052101D01*
X58674888Y-32054241D01*
X58679028Y-32061228D01*
X58693036Y-32074056D01*
X58705869Y-32088069D01*
X58710901Y-32090417D01*
X58714997Y-32094168D01*
X58732848Y-32100659D01*
X58750065Y-32108694D01*
X58755613Y-32108937D01*
X58760833Y-32110836D01*
X58779812Y-32110001D01*
X58798791Y-32110836D01*
X58804010Y-32108937D01*
X58809559Y-32108694D01*
X58826772Y-32100660D01*
X58844628Y-32094168D01*
X58848724Y-32090416D01*
X58853755Y-32088069D01*
X58866585Y-32074058D01*
X58880596Y-32061228D01*
X58884735Y-32054241D01*
X58886695Y-32052101D01*
X58887795Y-32049075D01*
X58893085Y-32040146D01*
X59054812Y-31693587D01*
X59054812Y-32330142D01*
X59057214Y-32354528D01*
X59075878Y-32399588D01*
X59110366Y-32434076D01*
X59155426Y-32452740D01*
X59204198Y-32452740D01*
X59249258Y-32434076D01*
X59283746Y-32399588D01*
X59302410Y-32354528D01*
X59304812Y-32330142D01*
X59304812Y-31130142D01*
X59303233Y-31114114D01*
X59303363Y-31111163D01*
X59302786Y-31109577D01*
X59302410Y-31105756D01*
X59294110Y-31085719D01*
X59286695Y-31065326D01*
X59284812Y-31063270D01*
X59283746Y-31060696D01*
X59268408Y-31045358D01*
X59253755Y-31029358D01*
X59251229Y-31028179D01*
X59249258Y-31026208D01*
X59229219Y-31017907D01*
X59209559Y-31008733D01*
X59206772Y-31008610D01*
X59204198Y-31007544D01*
X59182512Y-31007544D01*
X59160833Y-31006591D01*
X59158212Y-31007544D01*
X59155426Y-31007544D01*
X59135385Y-31015844D01*
X59114997Y-31023259D01*
X59112941Y-31025141D01*
X59110366Y-31026208D01*
X59095023Y-31041550D01*
X59079028Y-31056199D01*
X59077070Y-31059503D01*
X59075878Y-31060696D01*
X59074748Y-31063423D01*
X59066539Y-31077281D01*
X58779811Y-31691696D01*
X58493085Y-31077281D01*
X58484875Y-31063423D01*
X58483746Y-31060696D01*
X58482553Y-31059503D01*
X58480596Y-31056199D01*
X58464595Y-31041545D01*
X58449258Y-31026208D01*
X58446683Y-31025141D01*
X58444628Y-31023259D01*
X58424234Y-31015843D01*
X58404198Y-31007544D01*
X58401412Y-31007544D01*
X58398791Y-31006591D01*
X58377112Y-31007544D01*
X58355426Y-31007544D01*
X58352851Y-31008610D01*
X58350065Y-31008733D01*
X58330404Y-31017907D01*
X58310366Y-31026208D01*
X58308394Y-31028179D01*
X58305869Y-31029358D01*
X58291215Y-31045358D01*
X58275878Y-31060696D01*
X58274811Y-31063270D01*
X58272929Y-31065326D01*
X58265513Y-31085719D01*
X58257214Y-31105756D01*
X58256837Y-31109577D01*
X58256261Y-31111163D01*
X58256390Y-31114114D01*
X58254812Y-31130142D01*
X57933383Y-31130142D01*
X57930981Y-31105756D01*
X57912317Y-31060696D01*
X57877829Y-31026208D01*
X57832769Y-31007544D01*
X57783997Y-31007544D01*
X57738937Y-31026208D01*
X57704449Y-31060696D01*
X57685785Y-31105756D01*
X57683383Y-31130142D01*
X57299445Y-31130142D01*
X57268199Y-31098897D01*
X57258617Y-31091033D01*
X57256451Y-31088536D01*
X57252685Y-31086165D01*
X57249257Y-31083352D01*
X57246211Y-31082090D01*
X57235713Y-31075482D01*
X57121428Y-31018339D01*
X57098542Y-31009581D01*
X57094060Y-31009262D01*
X57089912Y-31007544D01*
X57065526Y-31005142D01*
X56779811Y-31005142D01*
X56767467Y-31006357D01*
X56764176Y-31006124D01*
X56759846Y-31007108D01*
X56755425Y-31007544D01*
X56752375Y-31008807D01*
X56740282Y-31011557D01*
X56568854Y-31068700D01*
X56546479Y-31078690D01*
X56509634Y-31110645D01*
X56487822Y-31154270D01*
X56484365Y-31202920D01*
X56499788Y-31249189D01*
X56531743Y-31286034D01*
X56575368Y-31307846D01*
X56624018Y-31311303D01*
X56647912Y-31305870D01*
X56800095Y-31255142D01*
X57036018Y-31255142D01*
X57105766Y-31290016D01*
X57134222Y-31318473D01*
X57169097Y-31388222D01*
X57169097Y-31443491D01*
X57134222Y-31513239D01*
X57105766Y-31541696D01*
X57021898Y-31583630D01*
X56806637Y-31637446D01*
X56804837Y-31638089D01*
X56803938Y-31638153D01*
X56793791Y-31642035D01*
X56783562Y-31645691D01*
X56782837Y-31646227D01*
X56781052Y-31646911D01*
X56666767Y-31704054D01*
X56656272Y-31710660D01*
X56653222Y-31711924D01*
X56649787Y-31714742D01*
X56646030Y-31717108D01*
X56643868Y-31719599D01*
X56634280Y-31727469D01*
X56577138Y-31784612D01*
X56569274Y-31794193D01*
X56566777Y-31796360D01*
X56564406Y-31800125D01*
X56561593Y-31803554D01*
X56560331Y-31806599D01*
X56553723Y-31817098D01*
X56496580Y-31931383D01*
X56487822Y-31954269D01*
X56487503Y-31958750D01*
X56485785Y-31962899D01*
X56483383Y-31987285D01*
X56265802Y-31987285D01*
X56272508Y-31960459D01*
X56273133Y-31956229D01*
X56273838Y-31954528D01*
X56274742Y-31945346D01*
X56276092Y-31936218D01*
X56275820Y-31934396D01*
X56276240Y-31930142D01*
X56276240Y-31530142D01*
X56275820Y-31525887D01*
X56276092Y-31524066D01*
X56274742Y-31514937D01*
X56273838Y-31505756D01*
X56273133Y-31504054D01*
X56272508Y-31499825D01*
X56215365Y-31271254D01*
X56207120Y-31248179D01*
X56201587Y-31240712D01*
X56198031Y-31232125D01*
X56182486Y-31213183D01*
X56068201Y-31098897D01*
X56058612Y-31091027D01*
X56056451Y-31088536D01*
X56052693Y-31086170D01*
X56049259Y-31083352D01*
X56046208Y-31082088D01*
X56035714Y-31075482D01*
X55921428Y-31018339D01*
X55898542Y-31009581D01*
X55894060Y-31009262D01*
X55889912Y-31007544D01*
X55865526Y-31005142D01*
X55636954Y-31005142D01*
X55612568Y-31007544D01*
X55608419Y-31009262D01*
X55603938Y-31009581D01*
X55581052Y-31018339D01*
X55466767Y-31075482D01*
X55456274Y-31082086D01*
X55453223Y-31083351D01*
X55449787Y-31086170D01*
X55446030Y-31088536D01*
X55443867Y-31091028D01*
X55434281Y-31098897D01*
X55319995Y-31213183D01*
X55304450Y-31232125D01*
X55300894Y-31240708D01*
X55295360Y-31248178D01*
X55287115Y-31271254D01*
X55229972Y-31499825D01*
X55229346Y-31504054D01*
X55228642Y-31505756D01*
X55227737Y-31514935D01*
X55226388Y-31524065D01*
X55226659Y-31525887D01*
X55226240Y-31530142D01*
X53835765Y-31530142D01*
X53835765Y-30391406D01*
X56197854Y-30391406D01*
X56204752Y-30439690D01*
X56229601Y-30481657D01*
X56268619Y-30510920D01*
X56315865Y-30523025D01*
X56364149Y-30516127D01*
X56406116Y-30491278D01*
X56422669Y-30473210D01*
X56850479Y-29902797D01*
X56883383Y-29935700D01*
X56883383Y-30398210D01*
X56885785Y-30422596D01*
X56904449Y-30467656D01*
X56938937Y-30502144D01*
X56983997Y-30520808D01*
X57032769Y-30520808D01*
X57077829Y-30502144D01*
X57112317Y-30467656D01*
X57130981Y-30422596D01*
X57133383Y-30398210D01*
X57133383Y-30373824D01*
X57285786Y-30373824D01*
X57285786Y-30422596D01*
X57304450Y-30467656D01*
X57338938Y-30502144D01*
X57383998Y-30520808D01*
X57408384Y-30523210D01*
X57979812Y-30523210D01*
X58004198Y-30520808D01*
X58049258Y-30502144D01*
X58083746Y-30467656D01*
X58102410Y-30422596D01*
X58104812Y-30398210D01*
X58104812Y-29288109D01*
X58371500Y-29288109D01*
X58371500Y-29336883D01*
X58390165Y-29381942D01*
X58424652Y-29416429D01*
X58469711Y-29435094D01*
X58518485Y-29435094D01*
X58563544Y-29416429D01*
X58582486Y-29400884D01*
X58618764Y-29364606D01*
X58742953Y-29323210D01*
X58816672Y-29323210D01*
X58940860Y-29364606D01*
X59019937Y-29443684D01*
X59061871Y-29527552D01*
X59111955Y-29727885D01*
X59111955Y-29868535D01*
X59061871Y-30068868D01*
X59019937Y-30152736D01*
X58940861Y-30231813D01*
X58816669Y-30273210D01*
X58742952Y-30273210D01*
X58618763Y-30231813D01*
X58582486Y-30195537D01*
X58563544Y-30179992D01*
X58518485Y-30161327D01*
X58469711Y-30161327D01*
X58424652Y-30179992D01*
X58390165Y-30214479D01*
X58371500Y-30259538D01*
X58371500Y-30308312D01*
X58390165Y-30353371D01*
X58405710Y-30372313D01*
X58462852Y-30429456D01*
X58481794Y-30445001D01*
X58485945Y-30446720D01*
X58489338Y-30449663D01*
X58511713Y-30459654D01*
X58683141Y-30516796D01*
X58695234Y-30519545D01*
X58698283Y-30520808D01*
X58702704Y-30521243D01*
X58707035Y-30522228D01*
X58710325Y-30521994D01*
X58722669Y-30523210D01*
X58836955Y-30523210D01*
X58849298Y-30521994D01*
X58852589Y-30522228D01*
X58856919Y-30521243D01*
X58861341Y-30520808D01*
X58864389Y-30519545D01*
X58876483Y-30516796D01*
X59047912Y-30459654D01*
X59070287Y-30449663D01*
X59073679Y-30446720D01*
X59077831Y-30445001D01*
X59096773Y-30429456D01*
X59211058Y-30315170D01*
X59218926Y-30305581D01*
X59221418Y-30303421D01*
X59223782Y-30299664D01*
X59226603Y-30296228D01*
X59227866Y-30293176D01*
X59234472Y-30282684D01*
X59291616Y-30168397D01*
X59292299Y-30166610D01*
X59292835Y-30165888D01*
X59296486Y-30155669D01*
X59300373Y-30145512D01*
X59300436Y-30144612D01*
X59301080Y-30142813D01*
X59358223Y-29914242D01*
X59358848Y-29910012D01*
X59359553Y-29908311D01*
X59360457Y-29899129D01*
X59361807Y-29890001D01*
X59361535Y-29888179D01*
X59361955Y-29883925D01*
X59361955Y-29712496D01*
X59361535Y-29708241D01*
X59361807Y-29706420D01*
X59360457Y-29697291D01*
X59359553Y-29688110D01*
X59358848Y-29686408D01*
X59358223Y-29682179D01*
X59301080Y-29453608D01*
X59300436Y-29451808D01*
X59300373Y-29450909D01*
X59296486Y-29440751D01*
X59292835Y-29430533D01*
X59292299Y-29429810D01*
X59291616Y-29428024D01*
X59234472Y-29313737D01*
X59227866Y-29303244D01*
X59226603Y-29300193D01*
X59223782Y-29296756D01*
X59221418Y-29293000D01*
X59218926Y-29290839D01*
X59211058Y-29281251D01*
X59096773Y-29166965D01*
X59077831Y-29151420D01*
X59073679Y-29149700D01*
X59070287Y-29146758D01*
X59047912Y-29136768D01*
X58876483Y-29079625D01*
X58864392Y-29076875D01*
X58861341Y-29075612D01*
X58856918Y-29075176D01*
X58852589Y-29074192D01*
X58849298Y-29074425D01*
X58836955Y-29073210D01*
X58722669Y-29073210D01*
X58710325Y-29074425D01*
X58707034Y-29074192D01*
X58702704Y-29075176D01*
X58698283Y-29075612D01*
X58695233Y-29076875D01*
X58683140Y-29079625D01*
X58511712Y-29136768D01*
X58489337Y-29146758D01*
X58485943Y-29149701D01*
X58481794Y-29151420D01*
X58462852Y-29166965D01*
X58405710Y-29224108D01*
X58390165Y-29243050D01*
X58371500Y-29288109D01*
X58104812Y-29288109D01*
X58104812Y-29198210D01*
X58102410Y-29173824D01*
X58083746Y-29128764D01*
X58049258Y-29094276D01*
X58004198Y-29075612D01*
X57955426Y-29075612D01*
X57910366Y-29094276D01*
X57875878Y-29128764D01*
X57857214Y-29173824D01*
X57854812Y-29198210D01*
X57854812Y-30273210D01*
X57408384Y-30273210D01*
X57383998Y-30275612D01*
X57338938Y-30294276D01*
X57304450Y-30328764D01*
X57285786Y-30373824D01*
X57133383Y-30373824D01*
X57133383Y-29198210D01*
X57130981Y-29173824D01*
X57112317Y-29128764D01*
X57077829Y-29094276D01*
X57032769Y-29075612D01*
X56983997Y-29075612D01*
X56938937Y-29094276D01*
X56904449Y-29128764D01*
X56885785Y-29173824D01*
X56883383Y-29198210D01*
X56883383Y-29582148D01*
X56411057Y-29109822D01*
X56392115Y-29094277D01*
X56347056Y-29075612D01*
X56298282Y-29075612D01*
X56253223Y-29094277D01*
X56218736Y-29128764D01*
X56200071Y-29173823D01*
X56200071Y-29222597D01*
X56218736Y-29267656D01*
X56234281Y-29286598D01*
X56671907Y-29724225D01*
X56222669Y-30323210D01*
X56209959Y-30344160D01*
X56197854Y-30391406D01*
X53835765Y-30391406D01*
X53835765Y-28123421D01*
X53969098Y-28123421D01*
X53969098Y-28237707D01*
X53971500Y-28262093D01*
X53973218Y-28266241D01*
X53973537Y-28270723D01*
X53982295Y-28293609D01*
X54039438Y-28407895D01*
X54046045Y-28418391D01*
X54047308Y-28421439D01*
X54050124Y-28424870D01*
X54052492Y-28428632D01*
X54054986Y-28430795D01*
X54062853Y-28440381D01*
X54119995Y-28497524D01*
X54129580Y-28505390D01*
X54131745Y-28507886D01*
X54135506Y-28510253D01*
X54138937Y-28513069D01*
X54141983Y-28514331D01*
X54152483Y-28520940D01*
X54266767Y-28578081D01*
X54289653Y-28586839D01*
X54294133Y-28587157D01*
X54298283Y-28588876D01*
X54322669Y-28591278D01*
X54608384Y-28591278D01*
X54620727Y-28590062D01*
X54624018Y-28590296D01*
X54628348Y-28589311D01*
X54632770Y-28588876D01*
X54635818Y-28587613D01*
X54647912Y-28584864D01*
X54819340Y-28527721D01*
X54841715Y-28517731D01*
X54878561Y-28485776D01*
X54900373Y-28442152D01*
X54903830Y-28393502D01*
X54888408Y-28347233D01*
X54856452Y-28310387D01*
X54812828Y-28288575D01*
X54764178Y-28285118D01*
X54740284Y-28290550D01*
X54588098Y-28341278D01*
X54352178Y-28341278D01*
X54282428Y-28306403D01*
X54253973Y-28277949D01*
X54219098Y-28208198D01*
X54219098Y-28152929D01*
X54253972Y-28083180D01*
X54282429Y-28054724D01*
X54366296Y-28012790D01*
X54581558Y-27958975D01*
X54583357Y-27958331D01*
X54584257Y-27958268D01*
X54594396Y-27954388D01*
X54604634Y-27950730D01*
X54605359Y-27950192D01*
X54607143Y-27949510D01*
X54721428Y-27892367D01*
X54731926Y-27885758D01*
X54734972Y-27884497D01*
X54738400Y-27881683D01*
X54742166Y-27879313D01*
X54744332Y-27876815D01*
X54753914Y-27868952D01*
X54811057Y-27811810D01*
X54818926Y-27802221D01*
X54821418Y-27800060D01*
X54823783Y-27796302D01*
X54826602Y-27792868D01*
X54827865Y-27789817D01*
X54834472Y-27779323D01*
X54891615Y-27665038D01*
X54900373Y-27642152D01*
X54900691Y-27637670D01*
X54902410Y-27633522D01*
X54904812Y-27609136D01*
X54904812Y-27494850D01*
X54902410Y-27470464D01*
X54900691Y-27466315D01*
X54900373Y-27461834D01*
X54891616Y-27438949D01*
X54850230Y-27356177D01*
X55114357Y-27356177D01*
X55114357Y-27404951D01*
X55133022Y-27450010D01*
X55167509Y-27484497D01*
X55212568Y-27503162D01*
X55261342Y-27503162D01*
X55306401Y-27484497D01*
X55325343Y-27468952D01*
X55361621Y-27432674D01*
X55485810Y-27391278D01*
X55559529Y-27391278D01*
X55683717Y-27432674D01*
X55762794Y-27511752D01*
X55804728Y-27595620D01*
X55854812Y-27795953D01*
X55854812Y-27936603D01*
X55804728Y-28136936D01*
X55762794Y-28220804D01*
X55683718Y-28299881D01*
X55559526Y-28341278D01*
X55485809Y-28341278D01*
X55361620Y-28299881D01*
X55325343Y-28263605D01*
X55306401Y-28248060D01*
X55261342Y-28229395D01*
X55212568Y-28229395D01*
X55167509Y-28248060D01*
X55133022Y-28282547D01*
X55114357Y-28327606D01*
X55114357Y-28376380D01*
X55133022Y-28421439D01*
X55148567Y-28440381D01*
X55205709Y-28497524D01*
X55224651Y-28513069D01*
X55228802Y-28514788D01*
X55232195Y-28517731D01*
X55254570Y-28527722D01*
X55425998Y-28584864D01*
X55438091Y-28587613D01*
X55441140Y-28588876D01*
X55445561Y-28589311D01*
X55449892Y-28590296D01*
X55453182Y-28590062D01*
X55465526Y-28591278D01*
X55579812Y-28591278D01*
X55592155Y-28590062D01*
X55595446Y-28590296D01*
X55599776Y-28589311D01*
X55604198Y-28588876D01*
X55607246Y-28587613D01*
X55619340Y-28584864D01*
X55705400Y-28556178D01*
X56085786Y-28556178D01*
X56085786Y-28604950D01*
X56104450Y-28650010D01*
X56138938Y-28684498D01*
X56183998Y-28703162D01*
X56208384Y-28705564D01*
X57122670Y-28705564D01*
X57147056Y-28703162D01*
X57192116Y-28684498D01*
X57226604Y-28650010D01*
X57245268Y-28604950D01*
X57245268Y-28556178D01*
X57226604Y-28511118D01*
X57192116Y-28476630D01*
X57147056Y-28457966D01*
X57122670Y-28455564D01*
X56208384Y-28455564D01*
X56183998Y-28457966D01*
X56138938Y-28476630D01*
X56104450Y-28511118D01*
X56085786Y-28556178D01*
X55705400Y-28556178D01*
X55790769Y-28527722D01*
X55813144Y-28517731D01*
X55816536Y-28514788D01*
X55820688Y-28513069D01*
X55839630Y-28497524D01*
X55953915Y-28383238D01*
X55961783Y-28373649D01*
X55964275Y-28371489D01*
X55966639Y-28367732D01*
X55969460Y-28364296D01*
X55970723Y-28361244D01*
X55977329Y-28350752D01*
X56034473Y-28236465D01*
X56035156Y-28234678D01*
X56035692Y-28233956D01*
X56039343Y-28223737D01*
X56043230Y-28213580D01*
X56043293Y-28212680D01*
X56043937Y-28210881D01*
X56101080Y-27982310D01*
X56101705Y-27978080D01*
X56102410Y-27976379D01*
X56103314Y-27967197D01*
X56104664Y-27958069D01*
X56104392Y-27956247D01*
X56104812Y-27951993D01*
X56104812Y-27780564D01*
X57226241Y-27780564D01*
X57226241Y-27951993D01*
X57226660Y-27956247D01*
X57226389Y-27958070D01*
X57227738Y-27967199D01*
X57228643Y-27976379D01*
X57229347Y-27978080D01*
X57229973Y-27982310D01*
X57287116Y-28210881D01*
X57287759Y-28212680D01*
X57287823Y-28213580D01*
X57291702Y-28223719D01*
X57295361Y-28233957D01*
X57295898Y-28234682D01*
X57296581Y-28236466D01*
X57353724Y-28350752D01*
X57360329Y-28361244D01*
X57361593Y-28364296D01*
X57364413Y-28367732D01*
X57366778Y-28371489D01*
X57369269Y-28373649D01*
X57377138Y-28383238D01*
X57491423Y-28497524D01*
X57510365Y-28513069D01*
X57514516Y-28514788D01*
X57517909Y-28517731D01*
X57540284Y-28527722D01*
X57711713Y-28584864D01*
X57723805Y-28587613D01*
X57726855Y-28588876D01*
X57731277Y-28589311D01*
X57735608Y-28590296D01*
X57738897Y-28590062D01*
X57751241Y-28591278D01*
X58036955Y-28591278D01*
X58061341Y-28588876D01*
X58106401Y-28570212D01*
X58140889Y-28535724D01*
X58159553Y-28490664D01*
X58161955Y-28466278D01*
X58161955Y-28123421D01*
X58426241Y-28123421D01*
X58426241Y-28237707D01*
X58428643Y-28262093D01*
X58430361Y-28266241D01*
X58430680Y-28270723D01*
X58439438Y-28293609D01*
X58496581Y-28407895D01*
X58503188Y-28418391D01*
X58504451Y-28421439D01*
X58507267Y-28424870D01*
X58509635Y-28428632D01*
X58512129Y-28430795D01*
X58519996Y-28440381D01*
X58577138Y-28497524D01*
X58586723Y-28505390D01*
X58588888Y-28507886D01*
X58592649Y-28510253D01*
X58596080Y-28513069D01*
X58599126Y-28514331D01*
X58609626Y-28520940D01*
X58723910Y-28578081D01*
X58746796Y-28586839D01*
X58751276Y-28587157D01*
X58755426Y-28588876D01*
X58779812Y-28591278D01*
X59065527Y-28591278D01*
X59077870Y-28590062D01*
X59081161Y-28590296D01*
X59085491Y-28589311D01*
X59089913Y-28588876D01*
X59092961Y-28587613D01*
X59105055Y-28584864D01*
X59276483Y-28527721D01*
X59298858Y-28517731D01*
X59335704Y-28485776D01*
X59357516Y-28442152D01*
X59360973Y-28393502D01*
X59345551Y-28347233D01*
X59313595Y-28310387D01*
X59269971Y-28288575D01*
X59221321Y-28285118D01*
X59197427Y-28290550D01*
X59045241Y-28341278D01*
X58809321Y-28341278D01*
X58739571Y-28306403D01*
X58711116Y-28277949D01*
X58676241Y-28208198D01*
X58676241Y-28152929D01*
X58711115Y-28083180D01*
X58739572Y-28054724D01*
X58823439Y-28012790D01*
X59038701Y-27958975D01*
X59040500Y-27958331D01*
X59041400Y-27958268D01*
X59051539Y-27954388D01*
X59061777Y-27950730D01*
X59062502Y-27950192D01*
X59064286Y-27949510D01*
X59178571Y-27892367D01*
X59189069Y-27885758D01*
X59192115Y-27884497D01*
X59195543Y-27881683D01*
X59199309Y-27879313D01*
X59201475Y-27876815D01*
X59211057Y-27868952D01*
X59268200Y-27811810D01*
X59276069Y-27802221D01*
X59278561Y-27800060D01*
X59280926Y-27796302D01*
X59283745Y-27792868D01*
X59285008Y-27789817D01*
X59291615Y-27779323D01*
X59348758Y-27665038D01*
X59357516Y-27642152D01*
X59357834Y-27637670D01*
X59359553Y-27633522D01*
X59361955Y-27609136D01*
X59361955Y-27494850D01*
X59359553Y-27470464D01*
X59357834Y-27466315D01*
X59357516Y-27461834D01*
X59348759Y-27438949D01*
X59291615Y-27324662D01*
X59285008Y-27314167D01*
X59283745Y-27311117D01*
X59280926Y-27307682D01*
X59278561Y-27303925D01*
X59276069Y-27301763D01*
X59268200Y-27292175D01*
X59211057Y-27235033D01*
X59201475Y-27227169D01*
X59199309Y-27224672D01*
X59195543Y-27222301D01*
X59192115Y-27219488D01*
X59189069Y-27218226D01*
X59178571Y-27211618D01*
X59064286Y-27154475D01*
X59041400Y-27145717D01*
X59036918Y-27145398D01*
X59032770Y-27143680D01*
X59008384Y-27141278D01*
X58722669Y-27141278D01*
X58710325Y-27142493D01*
X58707034Y-27142260D01*
X58702704Y-27143244D01*
X58698283Y-27143680D01*
X58695233Y-27144943D01*
X58683140Y-27147693D01*
X58511712Y-27204836D01*
X58489337Y-27214826D01*
X58452492Y-27246781D01*
X58430680Y-27290406D01*
X58427223Y-27339056D01*
X58442646Y-27385325D01*
X58474601Y-27422170D01*
X58518226Y-27443982D01*
X58566876Y-27447439D01*
X58590770Y-27442006D01*
X58742953Y-27391278D01*
X58978876Y-27391278D01*
X59048624Y-27426152D01*
X59077080Y-27454609D01*
X59111955Y-27524358D01*
X59111955Y-27579627D01*
X59077080Y-27649375D01*
X59048624Y-27677832D01*
X58964756Y-27719766D01*
X58749495Y-27773582D01*
X58747695Y-27774225D01*
X58746796Y-27774289D01*
X58736649Y-27778171D01*
X58726420Y-27781827D01*
X58725695Y-27782363D01*
X58723910Y-27783047D01*
X58609625Y-27840190D01*
X58599130Y-27846796D01*
X58596080Y-27848060D01*
X58592645Y-27850878D01*
X58588888Y-27853244D01*
X58586726Y-27855735D01*
X58577138Y-27863605D01*
X58519996Y-27920748D01*
X58512132Y-27930329D01*
X58509635Y-27932496D01*
X58507264Y-27936261D01*
X58504451Y-27939690D01*
X58503189Y-27942735D01*
X58496581Y-27953234D01*
X58439438Y-28067519D01*
X58430680Y-28090405D01*
X58430361Y-28094886D01*
X58428643Y-28099035D01*
X58426241Y-28123421D01*
X58161955Y-28123421D01*
X58161955Y-27266278D01*
X58159553Y-27241892D01*
X58140889Y-27196832D01*
X58106401Y-27162344D01*
X58061341Y-27143680D01*
X58036955Y-27141278D01*
X57751241Y-27141278D01*
X57738897Y-27142493D01*
X57735607Y-27142260D01*
X57731277Y-27143244D01*
X57726855Y-27143680D01*
X57723804Y-27144943D01*
X57711712Y-27147693D01*
X57540284Y-27204836D01*
X57517909Y-27214826D01*
X57514516Y-27217768D01*
X57510365Y-27219488D01*
X57491423Y-27235033D01*
X57377138Y-27349319D01*
X57369269Y-27358907D01*
X57366778Y-27361068D01*
X57364413Y-27364824D01*
X57361593Y-27368261D01*
X57360329Y-27371312D01*
X57353724Y-27381805D01*
X57296581Y-27496091D01*
X57295898Y-27497874D01*
X57295361Y-27498600D01*
X57291702Y-27508837D01*
X57287823Y-27518977D01*
X57287759Y-27519876D01*
X57287116Y-27521676D01*
X57229973Y-27750247D01*
X57229347Y-27754476D01*
X57228643Y-27756178D01*
X57227738Y-27765357D01*
X57226389Y-27774487D01*
X57226660Y-27776309D01*
X57226241Y-27780564D01*
X56104812Y-27780564D01*
X56104392Y-27776309D01*
X56104664Y-27774488D01*
X56103314Y-27765359D01*
X56102410Y-27756178D01*
X56101705Y-27754476D01*
X56101080Y-27750247D01*
X56043937Y-27521676D01*
X56043293Y-27519876D01*
X56043230Y-27518977D01*
X56039343Y-27508819D01*
X56035692Y-27498601D01*
X56035156Y-27497878D01*
X56034473Y-27496092D01*
X55977329Y-27381805D01*
X55970723Y-27371312D01*
X55969460Y-27368261D01*
X55966639Y-27364824D01*
X55964275Y-27361068D01*
X55961783Y-27358907D01*
X55953915Y-27349319D01*
X55839630Y-27235033D01*
X55820688Y-27219488D01*
X55816536Y-27217768D01*
X55813144Y-27214826D01*
X55790769Y-27204836D01*
X55619340Y-27147693D01*
X55607249Y-27144943D01*
X55604198Y-27143680D01*
X55599775Y-27143244D01*
X55595446Y-27142260D01*
X55592155Y-27142493D01*
X55579812Y-27141278D01*
X55465526Y-27141278D01*
X55453182Y-27142493D01*
X55449891Y-27142260D01*
X55445561Y-27143244D01*
X55441140Y-27143680D01*
X55438090Y-27144943D01*
X55425997Y-27147693D01*
X55254569Y-27204836D01*
X55232194Y-27214826D01*
X55228800Y-27217769D01*
X55224651Y-27219488D01*
X55205709Y-27235033D01*
X55148567Y-27292176D01*
X55133022Y-27311118D01*
X55114357Y-27356177D01*
X54850230Y-27356177D01*
X54834472Y-27324662D01*
X54827865Y-27314167D01*
X54826602Y-27311117D01*
X54823783Y-27307682D01*
X54821418Y-27303925D01*
X54818926Y-27301763D01*
X54811057Y-27292175D01*
X54753914Y-27235033D01*
X54744332Y-27227169D01*
X54742166Y-27224672D01*
X54738400Y-27222301D01*
X54734972Y-27219488D01*
X54731926Y-27218226D01*
X54721428Y-27211618D01*
X54607143Y-27154475D01*
X54584257Y-27145717D01*
X54579775Y-27145398D01*
X54575627Y-27143680D01*
X54551241Y-27141278D01*
X54265526Y-27141278D01*
X54253182Y-27142493D01*
X54249891Y-27142260D01*
X54245561Y-27143244D01*
X54241140Y-27143680D01*
X54238090Y-27144943D01*
X54225997Y-27147693D01*
X54054569Y-27204836D01*
X54032194Y-27214826D01*
X53995349Y-27246781D01*
X53973537Y-27290406D01*
X53970080Y-27339056D01*
X53985503Y-27385325D01*
X54017458Y-27422170D01*
X54061083Y-27443982D01*
X54109733Y-27447439D01*
X54133627Y-27442006D01*
X54285810Y-27391278D01*
X54521733Y-27391278D01*
X54591481Y-27426152D01*
X54619937Y-27454609D01*
X54654812Y-27524358D01*
X54654812Y-27579627D01*
X54619937Y-27649375D01*
X54591481Y-27677832D01*
X54507613Y-27719766D01*
X54292352Y-27773582D01*
X54290552Y-27774225D01*
X54289653Y-27774289D01*
X54279506Y-27778171D01*
X54269277Y-27781827D01*
X54268552Y-27782363D01*
X54266767Y-27783047D01*
X54152482Y-27840190D01*
X54141987Y-27846796D01*
X54138937Y-27848060D01*
X54135502Y-27850878D01*
X54131745Y-27853244D01*
X54129583Y-27855735D01*
X54119995Y-27863605D01*
X54062853Y-27920748D01*
X54054989Y-27930329D01*
X54052492Y-27932496D01*
X54050121Y-27936261D01*
X54047308Y-27939690D01*
X54046046Y-27942735D01*
X54039438Y-27953234D01*
X53982295Y-28067519D01*
X53973537Y-28090405D01*
X53973218Y-28094886D01*
X53971500Y-28099035D01*
X53969098Y-28123421D01*
X53835765Y-28123421D01*
X53835765Y-25334346D01*
X55283383Y-25334346D01*
X55283383Y-26534346D01*
X55285785Y-26558732D01*
X55304449Y-26603792D01*
X55338937Y-26638280D01*
X55383997Y-26656944D01*
X55432769Y-26656944D01*
X55477829Y-26638280D01*
X55512317Y-26603792D01*
X55530981Y-26558732D01*
X55533383Y-26534346D01*
X55533383Y-26191489D01*
X55797669Y-26191489D01*
X55797669Y-26305775D01*
X55800071Y-26330161D01*
X55801789Y-26334309D01*
X55802108Y-26338791D01*
X55810866Y-26361677D01*
X55868009Y-26475963D01*
X55874616Y-26486459D01*
X55875879Y-26489507D01*
X55878695Y-26492938D01*
X55881063Y-26496700D01*
X55883557Y-26498863D01*
X55891424Y-26508449D01*
X55948566Y-26565592D01*
X55958151Y-26573458D01*
X55960316Y-26575954D01*
X55964077Y-26578321D01*
X55967508Y-26581137D01*
X55970554Y-26582399D01*
X55981054Y-26589008D01*
X56095338Y-26646149D01*
X56118224Y-26654907D01*
X56122704Y-26655225D01*
X56126854Y-26656944D01*
X56151240Y-26659346D01*
X56436955Y-26659346D01*
X56449298Y-26658130D01*
X56452589Y-26658364D01*
X56456919Y-26657379D01*
X56461341Y-26656944D01*
X56464389Y-26655681D01*
X56476483Y-26652932D01*
X56647911Y-26595789D01*
X56670286Y-26585799D01*
X56707132Y-26553844D01*
X56728944Y-26510220D01*
X56732401Y-26461570D01*
X56716979Y-26415301D01*
X56685023Y-26378455D01*
X56641399Y-26356643D01*
X56592749Y-26353186D01*
X56568855Y-26358618D01*
X56416669Y-26409346D01*
X56180749Y-26409346D01*
X56110999Y-26374471D01*
X56082544Y-26346017D01*
X56047669Y-26276266D01*
X56047669Y-26220997D01*
X56082543Y-26151248D01*
X56111000Y-26122792D01*
X56194867Y-26080858D01*
X56410129Y-26027043D01*
X56411928Y-26026399D01*
X56412828Y-26026336D01*
X56422967Y-26022456D01*
X56433205Y-26018798D01*
X56433930Y-26018260D01*
X56435714Y-26017578D01*
X56549999Y-25960435D01*
X56560497Y-25953826D01*
X56563543Y-25952565D01*
X56566971Y-25949751D01*
X56570737Y-25947381D01*
X56572903Y-25944883D01*
X56582485Y-25937020D01*
X56639628Y-25879878D01*
X56647497Y-25870289D01*
X56649989Y-25868128D01*
X56652354Y-25864370D01*
X56655173Y-25860936D01*
X56656436Y-25857885D01*
X56663043Y-25847391D01*
X56719566Y-25734346D01*
X56940526Y-25734346D01*
X56940526Y-26134346D01*
X56940945Y-26138600D01*
X56940674Y-26140422D01*
X56942023Y-26149550D01*
X56942928Y-26158732D01*
X56943632Y-26160433D01*
X56944258Y-26164663D01*
X57001401Y-26393235D01*
X57009646Y-26416311D01*
X57015180Y-26423780D01*
X57018736Y-26432364D01*
X57034281Y-26451306D01*
X57148567Y-26565592D01*
X57158150Y-26573457D01*
X57160316Y-26575954D01*
X57164077Y-26578321D01*
X57167509Y-26581138D01*
X57170557Y-26582400D01*
X57181054Y-26589008D01*
X57295338Y-26646149D01*
X57318224Y-26654907D01*
X57322704Y-26655225D01*
X57326854Y-26656944D01*
X57351240Y-26659346D01*
X57579812Y-26659346D01*
X57604198Y-26656944D01*
X57608347Y-26655225D01*
X57612827Y-26654907D01*
X57635713Y-26646150D01*
X57749999Y-26589008D01*
X57760496Y-26582399D01*
X57763545Y-26581137D01*
X57766977Y-26578319D01*
X57770736Y-26575954D01*
X57772897Y-26573461D01*
X57782487Y-26565592D01*
X57896772Y-26451306D01*
X57912317Y-26432364D01*
X57915873Y-26423776D01*
X57921406Y-26416310D01*
X57929651Y-26393235D01*
X57986794Y-26164663D01*
X57987419Y-26160433D01*
X57988124Y-26158732D01*
X57989028Y-26149550D01*
X57990378Y-26140422D01*
X57990106Y-26138600D01*
X57990526Y-26134346D01*
X57990526Y-25734346D01*
X57990106Y-25730091D01*
X57990378Y-25728270D01*
X57989028Y-25719141D01*
X57988124Y-25709960D01*
X57987419Y-25708258D01*
X57986794Y-25704029D01*
X57929651Y-25475458D01*
X57921406Y-25452383D01*
X57915873Y-25444916D01*
X57912317Y-25436329D01*
X57896772Y-25417387D01*
X57813732Y-25334346D01*
X58254812Y-25334346D01*
X58254812Y-26534346D01*
X58257214Y-26558732D01*
X58275878Y-26603792D01*
X58310366Y-26638280D01*
X58355426Y-26656944D01*
X58404198Y-26656944D01*
X58449258Y-26638280D01*
X58483746Y-26603792D01*
X58502410Y-26558732D01*
X58504812Y-26534346D01*
X58504812Y-25897792D01*
X58666539Y-26244350D01*
X58671828Y-26253279D01*
X58672929Y-26256305D01*
X58674888Y-26258445D01*
X58679028Y-26265432D01*
X58693036Y-26278260D01*
X58705869Y-26292273D01*
X58710901Y-26294621D01*
X58714997Y-26298372D01*
X58732848Y-26304863D01*
X58750065Y-26312898D01*
X58755613Y-26313141D01*
X58760833Y-26315040D01*
X58779812Y-26314205D01*
X58798791Y-26315040D01*
X58804010Y-26313141D01*
X58809559Y-26312898D01*
X58826772Y-26304864D01*
X58844628Y-26298372D01*
X58848724Y-26294620D01*
X58853755Y-26292273D01*
X58866585Y-26278262D01*
X58880596Y-26265432D01*
X58884735Y-26258445D01*
X58886695Y-26256305D01*
X58887795Y-26253279D01*
X58893085Y-26244350D01*
X59054812Y-25897791D01*
X59054812Y-26534346D01*
X59057214Y-26558732D01*
X59075878Y-26603792D01*
X59110366Y-26638280D01*
X59155426Y-26656944D01*
X59204198Y-26656944D01*
X59249258Y-26638280D01*
X59283746Y-26603792D01*
X59302410Y-26558732D01*
X59304812Y-26534346D01*
X59304812Y-25334346D01*
X59303233Y-25318318D01*
X59303363Y-25315367D01*
X59302786Y-25313781D01*
X59302410Y-25309960D01*
X59294110Y-25289923D01*
X59286695Y-25269530D01*
X59284812Y-25267474D01*
X59283746Y-25264900D01*
X59268408Y-25249562D01*
X59253755Y-25233562D01*
X59251229Y-25232383D01*
X59249258Y-25230412D01*
X59229219Y-25222111D01*
X59209559Y-25212937D01*
X59206772Y-25212814D01*
X59204198Y-25211748D01*
X59182512Y-25211748D01*
X59160833Y-25210795D01*
X59158212Y-25211748D01*
X59155426Y-25211748D01*
X59135385Y-25220048D01*
X59114997Y-25227463D01*
X59112941Y-25229345D01*
X59110366Y-25230412D01*
X59095023Y-25245754D01*
X59079028Y-25260403D01*
X59077070Y-25263707D01*
X59075878Y-25264900D01*
X59074748Y-25267627D01*
X59066539Y-25281485D01*
X58779811Y-25895900D01*
X58493085Y-25281485D01*
X58484875Y-25267627D01*
X58483746Y-25264900D01*
X58482553Y-25263707D01*
X58480596Y-25260403D01*
X58464595Y-25245749D01*
X58449258Y-25230412D01*
X58446683Y-25229345D01*
X58444628Y-25227463D01*
X58424234Y-25220047D01*
X58404198Y-25211748D01*
X58401412Y-25211748D01*
X58398791Y-25210795D01*
X58377112Y-25211748D01*
X58355426Y-25211748D01*
X58352851Y-25212814D01*
X58350065Y-25212937D01*
X58330404Y-25222111D01*
X58310366Y-25230412D01*
X58308394Y-25232383D01*
X58305869Y-25233562D01*
X58291215Y-25249562D01*
X58275878Y-25264900D01*
X58274811Y-25267474D01*
X58272929Y-25269530D01*
X58265513Y-25289923D01*
X58257214Y-25309960D01*
X58256837Y-25313781D01*
X58256261Y-25315367D01*
X58256390Y-25318318D01*
X58254812Y-25334346D01*
X57813732Y-25334346D01*
X57782487Y-25303101D01*
X57772898Y-25295231D01*
X57770737Y-25292740D01*
X57766979Y-25290374D01*
X57763545Y-25287556D01*
X57760494Y-25286292D01*
X57750000Y-25279686D01*
X57635714Y-25222543D01*
X57612828Y-25213785D01*
X57608346Y-25213466D01*
X57604198Y-25211748D01*
X57579812Y-25209346D01*
X57351240Y-25209346D01*
X57326854Y-25211748D01*
X57322705Y-25213466D01*
X57318224Y-25213785D01*
X57295338Y-25222543D01*
X57181053Y-25279686D01*
X57170560Y-25286290D01*
X57167509Y-25287555D01*
X57164073Y-25290374D01*
X57160316Y-25292740D01*
X57158153Y-25295232D01*
X57148567Y-25303101D01*
X57034281Y-25417387D01*
X57018736Y-25436329D01*
X57015180Y-25444912D01*
X57009646Y-25452382D01*
X57001401Y-25475458D01*
X56944258Y-25704029D01*
X56943632Y-25708258D01*
X56942928Y-25709960D01*
X56942023Y-25719139D01*
X56940674Y-25728269D01*
X56940945Y-25730091D01*
X56940526Y-25734346D01*
X56719566Y-25734346D01*
X56720186Y-25733106D01*
X56728944Y-25710220D01*
X56729262Y-25705738D01*
X56730981Y-25701590D01*
X56733383Y-25677204D01*
X56733383Y-25562918D01*
X56730981Y-25538532D01*
X56729262Y-25534383D01*
X56728944Y-25529902D01*
X56720187Y-25507017D01*
X56663043Y-25392730D01*
X56656436Y-25382235D01*
X56655173Y-25379185D01*
X56652354Y-25375750D01*
X56649989Y-25371993D01*
X56647497Y-25369831D01*
X56639628Y-25360243D01*
X56582485Y-25303101D01*
X56572903Y-25295237D01*
X56570737Y-25292740D01*
X56566971Y-25290369D01*
X56563543Y-25287556D01*
X56560497Y-25286294D01*
X56549999Y-25279686D01*
X56435714Y-25222543D01*
X56412828Y-25213785D01*
X56408346Y-25213466D01*
X56404198Y-25211748D01*
X56379812Y-25209346D01*
X56094097Y-25209346D01*
X56081753Y-25210561D01*
X56078462Y-25210328D01*
X56074132Y-25211312D01*
X56069711Y-25211748D01*
X56066661Y-25213011D01*
X56054568Y-25215761D01*
X55883140Y-25272904D01*
X55860765Y-25282894D01*
X55823920Y-25314849D01*
X55802108Y-25358474D01*
X55798651Y-25407124D01*
X55814074Y-25453393D01*
X55846029Y-25490238D01*
X55889654Y-25512050D01*
X55938304Y-25515507D01*
X55962198Y-25510074D01*
X56114381Y-25459346D01*
X56350304Y-25459346D01*
X56420052Y-25494220D01*
X56448508Y-25522677D01*
X56483383Y-25592426D01*
X56483383Y-25647695D01*
X56448508Y-25717443D01*
X56420052Y-25745900D01*
X56336184Y-25787834D01*
X56120923Y-25841650D01*
X56119123Y-25842293D01*
X56118224Y-25842357D01*
X56108077Y-25846239D01*
X56097848Y-25849895D01*
X56097123Y-25850431D01*
X56095338Y-25851115D01*
X55981053Y-25908258D01*
X55970558Y-25914864D01*
X55967508Y-25916128D01*
X55964073Y-25918946D01*
X55960316Y-25921312D01*
X55958154Y-25923803D01*
X55948566Y-25931673D01*
X55891424Y-25988816D01*
X55883560Y-25998397D01*
X55881063Y-26000564D01*
X55878692Y-26004329D01*
X55875879Y-26007758D01*
X55874617Y-26010803D01*
X55868009Y-26021302D01*
X55810866Y-26135587D01*
X55802108Y-26158473D01*
X55801789Y-26162954D01*
X55800071Y-26167103D01*
X55797669Y-26191489D01*
X55533383Y-26191489D01*
X55533383Y-25334346D01*
X55530981Y-25309960D01*
X55512317Y-25264900D01*
X55477829Y-25230412D01*
X55432769Y-25211748D01*
X55383997Y-25211748D01*
X55338937Y-25230412D01*
X55304449Y-25264900D01*
X55285785Y-25309960D01*
X55283383Y-25334346D01*
X53835765Y-25334346D01*
X53835765Y-25076013D01*
X59495288Y-25076013D01*
X59495288Y-32588475D01*
G37*
G36*
X40257669Y-40775142D02*
G01*
X40117241Y-40775142D01*
X39993048Y-40733745D01*
X39913972Y-40654669D01*
X39872038Y-40570800D01*
X39821955Y-40370467D01*
X39821955Y-40229817D01*
X39872038Y-40029484D01*
X39913972Y-39945615D01*
X39993050Y-39866537D01*
X40117238Y-39825142D01*
X40257669Y-39825142D01*
X40257669Y-40775142D01*
G37*
G36*
X39089500Y-36386590D02*
G01*
X39114813Y-36437215D01*
X39114813Y-36483802D01*
X38801429Y-36421126D01*
X38818697Y-36386589D01*
X38869321Y-36361278D01*
X39038877Y-36361278D01*
X39089500Y-36386590D01*
G37*
G36*
X41546642Y-36729447D02*
G01*
X41571955Y-36780072D01*
X41571955Y-36835342D01*
X41546642Y-36885966D01*
X41496018Y-36911278D01*
X41269321Y-36911278D01*
X41250527Y-36901881D01*
X41250527Y-36704136D01*
X41496018Y-36704136D01*
X41546642Y-36729447D01*
G37*
G36*
X42714812Y-36911278D02*
G01*
X42412178Y-36911278D01*
X42342428Y-36876403D01*
X42313973Y-36847949D01*
X42279098Y-36778198D01*
X42279098Y-36665786D01*
X42313972Y-36596037D01*
X42335907Y-36574103D01*
X42460096Y-36532707D01*
X42714812Y-36532707D01*
X42714812Y-36911278D01*
G37*
G36*
X42714812Y-36282707D02*
G01*
X42469320Y-36282707D01*
X42399572Y-36247832D01*
X42371115Y-36219376D01*
X42336241Y-36149627D01*
X42336241Y-36094358D01*
X42371116Y-36024607D01*
X42399572Y-35996152D01*
X42469320Y-35961278D01*
X42714812Y-35961278D01*
X42714812Y-36282707D01*
G37*
G36*
X43155288Y-41158475D02*
G01*
X36697108Y-41158475D01*
X36697108Y-40214428D01*
X39571955Y-40214428D01*
X39571955Y-40385857D01*
X39572374Y-40390111D01*
X39572103Y-40391934D01*
X39573452Y-40401063D01*
X39574357Y-40410243D01*
X39575061Y-40411944D01*
X39575687Y-40416174D01*
X39632830Y-40644745D01*
X39633473Y-40646544D01*
X39633537Y-40647444D01*
X39637416Y-40657583D01*
X39641075Y-40667821D01*
X39641612Y-40668546D01*
X39642295Y-40670330D01*
X39699438Y-40784616D01*
X39706043Y-40795108D01*
X39707307Y-40798160D01*
X39710127Y-40801596D01*
X39712492Y-40805353D01*
X39714983Y-40807513D01*
X39722852Y-40817102D01*
X39837137Y-40931388D01*
X39856079Y-40946933D01*
X39860230Y-40948652D01*
X39863623Y-40951595D01*
X39885998Y-40961586D01*
X40057427Y-41018728D01*
X40069519Y-41021477D01*
X40072569Y-41022740D01*
X40076991Y-41023175D01*
X40081322Y-41024160D01*
X40084611Y-41023926D01*
X40096955Y-41025142D01*
X40382669Y-41025142D01*
X40407055Y-41022740D01*
X40452115Y-41004076D01*
X40486603Y-40969588D01*
X40505267Y-40924528D01*
X40507669Y-40900142D01*
X40507669Y-39700142D01*
X40829098Y-39700142D01*
X40829098Y-40900142D01*
X40829715Y-40906412D01*
X40829403Y-40908872D01*
X40830271Y-40912056D01*
X40831500Y-40924528D01*
X40837861Y-40939885D01*
X40842236Y-40955927D01*
X40847115Y-40962227D01*
X40850164Y-40969588D01*
X40861919Y-40981343D01*
X40872099Y-40994488D01*
X40879017Y-40998441D01*
X40884652Y-41004076D01*
X40900010Y-41010437D01*
X40914445Y-41018686D01*
X40922351Y-41019691D01*
X40929712Y-41022740D01*
X40946333Y-41022740D01*
X40962828Y-41024837D01*
X40970517Y-41022740D01*
X40978484Y-41022740D01*
X40993841Y-41016378D01*
X41009883Y-41012004D01*
X41016183Y-41007124D01*
X41023544Y-41004076D01*
X41035299Y-40992320D01*
X41048444Y-40982141D01*
X41055697Y-40971922D01*
X41058032Y-40969588D01*
X41058981Y-40967296D01*
X41062628Y-40962159D01*
X41514812Y-40170837D01*
X41514812Y-40900142D01*
X41517214Y-40924528D01*
X41535878Y-40969588D01*
X41570366Y-41004076D01*
X41615426Y-41022740D01*
X41664198Y-41022740D01*
X41709258Y-41004076D01*
X41743746Y-40969588D01*
X41762410Y-40924528D01*
X41764812Y-40900142D01*
X41764812Y-40385857D01*
X42029098Y-40385857D01*
X42029098Y-40785857D01*
X42031500Y-40810243D01*
X42050164Y-40855303D01*
X42050169Y-40855308D01*
X42065710Y-40874245D01*
X42122852Y-40931388D01*
X42141794Y-40946933D01*
X42145945Y-40948652D01*
X42149338Y-40951595D01*
X42171713Y-40961586D01*
X42343141Y-41018728D01*
X42355234Y-41021477D01*
X42358283Y-41022740D01*
X42362704Y-41023175D01*
X42367035Y-41024160D01*
X42370325Y-41023926D01*
X42382669Y-41025142D01*
X42496955Y-41025142D01*
X42509298Y-41023926D01*
X42512589Y-41024160D01*
X42516919Y-41023175D01*
X42521341Y-41022740D01*
X42524389Y-41021477D01*
X42536483Y-41018728D01*
X42707912Y-40961586D01*
X42730287Y-40951595D01*
X42733679Y-40948652D01*
X42737831Y-40946933D01*
X42756773Y-40931388D01*
X42871058Y-40817102D01*
X42878926Y-40807513D01*
X42881418Y-40805353D01*
X42883782Y-40801596D01*
X42886603Y-40798160D01*
X42887866Y-40795108D01*
X42894472Y-40784616D01*
X42951616Y-40670329D01*
X42952299Y-40668542D01*
X42952835Y-40667820D01*
X42956486Y-40657601D01*
X42960373Y-40647444D01*
X42960436Y-40646544D01*
X42961080Y-40644745D01*
X43018223Y-40416174D01*
X43018848Y-40411944D01*
X43019553Y-40410243D01*
X43020457Y-40401061D01*
X43021807Y-40391933D01*
X43021535Y-40390111D01*
X43021955Y-40385857D01*
X43021955Y-40214428D01*
X43021535Y-40210173D01*
X43021807Y-40208352D01*
X43020457Y-40199223D01*
X43019553Y-40190042D01*
X43018848Y-40188340D01*
X43018223Y-40184111D01*
X42961080Y-39955540D01*
X42960436Y-39953740D01*
X42960373Y-39952841D01*
X42956486Y-39942683D01*
X42952835Y-39932465D01*
X42952299Y-39931742D01*
X42951616Y-39929956D01*
X42894472Y-39815669D01*
X42887866Y-39805176D01*
X42886603Y-39802125D01*
X42883782Y-39798688D01*
X42881418Y-39794932D01*
X42878926Y-39792771D01*
X42871058Y-39783183D01*
X42756773Y-39668897D01*
X42737831Y-39653352D01*
X42733679Y-39651632D01*
X42730287Y-39648690D01*
X42707912Y-39638700D01*
X42536483Y-39581557D01*
X42524392Y-39578807D01*
X42521341Y-39577544D01*
X42516918Y-39577108D01*
X42512589Y-39576124D01*
X42509298Y-39576357D01*
X42496955Y-39575142D01*
X42325527Y-39575142D01*
X42301141Y-39577544D01*
X42296992Y-39579262D01*
X42292511Y-39579581D01*
X42269626Y-39588338D01*
X42155339Y-39645482D01*
X42134602Y-39658536D01*
X42102646Y-39695381D01*
X42087222Y-39741651D01*
X42090680Y-39790301D01*
X42112492Y-39833924D01*
X42149337Y-39865880D01*
X42195607Y-39881304D01*
X42244257Y-39877846D01*
X42267143Y-39869088D01*
X42355035Y-39825142D01*
X42476672Y-39825142D01*
X42600860Y-39866538D01*
X42679937Y-39945616D01*
X42721871Y-40029484D01*
X42771955Y-40229817D01*
X42771955Y-40370467D01*
X42721871Y-40570800D01*
X42679937Y-40654668D01*
X42600861Y-40733745D01*
X42476669Y-40775142D01*
X42402952Y-40775142D01*
X42279098Y-40733857D01*
X42279098Y-40510857D01*
X42382669Y-40510857D01*
X42407055Y-40508455D01*
X42452115Y-40489791D01*
X42486603Y-40455303D01*
X42505267Y-40410243D01*
X42505267Y-40361471D01*
X42486603Y-40316411D01*
X42452115Y-40281923D01*
X42407055Y-40263259D01*
X42382669Y-40260857D01*
X42154098Y-40260857D01*
X42129712Y-40263259D01*
X42084652Y-40281923D01*
X42050164Y-40316411D01*
X42031500Y-40361471D01*
X42029098Y-40385857D01*
X41764812Y-40385857D01*
X41764812Y-39700142D01*
X41764194Y-39693871D01*
X41764507Y-39691412D01*
X41763638Y-39688227D01*
X41762410Y-39675756D01*
X41756048Y-39660398D01*
X41751674Y-39644357D01*
X41746794Y-39638056D01*
X41743746Y-39630696D01*
X41731990Y-39618940D01*
X41721811Y-39605796D01*
X41714892Y-39601842D01*
X41709258Y-39596208D01*
X41693899Y-39589846D01*
X41679465Y-39581598D01*
X41671558Y-39580592D01*
X41664198Y-39577544D01*
X41647577Y-39577544D01*
X41631082Y-39575447D01*
X41623393Y-39577544D01*
X41615426Y-39577544D01*
X41600068Y-39583905D01*
X41584027Y-39588280D01*
X41577727Y-39593158D01*
X41570366Y-39596208D01*
X41558607Y-39607966D01*
X41545466Y-39618144D01*
X41538213Y-39628360D01*
X41535878Y-39630696D01*
X41534928Y-39632987D01*
X41531282Y-39638125D01*
X41079098Y-40429447D01*
X41079098Y-39700142D01*
X41076696Y-39675756D01*
X41058032Y-39630696D01*
X41023544Y-39596208D01*
X40978484Y-39577544D01*
X40929712Y-39577544D01*
X40884652Y-39596208D01*
X40850164Y-39630696D01*
X40831500Y-39675756D01*
X40829098Y-39700142D01*
X40507669Y-39700142D01*
X40505267Y-39675756D01*
X40486603Y-39630696D01*
X40452115Y-39596208D01*
X40407055Y-39577544D01*
X40382669Y-39575142D01*
X40096955Y-39575142D01*
X40084611Y-39576357D01*
X40081321Y-39576124D01*
X40076991Y-39577108D01*
X40072569Y-39577544D01*
X40069518Y-39578807D01*
X40057426Y-39581557D01*
X39885998Y-39638700D01*
X39863623Y-39648690D01*
X39860230Y-39651632D01*
X39856079Y-39653352D01*
X39837137Y-39668897D01*
X39722852Y-39783183D01*
X39714983Y-39792771D01*
X39712492Y-39794932D01*
X39710127Y-39798688D01*
X39707307Y-39802125D01*
X39706043Y-39805176D01*
X39699438Y-39815669D01*
X39642295Y-39929955D01*
X39641612Y-39931738D01*
X39641075Y-39932464D01*
X39637416Y-39942701D01*
X39633537Y-39952841D01*
X39633473Y-39953740D01*
X39632830Y-39955540D01*
X39575687Y-40184111D01*
X39575061Y-40188340D01*
X39574357Y-40190042D01*
X39573452Y-40199221D01*
X39572103Y-40208351D01*
X39572374Y-40210173D01*
X39571955Y-40214428D01*
X36697108Y-40214428D01*
X36697108Y-38486682D01*
X41802929Y-38486682D01*
X41802929Y-38535454D01*
X41821593Y-38580514D01*
X41856081Y-38615002D01*
X41901141Y-38633666D01*
X41925527Y-38636068D01*
X42257669Y-38636068D01*
X42257669Y-38968210D01*
X42260071Y-38992596D01*
X42278735Y-39037656D01*
X42313223Y-39072144D01*
X42358283Y-39090808D01*
X42407055Y-39090808D01*
X42452115Y-39072144D01*
X42486603Y-39037656D01*
X42505267Y-38992596D01*
X42507669Y-38968210D01*
X42507669Y-38636068D01*
X42839812Y-38636068D01*
X42864198Y-38633666D01*
X42909258Y-38615002D01*
X42943746Y-38580514D01*
X42962410Y-38535454D01*
X42962410Y-38486682D01*
X42943746Y-38441622D01*
X42909258Y-38407134D01*
X42864198Y-38388470D01*
X42839812Y-38386068D01*
X42507669Y-38386068D01*
X42507669Y-38053925D01*
X42505267Y-38029539D01*
X42486603Y-37984479D01*
X42452115Y-37949991D01*
X42407055Y-37931327D01*
X42358283Y-37931327D01*
X42313223Y-37949991D01*
X42278735Y-37984479D01*
X42260071Y-38029539D01*
X42257669Y-38053925D01*
X42257669Y-38386068D01*
X41925527Y-38386068D01*
X41901141Y-38388470D01*
X41856081Y-38407134D01*
X41821593Y-38441622D01*
X41802929Y-38486682D01*
X36697108Y-38486682D01*
X36697108Y-36254547D01*
X36830441Y-36254547D01*
X36836381Y-36278320D01*
X37122096Y-37078320D01*
X37123099Y-37080445D01*
X37123754Y-37082701D01*
X37238039Y-37368416D01*
X37249326Y-37390166D01*
X37249869Y-37390722D01*
X37250166Y-37391439D01*
X37265711Y-37410381D01*
X37322853Y-37467524D01*
X37332442Y-37475393D01*
X37334604Y-37477886D01*
X37338362Y-37480251D01*
X37341795Y-37483069D01*
X37344843Y-37484331D01*
X37355341Y-37490940D01*
X37469627Y-37548082D01*
X37492513Y-37556839D01*
X37541162Y-37560296D01*
X37587433Y-37544873D01*
X37624278Y-37512916D01*
X37646089Y-37469293D01*
X37649546Y-37420643D01*
X37634122Y-37374373D01*
X37602166Y-37337528D01*
X37581429Y-37324474D01*
X37485286Y-37276403D01*
X37460630Y-37251748D01*
X37373441Y-37033773D01*
X37643246Y-36278320D01*
X37649186Y-36254546D01*
X37647065Y-36211892D01*
X37688644Y-36211892D01*
X37688644Y-36260664D01*
X37707308Y-36305724D01*
X37741796Y-36340212D01*
X37786856Y-36358876D01*
X37811242Y-36361278D01*
X37896020Y-36361278D01*
X37965768Y-36396152D01*
X37994224Y-36424609D01*
X38029099Y-36494358D01*
X38029099Y-37036278D01*
X38031501Y-37060664D01*
X38050165Y-37105724D01*
X38084653Y-37140212D01*
X38129713Y-37158876D01*
X38178485Y-37158876D01*
X38223545Y-37140212D01*
X38258033Y-37105724D01*
X38276697Y-37060664D01*
X38279099Y-37036278D01*
X38279099Y-36407707D01*
X38543385Y-36407707D01*
X38543385Y-36521993D01*
X38545787Y-36546379D01*
X38550473Y-36557693D01*
X38552850Y-36569707D01*
X38559714Y-36580003D01*
X38564451Y-36591439D01*
X38573112Y-36600100D01*
X38579905Y-36610289D01*
X38590186Y-36617174D01*
X38598939Y-36625927D01*
X38610253Y-36630613D01*
X38620429Y-36637428D01*
X38643871Y-36644566D01*
X39114813Y-36738754D01*
X39114813Y-36835342D01*
X39089500Y-36885966D01*
X39038876Y-36911278D01*
X38869322Y-36911278D01*
X38781428Y-36867332D01*
X38758542Y-36858575D01*
X38709892Y-36855118D01*
X38663622Y-36870541D01*
X38626777Y-36902498D01*
X38604966Y-36946121D01*
X38601509Y-36994771D01*
X38616932Y-37041041D01*
X38648889Y-37077886D01*
X38669626Y-37090940D01*
X38783912Y-37148082D01*
X38806798Y-37156839D01*
X38811277Y-37157157D01*
X38815427Y-37158876D01*
X38839813Y-37161278D01*
X39068385Y-37161278D01*
X39092771Y-37158876D01*
X39096919Y-37157157D01*
X39101401Y-37156839D01*
X39124286Y-37148082D01*
X39238571Y-37090940D01*
X39242649Y-37088372D01*
X39244574Y-37087731D01*
X39246970Y-37085652D01*
X39259308Y-37077886D01*
X39269579Y-37066043D01*
X39281419Y-37055775D01*
X39289183Y-37043441D01*
X39291265Y-37041041D01*
X39291907Y-37039113D01*
X39294473Y-37035038D01*
X39351617Y-36920751D01*
X39360374Y-36897866D01*
X39360692Y-36893384D01*
X39362411Y-36889236D01*
X39364813Y-36864850D01*
X39364813Y-36407707D01*
X39362411Y-36383321D01*
X39360692Y-36379172D01*
X39360374Y-36374691D01*
X39351617Y-36351806D01*
X39294473Y-36237519D01*
X39291908Y-36233445D01*
X39291266Y-36231517D01*
X39289182Y-36229114D01*
X39281419Y-36216782D01*
X39275781Y-36211892D01*
X39460072Y-36211892D01*
X39460072Y-36260664D01*
X39478736Y-36305724D01*
X39513224Y-36340212D01*
X39558284Y-36358876D01*
X39582670Y-36361278D01*
X39743384Y-36361278D01*
X39743384Y-36835342D01*
X39718071Y-36885966D01*
X39667447Y-36911278D01*
X39582670Y-36911278D01*
X39558284Y-36913680D01*
X39513224Y-36932344D01*
X39478736Y-36966832D01*
X39460072Y-37011892D01*
X39460072Y-37060664D01*
X39478736Y-37105724D01*
X39513224Y-37140212D01*
X39558284Y-37158876D01*
X39582670Y-37161278D01*
X39696956Y-37161278D01*
X39721342Y-37158876D01*
X39725490Y-37157157D01*
X39729972Y-37156839D01*
X39752857Y-37148082D01*
X39867142Y-37090940D01*
X39871220Y-37088372D01*
X39873145Y-37087731D01*
X39875541Y-37085652D01*
X39887879Y-37077886D01*
X39898150Y-37066043D01*
X39909990Y-37055775D01*
X39917754Y-37043441D01*
X39919836Y-37041041D01*
X39920478Y-37039113D01*
X39923044Y-37035038D01*
X39980188Y-36920751D01*
X39988945Y-36897866D01*
X39989263Y-36893384D01*
X39990982Y-36889236D01*
X39993384Y-36864850D01*
X39993384Y-36361278D01*
X40039813Y-36361278D01*
X40064199Y-36358876D01*
X40109259Y-36340212D01*
X40143747Y-36305724D01*
X40154098Y-36280732D01*
X40164450Y-36305724D01*
X40198938Y-36340212D01*
X40243998Y-36358876D01*
X40268384Y-36361278D01*
X40429098Y-36361278D01*
X40429098Y-36835342D01*
X40403785Y-36885966D01*
X40353161Y-36911278D01*
X40268384Y-36911278D01*
X40243998Y-36913680D01*
X40198938Y-36932344D01*
X40164450Y-36966832D01*
X40145786Y-37011892D01*
X40145786Y-37060664D01*
X40164450Y-37105724D01*
X40198938Y-37140212D01*
X40243998Y-37158876D01*
X40268384Y-37161278D01*
X40382670Y-37161278D01*
X40407056Y-37158876D01*
X40411204Y-37157157D01*
X40415686Y-37156839D01*
X40438571Y-37148082D01*
X40552856Y-37090940D01*
X40556934Y-37088372D01*
X40558859Y-37087731D01*
X40561255Y-37085652D01*
X40573593Y-37077886D01*
X40583864Y-37066043D01*
X40595704Y-37055775D01*
X40603468Y-37043441D01*
X40605550Y-37041041D01*
X40606192Y-37039113D01*
X40608758Y-37035038D01*
X40665902Y-36920751D01*
X40674659Y-36897866D01*
X40674977Y-36893384D01*
X40676696Y-36889236D01*
X40679098Y-36864850D01*
X40679098Y-36407707D01*
X41000527Y-36407707D01*
X41000527Y-37036278D01*
X41002929Y-37060664D01*
X41021593Y-37105724D01*
X41056081Y-37140212D01*
X41101141Y-37158876D01*
X41149913Y-37158876D01*
X41180314Y-37146283D01*
X41183910Y-37148081D01*
X41206796Y-37156839D01*
X41211276Y-37157157D01*
X41215426Y-37158876D01*
X41239812Y-37161278D01*
X41525527Y-37161278D01*
X41549913Y-37158876D01*
X41554061Y-37157157D01*
X41558543Y-37156839D01*
X41581428Y-37148082D01*
X41695713Y-37090940D01*
X41699791Y-37088372D01*
X41701716Y-37087731D01*
X41704112Y-37085652D01*
X41716450Y-37077886D01*
X41726721Y-37066043D01*
X41738561Y-37055775D01*
X41746325Y-37043441D01*
X41748407Y-37041041D01*
X41749049Y-37039113D01*
X41751615Y-37035038D01*
X41808759Y-36920751D01*
X41817516Y-36897866D01*
X41817834Y-36893384D01*
X41819553Y-36889236D01*
X41821955Y-36864850D01*
X41821955Y-36750564D01*
X41819553Y-36726178D01*
X41817834Y-36722029D01*
X41817516Y-36717548D01*
X41808759Y-36694663D01*
X41779566Y-36636278D01*
X42029098Y-36636278D01*
X42029098Y-36807707D01*
X42031500Y-36832093D01*
X42033218Y-36836241D01*
X42033537Y-36840723D01*
X42042295Y-36863609D01*
X42099438Y-36977895D01*
X42106045Y-36988391D01*
X42107308Y-36991439D01*
X42110124Y-36994870D01*
X42112492Y-36998632D01*
X42114986Y-37000795D01*
X42122853Y-37010381D01*
X42179995Y-37067524D01*
X42189580Y-37075390D01*
X42191745Y-37077886D01*
X42195506Y-37080253D01*
X42198937Y-37083069D01*
X42201983Y-37084331D01*
X42212483Y-37090940D01*
X42326767Y-37148081D01*
X42349653Y-37156839D01*
X42354133Y-37157157D01*
X42358283Y-37158876D01*
X42382669Y-37161278D01*
X42839812Y-37161278D01*
X42864198Y-37158876D01*
X42909258Y-37140212D01*
X42943746Y-37105724D01*
X42962410Y-37060664D01*
X42964812Y-37036278D01*
X42964812Y-35836278D01*
X42962410Y-35811892D01*
X42943746Y-35766832D01*
X42909258Y-35732344D01*
X42864198Y-35713680D01*
X42839812Y-35711278D01*
X42439812Y-35711278D01*
X42415426Y-35713680D01*
X42411277Y-35715398D01*
X42406796Y-35715717D01*
X42383910Y-35724475D01*
X42269625Y-35781618D01*
X42259130Y-35788224D01*
X42256080Y-35789488D01*
X42252645Y-35792306D01*
X42248888Y-35794672D01*
X42246726Y-35797163D01*
X42237138Y-35805033D01*
X42179996Y-35862176D01*
X42172129Y-35871761D01*
X42169635Y-35873925D01*
X42167267Y-35877686D01*
X42164451Y-35881118D01*
X42163188Y-35884165D01*
X42156581Y-35894662D01*
X42099438Y-36008948D01*
X42090680Y-36031834D01*
X42090361Y-36036315D01*
X42088643Y-36040464D01*
X42086241Y-36064850D01*
X42086241Y-36179136D01*
X42088643Y-36203522D01*
X42090361Y-36207670D01*
X42090680Y-36212152D01*
X42099438Y-36235038D01*
X42156581Y-36349323D01*
X42163189Y-36359821D01*
X42164451Y-36362867D01*
X42167264Y-36366295D01*
X42169635Y-36370061D01*
X42172132Y-36372227D01*
X42177585Y-36378871D01*
X42122853Y-36433605D01*
X42114989Y-36443186D01*
X42112492Y-36445353D01*
X42110121Y-36449118D01*
X42107308Y-36452547D01*
X42106046Y-36455592D01*
X42099438Y-36466091D01*
X42042295Y-36580376D01*
X42033537Y-36603262D01*
X42033218Y-36607743D01*
X42031500Y-36611892D01*
X42029098Y-36636278D01*
X41779566Y-36636278D01*
X41751615Y-36580376D01*
X41749049Y-36576300D01*
X41748407Y-36574373D01*
X41746325Y-36571972D01*
X41738561Y-36559639D01*
X41726721Y-36549370D01*
X41716450Y-36537528D01*
X41704112Y-36529761D01*
X41701716Y-36527683D01*
X41699791Y-36527041D01*
X41695713Y-36524474D01*
X41581428Y-36467332D01*
X41558543Y-36458575D01*
X41554061Y-36458256D01*
X41549913Y-36456538D01*
X41525527Y-36454136D01*
X41269320Y-36454136D01*
X41250527Y-36444739D01*
X41250527Y-36437215D01*
X41275839Y-36386589D01*
X41326463Y-36361278D01*
X41496019Y-36361278D01*
X41583910Y-36405224D01*
X41606796Y-36413982D01*
X41655445Y-36417440D01*
X41701716Y-36402016D01*
X41738561Y-36370060D01*
X41760373Y-36326438D01*
X41763831Y-36277788D01*
X41748408Y-36231517D01*
X41716452Y-36194672D01*
X41695714Y-36181618D01*
X41581429Y-36124475D01*
X41558543Y-36115717D01*
X41554061Y-36115398D01*
X41549913Y-36113680D01*
X41525527Y-36111278D01*
X41296955Y-36111278D01*
X41272569Y-36113680D01*
X41268420Y-36115398D01*
X41263939Y-36115717D01*
X41241054Y-36124474D01*
X41126767Y-36181618D01*
X41122688Y-36184185D01*
X41120764Y-36184827D01*
X41118367Y-36186905D01*
X41106030Y-36194672D01*
X41095760Y-36206513D01*
X41083919Y-36216783D01*
X41076152Y-36229120D01*
X41074074Y-36231517D01*
X41073432Y-36233441D01*
X41070865Y-36237520D01*
X41013723Y-36351806D01*
X41004966Y-36374692D01*
X41004647Y-36379171D01*
X41002929Y-36383321D01*
X41000527Y-36407707D01*
X40679098Y-36407707D01*
X40679098Y-36361278D01*
X40725527Y-36361278D01*
X40749913Y-36358876D01*
X40794973Y-36340212D01*
X40829461Y-36305724D01*
X40848125Y-36260664D01*
X40848125Y-36211892D01*
X40829461Y-36166832D01*
X40794973Y-36132344D01*
X40749913Y-36113680D01*
X40725527Y-36111278D01*
X40679098Y-36111278D01*
X40679098Y-35836278D01*
X40676696Y-35811892D01*
X40658032Y-35766832D01*
X40623544Y-35732344D01*
X40578484Y-35713680D01*
X40529712Y-35713680D01*
X40484652Y-35732344D01*
X40450164Y-35766832D01*
X40431500Y-35811892D01*
X40429098Y-35836278D01*
X40429098Y-36111278D01*
X40268384Y-36111278D01*
X40243998Y-36113680D01*
X40198938Y-36132344D01*
X40164450Y-36166832D01*
X40154098Y-36191823D01*
X40143747Y-36166832D01*
X40109259Y-36132344D01*
X40064199Y-36113680D01*
X40039813Y-36111278D01*
X39993384Y-36111278D01*
X39993384Y-35836278D01*
X39990982Y-35811892D01*
X39972318Y-35766832D01*
X39937830Y-35732344D01*
X39892770Y-35713680D01*
X39843998Y-35713680D01*
X39798938Y-35732344D01*
X39764450Y-35766832D01*
X39745786Y-35811892D01*
X39743384Y-35836278D01*
X39743384Y-36111278D01*
X39582670Y-36111278D01*
X39558284Y-36113680D01*
X39513224Y-36132344D01*
X39478736Y-36166832D01*
X39460072Y-36211892D01*
X39275781Y-36211892D01*
X39269582Y-36206516D01*
X39259310Y-36194672D01*
X39246970Y-36186904D01*
X39244574Y-36184826D01*
X39242648Y-36184184D01*
X39238572Y-36181618D01*
X39124287Y-36124475D01*
X39101401Y-36115717D01*
X39096919Y-36115398D01*
X39092771Y-36113680D01*
X39068385Y-36111278D01*
X38839813Y-36111278D01*
X38815427Y-36113680D01*
X38811278Y-36115398D01*
X38806797Y-36115717D01*
X38783912Y-36124474D01*
X38669625Y-36181618D01*
X38665546Y-36184185D01*
X38663622Y-36184827D01*
X38661225Y-36186905D01*
X38648888Y-36194672D01*
X38638618Y-36206513D01*
X38626777Y-36216783D01*
X38619010Y-36229120D01*
X38616932Y-36231517D01*
X38616290Y-36233441D01*
X38613723Y-36237520D01*
X38556581Y-36351806D01*
X38547824Y-36374692D01*
X38547505Y-36379171D01*
X38545787Y-36383321D01*
X38543385Y-36407707D01*
X38279099Y-36407707D01*
X38279099Y-36236278D01*
X38276697Y-36211892D01*
X38258033Y-36166832D01*
X38223545Y-36132344D01*
X38178485Y-36113680D01*
X38129713Y-36113680D01*
X38084653Y-36132344D01*
X38055491Y-36161505D01*
X37981430Y-36124475D01*
X37958544Y-36115717D01*
X37954062Y-36115398D01*
X37949914Y-36113680D01*
X37925528Y-36111278D01*
X37811242Y-36111278D01*
X37786856Y-36113680D01*
X37741796Y-36132344D01*
X37707308Y-36166832D01*
X37688644Y-36211892D01*
X37647065Y-36211892D01*
X37646764Y-36205834D01*
X37625885Y-36161756D01*
X37589728Y-36129024D01*
X37543797Y-36112620D01*
X37495085Y-36115041D01*
X37451006Y-36135921D01*
X37418274Y-36172078D01*
X37407810Y-36194236D01*
X37239813Y-36664625D01*
X37071817Y-36194236D01*
X37061353Y-36172078D01*
X37028621Y-36135921D01*
X36984542Y-36115042D01*
X36935830Y-36112620D01*
X36889899Y-36129024D01*
X36853742Y-36161756D01*
X36832863Y-36205835D01*
X36830441Y-36254547D01*
X36697108Y-36254547D01*
X36697108Y-35577945D01*
X43155288Y-35577945D01*
X43155288Y-41158475D01*
G37*
D12*
X17857292Y-30740809D02*
X17857292Y-29540809D01*
X17857292Y-29540809D02*
X17571578Y-29540809D01*
X17571578Y-29540809D02*
X17400149Y-29597952D01*
X17400149Y-29597952D02*
X17285864Y-29712238D01*
X17285864Y-29712238D02*
X17228721Y-29826524D01*
X17228721Y-29826524D02*
X17171578Y-30055095D01*
X17171578Y-30055095D02*
X17171578Y-30226524D01*
X17171578Y-30226524D02*
X17228721Y-30455095D01*
X17228721Y-30455095D02*
X17285864Y-30569381D01*
X17285864Y-30569381D02*
X17400149Y-30683667D01*
X17400149Y-30683667D02*
X17571578Y-30740809D01*
X17571578Y-30740809D02*
X17857292Y-30740809D01*
X16714435Y-30397952D02*
X16143007Y-30397952D01*
X16828721Y-30740809D02*
X16428721Y-29540809D01*
X16428721Y-29540809D02*
X16028721Y-30740809D01*
X15057293Y-30740809D02*
X15628721Y-30740809D01*
X15628721Y-30740809D02*
X15628721Y-29540809D01*
X14657292Y-30740809D02*
X14657292Y-29540809D01*
X12771577Y-30112238D02*
X12600149Y-30169381D01*
X12600149Y-30169381D02*
X12543006Y-30226524D01*
X12543006Y-30226524D02*
X12485863Y-30340809D01*
X12485863Y-30340809D02*
X12485863Y-30512238D01*
X12485863Y-30512238D02*
X12543006Y-30626524D01*
X12543006Y-30626524D02*
X12600149Y-30683667D01*
X12600149Y-30683667D02*
X12714434Y-30740809D01*
X12714434Y-30740809D02*
X13171577Y-30740809D01*
X13171577Y-30740809D02*
X13171577Y-29540809D01*
X13171577Y-29540809D02*
X12771577Y-29540809D01*
X12771577Y-29540809D02*
X12657292Y-29597952D01*
X12657292Y-29597952D02*
X12600149Y-29655095D01*
X12600149Y-29655095D02*
X12543006Y-29769381D01*
X12543006Y-29769381D02*
X12543006Y-29883667D01*
X12543006Y-29883667D02*
X12600149Y-29997952D01*
X12600149Y-29997952D02*
X12657292Y-30055095D01*
X12657292Y-30055095D02*
X12771577Y-30112238D01*
X12771577Y-30112238D02*
X13171577Y-30112238D01*
X11971577Y-29540809D02*
X11971577Y-30512238D01*
X11971577Y-30512238D02*
X11914434Y-30626524D01*
X11914434Y-30626524D02*
X11857292Y-30683667D01*
X11857292Y-30683667D02*
X11743006Y-30740809D01*
X11743006Y-30740809D02*
X11514434Y-30740809D01*
X11514434Y-30740809D02*
X11400149Y-30683667D01*
X11400149Y-30683667D02*
X11343006Y-30626524D01*
X11343006Y-30626524D02*
X11285863Y-30512238D01*
X11285863Y-30512238D02*
X11285863Y-29540809D01*
X10771577Y-30683667D02*
X10600149Y-30740809D01*
X10600149Y-30740809D02*
X10314434Y-30740809D01*
X10314434Y-30740809D02*
X10200149Y-30683667D01*
X10200149Y-30683667D02*
X10143006Y-30626524D01*
X10143006Y-30626524D02*
X10085863Y-30512238D01*
X10085863Y-30512238D02*
X10085863Y-30397952D01*
X10085863Y-30397952D02*
X10143006Y-30283667D01*
X10143006Y-30283667D02*
X10200149Y-30226524D01*
X10200149Y-30226524D02*
X10314434Y-30169381D01*
X10314434Y-30169381D02*
X10543006Y-30112238D01*
X10543006Y-30112238D02*
X10657291Y-30055095D01*
X10657291Y-30055095D02*
X10714434Y-29997952D01*
X10714434Y-29997952D02*
X10771577Y-29883667D01*
X10771577Y-29883667D02*
X10771577Y-29769381D01*
X10771577Y-29769381D02*
X10714434Y-29655095D01*
X10714434Y-29655095D02*
X10657291Y-29597952D01*
X10657291Y-29597952D02*
X10543006Y-29540809D01*
X10543006Y-29540809D02*
X10257291Y-29540809D01*
X10257291Y-29540809D02*
X10085863Y-29597952D01*
X8657291Y-30740809D02*
X8657291Y-29940809D01*
X8657291Y-30055095D02*
X8600148Y-29997952D01*
X8600148Y-29997952D02*
X8485863Y-29940809D01*
X8485863Y-29940809D02*
X8314434Y-29940809D01*
X8314434Y-29940809D02*
X8200148Y-29997952D01*
X8200148Y-29997952D02*
X8143006Y-30112238D01*
X8143006Y-30112238D02*
X8143006Y-30740809D01*
X8143006Y-30112238D02*
X8085863Y-29997952D01*
X8085863Y-29997952D02*
X7971577Y-29940809D01*
X7971577Y-29940809D02*
X7800148Y-29940809D01*
X7800148Y-29940809D02*
X7685863Y-29997952D01*
X7685863Y-29997952D02*
X7628720Y-30112238D01*
X7628720Y-30112238D02*
X7628720Y-30740809D01*
X6543006Y-30740809D02*
X6543006Y-30112238D01*
X6543006Y-30112238D02*
X6600148Y-29997952D01*
X6600148Y-29997952D02*
X6714434Y-29940809D01*
X6714434Y-29940809D02*
X6943006Y-29940809D01*
X6943006Y-29940809D02*
X7057291Y-29997952D01*
X6543006Y-30683667D02*
X6657291Y-30740809D01*
X6657291Y-30740809D02*
X6943006Y-30740809D01*
X6943006Y-30740809D02*
X7057291Y-30683667D01*
X7057291Y-30683667D02*
X7114434Y-30569381D01*
X7114434Y-30569381D02*
X7114434Y-30455095D01*
X7114434Y-30455095D02*
X7057291Y-30340809D01*
X7057291Y-30340809D02*
X6943006Y-30283667D01*
X6943006Y-30283667D02*
X6657291Y-30283667D01*
X6657291Y-30283667D02*
X6543006Y-30226524D01*
X6085863Y-29940809D02*
X5800149Y-30740809D01*
X5514434Y-29940809D02*
X5800149Y-30740809D01*
X5800149Y-30740809D02*
X5914434Y-31026524D01*
X5914434Y-31026524D02*
X5971577Y-31083667D01*
X5971577Y-31083667D02*
X6085863Y-31140809D01*
X4143005Y-29940809D02*
X4143005Y-30740809D01*
X4143005Y-30055095D02*
X4085862Y-29997952D01*
X4085862Y-29997952D02*
X3971577Y-29940809D01*
X3971577Y-29940809D02*
X3800148Y-29940809D01*
X3800148Y-29940809D02*
X3685862Y-29997952D01*
X3685862Y-29997952D02*
X3628720Y-30112238D01*
X3628720Y-30112238D02*
X3628720Y-30740809D01*
X2885863Y-30740809D02*
X3000148Y-30683667D01*
X3000148Y-30683667D02*
X3057291Y-30626524D01*
X3057291Y-30626524D02*
X3114434Y-30512238D01*
X3114434Y-30512238D02*
X3114434Y-30169381D01*
X3114434Y-30169381D02*
X3057291Y-30055095D01*
X3057291Y-30055095D02*
X3000148Y-29997952D01*
X3000148Y-29997952D02*
X2885863Y-29940809D01*
X2885863Y-29940809D02*
X2714434Y-29940809D01*
X2714434Y-29940809D02*
X2600148Y-29997952D01*
X2600148Y-29997952D02*
X2543006Y-30055095D01*
X2543006Y-30055095D02*
X2485863Y-30169381D01*
X2485863Y-30169381D02*
X2485863Y-30512238D01*
X2485863Y-30512238D02*
X2543006Y-30626524D01*
X2543006Y-30626524D02*
X2600148Y-30683667D01*
X2600148Y-30683667D02*
X2714434Y-30740809D01*
X2714434Y-30740809D02*
X2885863Y-30740809D01*
X2143006Y-29940809D02*
X1685863Y-29940809D01*
X1971577Y-29540809D02*
X1971577Y-30569381D01*
X1971577Y-30569381D02*
X1914434Y-30683667D01*
X1914434Y-30683667D02*
X1800149Y-30740809D01*
X1800149Y-30740809D02*
X1685863Y-30740809D01*
X12028719Y-32672742D02*
X12028719Y-31472742D01*
X12028719Y-31929885D02*
X11914434Y-31872742D01*
X11914434Y-31872742D02*
X11685862Y-31872742D01*
X11685862Y-31872742D02*
X11571576Y-31929885D01*
X11571576Y-31929885D02*
X11514434Y-31987028D01*
X11514434Y-31987028D02*
X11457291Y-32101314D01*
X11457291Y-32101314D02*
X11457291Y-32444171D01*
X11457291Y-32444171D02*
X11514434Y-32558457D01*
X11514434Y-32558457D02*
X11571576Y-32615600D01*
X11571576Y-32615600D02*
X11685862Y-32672742D01*
X11685862Y-32672742D02*
X11914434Y-32672742D01*
X11914434Y-32672742D02*
X12028719Y-32615600D01*
X10485862Y-32615600D02*
X10600148Y-32672742D01*
X10600148Y-32672742D02*
X10828720Y-32672742D01*
X10828720Y-32672742D02*
X10943005Y-32615600D01*
X10943005Y-32615600D02*
X11000148Y-32501314D01*
X11000148Y-32501314D02*
X11000148Y-32044171D01*
X11000148Y-32044171D02*
X10943005Y-31929885D01*
X10943005Y-31929885D02*
X10828720Y-31872742D01*
X10828720Y-31872742D02*
X10600148Y-31872742D01*
X10600148Y-31872742D02*
X10485862Y-31929885D01*
X10485862Y-31929885D02*
X10428720Y-32044171D01*
X10428720Y-32044171D02*
X10428720Y-32158457D01*
X10428720Y-32158457D02*
X11000148Y-32272742D01*
X9000148Y-32672742D02*
X9000148Y-31872742D01*
X9000148Y-31472742D02*
X9057291Y-31529885D01*
X9057291Y-31529885D02*
X9000148Y-31587028D01*
X9000148Y-31587028D02*
X8943005Y-31529885D01*
X8943005Y-31529885D02*
X9000148Y-31472742D01*
X9000148Y-31472742D02*
X9000148Y-31587028D01*
X8485862Y-32615600D02*
X8371576Y-32672742D01*
X8371576Y-32672742D02*
X8143005Y-32672742D01*
X8143005Y-32672742D02*
X8028719Y-32615600D01*
X8028719Y-32615600D02*
X7971576Y-32501314D01*
X7971576Y-32501314D02*
X7971576Y-32444171D01*
X7971576Y-32444171D02*
X8028719Y-32329885D01*
X8028719Y-32329885D02*
X8143005Y-32272742D01*
X8143005Y-32272742D02*
X8314434Y-32272742D01*
X8314434Y-32272742D02*
X8428719Y-32215600D01*
X8428719Y-32215600D02*
X8485862Y-32101314D01*
X8485862Y-32101314D02*
X8485862Y-32044171D01*
X8485862Y-32044171D02*
X8428719Y-31929885D01*
X8428719Y-31929885D02*
X8314434Y-31872742D01*
X8314434Y-31872742D02*
X8143005Y-31872742D01*
X8143005Y-31872742D02*
X8028719Y-31929885D01*
X7285862Y-32672742D02*
X7400147Y-32615600D01*
X7400147Y-32615600D02*
X7457290Y-32558457D01*
X7457290Y-32558457D02*
X7514433Y-32444171D01*
X7514433Y-32444171D02*
X7514433Y-32101314D01*
X7514433Y-32101314D02*
X7457290Y-31987028D01*
X7457290Y-31987028D02*
X7400147Y-31929885D01*
X7400147Y-31929885D02*
X7285862Y-31872742D01*
X7285862Y-31872742D02*
X7114433Y-31872742D01*
X7114433Y-31872742D02*
X7000147Y-31929885D01*
X7000147Y-31929885D02*
X6943005Y-31987028D01*
X6943005Y-31987028D02*
X6885862Y-32101314D01*
X6885862Y-32101314D02*
X6885862Y-32444171D01*
X6885862Y-32444171D02*
X6943005Y-32558457D01*
X6943005Y-32558457D02*
X7000147Y-32615600D01*
X7000147Y-32615600D02*
X7114433Y-32672742D01*
X7114433Y-32672742D02*
X7285862Y-32672742D01*
X6200148Y-32672742D02*
X6314433Y-32615600D01*
X6314433Y-32615600D02*
X6371576Y-32501314D01*
X6371576Y-32501314D02*
X6371576Y-31472742D01*
X5228720Y-32672742D02*
X5228720Y-32044171D01*
X5228720Y-32044171D02*
X5285862Y-31929885D01*
X5285862Y-31929885D02*
X5400148Y-31872742D01*
X5400148Y-31872742D02*
X5628720Y-31872742D01*
X5628720Y-31872742D02*
X5743005Y-31929885D01*
X5228720Y-32615600D02*
X5343005Y-32672742D01*
X5343005Y-32672742D02*
X5628720Y-32672742D01*
X5628720Y-32672742D02*
X5743005Y-32615600D01*
X5743005Y-32615600D02*
X5800148Y-32501314D01*
X5800148Y-32501314D02*
X5800148Y-32387028D01*
X5800148Y-32387028D02*
X5743005Y-32272742D01*
X5743005Y-32272742D02*
X5628720Y-32215600D01*
X5628720Y-32215600D02*
X5343005Y-32215600D01*
X5343005Y-32215600D02*
X5228720Y-32158457D01*
X4828720Y-31872742D02*
X4371577Y-31872742D01*
X4657291Y-31472742D02*
X4657291Y-32501314D01*
X4657291Y-32501314D02*
X4600148Y-32615600D01*
X4600148Y-32615600D02*
X4485863Y-32672742D01*
X4485863Y-32672742D02*
X4371577Y-32672742D01*
X3514434Y-32615600D02*
X3628720Y-32672742D01*
X3628720Y-32672742D02*
X3857292Y-32672742D01*
X3857292Y-32672742D02*
X3971577Y-32615600D01*
X3971577Y-32615600D02*
X4028720Y-32501314D01*
X4028720Y-32501314D02*
X4028720Y-32044171D01*
X4028720Y-32044171D02*
X3971577Y-31929885D01*
X3971577Y-31929885D02*
X3857292Y-31872742D01*
X3857292Y-31872742D02*
X3628720Y-31872742D01*
X3628720Y-31872742D02*
X3514434Y-31929885D01*
X3514434Y-31929885D02*
X3457292Y-32044171D01*
X3457292Y-32044171D02*
X3457292Y-32158457D01*
X3457292Y-32158457D02*
X4028720Y-32272742D01*
X2428721Y-32672742D02*
X2428721Y-31472742D01*
X2428721Y-32615600D02*
X2543006Y-32672742D01*
X2543006Y-32672742D02*
X2771578Y-32672742D01*
X2771578Y-32672742D02*
X2885863Y-32615600D01*
X2885863Y-32615600D02*
X2943006Y-32558457D01*
X2943006Y-32558457D02*
X3000149Y-32444171D01*
X3000149Y-32444171D02*
X3000149Y-32101314D01*
X3000149Y-32101314D02*
X2943006Y-31987028D01*
X2943006Y-31987028D02*
X2885863Y-31929885D01*
X2885863Y-31929885D02*
X2771578Y-31872742D01*
X2771578Y-31872742D02*
X2543006Y-31872742D01*
X2543006Y-31872742D02*
X2428721Y-31929885D01*
X1857292Y-32558457D02*
X1800149Y-32615600D01*
X1800149Y-32615600D02*
X1857292Y-32672742D01*
X1857292Y-32672742D02*
X1914435Y-32615600D01*
X1914435Y-32615600D02*
X1857292Y-32558457D01*
X1857292Y-32558457D02*
X1857292Y-32672742D01*
X1857292Y-32215600D02*
X1914435Y-31529885D01*
X1914435Y-31529885D02*
X1857292Y-31472742D01*
X1857292Y-31472742D02*
X1800149Y-31529885D01*
X1800149Y-31529885D02*
X1857292Y-32215600D01*
X1857292Y-32215600D02*
X1857292Y-31472742D01*
D13*
X89237200Y-2306667D02*
X89284819Y-2449524D01*
X89284819Y-2449524D02*
X89284819Y-2687619D01*
X89284819Y-2687619D02*
X89237200Y-2782857D01*
X89237200Y-2782857D02*
X89189580Y-2830476D01*
X89189580Y-2830476D02*
X89094342Y-2878095D01*
X89094342Y-2878095D02*
X88999104Y-2878095D01*
X88999104Y-2878095D02*
X88903866Y-2830476D01*
X88903866Y-2830476D02*
X88856247Y-2782857D01*
X88856247Y-2782857D02*
X88808628Y-2687619D01*
X88808628Y-2687619D02*
X88761009Y-2497143D01*
X88761009Y-2497143D02*
X88713390Y-2401905D01*
X88713390Y-2401905D02*
X88665771Y-2354286D01*
X88665771Y-2354286D02*
X88570533Y-2306667D01*
X88570533Y-2306667D02*
X88475295Y-2306667D01*
X88475295Y-2306667D02*
X88380057Y-2354286D01*
X88380057Y-2354286D02*
X88332438Y-2401905D01*
X88332438Y-2401905D02*
X88284819Y-2497143D01*
X88284819Y-2497143D02*
X88284819Y-2735238D01*
X88284819Y-2735238D02*
X88332438Y-2878095D01*
X88284819Y-3211429D02*
X89284819Y-3449524D01*
X89284819Y-3449524D02*
X88570533Y-3640000D01*
X88570533Y-3640000D02*
X89284819Y-3830476D01*
X89284819Y-3830476D02*
X88284819Y-4068572D01*
X89284819Y-4973333D02*
X89284819Y-4401905D01*
X89284819Y-4687619D02*
X88284819Y-4687619D01*
X88284819Y-4687619D02*
X88427676Y-4592381D01*
X88427676Y-4592381D02*
X88522914Y-4497143D01*
X88522914Y-4497143D02*
X88570533Y-4401905D01*
X74954285Y-13474819D02*
X74954285Y-12474819D01*
X74954285Y-12474819D02*
X74716190Y-12474819D01*
X74716190Y-12474819D02*
X74573333Y-12522438D01*
X74573333Y-12522438D02*
X74478095Y-12617676D01*
X74478095Y-12617676D02*
X74430476Y-12712914D01*
X74430476Y-12712914D02*
X74382857Y-12903390D01*
X74382857Y-12903390D02*
X74382857Y-13046247D01*
X74382857Y-13046247D02*
X74430476Y-13236723D01*
X74430476Y-13236723D02*
X74478095Y-13331961D01*
X74478095Y-13331961D02*
X74573333Y-13427200D01*
X74573333Y-13427200D02*
X74716190Y-13474819D01*
X74716190Y-13474819D02*
X74954285Y-13474819D01*
X73430476Y-13474819D02*
X74001904Y-13474819D01*
X73716190Y-13474819D02*
X73716190Y-12474819D01*
X73716190Y-12474819D02*
X73811428Y-12617676D01*
X73811428Y-12617676D02*
X73906666Y-12712914D01*
X73906666Y-12712914D02*
X74001904Y-12760533D01*
X73049523Y-12570057D02*
X73001904Y-12522438D01*
X73001904Y-12522438D02*
X72906666Y-12474819D01*
X72906666Y-12474819D02*
X72668571Y-12474819D01*
X72668571Y-12474819D02*
X72573333Y-12522438D01*
X72573333Y-12522438D02*
X72525714Y-12570057D01*
X72525714Y-12570057D02*
X72478095Y-12665295D01*
X72478095Y-12665295D02*
X72478095Y-12760533D01*
X72478095Y-12760533D02*
X72525714Y-12903390D01*
X72525714Y-12903390D02*
X73097142Y-13474819D01*
X73097142Y-13474819D02*
X72478095Y-13474819D01*
X71062295Y-4998571D02*
X71062295Y-4541428D01*
X71062295Y-4770000D02*
X70262295Y-4770000D01*
X70262295Y-4770000D02*
X70376580Y-4693809D01*
X70376580Y-4693809D02*
X70452771Y-4617619D01*
X70452771Y-4617619D02*
X70490866Y-4541428D01*
X66781904Y-9424819D02*
X66781904Y-10234342D01*
X66781904Y-10234342D02*
X66734285Y-10329580D01*
X66734285Y-10329580D02*
X66686666Y-10377200D01*
X66686666Y-10377200D02*
X66591428Y-10424819D01*
X66591428Y-10424819D02*
X66400952Y-10424819D01*
X66400952Y-10424819D02*
X66305714Y-10377200D01*
X66305714Y-10377200D02*
X66258095Y-10329580D01*
X66258095Y-10329580D02*
X66210476Y-10234342D01*
X66210476Y-10234342D02*
X66210476Y-9424819D01*
X65781904Y-9520057D02*
X65734285Y-9472438D01*
X65734285Y-9472438D02*
X65639047Y-9424819D01*
X65639047Y-9424819D02*
X65400952Y-9424819D01*
X65400952Y-9424819D02*
X65305714Y-9472438D01*
X65305714Y-9472438D02*
X65258095Y-9520057D01*
X65258095Y-9520057D02*
X65210476Y-9615295D01*
X65210476Y-9615295D02*
X65210476Y-9710533D01*
X65210476Y-9710533D02*
X65258095Y-9853390D01*
X65258095Y-9853390D02*
X65829523Y-10424819D01*
X65829523Y-10424819D02*
X65210476Y-10424819D01*
X54416009Y-38424285D02*
X54463628Y-38567142D01*
X54463628Y-38567142D02*
X54511247Y-38614761D01*
X54511247Y-38614761D02*
X54606485Y-38662380D01*
X54606485Y-38662380D02*
X54749342Y-38662380D01*
X54749342Y-38662380D02*
X54844580Y-38614761D01*
X54844580Y-38614761D02*
X54892200Y-38567142D01*
X54892200Y-38567142D02*
X54939819Y-38471904D01*
X54939819Y-38471904D02*
X54939819Y-38090952D01*
X54939819Y-38090952D02*
X53939819Y-38090952D01*
X53939819Y-38090952D02*
X53939819Y-38424285D01*
X53939819Y-38424285D02*
X53987438Y-38519523D01*
X53987438Y-38519523D02*
X54035057Y-38567142D01*
X54035057Y-38567142D02*
X54130295Y-38614761D01*
X54130295Y-38614761D02*
X54225533Y-38614761D01*
X54225533Y-38614761D02*
X54320771Y-38567142D01*
X54320771Y-38567142D02*
X54368390Y-38519523D01*
X54368390Y-38519523D02*
X54416009Y-38424285D01*
X54416009Y-38424285D02*
X54416009Y-38090952D01*
X53939819Y-38948095D02*
X53939819Y-39519523D01*
X54939819Y-39233809D02*
X53939819Y-39233809D01*
X54939819Y-40376666D02*
X54939819Y-39805238D01*
X54939819Y-40090952D02*
X53939819Y-40090952D01*
X53939819Y-40090952D02*
X54082676Y-39995714D01*
X54082676Y-39995714D02*
X54177914Y-39900476D01*
X54177914Y-39900476D02*
X54225533Y-39805238D01*
X63843333Y-29124819D02*
X63843333Y-29839104D01*
X63843333Y-29839104D02*
X63890952Y-29981961D01*
X63890952Y-29981961D02*
X63986190Y-30077200D01*
X63986190Y-30077200D02*
X64129047Y-30124819D01*
X64129047Y-30124819D02*
X64224285Y-30124819D01*
X63462380Y-29124819D02*
X62795714Y-29124819D01*
X62795714Y-29124819D02*
X63224285Y-30124819D01*
X63933333Y-30814819D02*
X63933333Y-31529104D01*
X63933333Y-31529104D02*
X63980952Y-31671961D01*
X63980952Y-31671961D02*
X64076190Y-31767200D01*
X64076190Y-31767200D02*
X64219047Y-31814819D01*
X64219047Y-31814819D02*
X64314285Y-31814819D01*
X63314285Y-31243390D02*
X63409523Y-31195771D01*
X63409523Y-31195771D02*
X63457142Y-31148152D01*
X63457142Y-31148152D02*
X63504761Y-31052914D01*
X63504761Y-31052914D02*
X63504761Y-31005295D01*
X63504761Y-31005295D02*
X63457142Y-30910057D01*
X63457142Y-30910057D02*
X63409523Y-30862438D01*
X63409523Y-30862438D02*
X63314285Y-30814819D01*
X63314285Y-30814819D02*
X63123809Y-30814819D01*
X63123809Y-30814819D02*
X63028571Y-30862438D01*
X63028571Y-30862438D02*
X62980952Y-30910057D01*
X62980952Y-30910057D02*
X62933333Y-31005295D01*
X62933333Y-31005295D02*
X62933333Y-31052914D01*
X62933333Y-31052914D02*
X62980952Y-31148152D01*
X62980952Y-31148152D02*
X63028571Y-31195771D01*
X63028571Y-31195771D02*
X63123809Y-31243390D01*
X63123809Y-31243390D02*
X63314285Y-31243390D01*
X63314285Y-31243390D02*
X63409523Y-31291009D01*
X63409523Y-31291009D02*
X63457142Y-31338628D01*
X63457142Y-31338628D02*
X63504761Y-31433866D01*
X63504761Y-31433866D02*
X63504761Y-31624342D01*
X63504761Y-31624342D02*
X63457142Y-31719580D01*
X63457142Y-31719580D02*
X63409523Y-31767200D01*
X63409523Y-31767200D02*
X63314285Y-31814819D01*
X63314285Y-31814819D02*
X63123809Y-31814819D01*
X63123809Y-31814819D02*
X63028571Y-31767200D01*
X63028571Y-31767200D02*
X62980952Y-31719580D01*
X62980952Y-31719580D02*
X62933333Y-31624342D01*
X62933333Y-31624342D02*
X62933333Y-31433866D01*
X62933333Y-31433866D02*
X62980952Y-31338628D01*
X62980952Y-31338628D02*
X63028571Y-31291009D01*
X63028571Y-31291009D02*
X63123809Y-31243390D01*
D14*
X85063332Y-17729800D02*
X84920475Y-17777419D01*
X84920475Y-17777419D02*
X84682380Y-17777419D01*
X84682380Y-17777419D02*
X84587142Y-17729800D01*
X84587142Y-17729800D02*
X84539523Y-17682180D01*
X84539523Y-17682180D02*
X84491904Y-17586942D01*
X84491904Y-17586942D02*
X84491904Y-17491704D01*
X84491904Y-17491704D02*
X84539523Y-17396466D01*
X84539523Y-17396466D02*
X84587142Y-17348847D01*
X84587142Y-17348847D02*
X84682380Y-17301228D01*
X84682380Y-17301228D02*
X84872856Y-17253609D01*
X84872856Y-17253609D02*
X84968094Y-17205990D01*
X84968094Y-17205990D02*
X85015713Y-17158371D01*
X85015713Y-17158371D02*
X85063332Y-17063133D01*
X85063332Y-17063133D02*
X85063332Y-16967895D01*
X85063332Y-16967895D02*
X85015713Y-16872657D01*
X85015713Y-16872657D02*
X84968094Y-16825038D01*
X84968094Y-16825038D02*
X84872856Y-16777419D01*
X84872856Y-16777419D02*
X84634761Y-16777419D01*
X84634761Y-16777419D02*
X84491904Y-16825038D01*
X84158570Y-16777419D02*
X83920475Y-17777419D01*
X83920475Y-17777419D02*
X83729999Y-17063133D01*
X83729999Y-17063133D02*
X83539523Y-17777419D01*
X83539523Y-17777419D02*
X83301428Y-16777419D01*
X82444285Y-16777419D02*
X82920475Y-16777419D01*
X82920475Y-16777419D02*
X82968094Y-17253609D01*
X82968094Y-17253609D02*
X82920475Y-17205990D01*
X82920475Y-17205990D02*
X82825237Y-17158371D01*
X82825237Y-17158371D02*
X82587142Y-17158371D01*
X82587142Y-17158371D02*
X82491904Y-17205990D01*
X82491904Y-17205990D02*
X82444285Y-17253609D01*
X82444285Y-17253609D02*
X82396666Y-17348847D01*
X82396666Y-17348847D02*
X82396666Y-17586942D01*
X82396666Y-17586942D02*
X82444285Y-17682180D01*
X82444285Y-17682180D02*
X82491904Y-17729800D01*
X82491904Y-17729800D02*
X82587142Y-17777419D01*
X82587142Y-17777419D02*
X82825237Y-17777419D01*
X82825237Y-17777419D02*
X82920475Y-17729800D01*
X82920475Y-17729800D02*
X82968094Y-17682180D01*
D13*
X7064819Y-25401666D02*
X7779104Y-25401666D01*
X7779104Y-25401666D02*
X7921961Y-25354047D01*
X7921961Y-25354047D02*
X8017200Y-25258809D01*
X8017200Y-25258809D02*
X8064819Y-25115952D01*
X8064819Y-25115952D02*
X8064819Y-25020714D01*
X7064819Y-25782619D02*
X7064819Y-26401666D01*
X7064819Y-26401666D02*
X7445771Y-26068333D01*
X7445771Y-26068333D02*
X7445771Y-26211190D01*
X7445771Y-26211190D02*
X7493390Y-26306428D01*
X7493390Y-26306428D02*
X7541009Y-26354047D01*
X7541009Y-26354047D02*
X7636247Y-26401666D01*
X7636247Y-26401666D02*
X7874342Y-26401666D01*
X7874342Y-26401666D02*
X7969580Y-26354047D01*
X7969580Y-26354047D02*
X8017200Y-26306428D01*
X8017200Y-26306428D02*
X8064819Y-26211190D01*
X8064819Y-26211190D02*
X8064819Y-25925476D01*
X8064819Y-25925476D02*
X8017200Y-25830238D01*
X8017200Y-25830238D02*
X7969580Y-25782619D01*
X63753333Y-25724819D02*
X63753333Y-26439104D01*
X63753333Y-26439104D02*
X63800952Y-26581961D01*
X63800952Y-26581961D02*
X63896190Y-26677200D01*
X63896190Y-26677200D02*
X64039047Y-26724819D01*
X64039047Y-26724819D02*
X64134285Y-26724819D01*
X63229523Y-26724819D02*
X63039047Y-26724819D01*
X63039047Y-26724819D02*
X62943809Y-26677200D01*
X62943809Y-26677200D02*
X62896190Y-26629580D01*
X62896190Y-26629580D02*
X62800952Y-26486723D01*
X62800952Y-26486723D02*
X62753333Y-26296247D01*
X62753333Y-26296247D02*
X62753333Y-25915295D01*
X62753333Y-25915295D02*
X62800952Y-25820057D01*
X62800952Y-25820057D02*
X62848571Y-25772438D01*
X62848571Y-25772438D02*
X62943809Y-25724819D01*
X62943809Y-25724819D02*
X63134285Y-25724819D01*
X63134285Y-25724819D02*
X63229523Y-25772438D01*
X63229523Y-25772438D02*
X63277142Y-25820057D01*
X63277142Y-25820057D02*
X63324761Y-25915295D01*
X63324761Y-25915295D02*
X63324761Y-26153390D01*
X63324761Y-26153390D02*
X63277142Y-26248628D01*
X63277142Y-26248628D02*
X63229523Y-26296247D01*
X63229523Y-26296247D02*
X63134285Y-26343866D01*
X63134285Y-26343866D02*
X62943809Y-26343866D01*
X62943809Y-26343866D02*
X62848571Y-26296247D01*
X62848571Y-26296247D02*
X62800952Y-26248628D01*
X62800952Y-26248628D02*
X62753333Y-26153390D01*
X64709523Y-27404819D02*
X64709523Y-28119104D01*
X64709523Y-28119104D02*
X64757142Y-28261961D01*
X64757142Y-28261961D02*
X64852380Y-28357200D01*
X64852380Y-28357200D02*
X64995237Y-28404819D01*
X64995237Y-28404819D02*
X65090475Y-28404819D01*
X63709523Y-28404819D02*
X64280951Y-28404819D01*
X63995237Y-28404819D02*
X63995237Y-27404819D01*
X63995237Y-27404819D02*
X64090475Y-27547676D01*
X64090475Y-27547676D02*
X64185713Y-27642914D01*
X64185713Y-27642914D02*
X64280951Y-27690533D01*
X63090475Y-27404819D02*
X62995237Y-27404819D01*
X62995237Y-27404819D02*
X62899999Y-27452438D01*
X62899999Y-27452438D02*
X62852380Y-27500057D01*
X62852380Y-27500057D02*
X62804761Y-27595295D01*
X62804761Y-27595295D02*
X62757142Y-27785771D01*
X62757142Y-27785771D02*
X62757142Y-28023866D01*
X62757142Y-28023866D02*
X62804761Y-28214342D01*
X62804761Y-28214342D02*
X62852380Y-28309580D01*
X62852380Y-28309580D02*
X62899999Y-28357200D01*
X62899999Y-28357200D02*
X62995237Y-28404819D01*
X62995237Y-28404819D02*
X63090475Y-28404819D01*
X63090475Y-28404819D02*
X63185713Y-28357200D01*
X63185713Y-28357200D02*
X63233332Y-28309580D01*
X63233332Y-28309580D02*
X63280951Y-28214342D01*
X63280951Y-28214342D02*
X63328570Y-28023866D01*
X63328570Y-28023866D02*
X63328570Y-27785771D01*
X63328570Y-27785771D02*
X63280951Y-27595295D01*
X63280951Y-27595295D02*
X63233332Y-27500057D01*
X63233332Y-27500057D02*
X63185713Y-27452438D01*
X63185713Y-27452438D02*
X63090475Y-27404819D01*
D15*
%TO.C,SW1*%
X83650000Y-2600000D02*
X83650000Y-11200000D01*
X88250000Y-2600000D02*
X88250000Y-4800000D01*
X88250000Y-8900000D02*
X88250000Y-11200000D01*
%TO.C,D12*%
X69550000Y-5270000D02*
X69550000Y-12270000D01*
X69550000Y-5270000D02*
X75050000Y-5270000D01*
X73200000Y-6070000D02*
X71400000Y-6070000D01*
X73200000Y-11470000D02*
X71400000Y-11470000D01*
X74600000Y-12270000D02*
X69550000Y-12270000D01*
X75050000Y-5270000D02*
X75050000Y-11820000D01*
X75050000Y-11820000D02*
X74600000Y-12270000D01*
%TO.C,U2*%
X67970000Y-9140000D02*
X67970000Y-14140000D01*
%TO.C,BT1*%
X44175000Y-41550000D02*
X44175000Y-36870000D01*
X47745000Y-35150000D02*
X51995000Y-35150000D01*
X47745000Y-43270000D02*
X51995000Y-43270000D01*
X50395000Y-36170000D02*
X50395000Y-37450000D01*
X50395000Y-40970000D02*
X53285000Y-40970000D01*
X50395000Y-42250000D02*
X50395000Y-40970000D01*
X51995000Y-35150000D02*
X51995000Y-36170000D01*
X51995000Y-36170000D02*
X50395000Y-36170000D01*
X51995000Y-42250000D02*
X50395000Y-42250000D01*
X51995000Y-43270000D02*
X51995000Y-42250000D01*
%TO.C,J3*%
X-3267500Y-17995000D02*
X6152500Y-17995000D01*
X-3267500Y-26615000D02*
X-3267500Y-17995000D01*
X42500Y-26615000D02*
X42500Y-17995000D01*
X6152500Y-17995000D02*
X6152500Y-19505000D01*
X6152500Y-23005000D02*
X6152500Y-21605000D01*
X6152500Y-26615000D02*
X-3267500Y-26615000D01*
X6152500Y-26615000D02*
X6152500Y-25105000D01*
X6842500Y-24055000D02*
X7442500Y-24355000D01*
X7442500Y-23755000D02*
X6842500Y-24055000D01*
X7442500Y-24355000D02*
X7442500Y-23755000D01*
%TD*%
M02*
