%TF.GenerationSoftware,KiCad,Pcbnew,9.0.6*%
%TF.CreationDate,2026-03-19T20:59:03+01:00*%
%TF.ProjectId,ESP32_DALITester,45535033-325f-4444-914c-495465737465,rev?*%
%TF.SameCoordinates,Original*%
%TF.FileFunction,Soldermask,Bot*%
%TF.FilePolarity,Negative*%
%FSLAX46Y46*%
G04 Gerber Fmt 4.6, Leading zero omitted, Abs format (unit mm)*
G04 Created by KiCad (PCBNEW 9.0.6) date 2026-03-19 20:59:03*
%MOMM*%
%LPD*%
G01*
G04 APERTURE LIST*
G04 Aperture macros list*
%AMRoundRect*
0 Rectangle with rounded corners*
0 $1 Rounding radius*
0 $2 $3 $4 $5 $6 $7 $8 $9 X,Y pos of 4 corners*
0 Add a 4 corners polygon primitive as box body*
4,1,4,$2,$3,$4,$5,$6,$7,$8,$9,$2,$3,0*
0 Add four circle primitives for the rounded corners*
1,1,$1+$1,$2,$3*
1,1,$1+$1,$4,$5*
1,1,$1+$1,$6,$7*
1,1,$1+$1,$8,$9*
0 Add four rect primitives between the rounded corners*
20,1,$1+$1,$2,$3,$4,$5,0*
20,1,$1+$1,$4,$5,$6,$7,0*
20,1,$1+$1,$6,$7,$8,$9,0*
20,1,$1+$1,$8,$9,$2,$3,0*%
G04 Aperture macros list end*
%ADD10C,3.500000*%
%ADD11C,0.650000*%
%ADD12O,2.100000X1.000000*%
%ADD13O,1.800000X1.000000*%
%ADD14O,3.500000X2.200000*%
%ADD15R,2.500000X1.500000*%
%ADD16O,2.500000X1.500000*%
%ADD17RoundRect,0.090000X-0.360000X0.660000X-0.360000X-0.660000X0.360000X-0.660000X0.360000X0.660000X0*%
%ADD18C,4.000000*%
%ADD19R,1.500000X1.500000*%
%ADD20C,1.500000*%
%ADD21RoundRect,0.250001X1.449999X-0.499999X1.449999X0.499999X-1.449999X0.499999X-1.449999X-0.499999X0*%
%ADD22RoundRect,0.250000X1.500000X-0.250000X1.500000X0.250000X-1.500000X0.250000X-1.500000X-0.250000X0*%
%ADD23RoundRect,0.250000X-0.750000X0.250000X-0.750000X-0.250000X0.750000X-0.250000X0.750000X0.250000X0*%
%ADD24O,2.300000X1.600000*%
%ADD25C,2.200000*%
%ADD26RoundRect,0.195000X1.005000X-0.455000X1.005000X0.455000X-1.005000X0.455000X-1.005000X-0.455000X0*%
%ADD27RoundRect,0.600000X1.400000X-1.400000X1.400000X1.400000X-1.400000X1.400000X-1.400000X-1.400000X0*%
%ADD28RoundRect,0.480000X1.120000X-1.120000X1.120000X1.120000X-1.120000X1.120000X-1.120000X-1.120000X0*%
%ADD29RoundRect,0.250000X1.550000X-0.650000X1.550000X0.650000X-1.550000X0.650000X-1.550000X-0.650000X0*%
%ADD30O,3.600000X1.800000*%
G04 APERTURE END LIST*
D10*
%TO.C,J6*%
X64450000Y-39350000D03*
%TD*%
%TO.C,J4*%
X3250000Y-39350000D03*
%TD*%
D11*
%TO.C,J1*%
X84820000Y-42070000D03*
X84820000Y-36290000D03*
D12*
X84300000Y-43500000D03*
D13*
X88500000Y-43500000D03*
D12*
X84300000Y-34860000D03*
D13*
X88500000Y-34860000D03*
%TD*%
D10*
%TO.C,J5*%
X64450000Y-5250000D03*
%TD*%
%TO.C,J2*%
X3250000Y-5250000D03*
%TD*%
D14*
%TO.C,SW1*%
X85950000Y-2800000D03*
X85950000Y-11000000D03*
D15*
X85950000Y-4900000D03*
D16*
X85950000Y-6900000D03*
X85950000Y-8900000D03*
%TD*%
D17*
%TO.C,D12*%
X70650000Y-6320000D03*
X73950000Y-6320000D03*
X73950000Y-11220000D03*
X70650000Y-11220000D03*
%TD*%
D18*
%TO.C,U2*%
X64470000Y-39350000D03*
X64470000Y-5250000D03*
X3270000Y-39350000D03*
X3270000Y-5250000D03*
D19*
X65970000Y-12140000D03*
D20*
X65970000Y-14680000D03*
X65970000Y-17220000D03*
X65970000Y-19760000D03*
X65970000Y-22300000D03*
X65970000Y-24840000D03*
X65970000Y-27380000D03*
X65970000Y-29920000D03*
X65970000Y-32460000D03*
%TD*%
D21*
%TO.C,BT1*%
X45785000Y-42560000D03*
D22*
X51535000Y-40210000D03*
D21*
X45785000Y-35860000D03*
D22*
X51535000Y-38210000D03*
%TD*%
D23*
%TO.C,J7*%
X61450000Y-29643333D03*
%TD*%
%TO.C,J8*%
X61450000Y-31340000D03*
%TD*%
D24*
%TO.C,SW5*%
X75000000Y-22500000D03*
D25*
X79500000Y-22500000D03*
D26*
X72200000Y-25000000D03*
X72200000Y-20000000D03*
X72200000Y-22500000D03*
D27*
X79500000Y-29000000D03*
D28*
X71600000Y-27850000D03*
X87400000Y-27850000D03*
X71600000Y-17150000D03*
X87400000Y-17150000D03*
D27*
X79500000Y-16000000D03*
D26*
X86500000Y-25000000D03*
X86500000Y-20000000D03*
%TD*%
D29*
%TO.C,J3*%
X4842500Y-24055000D03*
D30*
X4842500Y-20555000D03*
%TD*%
D23*
%TO.C,J9*%
X61450000Y-26250000D03*
%TD*%
%TO.C,J10*%
X61450000Y-27946667D03*
%TD*%
M02*
