%TF.GenerationSoftware,KiCad,Pcbnew,9.0.6*%
%TF.CreationDate,2026-03-19T20:59:03+01:00*%
%TF.ProjectId,ESP32_DALITester,45535033-325f-4444-914c-495465737465,rev?*%
%TF.SameCoordinates,Original*%
%TF.FileFunction,Soldermask,Top*%
%TF.FilePolarity,Negative*%
%FSLAX46Y46*%
G04 Gerber Fmt 4.6, Leading zero omitted, Abs format (unit mm)*
G04 Created by KiCad (PCBNEW 9.0.6) date 2026-03-19 20:59:03*
%MOMM*%
%LPD*%
G01*
G04 APERTURE LIST*
G04 Aperture macros list*
%AMRoundRect*
0 Rectangle with rounded corners*
0 $1 Rounding radius*
0 $2 $3 $4 $5 $6 $7 $8 $9 X,Y pos of 4 corners*
0 Add a 4 corners polygon primitive as box body*
4,1,4,$2,$3,$4,$5,$6,$7,$8,$9,$2,$3,0*
0 Add four circle primitives for the rounded corners*
1,1,$1+$1,$2,$3*
1,1,$1+$1,$4,$5*
1,1,$1+$1,$6,$7*
1,1,$1+$1,$8,$9*
0 Add four rect primitives between the rounded corners*
20,1,$1+$1,$2,$3,$4,$5,0*
20,1,$1+$1,$4,$5,$6,$7,0*
20,1,$1+$1,$6,$7,$8,$9,0*
20,1,$1+$1,$8,$9,$2,$3,0*%
G04 Aperture macros list end*
%ADD10RoundRect,0.237500X-0.300000X-0.237500X0.300000X-0.237500X0.300000X0.237500X-0.300000X0.237500X0*%
%ADD11RoundRect,0.250000X-1.500000X-0.550000X1.500000X-0.550000X1.500000X0.550000X-1.500000X0.550000X0*%
%ADD12RoundRect,0.237500X0.237500X-0.287500X0.237500X0.287500X-0.237500X0.287500X-0.237500X-0.287500X0*%
%ADD13RoundRect,0.237500X0.237500X-0.250000X0.237500X0.250000X-0.237500X0.250000X-0.237500X-0.250000X0*%
%ADD14RoundRect,0.237500X-0.237500X0.250000X-0.237500X-0.250000X0.237500X-0.250000X0.237500X0.250000X0*%
%ADD15RoundRect,0.249999X0.800001X0.525001X-0.800001X0.525001X-0.800001X-0.525001X0.800001X-0.525001X0*%
%ADD16RoundRect,0.150000X-0.512500X-0.150000X0.512500X-0.150000X0.512500X0.150000X-0.512500X0.150000X0*%
%ADD17RoundRect,0.237500X-0.250000X-0.237500X0.250000X-0.237500X0.250000X0.237500X-0.250000X0.237500X0*%
%ADD18C,3.500000*%
%ADD19RoundRect,0.150000X-0.150000X0.587500X-0.150000X-0.587500X0.150000X-0.587500X0.150000X0.587500X0*%
%ADD20RoundRect,0.250000X-0.900000X1.000000X-0.900000X-1.000000X0.900000X-1.000000X0.900000X1.000000X0*%
%ADD21RoundRect,0.250001X0.999999X-0.499999X0.999999X0.499999X-0.999999X0.499999X-0.999999X-0.499999X0*%
%ADD22RoundRect,0.150000X-0.150000X0.512500X-0.150000X-0.512500X0.150000X-0.512500X0.150000X0.512500X0*%
%ADD23RoundRect,0.250001X-0.462499X-0.624999X0.462499X-0.624999X0.462499X0.624999X-0.462499X0.624999X0*%
%ADD24RoundRect,0.150000X0.587500X0.150000X-0.587500X0.150000X-0.587500X-0.150000X0.587500X-0.150000X0*%
%ADD25RoundRect,0.150000X-0.587500X-0.150000X0.587500X-0.150000X0.587500X0.150000X-0.587500X0.150000X0*%
%ADD26RoundRect,0.225000X-0.375000X0.225000X-0.375000X-0.225000X0.375000X-0.225000X0.375000X0.225000X0*%
%ADD27RoundRect,0.062500X-0.350000X-0.062500X0.350000X-0.062500X0.350000X0.062500X-0.350000X0.062500X0*%
%ADD28R,1.200000X2.000000*%
%ADD29RoundRect,0.237500X-0.237500X0.287500X-0.237500X-0.287500X0.237500X-0.287500X0.237500X0.287500X0*%
%ADD30RoundRect,0.250001X0.499999X0.999999X-0.499999X0.999999X-0.499999X-0.999999X0.499999X-0.999999X0*%
%ADD31RoundRect,0.237500X0.250000X0.237500X-0.250000X0.237500X-0.250000X-0.237500X0.250000X-0.237500X0*%
%ADD32RoundRect,0.250000X0.625000X-0.400000X0.625000X0.400000X-0.625000X0.400000X-0.625000X-0.400000X0*%
%ADD33RoundRect,0.237500X0.237500X-0.300000X0.237500X0.300000X-0.237500X0.300000X-0.237500X-0.300000X0*%
%ADD34RoundRect,0.100000X0.225000X0.100000X-0.225000X0.100000X-0.225000X-0.100000X0.225000X-0.100000X0*%
%ADD35RoundRect,0.225000X0.375000X-0.225000X0.375000X0.225000X-0.375000X0.225000X-0.375000X-0.225000X0*%
%ADD36C,0.650000*%
%ADD37R,1.240000X0.600000*%
%ADD38R,1.240000X0.300000*%
%ADD39O,2.100000X1.000000*%
%ADD40O,1.800000X1.000000*%
%ADD41RoundRect,0.249999X-0.750001X-0.640001X0.750001X-0.640001X0.750001X0.640001X-0.750001X0.640001X0*%
%ADD42RoundRect,0.249999X0.750001X0.640001X-0.750001X0.640001X-0.750001X-0.640001X0.750001X-0.640001X0*%
%ADD43RoundRect,0.150000X0.512500X0.150000X-0.512500X0.150000X-0.512500X-0.150000X0.512500X-0.150000X0*%
%ADD44R,1.500000X0.900000*%
%ADD45R,0.900000X1.500000*%
%ADD46C,0.600000*%
%ADD47R,3.800000X3.800000*%
%ADD48RoundRect,0.225000X-0.225000X-0.375000X0.225000X-0.375000X0.225000X0.375000X-0.225000X0.375000X0*%
%ADD49RoundRect,0.237500X-0.237500X0.300000X-0.237500X-0.300000X0.237500X-0.300000X0.237500X0.300000X0*%
%ADD50RoundRect,0.120000X0.280000X0.780000X-0.280000X0.780000X-0.280000X-0.780000X0.280000X-0.780000X0*%
%ADD51RoundRect,0.237500X0.287500X0.237500X-0.287500X0.237500X-0.287500X-0.237500X0.287500X-0.237500X0*%
%ADD52RoundRect,0.150000X-0.150000X0.825000X-0.150000X-0.825000X0.150000X-0.825000X0.150000X0.825000X0*%
%ADD53O,3.500000X2.200000*%
%ADD54R,2.500000X1.500000*%
%ADD55O,2.500000X1.500000*%
%ADD56C,4.000000*%
%ADD57R,1.500000X1.500000*%
%ADD58C,1.500000*%
%ADD59O,2.300000X1.600000*%
%ADD60C,2.200000*%
%ADD61RoundRect,0.250000X1.550000X-0.650000X1.550000X0.650000X-1.550000X0.650000X-1.550000X-0.650000X0*%
%ADD62O,3.600000X1.800000*%
G04 APERTURE END LIST*
D10*
%TO.C,C3*%
X35650000Y-13300000D03*
X37375000Y-13300000D03*
%TD*%
D11*
%TO.C,C2*%
X16580000Y-8687500D03*
X21980000Y-8687500D03*
%TD*%
D12*
%TO.C,D3*%
X38215000Y-38975000D03*
X38215000Y-37225000D03*
%TD*%
D13*
%TO.C,R13*%
X52960000Y-42742500D03*
X52960000Y-40917500D03*
%TD*%
D14*
%TO.C,R21*%
X85850000Y-28195000D03*
X85850000Y-30020000D03*
%TD*%
D15*
%TO.C,D1*%
X11240000Y-33842500D03*
X11240000Y-31302500D03*
X4740000Y-31302500D03*
X4740000Y-33842500D03*
%TD*%
D16*
%TO.C,U10*%
X25450000Y-7117500D03*
X25450000Y-8067500D03*
X25450000Y-9017500D03*
X27725000Y-9017500D03*
X27725000Y-8067500D03*
X27725000Y-7117500D03*
%TD*%
D17*
%TO.C,R11*%
X16195000Y-30400000D03*
X18020000Y-30400000D03*
%TD*%
D18*
%TO.C,J6*%
X64450000Y-39350000D03*
%TD*%
D14*
%TO.C,R9*%
X36355000Y-37185000D03*
X36355000Y-39010000D03*
%TD*%
D10*
%TO.C,C5*%
X55220000Y-28690000D03*
X56945000Y-28690000D03*
%TD*%
D19*
%TO.C,Q4*%
X17920000Y-32487500D03*
X16020000Y-32487500D03*
X16970000Y-34362500D03*
%TD*%
D18*
%TO.C,J4*%
X3250000Y-39350000D03*
%TD*%
D20*
%TO.C,D13*%
X9140000Y-19740000D03*
X9140000Y-24040000D03*
%TD*%
D21*
%TO.C,L1*%
X43140000Y-42135000D03*
X43140000Y-38435000D03*
%TD*%
D22*
%TO.C,U9*%
X80440000Y-27975000D03*
X79490000Y-27975000D03*
X78540000Y-27975000D03*
X78540000Y-30250000D03*
X80440000Y-30250000D03*
%TD*%
D23*
%TO.C,F1*%
X4982500Y-28040000D03*
X7957500Y-28040000D03*
%TD*%
D24*
%TO.C,Q7*%
X29185000Y-23630000D03*
X29185000Y-21730000D03*
X27310000Y-22680000D03*
%TD*%
D25*
%TO.C,Q6*%
X12232500Y-9970000D03*
X12232500Y-11870000D03*
X14107500Y-10920000D03*
%TD*%
D17*
%TO.C,R12*%
X30507500Y-33550000D03*
X32332500Y-33550000D03*
%TD*%
%TO.C,R10*%
X16207500Y-28700000D03*
X18032500Y-28700000D03*
%TD*%
D26*
%TO.C,D5*%
X23270000Y-18102500D03*
X23270000Y-21402500D03*
%TD*%
D27*
%TO.C,U7*%
X46815000Y-39160000D03*
X46815000Y-39660000D03*
X46815000Y-40160000D03*
X46815000Y-40660000D03*
X46815000Y-41160000D03*
X49240000Y-41160000D03*
X49240000Y-40660000D03*
X49240000Y-40160000D03*
X49240000Y-39660000D03*
X49240000Y-39160000D03*
D28*
X48027500Y-40160000D03*
%TD*%
D12*
%TO.C,D10*%
X27040000Y-19912500D03*
X27040000Y-18162500D03*
%TD*%
D29*
%TO.C,D8*%
X84190000Y-24800000D03*
X84190000Y-26550000D03*
%TD*%
D10*
%TO.C,C6*%
X79017500Y-42940000D03*
X80742500Y-42940000D03*
%TD*%
D30*
%TO.C,L2*%
X28615000Y-3657500D03*
X24915000Y-3657500D03*
%TD*%
D31*
%TO.C,R3*%
X37405000Y-14910000D03*
X35580000Y-14910000D03*
%TD*%
D13*
%TO.C,R6*%
X14420000Y-37925000D03*
X14420000Y-36100000D03*
%TD*%
%TO.C,R18*%
X82320000Y-30005000D03*
X82320000Y-28180000D03*
%TD*%
D32*
%TO.C,R17*%
X9740000Y-11900000D03*
X9740000Y-8800000D03*
%TD*%
D31*
%TO.C,R4*%
X37410000Y-18370000D03*
X35585000Y-18370000D03*
%TD*%
D24*
%TO.C,Q5*%
X32320000Y-29950000D03*
X32320000Y-28050000D03*
X30445000Y-29000000D03*
%TD*%
D31*
%TO.C,R24*%
X80835000Y-34980000D03*
X79010000Y-34980000D03*
%TD*%
%TO.C,R23*%
X35560000Y-3430000D03*
X33735000Y-3430000D03*
%TD*%
D33*
%TO.C,C9*%
X51240000Y-41220000D03*
X51240000Y-39495000D03*
%TD*%
D34*
%TO.C,U4*%
X17970000Y-37650000D03*
X17970000Y-37000000D03*
X17970000Y-36350000D03*
X16070000Y-36350000D03*
X16070000Y-37650000D03*
%TD*%
D13*
%TO.C,R15*%
X24180000Y-12690000D03*
X24180000Y-10865000D03*
%TD*%
%TO.C,R19*%
X84200000Y-30025000D03*
X84200000Y-28200000D03*
%TD*%
D35*
%TO.C,D7*%
X9050000Y-6645000D03*
X9050000Y-3345000D03*
%TD*%
D24*
%TO.C,Q2*%
X57275000Y-32380000D03*
X57275000Y-30480000D03*
X55400000Y-31430000D03*
%TD*%
D25*
%TO.C,Q1*%
X59625000Y-30470000D03*
X59625000Y-32370000D03*
X61500000Y-31420000D03*
%TD*%
D36*
%TO.C,J1*%
X84820000Y-42070000D03*
X84820000Y-36290000D03*
D37*
X83700000Y-42380000D03*
X83700000Y-41580000D03*
D38*
X83700000Y-40430000D03*
X83700000Y-39430000D03*
X83700000Y-38930000D03*
X83700000Y-37930000D03*
D37*
X83700000Y-36780000D03*
X83700000Y-35980000D03*
X83700000Y-35980000D03*
X83700000Y-36780000D03*
D38*
X83700000Y-37430000D03*
X83700000Y-38430000D03*
X83700000Y-39930000D03*
X83700000Y-40930000D03*
D37*
X83700000Y-41580000D03*
X83700000Y-42380000D03*
D39*
X84300000Y-43500000D03*
D40*
X88500000Y-43500000D03*
D39*
X84300000Y-34860000D03*
D40*
X88500000Y-34860000D03*
%TD*%
D41*
%TO.C,U5*%
X20300000Y-35830000D03*
X20300000Y-38370000D03*
X27920000Y-38370000D03*
X27920000Y-35830000D03*
%TD*%
D42*
%TO.C,U6*%
X27920000Y-32100000D03*
X27920000Y-29560000D03*
X20300000Y-29560000D03*
X20300000Y-32100000D03*
%TD*%
D18*
%TO.C,J5*%
X64450000Y-5250000D03*
%TD*%
D31*
%TO.C,R16*%
X15520000Y-3380000D03*
X13695000Y-3380000D03*
%TD*%
D10*
%TO.C,C10*%
X47500000Y-37520000D03*
X49225000Y-37520000D03*
%TD*%
D17*
%TO.C,R2*%
X54700000Y-40920000D03*
X56525000Y-40920000D03*
%TD*%
D31*
%TO.C,R25*%
X80832500Y-33370000D03*
X79007500Y-33370000D03*
%TD*%
D43*
%TO.C,U8*%
X81250000Y-39990000D03*
X81250000Y-39040000D03*
X81250000Y-38090000D03*
X78975000Y-38090000D03*
X78975000Y-39040000D03*
X78975000Y-39990000D03*
%TD*%
D44*
%TO.C,U1*%
X42000000Y-8000000D03*
X42000000Y-9270000D03*
X42000000Y-10540000D03*
X42000000Y-11810000D03*
X42000000Y-13080000D03*
X42000000Y-14350000D03*
X42000000Y-15620000D03*
X42000000Y-16890000D03*
X42000000Y-18160000D03*
X42000000Y-19430000D03*
X42000000Y-20700000D03*
X42000000Y-21970000D03*
X42000000Y-23240000D03*
X42000000Y-24510000D03*
D45*
X45040000Y-25760000D03*
X46310000Y-25760000D03*
X47580000Y-25760000D03*
X48850000Y-25760000D03*
X50120000Y-25760000D03*
X51390000Y-25760000D03*
X52660000Y-25760000D03*
X53930000Y-25760000D03*
X55200000Y-25760000D03*
X56470000Y-25760000D03*
D44*
X59500000Y-24510000D03*
X59500000Y-23240000D03*
X59500000Y-21970000D03*
X59500000Y-20700000D03*
X59500000Y-19430000D03*
X59500000Y-18160000D03*
X59500000Y-16890000D03*
X59500000Y-15620000D03*
X59500000Y-14350000D03*
X59500000Y-13080000D03*
X59500000Y-11810000D03*
X59500000Y-10540000D03*
X59500000Y-9270000D03*
X59500000Y-8000000D03*
D46*
X47850000Y-15020000D03*
X47850000Y-16420000D03*
X48550000Y-14320000D03*
X48550000Y-15720000D03*
X48550000Y-17120000D03*
X49225000Y-15020000D03*
X49225000Y-16420000D03*
D47*
X49250000Y-15720000D03*
D46*
X49950000Y-14320000D03*
X49950000Y-15720000D03*
X49950000Y-17120000D03*
X50650000Y-15020000D03*
X50650000Y-16420000D03*
%TD*%
D14*
%TO.C,R20*%
X25840000Y-10865000D03*
X25840000Y-12690000D03*
%TD*%
D48*
%TO.C,D4*%
X19440000Y-2107500D03*
X22740000Y-2107500D03*
%TD*%
D14*
%TO.C,R22*%
X25370000Y-18135000D03*
X25370000Y-19960000D03*
%TD*%
D24*
%TO.C,D2*%
X12020000Y-38300000D03*
X12020000Y-36400000D03*
X10145000Y-37350000D03*
%TD*%
D31*
%TO.C,R7*%
X32332500Y-35300000D03*
X30507500Y-35300000D03*
%TD*%
D49*
%TO.C,C7*%
X76800000Y-27865000D03*
X76800000Y-29590000D03*
%TD*%
D11*
%TO.C,C11*%
X44880000Y-32870000D03*
X50280000Y-32870000D03*
%TD*%
D17*
%TO.C,R14*%
X30507500Y-31800000D03*
X32332500Y-31800000D03*
%TD*%
D31*
%TO.C,R5*%
X37395000Y-16790000D03*
X35570000Y-16790000D03*
%TD*%
D12*
%TO.C,D9*%
X85850000Y-26505000D03*
X85850000Y-24755000D03*
%TD*%
D14*
%TO.C,R1*%
X38025000Y-9200000D03*
X38025000Y-11025000D03*
%TD*%
D33*
%TO.C,C8*%
X39675000Y-9200000D03*
X39675000Y-7475000D03*
%TD*%
D14*
%TO.C,R8*%
X34420000Y-37187500D03*
X34420000Y-39012500D03*
%TD*%
D50*
%TO.C,K1*%
X20540000Y-15322500D03*
X17340000Y-15322500D03*
X15140000Y-15322500D03*
X12940000Y-15322500D03*
X12940000Y-22322500D03*
X15140000Y-22322500D03*
X17340000Y-22322500D03*
X20540000Y-22322500D03*
%TD*%
D18*
%TO.C,J2*%
X3250000Y-5250000D03*
%TD*%
D25*
%TO.C,Q3*%
X30482500Y-37150000D03*
X30482500Y-39050000D03*
X32357500Y-38100000D03*
%TD*%
D51*
%TO.C,D11*%
X35525000Y-5050000D03*
X33775000Y-5050000D03*
%TD*%
D33*
%TO.C,C13*%
X31190000Y-6945000D03*
X31190000Y-5220000D03*
%TD*%
D52*
%TO.C,U3*%
X77205000Y-36375000D03*
X75935000Y-36375000D03*
X74665000Y-36375000D03*
X73395000Y-36375000D03*
X72125000Y-36375000D03*
X70855000Y-36375000D03*
X69585000Y-36375000D03*
X68315000Y-36375000D03*
X68315000Y-41325000D03*
X69585000Y-41325000D03*
X70855000Y-41325000D03*
X72125000Y-41325000D03*
X73395000Y-41325000D03*
X74665000Y-41325000D03*
X75935000Y-41325000D03*
X77205000Y-41325000D03*
%TD*%
D26*
%TO.C,D6*%
X11530000Y-3340000D03*
X11530000Y-6640000D03*
%TD*%
D10*
%TO.C,C12*%
X20347500Y-4197500D03*
X22072500Y-4197500D03*
%TD*%
D53*
%TO.C,SW1*%
X85950000Y-2800000D03*
X85950000Y-11000000D03*
D54*
X85950000Y-4900000D03*
D55*
X85950000Y-6900000D03*
X85950000Y-8900000D03*
%TD*%
D56*
%TO.C,U2*%
X64470000Y-39350000D03*
X64470000Y-5250000D03*
X3270000Y-39350000D03*
X3270000Y-5250000D03*
D57*
X65970000Y-12140000D03*
D58*
X65970000Y-14680000D03*
X65970000Y-17220000D03*
X65970000Y-19760000D03*
X65970000Y-22300000D03*
X65970000Y-24840000D03*
X65970000Y-27380000D03*
X65970000Y-29920000D03*
X65970000Y-32460000D03*
%TD*%
D59*
%TO.C,SW5*%
X75000000Y-22500000D03*
D60*
X79500000Y-22500000D03*
%TD*%
D61*
%TO.C,J3*%
X4842500Y-24055000D03*
D62*
X4842500Y-20555000D03*
%TD*%
M02*
